<svg xmlns="http://www.w3.org/2000/svg" xmlns:xlink="http://www.w3.org/1999/xlink" width="40" zoomAndPan="magnify" viewBox="0 0 30 30.000001" height="40" preserveAspectRatio="xMidYMid meet" version="1.0"><defs><clipPath id="97002c596f"><path d="M 0.484375 0 L 29.515625 0 L 29.515625 28.507812 L 0.484375 28.507812 Z M 0.484375 0 " clip-rule="nonzero"/></clipPath><clipPath id="cb6c9d5ee4"><path d="M 13.207031 28.402344 L 13.207031 27.273438 C 13.207031 20.835938 13.199219 14.402344 13.21875 7.964844 C 13.21875 7.394531 13.0625 7.09375 12.535156 6.835938 C 10.695312 5.914062 8.914062 4.871094 7.054688 3.976562 C 6.40625 3.667969 5.632812 3.554688 4.910156 3.519531 C 4.101562 3.476562 3.636719 3.933594 3.816406 4.699219 C 4.167969 6.214844 4.597656 7.722656 5.210938 9.144531 C 5.453125 9.703125 6.253906 10.082031 6.855469 10.417969 C 7.300781 10.667969 7.527344 10.898438 7.5 11.414062 C 7.464844 12.292969 7.492188 13.171875 7.492188 14.214844 C 5.667969 13.378906 3.765625 12.863281 2.59375 11.226562 C 0.984375 8.988281 0.363281 6.429688 0.5 3.675781 C 0.628906 1.238281 2.300781 0.0429688 4.546875 0.015625 C 7.105469 -0.015625 9.472656 0.757812 11.640625 2.117188 C 11.898438 2.28125 12.191406 2.402344 12.398438 2.617188 C 13.378906 3.683594 14.65625 3.605469 15.921875 3.519531 C 16.222656 3.503906 16.550781 3.339844 16.796875 3.152344 C 18.984375 1.488281 21.414062 0.386719 24.160156 0.0703125 C 27.722656 -0.34375 29.644531 1.214844 29.507812 4.804688 C 29.480469 5.378906 29.417969 5.957031 29.289062 6.515625 C 29.066406 7.445312 28.808594 8.386719 28.488281 9.289062 C 27.828125 11.140625 26.578125 12.476562 24.746094 13.234375 C 24.039062 13.523438 23.351562 13.871094 22.523438 14.25 C 22.523438 13.121094 22.496094 12.097656 22.550781 11.0625 C 22.558594 10.863281 22.824219 10.597656 23.039062 10.519531 C 24.367188 10.019531 25.140625 9.074219 25.476562 7.714844 C 25.667969 6.9375 25.925781 6.179688 26.113281 5.414062 C 26.484375 3.917969 25.8125 3.160156 24.324219 3.582031 C 23.101562 3.925781 21.9375 4.539062 20.785156 5.097656 C 19.675781 5.628906 18.613281 6.292969 17.503906 6.828125 C 16.953125 7.09375 16.773438 7.421875 16.773438 8.023438 C 16.796875 14.464844 16.789062 20.894531 16.789062 27.335938 C 16.789062 28.410156 16.789062 28.410156 15.722656 28.410156 C 14.929688 28.410156 14.136719 28.410156 13.226562 28.410156 " clip-rule="nonzero"/></clipPath><clipPath id="71a88707b6"><path d="M 0.484375 0 L 29.515625 0 L 29.515625 28.507812 L 0.484375 28.507812 Z M 0.484375 0 " clip-rule="nonzero"/></clipPath><clipPath id="57acf0a02f"><path d="M 13.207031 28.402344 L 13.207031 27.273438 C 13.207031 20.835938 13.199219 14.402344 13.21875 7.964844 C 13.21875 7.394531 13.0625 7.09375 12.535156 6.835938 C 10.695312 5.914062 8.914062 4.871094 7.054688 3.976562 C 6.40625 3.667969 5.632812 3.554688 4.910156 3.519531 C 4.101562 3.476562 3.636719 3.933594 3.816406 4.699219 C 4.167969 6.214844 4.597656 7.722656 5.210938 9.144531 C 5.453125 9.703125 6.253906 10.082031 6.855469 10.417969 C 7.300781 10.667969 7.527344 10.898438 7.5 11.414062 C 7.464844 12.292969 7.492188 13.171875 7.492188 14.214844 C 5.667969 13.378906 3.765625 12.863281 2.59375 11.226562 C 0.984375 8.988281 0.363281 6.429688 0.5 3.675781 C 0.628906 1.238281 2.300781 0.0429688 4.546875 0.015625 C 7.105469 -0.015625 9.472656 0.757812 11.640625 2.117188 C 11.898438 2.28125 12.191406 2.402344 12.398438 2.617188 C 13.378906 3.683594 14.65625 3.605469 15.921875 3.519531 C 16.222656 3.503906 16.550781 3.339844 16.796875 3.152344 C 18.984375 1.488281 21.414062 0.386719 24.160156 0.0703125 C 27.722656 -0.34375 29.644531 1.214844 29.507812 4.804688 C 29.480469 5.378906 29.417969 5.957031 29.289062 6.515625 C 29.066406 7.445312 28.808594 8.386719 28.488281 9.289062 C 27.828125 11.140625 26.578125 12.476562 24.746094 13.234375 C 24.039062 13.523438 23.351562 13.871094 22.523438 14.25 C 22.523438 13.121094 22.496094 12.097656 22.550781 11.0625 C 22.558594 10.863281 22.824219 10.597656 23.039062 10.519531 C 24.367188 10.019531 25.140625 9.074219 25.476562 7.714844 C 25.667969 6.9375 25.925781 6.179688 26.113281 5.414062 C 26.484375 3.917969 25.8125 3.160156 24.324219 3.582031 C 23.101562 3.925781 21.9375 4.539062 20.785156 5.097656 C 19.675781 5.628906 18.613281 6.292969 17.503906 6.828125 C 16.953125 7.09375 16.773438 7.421875 16.773438 8.023438 C 16.796875 14.464844 16.789062 20.894531 16.789062 27.335938 C 16.789062 28.410156 16.789062 28.410156 15.722656 28.410156 C 14.929688 28.410156 14.136719 28.410156 13.226562 28.410156 " clip-rule="nonzero"/></clipPath><clipPath id="e064e8cd45"><rect x="0" width="30" y="0" height="29"/></clipPath></defs><g clip-path="url(#97002c596f)"><g clip-path="url(#cb6c9d5ee4)"><g transform="matrix(1, 0, 0, 1, 0, 0.000000000000005692)"><g clip-path="url(#e064e8cd45)"><g clip-path="url(#71a88707b6)"><g clip-path="url(#57acf0a02f)"><path fill="#b71419" d="M 0.484375 0 L 29.546875 0 L 29.546875 28.398438 L 0.484375 28.398438 Z M 0.484375 0 " fill-opacity="1" fill-rule="nonzero"/></g></g></g></g></g></g></svg>