<svg xmlns="http://www.w3.org/2000/svg" xmlns:xlink="http://www.w3.org/1999/xlink" width="226" zoomAndPan="magnify" viewBox="0 0 169.5 80.249996" height="107" preserveAspectRatio="xMidYMid meet" version="1.0"><defs><g/><clipPath id="232d1fd8b6"><path d="M 0.535156 0 L 168.46875 0 L 168.46875 79.507812 L 0.535156 79.507812 Z M 0.535156 0 " clip-rule="nonzero"/></clipPath><clipPath id="8e8551fbd4"><path d="M 0.535156 0 L 168.257812 0 L 168.257812 79.363281 L 0.535156 79.363281 Z M 0.535156 0 " clip-rule="nonzero"/></clipPath><clipPath id="56dc9e6eea"><path d="M 166.191406 31.023438 C 156.148438 28.25 148.269531 21.597656 144.847656 18.316406 C 141.484375 15.09375 137.855469 12.15625 133.945312 9.621094 C 127.542969 5.464844 118.433594 0.816406 108.925781 0.078125 C 91.210938 -1.296875 84.9375 15.683594 84.9375 15.683594 C 84.9375 15.683594 78.792969 -0.351562 61.078125 1.023438 C 51.570312 1.761719 42.460938 6.410156 36.058594 10.5625 C 32.152344 13.097656 28.519531 16.035156 25.160156 19.257812 C 21.492188 22.773438 12.722656 30.152344 1.65625 32.496094 C 0.566406 32.726562 0.164062 34.074219 0.949219 34.863281 C 9.839844 43.777344 48.78125 78.933594 85.054688 79.214844 C 124.53125 79.519531 155.84375 46.261719 167.292969 35.523438 C 168.804688 34.105469 168.1875 31.578125 166.191406 31.023438 " clip-rule="nonzero"/></clipPath><clipPath id="c940425f93"><path d="M 0.535156 0 L 168.257812 0 L 168.257812 79.363281 L 0.535156 79.363281 Z M 0.535156 0 " clip-rule="nonzero"/></clipPath><clipPath id="26714d0eb6"><path d="M 166.191406 31.023438 C 156.148438 28.25 148.269531 21.597656 144.847656 18.316406 C 141.484375 15.09375 137.855469 12.15625 133.945312 9.621094 C 127.542969 5.464844 118.433594 0.816406 108.925781 0.078125 C 91.210938 -1.296875 84.9375 15.683594 84.9375 15.683594 C 84.9375 15.683594 78.792969 -0.351562 61.078125 1.023438 C 51.570312 1.761719 42.460938 6.410156 36.058594 10.5625 C 32.152344 13.097656 28.519531 16.035156 25.160156 19.257812 C 21.492188 22.773438 12.722656 30.152344 1.65625 32.496094 C 0.566406 32.726562 0.164062 34.074219 0.949219 34.863281 C 9.839844 43.777344 48.78125 78.933594 85.054688 79.214844 C 124.53125 79.519531 155.84375 46.261719 167.292969 35.523438 C 168.804688 34.105469 168.1875 31.578125 166.191406 31.023438 " clip-rule="nonzero"/></clipPath><clipPath id="77bceec329"><rect x="0" width="169" y="0" height="80"/></clipPath><clipPath id="36af0fb5b5"><rect x="0" width="122" y="0" height="31"/></clipPath><clipPath id="d894fcf81d"><rect x="0" width="169" y="0" height="80"/></clipPath></defs><g clip-path="url(#232d1fd8b6)"><g transform="matrix(1, 0, 0, 1, 0, -0.000000000000000824)"><g clip-path="url(#d894fcf81d)"><g clip-path="url(#8e8551fbd4)"><g clip-path="url(#56dc9e6eea)"><g transform="matrix(1, 0, 0, 1, 0, -0.000000000000000824)"><g clip-path="url(#77bceec329)"><g clip-path="url(#c940425f93)"><g clip-path="url(#26714d0eb6)"><path fill="#c41323" d="M 0.535156 0 L 168.113281 0 L 168.113281 79.21875 L 0.535156 79.21875 Z M 0.535156 0 " fill-opacity="1" fill-rule="nonzero"/></g></g></g></g></g></g><g transform="matrix(1, 0, 0, 1, 25, 24)"><g clip-path="url(#36af0fb5b5)"><g fill="#c41323" fill-opacity="1"><g transform="translate(1.82475, 23.524274)"><g><path d="M 3.976562 -17.253906 L 7.378906 -17.253906 L 3.96875 0.167969 L 0.429688 0.167969 L 3.839844 -17.253906 Z M 3.976562 -16.917969 L 3.976562 -17.085938 L 4.144531 -17.054688 L 0.800781 0.03125 L 0.632812 0 L 0.632812 -0.167969 L 3.832031 -0.167969 L 3.832031 0 L 3.667969 -0.03125 L 7.011719 -17.117188 L 7.175781 -17.085938 L 7.175781 -16.917969 Z M 3.976562 -16.917969 "/></g></g></g><g fill="#c41323" fill-opacity="1"><g transform="translate(9.633622, 23.524274)"><g><path d="M 11.183594 -5.839844 L 13.40625 -17.253906 L 16.949219 -17.253906 L 13.539062 0.167969 L 9.914062 0.167969 L 5.871094 -11.21875 L 6.027344 -11.277344 L 6.195312 -11.246094 L 3.96875 0.167969 L 0.429688 0.167969 L 3.839844 -17.253906 L 7.464844 -17.253906 L 11.507812 -5.863281 L 11.347656 -5.808594 Z M 11.398438 -5.175781 L 7.1875 -17.027344 L 7.347656 -17.085938 L 7.347656 -16.917969 L 3.976562 -16.917969 L 3.976562 -17.085938 L 4.144531 -17.054688 L 0.800781 0.03125 L 0.632812 0 L 0.632812 -0.167969 L 3.832031 -0.167969 L 3.832031 0 L 3.667969 -0.03125 L 5.980469 -11.910156 L 10.191406 -0.0546875 L 10.03125 0 L 10.03125 -0.167969 L 13.398438 -0.167969 L 13.398438 0 L 13.234375 -0.03125 L 16.578125 -17.117188 L 16.742188 -17.085938 L 16.742188 -16.917969 L 13.546875 -16.917969 L 13.546875 -17.085938 L 13.710938 -17.054688 L 11.515625 -5.777344 Z M 11.398438 -5.175781 "/></g></g></g><g fill="#c41323" fill-opacity="1"><g transform="translate(27.008367, 23.524274)"><g><path d="M 16.882812 -11.722656 L 13.710938 -10.949219 L 13.675781 -11.121094 C 13.453125 -12.191406 13.0625 -12.96875 12.496094 -13.457031 C 11.933594 -13.941406 11.160156 -14.183594 10.179688 -14.183594 C 8.472656 -14.183594 7.0625 -13.480469 5.941406 -12.074219 C 4.824219 -10.671875 4.269531 -9.074219 4.269531 -7.273438 C 4.269531 -5.867188 4.597656 -4.785156 5.253906 -4.027344 C 5.902344 -3.277344 6.789062 -2.902344 7.90625 -2.902344 C 8.878906 -2.902344 9.714844 -3.152344 10.410156 -3.652344 C 11.113281 -4.15625 11.765625 -4.984375 12.371094 -6.132812 L 12.4375 -6.253906 L 15.554688 -5.28125 L 15.484375 -5.109375 C 14.6875 -3.222656 13.636719 -1.839844 12.320312 -0.957031 C 11.007812 -0.078125 9.347656 0.363281 7.347656 0.363281 C 5.460938 0.363281 3.875 -0.3125 2.585938 -1.667969 C 1.320312 -3 0.6875 -4.78125 0.6875 -7.003906 C 0.6875 -9.863281 1.628906 -12.316406 3.511719 -14.367188 C 5.417969 -16.421875 7.828125 -17.449219 10.738281 -17.449219 C 12.574219 -17.449219 14.035156 -16.929688 15.125 -15.886719 C 16.214844 -14.851562 16.839844 -13.523438 17.007812 -11.902344 L 17.023438 -11.757812 Z M 16.800781 -12.050781 L 16.839844 -11.886719 L 16.675781 -11.871094 C 16.515625 -13.40625 15.921875 -14.664062 14.894531 -15.644531 C 13.871094 -16.625 12.484375 -17.113281 10.738281 -17.113281 C 7.925781 -17.113281 5.597656 -16.121094 3.761719 -14.140625 C 1.933594 -12.15625 1.023438 -9.777344 1.023438 -7.003906 C 1.023438 -4.871094 1.625 -3.167969 2.832031 -1.898438 C 4.050781 -0.613281 5.554688 0.0273438 7.347656 0.0273438 C 9.28125 0.0273438 10.878906 -0.394531 12.132812 -1.238281 C 13.390625 -2.082031 14.40625 -3.414062 15.171875 -5.238281 L 15.328125 -5.175781 L 15.277344 -5.015625 L 12.472656 -5.894531 L 12.519531 -6.054688 L 12.667969 -5.976562 C 12.039062 -4.78125 11.351562 -3.914062 10.605469 -3.378906 C 9.851562 -2.835938 8.953125 -2.566406 7.90625 -2.566406 C 6.683594 -2.566406 5.714844 -2.980469 5 -3.808594 C 4.289062 -4.628906 3.933594 -5.785156 3.933594 -7.273438 C 3.933594 -9.152344 4.515625 -10.820312 5.679688 -12.285156 C 6.867188 -13.773438 8.367188 -14.519531 10.179688 -14.519531 C 11.246094 -14.519531 12.089844 -14.25 12.714844 -13.710938 C 13.339844 -13.171875 13.769531 -12.332031 14.003906 -11.1875 L 13.839844 -11.152344 L 13.800781 -11.316406 Z M 16.800781 -12.050781 "/></g></g></g><g fill="#c41323" fill-opacity="1"><g transform="translate(43.943855, 23.524274)"><g><path d="M 0.46875 -0.03125 L 3.839844 -17.253906 L 7.378906 -17.253906 L 4.582031 -2.898438 L 4.417969 -2.929688 L 4.417969 -3.097656 L 11.601562 -3.097656 L 10.949219 0.167969 L 0.429688 0.167969 Z M 0.800781 0.03125 L 0.632812 0 L 0.632812 -0.167969 L 10.8125 -0.167969 L 10.8125 0 L 10.648438 -0.03125 L 11.234375 -2.960938 L 11.398438 -2.929688 L 11.398438 -2.761719 L 4.214844 -2.761719 L 7.011719 -17.117188 L 7.175781 -17.085938 L 7.175781 -16.917969 L 3.976562 -16.917969 L 3.976562 -17.085938 L 4.144531 -17.054688 Z M 0.800781 0.03125 "/></g></g></g><g fill="#c41323" fill-opacity="1"><g transform="translate(56.58447, 23.524274)"><g><path d="M 12.9375 -17.253906 L 16.359375 -17.253906 L 14.273438 -6.460938 C 13.792969 -4.046875 12.921875 -2.304688 11.664062 -1.238281 C 10.40625 -0.171875 8.699219 0.363281 6.542969 0.363281 C 4.949219 0.363281 3.671875 -0.0898438 2.703125 -1 C 1.734375 -1.914062 1.246094 -3.164062 1.246094 -4.757812 C 1.246094 -5.242188 1.3125 -5.828125 1.445312 -6.523438 L 3.523438 -17.253906 L 7.0625 -17.253906 L 4.972656 -6.410156 C 4.878906 -5.917969 4.828125 -5.496094 4.828125 -5.148438 C 4.828125 -4.429688 5.019531 -3.875 5.402344 -3.484375 C 5.785156 -3.097656 6.351562 -2.902344 7.101562 -2.902344 C 9.042969 -2.902344 10.25 -4.09375 10.722656 -6.476562 L 12.796875 -17.253906 Z M 12.9375 -16.917969 L 12.9375 -17.085938 L 13.101562 -17.054688 L 11.050781 -6.410156 C 10.542969 -3.847656 9.226562 -2.566406 7.101562 -2.566406 C 6.257812 -2.566406 5.613281 -2.792969 5.164062 -3.25 C 4.71875 -3.707031 4.492188 -4.339844 4.492188 -5.148438 C 4.492188 -5.519531 4.542969 -5.960938 4.644531 -6.476562 L 6.695312 -17.117188 L 6.859375 -17.085938 L 6.859375 -16.917969 L 3.660156 -16.917969 L 3.660156 -17.085938 L 3.824219 -17.054688 L 1.777344 -6.460938 C 1.648438 -5.789062 1.582031 -5.222656 1.582031 -4.757812 C 1.582031 -3.261719 2.035156 -2.089844 2.933594 -1.246094 C 3.835938 -0.398438 5.039062 0.0273438 6.542969 0.0273438 C 8.617188 0.0273438 10.25 -0.480469 11.449219 -1.496094 C 12.648438 -2.511719 13.480469 -4.1875 13.941406 -6.523438 L 15.992188 -17.117188 L 16.15625 -17.085938 L 16.15625 -16.917969 Z M 12.9375 -16.917969 "/></g></g></g><g fill="#c41323" fill-opacity="1"><g transform="translate(73.202731, 23.524274)"><g><path d="M 3.976562 -17.253906 L 7.378906 -17.253906 L 3.96875 0.167969 L 0.429688 0.167969 L 3.839844 -17.253906 Z M 3.976562 -16.917969 L 3.976562 -17.085938 L 4.144531 -17.054688 L 0.800781 0.03125 L 0.632812 0 L 0.632812 -0.167969 L 3.832031 -0.167969 L 3.832031 0 L 3.667969 -0.03125 L 7.011719 -17.117188 L 7.175781 -17.085938 L 7.175781 -16.917969 Z M 5.980469 -18.285156 L 3.359375 -18.285156 L 5.839844 -22.230469 L 10.472656 -22.230469 L 6.042969 -18.285156 Z M 5.980469 -18.621094 L 5.980469 -18.453125 L 5.867188 -18.578125 L 9.917969 -22.191406 L 10.03125 -22.0625 L 10.03125 -21.898438 L 5.929688 -21.898438 L 5.929688 -22.0625 L 6.074219 -21.976562 L 3.804688 -18.363281 L 3.660156 -18.453125 L 3.660156 -18.621094 Z M 5.980469 -18.621094 "/></g></g></g><g fill="#c41323" fill-opacity="1"><g transform="translate(81.011604, 23.524274)"><g><path d="M 5.832031 0.167969 L 0.429688 0.167969 L 3.839844 -17.253906 L 8.835938 -17.253906 C 10.914062 -17.253906 12.597656 -16.644531 13.882812 -15.425781 C 15.203125 -14.207031 15.863281 -12.472656 15.863281 -10.226562 C 15.863281 -7.007812 14.933594 -4.46875 13.078125 -2.613281 C 11.242188 -0.761719 8.824219 0.167969 5.832031 0.167969 Z M 5.832031 -0.167969 C 8.730469 -0.167969 11.066406 -1.0625 12.839844 -2.851562 C 14.632812 -4.640625 15.527344 -7.101562 15.527344 -10.226562 C 15.527344 -12.375 14.902344 -14.027344 13.648438 -15.183594 C 12.429688 -16.339844 10.824219 -16.917969 8.835938 -16.917969 L 3.976562 -16.917969 L 3.976562 -17.085938 L 4.144531 -17.054688 L 0.800781 0.03125 L 0.632812 0 L 0.632812 -0.167969 Z M 6.753906 -14.125 L 4.582031 -2.898438 L 4.417969 -2.929688 L 4.417969 -3.097656 L 5.761719 -3.097656 C 7.777344 -3.097656 9.355469 -3.699219 10.496094 -4.898438 C 11.652344 -6.105469 12.230469 -7.707031 12.230469 -9.714844 C 12.230469 -11.226562 11.855469 -12.316406 11.105469 -12.980469 C 10.347656 -13.652344 9.230469 -13.988281 7.761719 -13.988281 L 6.589844 -13.988281 L 6.589844 -14.15625 Z M 6.453125 -14.324219 L 7.761719 -14.324219 C 9.316406 -14.324219 10.503906 -13.960938 11.328125 -13.230469 C 12.152344 -12.5 12.566406 -11.328125 12.566406 -9.714844 C 12.566406 -7.617188 11.957031 -5.9375 10.738281 -4.667969 C 9.535156 -3.398438 7.875 -2.761719 5.761719 -2.761719 L 4.214844 -2.761719 L 6.425781 -14.1875 Z M 6.453125 -14.324219 "/></g></g></g><g fill="#c41323" fill-opacity="1"><g transform="translate(97.605457, 23.524274)"><g><path d="M 7.542969 0.363281 C 5.609375 0.363281 3.984375 -0.269531 2.667969 -1.539062 C 1.347656 -2.808594 0.6875 -4.621094 0.6875 -6.980469 C 0.6875 -9.867188 1.488281 -12.265625 3.09375 -14.167969 C 4.917969 -16.355469 7.308594 -17.449219 10.277344 -17.449219 C 12.191406 -17.449219 13.816406 -16.804688 15.152344 -15.523438 C 16.472656 -14.253906 17.132812 -12.445312 17.132812 -10.105469 C 17.132812 -7.214844 16.328125 -4.820312 14.722656 -2.917969 C 12.917969 -0.730469 10.523438 0.363281 7.542969 0.363281 Z M 7.542969 0.0273438 C 10.417969 0.0273438 12.726562 -1.027344 14.46875 -3.132812 C 16.019531 -4.976562 16.796875 -7.296875 16.796875 -10.105469 C 16.796875 -12.351562 16.167969 -14.078125 14.917969 -15.28125 C 13.648438 -16.5 12.101562 -17.113281 10.277344 -17.113281 C 7.414062 -17.113281 5.105469 -16.058594 3.351562 -13.949219 C 1.796875 -12.109375 1.023438 -9.789062 1.023438 -6.980469 C 1.023438 -4.71875 1.648438 -2.984375 2.898438 -1.78125 C 4.152344 -0.574219 5.699219 0.0273438 7.542969 0.0273438 Z M 7.785156 -2.902344 C 9.3125 -2.902344 10.621094 -3.53125 11.710938 -4.796875 C 12.902344 -6.195312 13.5 -7.882812 13.5 -9.859375 C 13.5 -11.238281 13.199219 -12.304688 12.597656 -13.0625 C 12.003906 -13.808594 11.148438 -14.183594 10.03125 -14.183594 C 8.503906 -14.183594 7.195312 -13.550781 6.105469 -12.289062 C 4.914062 -10.890625 4.316406 -9.199219 4.316406 -7.226562 C 4.316406 -5.847656 4.617188 -4.78125 5.21875 -4.023438 C 5.8125 -3.273438 6.667969 -2.902344 7.785156 -2.902344 Z M 7.785156 -2.566406 C 6.558594 -2.566406 5.617188 -2.980469 4.957031 -3.8125 C 4.308594 -4.632812 3.980469 -5.769531 3.980469 -7.226562 C 3.980469 -9.285156 4.605469 -11.042969 5.851562 -12.507812 C 7.007812 -13.847656 8.402344 -14.519531 10.03125 -14.519531 C 11.257812 -14.519531 12.199219 -14.105469 12.859375 -13.273438 C 13.511719 -12.453125 13.835938 -11.316406 13.835938 -9.859375 C 13.835938 -7.800781 13.210938 -6.039062 11.964844 -4.578125 C 10.808594 -3.234375 9.414062 -2.566406 7.785156 -2.566406 Z M 7.785156 -2.566406 "/></g></g></g><g fill="#c41323" fill-opacity="1"><g transform="translate(115.47126, 23.524274)"><g/></g></g><g fill="#ffffff" fill-opacity="1"><g transform="translate(1.82475, 23.524274)"><g><path d="M 3.984375 -17.078125 L 7.171875 -17.078125 L 3.828125 0 L 0.640625 0 Z M 3.984375 -17.078125 "/></g></g></g><g fill="#ffffff" fill-opacity="1"><g transform="translate(9.633622, 23.524274)"><g><path d="M 11.34375 -5.8125 L 13.546875 -17.078125 L 16.75 -17.078125 L 13.40625 0 L 10.03125 0 L 6.03125 -11.28125 L 3.828125 0 L 0.640625 0 L 3.984375 -17.078125 L 7.34375 -17.078125 Z M 11.34375 -5.8125 "/></g></g></g><g fill="#ffffff" fill-opacity="1"><g transform="translate(27.008367, 23.524274)"><g><path d="M 16.84375 -11.890625 L 13.84375 -11.15625 C 13.613281 -12.257812 13.203125 -13.066406 12.609375 -13.578125 C 12.015625 -14.085938 11.203125 -14.34375 10.171875 -14.34375 C 8.421875 -14.34375 6.96875 -13.617188 5.8125 -12.171875 C 4.664062 -10.742188 4.09375 -9.109375 4.09375 -7.265625 C 4.09375 -5.816406 4.4375 -4.695312 5.125 -3.90625 C 5.8125 -3.125 6.738281 -2.734375 7.90625 -2.734375 C 8.914062 -2.734375 9.78125 -2.992188 10.5 -3.515625 C 11.226562 -4.035156 11.898438 -4.878906 12.515625 -6.046875 L 15.328125 -5.171875 C 14.546875 -3.316406 13.507812 -1.957031 12.21875 -1.09375 C 10.9375 -0.238281 9.3125 0.1875 7.34375 0.1875 C 5.507812 0.1875 3.960938 -0.46875 2.703125 -1.78125 C 1.472656 -3.082031 0.859375 -4.820312 0.859375 -7 C 0.859375 -9.820312 1.785156 -12.238281 3.640625 -14.25 C 5.503906 -16.269531 7.867188 -17.28125 10.734375 -17.28125 C 12.523438 -17.28125 13.953125 -16.773438 15.015625 -15.765625 C 16.066406 -14.753906 16.675781 -13.460938 16.84375 -11.890625 Z M 16.84375 -11.890625 "/></g></g></g><g fill="#ffffff" fill-opacity="1"><g transform="translate(43.943855, 23.524274)"><g><path d="M 0.640625 0 L 3.984375 -17.078125 L 7.171875 -17.078125 L 4.421875 -2.921875 L 11.390625 -2.921875 L 10.8125 0 Z M 0.640625 0 "/></g></g></g><g fill="#ffffff" fill-opacity="1"><g transform="translate(56.58447, 23.524274)"><g><path d="M 12.9375 -17.078125 L 16.15625 -17.078125 L 14.109375 -6.484375 C 13.640625 -4.109375 12.789062 -2.398438 11.5625 -1.359375 C 10.332031 -0.328125 8.660156 0.1875 6.546875 0.1875 C 4.992188 0.1875 3.75 -0.25 2.8125 -1.125 C 1.882812 -2 1.421875 -3.210938 1.421875 -4.765625 C 1.421875 -5.234375 1.484375 -5.804688 1.609375 -6.484375 L 3.65625 -17.078125 L 6.859375 -17.078125 L 4.8125 -6.4375 C 4.707031 -5.9375 4.65625 -5.507812 4.65625 -5.15625 C 4.65625 -4.382812 4.863281 -3.785156 5.28125 -3.359375 C 5.695312 -2.941406 6.304688 -2.734375 7.109375 -2.734375 C 9.140625 -2.734375 10.398438 -3.96875 10.890625 -6.4375 Z M 12.9375 -17.078125 "/></g></g></g><g fill="#ffffff" fill-opacity="1"><g transform="translate(73.202731, 23.524274)"><g><path d="M 3.984375 -17.078125 L 7.171875 -17.078125 L 3.828125 0 L 0.640625 0 Z M 5.984375 -18.453125 L 3.65625 -18.453125 L 5.9375 -22.0625 L 10.03125 -22.0625 Z M 5.984375 -18.453125 "/></g></g></g><g fill="#ffffff" fill-opacity="1"><g transform="translate(81.011604, 23.524274)"><g><path d="M 5.828125 0 L 0.640625 0 L 3.984375 -17.078125 L 8.828125 -17.078125 C 10.867188 -17.078125 12.515625 -16.484375 13.765625 -15.296875 C 15.046875 -14.109375 15.6875 -12.414062 15.6875 -10.21875 C 15.6875 -7.050781 14.773438 -4.554688 12.953125 -2.734375 C 11.148438 -0.910156 8.773438 0 5.828125 0 Z M 6.59375 -14.15625 L 4.421875 -2.921875 L 5.765625 -2.921875 C 7.828125 -2.921875 9.441406 -3.539062 10.609375 -4.78125 C 11.796875 -6.019531 12.390625 -7.664062 12.390625 -9.71875 C 12.390625 -11.28125 11.992188 -12.410156 11.203125 -13.109375 C 10.421875 -13.804688 9.273438 -14.15625 7.765625 -14.15625 Z M 6.59375 -14.15625 "/></g></g></g><g fill="#ffffff" fill-opacity="1"><g transform="translate(97.605457, 23.524274)"><g><path d="M 7.546875 0.1875 C 5.648438 0.1875 4.0625 -0.425781 2.78125 -1.65625 C 1.5 -2.894531 0.859375 -4.671875 0.859375 -6.984375 C 0.859375 -9.828125 1.644531 -12.1875 3.21875 -14.0625 C 5.007812 -16.207031 7.363281 -17.28125 10.28125 -17.28125 C 12.144531 -17.28125 13.726562 -16.65625 15.03125 -15.40625 C 16.320312 -14.164062 16.96875 -12.398438 16.96875 -10.109375 C 16.96875 -7.253906 16.175781 -4.894531 14.59375 -3.03125 C 12.820312 -0.882812 10.472656 0.1875 7.546875 0.1875 Z M 7.78125 -2.734375 C 9.363281 -2.734375 10.71875 -3.382812 11.84375 -4.6875 C 13.0625 -6.113281 13.671875 -7.835938 13.671875 -9.859375 C 13.671875 -11.273438 13.351562 -12.375 12.71875 -13.15625 C 12.09375 -13.945312 11.195312 -14.34375 10.03125 -14.34375 C 8.445312 -14.34375 7.097656 -13.691406 5.984375 -12.390625 C 4.765625 -10.960938 4.15625 -9.238281 4.15625 -7.21875 C 4.15625 -5.800781 4.46875 -4.695312 5.09375 -3.90625 C 5.71875 -3.125 6.613281 -2.734375 7.78125 -2.734375 Z M 7.78125 -2.734375 "/></g></g></g><g fill="#ffffff" fill-opacity="1"><g transform="translate(115.47126, 23.524274)"><g/></g></g></g></g></g></g></g></svg>