<svg xmlns="http://www.w3.org/2000/svg" xmlns:xlink="http://www.w3.org/1999/xlink" width="40" zoomAndPan="magnify" viewBox="0 0 30 30.000001" height="40" preserveAspectRatio="xMidYMid meet" version="1.0"><defs><clipPath id="c798e83537"><path d="M 3.855469 7.609375 L 26.179688 7.609375 L 26.179688 16 L 3.855469 16 Z M 3.855469 7.609375 " clip-rule="nonzero"/></clipPath><clipPath id="44b3fef456"><path d="M 26.132812 13.164062 C 26.132812 14.03125 26.148438 14.828125 26.121094 15.621094 C 26.113281 15.734375 25.898438 15.945312 25.777344 15.949219 C 23.148438 15.972656 20.511719 15.964844 17.785156 15.964844 C 17.785156 15.039062 17.792969 14.160156 17.785156 13.28125 C 17.773438 12.003906 16.875 10.828125 15.664062 10.488281 C 14.203125 10.082031 12.414062 11.300781 12.277344 12.867188 C 12.191406 13.847656 12.265625 14.847656 12.265625 15.894531 C 12 15.921875 11.820312 15.964844 11.636719 15.964844 C 9.257812 15.964844 6.882812 15.949219 4.511719 15.976562 C 4.027344 15.984375 3.855469 15.835938 3.882812 15.347656 C 3.917969 14.835938 3.917969 14.308594 3.882812 13.792969 C 3.851562 13.316406 4.011719 13.152344 4.503906 13.164062 C 5.953125 13.191406 7.398438 13.160156 8.84375 13.1875 C 9.296875 13.191406 9.472656 13.089844 9.527344 12.597656 C 9.8125 10.089844 12.265625 7.785156 14.765625 7.628906 C 17.105469 7.480469 19.71875 9.449219 20.363281 11.847656 C 20.46875 12.261719 20.550781 12.6875 20.652344 13.171875 Z M 26.132812 13.164062 " clip-rule="nonzero"/></clipPath><clipPath id="8e26fb2f7c"><path d="M 0.855469 0.609375 L 23.179688 0.609375 L 23.179688 9 L 0.855469 9 Z M 0.855469 0.609375 " clip-rule="nonzero"/></clipPath><clipPath id="4e5275aeed"><path d="M 23.132812 6.164062 C 23.132812 7.03125 23.148438 7.828125 23.121094 8.621094 C 23.113281 8.734375 22.898438 8.945312 22.777344 8.949219 C 20.148438 8.972656 17.511719 8.964844 14.785156 8.964844 C 14.785156 8.039062 14.792969 7.160156 14.785156 6.28125 C 14.773438 5.003906 13.875 3.828125 12.664062 3.488281 C 11.203125 3.082031 9.414062 4.300781 9.277344 5.867188 C 9.191406 6.847656 9.265625 7.847656 9.265625 8.894531 C 9 8.921875 8.820312 8.964844 8.636719 8.964844 C 6.257812 8.964844 3.882812 8.949219 1.511719 8.976562 C 1.027344 8.984375 0.855469 8.835938 0.882812 8.347656 C 0.917969 7.835938 0.917969 7.308594 0.882812 6.792969 C 0.851562 6.316406 1.011719 6.152344 1.503906 6.164062 C 2.953125 6.191406 4.398438 6.160156 5.84375 6.1875 C 6.296875 6.191406 6.472656 6.089844 6.527344 5.597656 C 6.8125 3.089844 9.265625 0.785156 11.765625 0.628906 C 14.105469 0.480469 16.71875 2.449219 17.363281 4.847656 C 17.46875 5.261719 17.550781 5.6875 17.652344 6.171875 Z M 23.132812 6.164062 " clip-rule="nonzero"/></clipPath><clipPath id="ca26b64162"><rect x="0" width="24" y="0" height="9"/></clipPath><clipPath id="9b45cc0e31"><path d="M 3.855469 18.773438 L 26.179688 18.773438 L 26.179688 21.421875 L 3.855469 21.421875 Z M 3.855469 18.773438 " clip-rule="nonzero"/></clipPath><clipPath id="8080e20c5c"><path d="M 26.101562 18.828125 L 26.101562 21.363281 C 25.835938 21.378906 25.605469 21.398438 25.378906 21.398438 C 18.46875 21.398438 11.570312 21.390625 4.660156 21.410156 C 4.046875 21.410156 3.808594 21.257812 3.871094 20.621094 C 3.925781 20.046875 3.882812 19.464844 3.882812 18.828125 Z M 26.101562 18.828125 " clip-rule="nonzero"/></clipPath><clipPath id="7968024044"><path d="M 0.855469 0.8125 L 23.179688 0.8125 L 23.179688 3.421875 L 0.855469 3.421875 Z M 0.855469 0.8125 " clip-rule="nonzero"/></clipPath><clipPath id="e00ab35ac1"><path d="M 23.101562 0.828125 L 23.101562 3.363281 C 22.835938 3.378906 22.605469 3.398438 22.378906 3.398438 C 15.46875 3.398438 8.570312 3.390625 1.660156 3.410156 C 1.046875 3.410156 0.808594 3.257812 0.871094 2.621094 C 0.925781 2.046875 0.882812 1.464844 0.882812 0.828125 Z M 23.101562 0.828125 " clip-rule="nonzero"/></clipPath><clipPath id="c4e868a83b"><rect x="0" width="24" y="0" height="4"/></clipPath></defs><g clip-path="url(#c798e83537)"><g clip-path="url(#44b3fef456)"><g transform="matrix(1, 0, 0, 1, 3, 7)"><g clip-path="url(#ca26b64162)"><g clip-path="url(#8e26fb2f7c)"><g clip-path="url(#4e5275aeed)"><rect x="-9.6" width="43.2" fill="#b71419" height="43.200001" y="-13.6" fill-opacity="1"/></g></g></g></g></g></g><g clip-path="url(#9b45cc0e31)"><g clip-path="url(#8080e20c5c)"><g transform="matrix(1, 0, 0, 1, 3, 18)"><g clip-path="url(#c4e868a83b)"><g clip-path="url(#7968024044)"><g clip-path="url(#e00ab35ac1)"><rect x="-9.6" width="43.2" fill="#b71419" height="43.200001" y="-24.6" fill-opacity="1"/></g></g></g></g></g></g></svg>