<svg xmlns="http://www.w3.org/2000/svg" xmlns:xlink="http://www.w3.org/1999/xlink" width="98" zoomAndPan="magnify" viewBox="0 0 73.5 104.249996" height="139" preserveAspectRatio="xMidYMid meet" version="1.0"><defs><g/><clipPath id="898c257043"><path d="M 5.417969 5.402344 L 67.402344 5.402344 L 67.402344 84.449219 L 5.417969 84.449219 Z M 5.417969 5.402344 " clip-rule="nonzero"/></clipPath><clipPath id="e596186cf5"><path d="M 33.488281 74.96875 C 37.882812 74.296875 50.800781 76.421875 53.746094 73.835938 C 54.339844 73.308594 55.394531 71.636719 55.230469 70.921875 C 55.019531 69.976562 46.25 66.339844 44.347656 64.480469 C 42.820312 62.976562 42.039062 59.492188 41.003906 58.808594 C 40.160156 58.25 33.550781 58.207031 32.421875 58.546875 C 28.242188 59.800781 34.257812 71.605469 33.476562 74.980469 M 50.601562 27.03125 C 49.84375 26.28125 45.324219 25.28125 43.28125 23.457031 C 42.070312 22.371094 40.566406 19.082031 39.179688 19.402344 C 38.730469 19.5 33.75 24.105469 31.992188 25.039062 C 30.253906 25.964844 27.878906 26.746094 25.980469 27.292969 C 24.800781 27.636719 22.890625 27.460938 22.140625 27.964844 C 21.175781 28.613281 21.691406 30.558594 21.097656 31.425781 C 20.363281 32.515625 17.261719 31.601562 17.261719 35.527344 C 17.261719 39.441406 20.296875 38.496094 21.097656 39.640625 C 24.417969 57.84375 42.796875 63.25 50.578125 44.375 C 51.109375 43.015625 51.339844 40.34375 51.84375 39.628906 C 52.582031 38.605469 55.363281 39.210938 55.890625 36.097656 C 56.539062 32.242188 52.558594 32.417969 51.84375 31.40625 C 51.164062 30.449219 51.480469 27.910156 50.589844 27.019531 M 44.105469 56.304688 C 43.511719 57.160156 43.886719 60.339844 45.160156 60.679688 C 45.941406 60.886719 50.28125 59.105469 51.273438 58.589844 C 58.8125 54.664062 61.660156 47.453125 61.285156 39.253906 C 61.21875 37.75 60.417969 36.429688 60.472656 34.78125 C 60.527344 33.109375 61.375 31.570312 61.332031 29.492188 C 61.164062 21.269531 54.789062 10.75 45.851562 10.289062 C 44.171875 10.199219 42.5 11.027344 41.457031 10.90625 C 39.730469 10.707031 36.652344 8.410156 34.5625 8.101562 C 28.582031 7.210938 21.558594 8.847656 18.074219 14.113281 C 16.941406 15.816406 16.625 17.996094 15.558594 19.863281 C 13.019531 24.316406 9.246094 26.976562 8.710938 32.570312 C 8.390625 35.878906 10.347656 43.628906 11.621094 46.816406 C 12.941406 50.082031 16.953125 52.6875 17.523438 55.195312 C 18.734375 60.515625 14.753906 63.667969 15.46875 69.285156 C 16.105469 74.296875 23.976562 84.179688 29 80.652344 C 30.683594 79.464844 30.628906 72.933594 30.398438 70.902344 C 30.101562 68.328125 27.660156 63.40625 27.726562 61.800781 C 27.757812 61.0625 28.605469 60.261719 28.804688 59.414062 C 29.695312 55.667969 28.519531 56.722656 26.683594 55.09375 C 23.582031 52.335938 22.019531 50.167969 20.316406 46.398438 C 19.757812 45.167969 19.480469 42.71875 19 42.078125 C 18.691406 41.683594 17.292969 41.265625 16.515625 40.441406 C 13.019531 36.738281 14.371094 30.679688 19.054688 29 C 19.613281 28.195312 18.886719 25.65625 19.175781 25.359375 C 19.339844 25.195312 22.679688 25.4375 23.902344 25.195312 C 27.496094 24.503906 32.1875 22.117188 34.980469 19.742188 C 36.289062 18.632812 39.464844 14.289062 39.863281 14.101562 C 41.058594 13.511719 40.863281 14.554688 41.039062 15.160156 C 42.027344 18.773438 44.996094 22.105469 48.503906 23.503906 C 49.601562 23.941406 53.515625 24.480469 53.722656 24.667969 C 54.175781 25.0625 53.285156 28.152344 53.898438 29.007812 C 58.582031 30.691406 59.945312 36.738281 56.4375 40.453125 C 55.660156 41.277344 54.261719 41.695312 53.953125 42.089844 C 52.03125 44.617188 51.867188 50.421875 47.699219 54.257812 C 46.875 55.019531 44.269531 56.09375 44.117188 56.316406 M 46.996094 62.964844 L 52.230469 66.371094 C 57.078125 68.449219 65.078125 71.066406 66.957031 76.453125 C 68.179688 79.949219 65.890625 80.695312 64.683594 78.71875 C 63.945312 77.507812 63.628906 75.539062 62.550781 74.464844 C 61.945312 73.859375 58.703125 71.96875 57.910156 71.96875 C 57.582031 71.96875 56.714844 75.046875 55.25 76.101562 C 49.976562 79.894531 34.71875 76.71875 32.804688 78.089844 C 32.34375 78.421875 30.792969 83.917969 29.992188 84.050781 C 23.417969 85.148438 15.261719 79.222656 13.910156 72.738281 C 13.304688 72.023438 9.785156 75.410156 9.359375 76.078125 C 7.808594 78.542969 10.105469 80.191406 5.640625 79.507812 C 4.421875 74.398438 11.6875 71.878906 12.832031 69.726562 C 13.171875 69.078125 12.953125 65.25 13.371094 63.546875 C 13.820312 61.734375 15.328125 59.371094 15.4375 58.039062 C 15.679688 54.953125 11.316406 52.269531 9.851562 49.367188 C 7.347656 44.441406 5.664062 35.097656 6.566406 29.679688 C 7.191406 25.886719 11.292969 21.863281 13.304688 18.367188 C 14.382812 16.5 14.6875 14.324219 15.820312 12.621094 C 20.230469 5.992188 28.648438 4.75 36.070312 5.847656 C 37.851562 6.113281 39.609375 7.574219 41.53125 7.902344 C 45.390625 8.5625 48.238281 7.441406 52.273438 9.199219 C 58.175781 11.761719 62.980469 20.269531 63.550781 26.480469 C 64 31.328125 64.023438 36.757812 64.265625 41.597656 C 64.34375 43.089844 63.332031 47.445312 62.824219 49.070312 C 60.683594 55.964844 53.988281 61.535156 47.007812 62.953125 " clip-rule="nonzero"/></clipPath><clipPath id="43102e41c0"><path d="M 0.417969 0.402344 L 62.402344 0.402344 L 62.402344 79.449219 L 0.417969 79.449219 Z M 0.417969 0.402344 " clip-rule="nonzero"/></clipPath><clipPath id="4d566ae7bc"><path d="M 28.488281 69.96875 C 32.882812 69.296875 45.800781 71.421875 48.746094 68.835938 C 49.339844 68.308594 50.394531 66.636719 50.230469 65.921875 C 50.019531 64.976562 41.25 61.339844 39.347656 59.480469 C 37.820312 57.976562 37.039062 54.492188 36.003906 53.808594 C 35.160156 53.25 28.550781 53.207031 27.421875 53.546875 C 23.242188 54.800781 29.257812 66.605469 28.476562 69.980469 M 45.601562 22.03125 C 44.84375 21.28125 40.324219 20.28125 38.28125 18.457031 C 37.070312 17.371094 35.566406 14.082031 34.179688 14.402344 C 33.730469 14.5 28.75 19.105469 26.992188 20.039062 C 25.253906 20.964844 22.878906 21.746094 20.980469 22.292969 C 19.800781 22.636719 17.890625 22.460938 17.140625 22.964844 C 16.175781 23.613281 16.691406 25.558594 16.097656 26.425781 C 15.363281 27.515625 12.261719 26.601562 12.261719 30.527344 C 12.261719 34.441406 15.296875 33.496094 16.097656 34.640625 C 19.417969 52.84375 37.796875 58.25 45.578125 39.375 C 46.109375 38.015625 46.339844 35.34375 46.84375 34.628906 C 47.582031 33.605469 50.363281 34.210938 50.890625 31.097656 C 51.539062 27.242188 47.558594 27.417969 46.84375 26.40625 C 46.164062 25.449219 46.480469 22.910156 45.589844 22.019531 M 39.105469 51.304688 C 38.511719 52.160156 38.886719 55.339844 40.160156 55.679688 C 40.941406 55.886719 45.28125 54.105469 46.273438 53.589844 C 53.8125 49.664062 56.660156 42.453125 56.285156 34.253906 C 56.21875 32.75 55.417969 31.429688 55.472656 29.78125 C 55.527344 28.109375 56.375 26.570312 56.332031 24.492188 C 56.164062 16.269531 49.789062 5.75 40.851562 5.289062 C 39.171875 5.199219 37.5 6.027344 36.457031 5.90625 C 34.730469 5.707031 31.652344 3.410156 29.5625 3.101562 C 23.582031 2.210938 16.558594 3.847656 13.074219 9.113281 C 11.941406 10.816406 11.625 12.996094 10.558594 14.863281 C 8.019531 19.316406 4.246094 21.976562 3.710938 27.570312 C 3.390625 30.878906 5.347656 38.628906 6.621094 41.816406 C 7.941406 45.082031 11.953125 47.6875 12.523438 50.195312 C 13.734375 55.515625 9.753906 58.667969 10.46875 64.285156 C 11.105469 69.296875 18.976562 79.179688 24 75.652344 C 25.683594 74.464844 25.628906 67.933594 25.398438 65.902344 C 25.101562 63.328125 22.660156 58.40625 22.726562 56.800781 C 22.757812 56.0625 23.605469 55.261719 23.804688 54.414062 C 24.695312 50.667969 23.519531 51.722656 21.683594 50.09375 C 18.582031 47.335938 17.019531 45.167969 15.316406 41.398438 C 14.757812 40.167969 14.480469 37.71875 14 37.078125 C 13.691406 36.683594 12.292969 36.265625 11.515625 35.441406 C 8.019531 31.738281 9.371094 25.679688 14.054688 24 C 14.613281 23.195312 13.886719 20.65625 14.175781 20.359375 C 14.339844 20.195312 17.679688 20.4375 18.902344 20.195312 C 22.496094 19.503906 27.1875 17.117188 29.980469 14.742188 C 31.289062 13.632812 34.464844 9.289062 34.863281 9.101562 C 36.058594 8.511719 35.863281 9.554688 36.039062 10.160156 C 37.027344 13.773438 39.996094 17.105469 43.503906 18.503906 C 44.601562 18.941406 48.515625 19.480469 48.722656 19.667969 C 49.175781 20.0625 48.285156 23.152344 48.898438 24.007812 C 53.582031 25.691406 54.945312 31.738281 51.4375 35.453125 C 50.660156 36.277344 49.261719 36.695312 48.953125 37.089844 C 47.03125 39.617188 46.867188 45.421875 42.699219 49.257812 C 41.875 50.019531 39.269531 51.09375 39.117188 51.316406 M 41.996094 57.964844 L 47.230469 61.371094 C 52.078125 63.449219 60.078125 66.066406 61.957031 71.453125 C 63.179688 74.949219 60.890625 75.695312 59.683594 73.71875 C 58.945312 72.507812 58.628906 70.539062 57.550781 69.464844 C 56.945312 68.859375 53.703125 66.96875 52.910156 66.96875 C 52.582031 66.96875 51.714844 70.046875 50.25 71.101562 C 44.976562 74.894531 29.71875 71.71875 27.804688 73.089844 C 27.34375 73.421875 25.792969 78.917969 24.992188 79.050781 C 18.417969 80.148438 10.261719 74.222656 8.910156 67.738281 C 8.304688 67.023438 4.785156 70.410156 4.359375 71.078125 C 2.808594 73.542969 5.105469 75.191406 0.640625 74.507812 C -0.578125 69.398438 6.6875 66.878906 7.832031 64.726562 C 8.171875 64.078125 7.953125 60.25 8.371094 58.546875 C 8.820312 56.734375 10.328125 54.371094 10.4375 53.039062 C 10.679688 49.953125 6.316406 47.269531 4.851562 44.367188 C 2.347656 39.441406 0.664062 30.097656 1.566406 24.679688 C 2.191406 20.886719 6.292969 16.863281 8.304688 13.367188 C 9.382812 11.5 9.6875 9.324219 10.820312 7.621094 C 15.230469 0.992188 23.648438 -0.25 31.070312 0.847656 C 32.851562 1.113281 34.609375 2.574219 36.53125 2.902344 C 40.390625 3.5625 43.238281 2.441406 47.273438 4.199219 C 53.175781 6.761719 57.980469 15.269531 58.550781 21.480469 C 59 26.328125 59.023438 31.757812 59.265625 36.597656 C 59.34375 38.089844 58.332031 42.445312 57.824219 44.070312 C 55.683594 50.964844 48.988281 56.535156 42.007812 57.953125 " clip-rule="nonzero"/></clipPath><clipPath id="61b324ef83"><rect x="0" width="63" y="0" height="80"/></clipPath><clipPath id="c5613a5229"><path d="M 17.074219 19.335938 L 56 19.335938 L 56 56.300781 L 17.074219 56.300781 Z M 17.074219 19.335938 " clip-rule="nonzero"/></clipPath><clipPath id="5d6fcf6980"><path d="M 50.601562 27.03125 C 51.503906 27.921875 51.171875 30.449219 51.855469 31.417969 C 52.570312 32.429688 56.558594 32.253906 55.898438 36.109375 C 55.371094 39.222656 52.582031 38.605469 51.855469 39.640625 C 51.347656 40.355469 51.117188 43.023438 50.589844 44.386719 C 42.808594 63.273438 24.417969 57.855469 21.085938 39.640625 C 20.285156 38.507812 17.25 39.441406 17.25 35.527344 C 17.25 31.601562 20.351562 32.515625 21.085938 31.425781 C 21.679688 30.558594 21.164062 28.613281 22.132812 27.964844 C 22.890625 27.460938 24.792969 27.636719 25.980469 27.292969 C 27.878906 26.746094 30.253906 25.953125 31.992188 25.039062 C 33.75 24.105469 38.730469 19.5 39.179688 19.402344 C 40.566406 19.09375 42.0625 22.378906 43.28125 23.457031 C 45.335938 25.292969 49.855469 26.28125 50.601562 27.03125 " clip-rule="nonzero"/></clipPath><clipPath id="579b63a41f"><path d="M 0.171875 0.335938 L 39 0.335938 L 39 37.300781 L 0.171875 37.300781 Z M 0.171875 0.335938 " clip-rule="nonzero"/></clipPath><clipPath id="3d15324098"><path d="M 33.601562 8.03125 C 34.503906 8.921875 34.171875 11.449219 34.855469 12.417969 C 35.570312 13.429688 39.558594 13.253906 38.898438 17.109375 C 38.371094 20.222656 35.582031 19.605469 34.855469 20.640625 C 34.347656 21.355469 34.117188 24.023438 33.589844 25.386719 C 25.808594 44.273438 7.417969 38.855469 4.085938 20.640625 C 3.285156 19.507812 0.25 20.441406 0.25 16.527344 C 0.25 12.601562 3.351562 13.515625 4.085938 12.425781 C 4.679688 11.558594 4.164062 9.613281 5.132812 8.964844 C 5.890625 8.460938 7.792969 8.636719 8.980469 8.292969 C 10.878906 7.746094 13.253906 6.953125 14.992188 6.039062 C 16.75 5.105469 21.730469 0.5 22.179688 0.402344 C 23.566406 0.09375 25.0625 3.378906 26.28125 4.457031 C 28.335938 6.292969 32.855469 7.28125 33.601562 8.03125 " clip-rule="nonzero"/></clipPath><clipPath id="29a38a0e7f"><rect x="0" width="39" y="0" height="38"/></clipPath><clipPath id="15f8d83992"><path d="M 0.265625 2 L 9 2 L 9 10 L 0.265625 10 Z M 0.265625 2 " clip-rule="nonzero"/></clipPath><clipPath id="0e372e5851"><rect x="0" width="44" y="0" height="14"/></clipPath></defs><g clip-path="url(#898c257043)"><g clip-path="url(#e596186cf5)"><g transform="matrix(1, 0, 0, 1, 5, 5)"><g clip-path="url(#61b324ef83)"><g clip-path="url(#43102e41c0)"><g clip-path="url(#4d566ae7bc)"><rect x="-21.17" width="105.84" fill="#fff8f8" height="150.119995" y="-27.934999" fill-opacity="1"/></g></g></g></g></g></g><g clip-path="url(#c5613a5229)"><g clip-path="url(#5d6fcf6980)"><g transform="matrix(1, 0, 0, 1, 17, 19)"><g clip-path="url(#29a38a0e7f)"><g clip-path="url(#579b63a41f)"><g clip-path="url(#3d15324098)"><rect x="-33.17" width="105.84" fill="#ad6948" height="150.119995" y="-41.934999" fill-opacity="1"/></g></g></g></g></g></g><g transform="matrix(1, 0, 0, 1, 15, 88)"><g clip-path="url(#0e372e5851)"><g clip-path="url(#15f8d83992)"><g fill="#ffffff" fill-opacity="1"><g transform="translate(0.303053, 9.825357)"><g><path d="M 1.640625 0 L 0.265625 0 L 1.703125 -7.328125 L 3.25 -7.328125 L 4 -2.75 L 6.515625 -7.328125 L 8.140625 -7.328125 L 6.703125 0 L 5.328125 0 L 6.203125 -4.4375 L 4.140625 -0.671875 L 3.140625 -0.671875 L 2.515625 -4.515625 Z M 1.640625 0 "/></g></g></g></g><g fill="#ffffff" fill-opacity="1"><g transform="translate(8.702457, 9.825357)"><g><path d="M 3.234375 0.078125 C 2.421875 0.078125 1.738281 -0.179688 1.1875 -0.703125 C 0.632812 -1.234375 0.359375 -2 0.359375 -3 C 0.359375 -4.21875 0.695312 -5.226562 1.375 -6.03125 C 2.144531 -6.945312 3.15625 -7.40625 4.40625 -7.40625 C 5.207031 -7.40625 5.890625 -7.140625 6.453125 -6.609375 C 7.003906 -6.078125 7.28125 -5.316406 7.28125 -4.328125 C 7.28125 -3.109375 6.941406 -2.097656 6.265625 -1.296875 C 5.503906 -0.378906 4.492188 0.078125 3.234375 0.078125 Z M 3.34375 -1.171875 C 4.019531 -1.171875 4.597656 -1.453125 5.078125 -2.015625 C 5.597656 -2.628906 5.859375 -3.367188 5.859375 -4.234375 C 5.859375 -4.835938 5.722656 -5.304688 5.453125 -5.640625 C 5.191406 -5.984375 4.804688 -6.15625 4.296875 -6.15625 C 3.617188 -6.15625 3.039062 -5.875 2.5625 -5.3125 C 2.039062 -4.695312 1.78125 -3.957031 1.78125 -3.09375 C 1.78125 -2.488281 1.910156 -2.015625 2.171875 -1.671875 C 2.441406 -1.335938 2.832031 -1.171875 3.34375 -1.171875 Z M 3.34375 -1.171875 "/></g></g></g><g fill="#ffffff" fill-opacity="1"><g transform="translate(16.359204, 9.825357)"><g><path d="M 6.265625 -5.59375 C 6.265625 -4.957031 6.082031 -4.441406 5.71875 -4.046875 C 5.351562 -3.640625 4.914062 -3.382812 4.40625 -3.28125 L 5.828125 0 L 4.359375 0 L 3 -3.15625 L 2.265625 -3.15625 L 1.640625 0 L 0.265625 0 L 1.703125 -7.328125 L 4.296875 -7.328125 C 4.910156 -7.328125 5.390625 -7.171875 5.734375 -6.859375 C 6.085938 -6.546875 6.265625 -6.125 6.265625 -5.59375 Z M 2.828125 -6.078125 L 2.5 -4.421875 L 3.75 -4.421875 C 4.070312 -4.421875 4.335938 -4.507812 4.546875 -4.6875 C 4.765625 -4.875 4.875 -5.109375 4.875 -5.390625 C 4.875 -5.847656 4.617188 -6.078125 4.109375 -6.078125 Z M 2.828125 -6.078125 "/></g></g></g><g fill="#ffffff" fill-opacity="1"><g transform="translate(22.781658, 9.825357)"><g><path d="M 0.265625 0 L 1.703125 -7.328125 L 6.140625 -7.328125 L 5.890625 -6.078125 L 2.828125 -6.078125 L 2.53125 -4.53125 L 4.96875 -4.53125 L 4.703125 -3.28125 L 2.28125 -3.28125 L 1.890625 -1.25 L 5.0625 -1.25 L 4.8125 0 Z M 0.265625 0 "/></g></g></g><g fill="#ffffff" fill-opacity="1"><g transform="translate(28.785714, 9.825357)"><g><path d="M 4.875 -2.484375 L 5.8125 -7.328125 L 7.1875 -7.328125 L 5.75 0 L 4.296875 0 L 2.578125 -4.84375 L 1.640625 0 L 0.265625 0 L 1.703125 -7.328125 L 3.15625 -7.328125 Z M 4.875 -2.484375 "/></g></g></g><g fill="#ffffff" fill-opacity="1"><g transform="translate(36.233257, 9.825357)"><g><path d="M 5.640625 0 L 4.171875 0 L 3.984375 -1.734375 L 1.671875 -1.734375 L 0.78125 0 L -0.6875 0 L 3.21875 -7.328125 L 4.5625 -7.328125 Z M 3.84375 -2.984375 L 3.5625 -5.5625 L 2.296875 -2.984375 Z M 3.84375 -2.984375 "/></g></g></g></g></g></svg>