<svg xmlns="http://www.w3.org/2000/svg" xmlns:xlink="http://www.w3.org/1999/xlink" width="127" zoomAndPan="magnify" viewBox="0 0 95.25 89.999999" height="120" preserveAspectRatio="xMidYMid meet" version="1.0"><defs><g/><clipPath id="e7f9101e51"><path d="M 12.703125 23.066406 L 81.585938 23.066406 L 81.585938 57.511719 L 12.703125 57.511719 Z M 12.703125 23.066406 " clip-rule="nonzero"/></clipPath><clipPath id="59c83b7f15"><path d="M 77.816406 41.5625 C 78.117188 40.347656 77.632812 40.292969 76.976562 39.636719 C 75.136719 37.796875 62.003906 28.375 60.347656 29.664062 C 65.703125 37.160156 65.316406 46.121094 58.753906 52.683594 C 66.25 51.058594 71.578125 45.476562 77.816406 41.5625 M 34.132812 29.664062 C 32.550781 28.449219 19.082031 37.679688 17.425781 39.558594 C 16.824219 40.25 16.394531 40.441406 16.664062 41.550781 C 22.964844 45.328125 28.042969 51.394531 35.722656 52.671875 C 28.816406 45.9375 29.023438 37.410156 34.132812 29.652344 M 47.234375 26.921875 C 31.828125 26.921875 28.117188 47.703125 42.082031 53.058594 C 62.648438 60.957031 68.910156 26.921875 47.234375 26.921875 M 41.875 23.5 C 56.421875 21.519531 72.535156 29.6875 81.472656 40.808594 C 63.894531 63.011719 29.9375 63.257812 12.875 40.355469 C 19.578125 32.921875 31.863281 24.867188 41.875 23.5 " clip-rule="nonzero"/></clipPath><clipPath id="b46042245d"><path d="M 0.859375 0.0664062 L 69.585938 0.0664062 L 69.585938 34.511719 L 0.859375 34.511719 Z M 0.859375 0.0664062 " clip-rule="nonzero"/></clipPath><clipPath id="47bcda8edb"><path d="M 65.816406 18.5625 C 66.117188 17.347656 65.632812 17.292969 64.976562 16.636719 C 63.136719 14.796875 50.003906 5.375 48.347656 6.664062 C 53.703125 14.160156 53.316406 23.121094 46.753906 29.683594 C 54.25 28.058594 59.578125 22.476562 65.816406 18.5625 M 22.132812 6.664062 C 20.550781 5.449219 7.082031 14.679688 5.425781 16.558594 C 4.824219 17.25 4.394531 17.441406 4.664062 18.550781 C 10.964844 22.328125 16.042969 28.394531 23.722656 29.671875 C 16.816406 22.9375 17.023438 14.410156 22.132812 6.652344 M 35.234375 3.921875 C 19.828125 3.921875 16.117188 24.703125 30.082031 30.058594 C 50.648438 37.957031 56.910156 3.921875 35.234375 3.921875 M 29.875 0.5 C 44.421875 -1.480469 60.535156 6.6875 69.472656 17.808594 C 51.894531 40.011719 17.9375 40.257812 0.875 17.355469 C 7.578125 9.921875 19.863281 1.867188 29.875 0.5 " clip-rule="nonzero"/></clipPath><clipPath id="243e2ead68"><rect x="0" width="70" y="0" height="35"/></clipPath><clipPath id="87ee5f7137"><path d="M 45 5.726562 L 49.339844 5.726562 L 49.339844 21.847656 L 45 21.847656 Z M 45 5.726562 " clip-rule="nonzero"/></clipPath><clipPath id="32bdba7a19"><path d="M 45.253906 7.816406 C 45.75 4.644531 49.222656 5.460938 49.222656 7.816406 L 49.222656 19.726562 C 49.222656 19.972656 47.609375 21.199219 47.234375 21.691406 C 46.855469 21.199219 45.242188 19.972656 45.242188 19.726562 C 45.242188 16.230469 44.75 10.988281 45.242188 7.804688 " clip-rule="nonzero"/></clipPath><clipPath id="05a95e9eac"><path d="M 0 0.726562 L 4.292969 0.726562 L 4.292969 16.78125 L 0 16.78125 Z M 0 0.726562 " clip-rule="nonzero"/></clipPath><clipPath id="ec73097f1a"><path d="M 0.253906 2.816406 C 0.75 -0.355469 4.222656 0.460938 4.222656 2.816406 L 4.222656 14.726562 C 4.222656 14.972656 2.609375 16.199219 2.234375 16.691406 C 1.855469 16.199219 0.242188 14.972656 0.242188 14.726562 C 0.242188 11.230469 -0.25 5.988281 0.242188 2.804688 " clip-rule="nonzero"/></clipPath><clipPath id="0d119286f7"><rect x="0" width="5" y="0" height="17"/></clipPath><clipPath id="97a99e4be5"><path d="M 54 6.703125 L 59.601562 6.703125 L 59.601562 22.578125 L 54 22.578125 Z M 54 6.703125 " clip-rule="nonzero"/></clipPath><clipPath id="9348bdde47"><path d="M 59.550781 7.417969 C 59.390625 9.699219 58.011719 23.089844 55.195312 22.5 C 53.484375 21.382812 54.246094 20.714844 54.34375 19.328125 C 54.441406 17.886719 56.324219 4.171875 59.550781 7.417969 " clip-rule="nonzero"/></clipPath><clipPath id="dae4a7adf9"><path d="M 0 0.703125 L 5.601562 0.703125 L 5.601562 16.578125 L 0 16.578125 Z M 0 0.703125 " clip-rule="nonzero"/></clipPath><clipPath id="31c852df9e"><path d="M 5.550781 1.417969 C 5.390625 3.699219 4.011719 17.089844 1.195312 16.5 C -0.515625 15.382812 0.246094 14.714844 0.34375 13.328125 C 0.441406 11.886719 2.324219 -1.828125 5.550781 1.417969 " clip-rule="nonzero"/></clipPath><clipPath id="ce955dc498"><rect x="0" width="6" y="0" height="17"/></clipPath><clipPath id="6a93401016"><path d="M 35 7.191406 L 40.546875 7.191406 L 40.546875 22.578125 L 35 22.578125 Z M 35 7.191406 " clip-rule="nonzero"/></clipPath><clipPath id="b7cf82f316"><path d="M 38.101562 7.417969 C 38.421875 11.292969 39.875 15.519531 40.144531 19.335938 C 40.242188 20.726562 41.003906 21.402344 39.296875 22.511719 C 36.1875 23.167969 36.058594 10.765625 35.023438 8.675781 Z M 38.101562 7.417969 " clip-rule="nonzero"/></clipPath><clipPath id="bebbd113ef"><path d="M 0.00390625 0.257812 L 5.546875 0.257812 L 5.546875 15.578125 L 0.00390625 15.578125 Z M 0.00390625 0.257812 " clip-rule="nonzero"/></clipPath><clipPath id="28d6b88c17"><path d="M 3.101562 0.417969 C 3.421875 4.292969 4.875 8.519531 5.144531 12.335938 C 5.242188 13.726562 6.003906 14.402344 4.296875 15.511719 C 1.1875 16.167969 1.058594 3.765625 0.0234375 1.675781 Z M 3.101562 0.417969 " clip-rule="nonzero"/></clipPath><clipPath id="4b2cc70818"><rect x="0" width="6" y="0" height="16"/></clipPath><clipPath id="7bdf5fad66"><path d="M 62.777344 10.367188 L 70 10.367188 L 70 25 L 62.777344 25 Z M 62.777344 10.367188 " clip-rule="nonzero"/></clipPath><clipPath id="e4ad65b772"><path d="M 69.875 10.601562 C 70.542969 11.292969 66.519531 25.414062 63.9375 24.886719 C 62.304688 24.554688 63.066406 22.855469 63.292969 21.898438 C 63.800781 19.789062 65.832031 13.605469 66.875 11.957031 C 67.824219 10.453125 68.027344 10.386719 69.875 10.601562 " clip-rule="nonzero"/></clipPath><clipPath id="99bd255d76"><path d="M 0.777344 0.367188 L 8 0.367188 L 8 15 L 0.777344 15 Z M 0.777344 0.367188 " clip-rule="nonzero"/></clipPath><clipPath id="64c6b0e334"><path d="M 7.875 0.601562 C 8.542969 1.292969 4.519531 15.414062 1.9375 14.886719 C 0.304688 14.554688 1.066406 12.855469 1.292969 11.898438 C 1.800781 9.789062 3.832031 3.605469 4.875 1.957031 C 5.824219 0.453125 6.027344 0.386719 7.875 0.601562 " clip-rule="nonzero"/></clipPath><clipPath id="36edb2cfe8"><rect x="0" width="8" y="0" height="15"/></clipPath><clipPath id="85381b5a26"><path d="M 24.425781 10.121094 L 31.753906 10.121094 L 31.753906 25 L 24.425781 25 Z M 24.425781 10.121094 " clip-rule="nonzero"/></clipPath><clipPath id="1b4b0f8b9c"><path d="M 24.601562 10.601562 C 27.152344 8.03125 31.109375 20.113281 31.410156 21.691406 C 32.109375 25.449219 30.207031 26.191406 28.332031 22.359375 C 27.558594 20.769531 23.890625 11.335938 24.613281 10.601562 " clip-rule="nonzero"/></clipPath><clipPath id="e2218a1d43"><path d="M 0.425781 0.121094 L 7.753906 0.121094 L 7.753906 15 L 0.425781 15 Z M 0.425781 0.121094 " clip-rule="nonzero"/></clipPath><clipPath id="30e3dd9fb2"><path d="M 0.601562 0.601562 C 3.152344 -1.96875 7.109375 10.113281 7.410156 11.691406 C 8.109375 15.449219 6.207031 16.191406 4.332031 12.359375 C 3.558594 10.769531 -0.109375 1.335938 0.613281 0.601562 " clip-rule="nonzero"/></clipPath><clipPath id="2abaa00397"><rect x="0" width="8" y="0" height="15"/></clipPath><clipPath id="cc4973e4e0"><path d="M 5.128906 23.066406 L 16.121094 23.066406 L 16.121094 35.527344 L 5.128906 35.527344 Z M 5.128906 23.066406 " clip-rule="nonzero"/></clipPath><clipPath id="bae47d42c2"><path d="M 15.855469 35.214844 C 14.027344 35.539062 13.414062 34.753906 12.253906 33.65625 C 10.984375 32.449219 4.25 24.597656 5.527344 23.308594 C 7.949219 22.886719 9.273438 25.027344 10.691406 26.46875 C 11.917969 27.707031 17.210938 33.761719 15.84375 35.214844 " clip-rule="nonzero"/></clipPath><clipPath id="b56d0ff0fc"><path d="M 0.128906 0.0664062 L 11.121094 0.0664062 L 11.121094 12.527344 L 0.128906 12.527344 Z M 0.128906 0.0664062 " clip-rule="nonzero"/></clipPath><clipPath id="7fe3d457e8"><path d="M 10.855469 12.214844 C 9.027344 12.539062 8.414062 11.753906 7.253906 10.65625 C 5.984375 9.449219 -0.75 1.597656 0.527344 0.308594 C 2.949219 -0.113281 4.273438 2.027344 5.691406 3.46875 C 6.917969 4.707031 12.210938 10.761719 10.84375 12.214844 " clip-rule="nonzero"/></clipPath><clipPath id="c563f23971"><rect x="0" width="12" y="0" height="13"/></clipPath><clipPath id="747d68beec"><path d="M 78.164062 23.066406 L 89.15625 23.066406 L 89.15625 35.28125 L 78.164062 35.28125 Z M 78.164062 23.066406 " clip-rule="nonzero"/></clipPath><clipPath id="ce4f17d08d"><path d="M 88.9375 23.308594 C 90.058594 24.414062 81.632812 36.097656 78.621094 35.214844 C 77.257812 33.761719 82.546875 27.71875 83.773438 26.46875 C 85.195312 25.027344 86.527344 22.886719 88.9375 23.308594 " clip-rule="nonzero"/></clipPath><clipPath id="890150d4c1"><path d="M 0.164062 0.0664062 L 11.15625 0.0664062 L 11.15625 12.28125 L 0.164062 12.28125 Z M 0.164062 0.0664062 " clip-rule="nonzero"/></clipPath><clipPath id="1a0cfe0a59"><path d="M 10.9375 0.308594 C 12.058594 1.414062 3.632812 13.097656 0.621094 12.214844 C -0.742188 10.761719 4.546875 4.71875 5.773438 3.46875 C 7.195312 2.027344 8.527344 -0.113281 10.9375 0.308594 " clip-rule="nonzero"/></clipPath><clipPath id="4fc7b22e42"><rect x="0" width="12" y="0" height="13"/></clipPath><clipPath id="c256c3356f"><path d="M 14.167969 16 L 23.695312 16 L 23.695312 29 L 14.167969 29 Z M 14.167969 16 " clip-rule="nonzero"/></clipPath><clipPath id="3e1ebdfe68"><path d="M 17.363281 16.25 C 17.878906 16.539062 22.964844 25.457031 23.417969 26.480469 C 24.300781 28.46875 21.996094 30.0625 20.375 27.890625 C 19.589844 26.835938 14.425781 18.617188 14.339844 18.046875 C 14.101562 16.519531 16.199219 15.59375 17.363281 16.25 " clip-rule="nonzero"/></clipPath><clipPath id="9de22db13d"><path d="M 0.167969 0 L 9.695312 0 L 9.695312 13 L 0.167969 13 Z M 0.167969 0 " clip-rule="nonzero"/></clipPath><clipPath id="55c0688416"><path d="M 3.363281 0.25 C 3.878906 0.539062 8.964844 9.457031 9.417969 10.480469 C 10.300781 12.46875 7.996094 14.0625 6.375 11.890625 C 5.589844 10.835938 0.425781 2.617188 0.339844 2.046875 C 0.101562 0.519531 2.199219 -0.40625 3.363281 0.25 " clip-rule="nonzero"/></clipPath><clipPath id="e14827669c"><rect x="0" width="10" y="0" height="13"/></clipPath><clipPath id="c56dd08f78"><path d="M 70.835938 16 L 79.875 16 L 79.875 29 L 70.835938 29 Z M 70.835938 16 " clip-rule="nonzero"/></clipPath><clipPath id="3cf1e3241e"><path d="M 79.40625 16.164062 C 79.644531 17.453125 79.976562 17.636719 79.492188 18.949219 C 78.957031 20.414062 75.191406 26.4375 74.105469 27.898438 C 72.480469 30.082031 70.1875 28.480469 71.070312 26.492188 C 71.671875 25.136719 77.773438 14.808594 79.417969 16.164062 " clip-rule="nonzero"/></clipPath><clipPath id="69a4b9320f"><path d="M 0.835938 0 L 9.875 0 L 9.875 13 L 0.835938 13 Z M 0.835938 0 " clip-rule="nonzero"/></clipPath><clipPath id="4bf50083cf"><path d="M 9.40625 0.164062 C 9.644531 1.453125 9.976562 1.636719 9.492188 2.949219 C 8.957031 4.414062 5.191406 10.4375 4.105469 11.898438 C 2.480469 14.082031 0.1875 12.480469 1.070312 10.492188 C 1.671875 9.136719 7.773438 -1.191406 9.417969 0.164062 " clip-rule="nonzero"/></clipPath><clipPath id="8c694554cf"><rect x="0" width="10" y="0" height="13"/></clipPath><clipPath id="562038f92b"><path d="M 39.570312 32 L 55.691406 32 L 55.691406 48 L 39.570312 48 Z M 39.570312 32 " clip-rule="nonzero"/></clipPath><clipPath id="efc1efba99"><path d="M 46.652344 32.191406 C 58.527344 30.480469 58.871094 49.597656 46.511719 47.886719 C 37.304688 46.617188 37.734375 33.484375 46.652344 32.191406 " clip-rule="nonzero"/></clipPath><clipPath id="30bb48b072"><path d="M 0.570312 0 L 16.691406 0 L 16.691406 16 L 0.570312 16 Z M 0.570312 0 " clip-rule="nonzero"/></clipPath><clipPath id="15c42cdcc5"><path d="M 7.652344 0.191406 C 19.527344 -1.519531 19.871094 17.597656 7.511719 15.886719 C -1.695312 14.617188 -1.265625 1.484375 7.652344 0.191406 " clip-rule="nonzero"/></clipPath><clipPath id="542556d541"><rect x="0" width="17" y="0" height="16"/></clipPath><clipPath id="e453e1f8af"><path d="M 0.0507812 2 L 7 2 L 7 10 L 0.0507812 10 Z M 0.0507812 2 " clip-rule="nonzero"/></clipPath><clipPath id="f1ee4604be"><rect x="0" width="27" y="0" height="13"/></clipPath></defs><g clip-path="url(#e7f9101e51)"><g clip-path="url(#59c83b7f15)"><g transform="matrix(1, 0, 0, 1, 12, 23)"><g clip-path="url(#243e2ead68)"><g clip-path="url(#b46042245d)"><g clip-path="url(#47bcda8edb)"><rect x="-32.955" width="137.16" fill="#fff8f8" height="129.599999" y="-42.8" fill-opacity="1"/></g></g></g></g></g></g><g clip-path="url(#87ee5f7137)"><g clip-path="url(#32bdba7a19)"><g transform="matrix(1, 0, 0, 1, 45, 5)"><g clip-path="url(#0d119286f7)"><g clip-path="url(#05a95e9eac)"><g clip-path="url(#ec73097f1a)"><rect x="-65.955" width="137.16" fill="#fff8f8" height="129.599999" y="-24.8" fill-opacity="1"/></g></g></g></g></g></g><g clip-path="url(#97a99e4be5)"><g clip-path="url(#9348bdde47)"><g transform="matrix(1, 0, 0, 1, 54, 6)"><g clip-path="url(#ce955dc498)"><g clip-path="url(#dae4a7adf9)"><g clip-path="url(#31c852df9e)"><rect x="-74.955" width="137.16" fill="#fff8f8" height="129.599999" y="-25.8" fill-opacity="1"/></g></g></g></g></g></g><g clip-path="url(#6a93401016)"><g clip-path="url(#b7cf82f316)"><g transform="matrix(1, 0, 0, 1, 35, 7)"><g clip-path="url(#4b2cc70818)"><g clip-path="url(#bebbd113ef)"><g clip-path="url(#28d6b88c17)"><rect x="-55.955" width="137.16" fill="#fff8f8" height="129.599999" y="-26.8" fill-opacity="1"/></g></g></g></g></g></g><g clip-path="url(#7bdf5fad66)"><g clip-path="url(#e4ad65b772)"><g transform="matrix(1, 0, 0, 1, 62, 10)"><g clip-path="url(#36edb2cfe8)"><g clip-path="url(#99bd255d76)"><g clip-path="url(#64c6b0e334)"><rect x="-82.955" width="137.16" fill="#fff8f8" height="129.599999" y="-29.8" fill-opacity="1"/></g></g></g></g></g></g><g clip-path="url(#85381b5a26)"><g clip-path="url(#1b4b0f8b9c)"><g transform="matrix(1, 0, 0, 1, 24, 10)"><g clip-path="url(#2abaa00397)"><g clip-path="url(#e2218a1d43)"><g clip-path="url(#30e3dd9fb2)"><rect x="-44.955" width="137.16" fill="#fff8f8" height="129.599999" y="-29.8" fill-opacity="1"/></g></g></g></g></g></g><g clip-path="url(#cc4973e4e0)"><g clip-path="url(#bae47d42c2)"><g transform="matrix(1, 0, 0, 1, 5, 23)"><g clip-path="url(#c563f23971)"><g clip-path="url(#b56d0ff0fc)"><g clip-path="url(#7fe3d457e8)"><rect x="-25.955" width="137.16" fill="#fff8f8" height="129.599999" y="-42.8" fill-opacity="1"/></g></g></g></g></g></g><g clip-path="url(#747d68beec)"><g clip-path="url(#ce4f17d08d)"><g transform="matrix(1, 0, 0, 1, 78, 23)"><g clip-path="url(#4fc7b22e42)"><g clip-path="url(#890150d4c1)"><g clip-path="url(#1a0cfe0a59)"><rect x="-98.955" width="137.16" fill="#fff8f8" height="129.599999" y="-42.8" fill-opacity="1"/></g></g></g></g></g></g><g clip-path="url(#c256c3356f)"><g clip-path="url(#3e1ebdfe68)"><g transform="matrix(1, 0, 0, 1, 14, 16)"><g clip-path="url(#e14827669c)"><g clip-path="url(#9de22db13d)"><g clip-path="url(#55c0688416)"><rect x="-34.955" width="137.16" fill="#fff8f8" height="129.599999" y="-35.8" fill-opacity="1"/></g></g></g></g></g></g><g clip-path="url(#c56dd08f78)"><g clip-path="url(#3cf1e3241e)"><g transform="matrix(1, 0, 0, 1, 70, 16)"><g clip-path="url(#8c694554cf)"><g clip-path="url(#69a4b9320f)"><g clip-path="url(#4bf50083cf)"><rect x="-90.955" width="137.16" fill="#fff8f8" height="129.599999" y="-35.8" fill-opacity="1"/></g></g></g></g></g></g><g clip-path="url(#562038f92b)"><g clip-path="url(#efc1efba99)"><g transform="matrix(1, 0, 0, 1, 39, 32)"><g clip-path="url(#542556d541)"><g clip-path="url(#30bb48b072)"><g clip-path="url(#15c42cdcc5)"><rect x="-59.955" width="137.16" fill="#91d0db" height="129.599999" y="-51.8" fill-opacity="1"/></g></g></g></g></g></g><g transform="matrix(1, 0, 0, 1, 34, 74)"><g clip-path="url(#f1ee4604be)"><g clip-path="url(#e453e1f8af)"><g fill="#ffffff" fill-opacity="1"><g transform="translate(1.054472, 9.434427)"><g><path d="M 5.515625 0 L 4.078125 0 L 3.90625 -1.6875 L 1.625 -1.6875 L 0.765625 0 L -0.671875 0 L 3.15625 -7.15625 L 4.46875 -7.15625 Z M 3.75 -2.921875 L 3.484375 -5.4375 L 2.234375 -2.921875 Z M 3.75 -2.921875 "/></g></g></g></g><g fill="#ffffff" fill-opacity="1"><g transform="translate(7.175532, 9.434427)"><g><path d="M 3.9375 -5.9375 L 1 -5.9375 L 1.25 -7.15625 L 6.03125 -7.15625 L 5.90625 -6.546875 L 1.796875 -1.234375 L 5.03125 -1.234375 L 4.796875 0 L -0.296875 0 L -0.171875 -0.609375 Z M 3.9375 -5.9375 "/></g></g></g><g fill="#ffffff" fill-opacity="1"><g transform="translate(13.081629, 9.434427)"><g><path d="M 5.421875 -7.15625 L 6.78125 -7.15625 L 5.921875 -2.71875 C 5.722656 -1.726562 5.363281 -1.015625 4.84375 -0.578125 C 4.332031 -0.140625 3.632812 0.078125 2.75 0.078125 C 2.09375 0.078125 1.566406 -0.101562 1.171875 -0.46875 C 0.785156 -0.832031 0.59375 -1.34375 0.59375 -2 C 0.59375 -2.195312 0.617188 -2.4375 0.671875 -2.71875 L 1.53125 -7.15625 L 2.875 -7.15625 L 2.015625 -2.703125 C 1.972656 -2.492188 1.953125 -2.3125 1.953125 -2.15625 C 1.953125 -1.832031 2.039062 -1.582031 2.21875 -1.40625 C 2.394531 -1.226562 2.648438 -1.140625 2.984375 -1.140625 C 3.828125 -1.140625 4.351562 -1.660156 4.5625 -2.703125 Z M 5.421875 -7.15625 "/></g></g></g><g fill="#ffffff" fill-opacity="1"><g transform="translate(20.052265, 9.434427)"><g><path d="M 0.265625 0 L 1.671875 -7.15625 L 3.015625 -7.15625 L 1.859375 -1.234375 L 4.78125 -1.234375 L 4.53125 0 Z M 0.265625 0 "/></g></g></g></g></g></svg>