<svg xmlns="http://www.w3.org/2000/svg" xmlns:xlink="http://www.w3.org/1999/xlink" width="127" zoomAndPan="magnify" viewBox="0 0 95.25 96.75" height="129" preserveAspectRatio="xMidYMid meet" version="1.0"><defs><g/><clipPath id="15fe8831d5"><path d="M 12.703125 23 L 81.585938 23 L 81.585938 57.414062 L 12.703125 57.414062 Z M 12.703125 23 " clip-rule="nonzero"/></clipPath><clipPath id="ceb97b4e17"><path d="M 77.816406 41.464844 C 78.117188 40.25 77.632812 40.195312 76.976562 39.539062 C 75.136719 37.699219 62.003906 28.277344 60.347656 29.566406 C 65.703125 37.0625 65.316406 46.023438 58.753906 52.585938 C 66.25 50.960938 71.578125 45.378906 77.816406 41.464844 M 34.132812 29.566406 C 32.550781 28.351562 19.082031 37.582031 17.425781 39.460938 C 16.824219 40.152344 16.394531 40.34375 16.664062 41.453125 C 22.964844 45.230469 28.042969 51.296875 35.722656 52.574219 C 28.816406 45.839844 29.023438 37.3125 34.132812 29.554688 M 47.234375 26.824219 C 31.828125 26.824219 28.117188 47.605469 42.082031 52.960938 C 62.648438 60.859375 68.910156 26.824219 47.234375 26.824219 M 41.875 23.402344 C 56.421875 21.421875 72.535156 29.589844 81.472656 40.710938 C 63.894531 62.914062 29.9375 63.160156 12.875 40.257812 C 19.578125 32.824219 31.863281 24.769531 41.875 23.402344 " clip-rule="nonzero"/></clipPath><clipPath id="b349654cb7"><path d="M 0.859375 0 L 69.585938 0 L 69.585938 34.414062 L 0.859375 34.414062 Z M 0.859375 0 " clip-rule="nonzero"/></clipPath><clipPath id="25d6c5a8a0"><path d="M 65.816406 18.464844 C 66.117188 17.25 65.632812 17.195312 64.976562 16.539062 C 63.136719 14.699219 50.003906 5.277344 48.347656 6.566406 C 53.703125 14.0625 53.316406 23.023438 46.753906 29.585938 C 54.25 27.960938 59.578125 22.378906 65.816406 18.464844 M 22.132812 6.566406 C 20.550781 5.351562 7.082031 14.582031 5.425781 16.460938 C 4.824219 17.152344 4.394531 17.34375 4.664062 18.453125 C 10.964844 22.230469 16.042969 28.296875 23.722656 29.574219 C 16.816406 22.839844 17.023438 14.3125 22.132812 6.554688 M 35.234375 3.824219 C 19.828125 3.824219 16.117188 24.605469 30.082031 29.960938 C 50.648438 37.859375 56.910156 3.824219 35.234375 3.824219 M 29.875 0.402344 C 44.421875 -1.578125 60.535156 6.589844 69.472656 17.710938 C 51.894531 39.914062 17.9375 40.160156 0.875 17.257812 C 7.578125 9.824219 19.863281 1.769531 29.875 0.402344 " clip-rule="nonzero"/></clipPath><clipPath id="076f17c93b"><rect x="0" width="70" y="0" height="35"/></clipPath><clipPath id="9c52aba2f0"><path d="M 45 5.628906 L 49.339844 5.628906 L 49.339844 21.75 L 45 21.75 Z M 45 5.628906 " clip-rule="nonzero"/></clipPath><clipPath id="cc215428dd"><path d="M 45.253906 7.71875 C 45.75 4.546875 49.222656 5.363281 49.222656 7.71875 L 49.222656 19.628906 C 49.222656 19.875 47.609375 21.101562 47.234375 21.59375 C 46.855469 21.101562 45.242188 19.875 45.242188 19.628906 C 45.242188 16.132812 44.75 10.890625 45.242188 7.707031 " clip-rule="nonzero"/></clipPath><clipPath id="67597d5c1f"><path d="M 0 0.628906 L 4.292969 0.628906 L 4.292969 16.683594 L 0 16.683594 Z M 0 0.628906 " clip-rule="nonzero"/></clipPath><clipPath id="0a23df4c3d"><path d="M 0.253906 2.71875 C 0.75 -0.453125 4.222656 0.363281 4.222656 2.71875 L 4.222656 14.628906 C 4.222656 14.875 2.609375 16.101562 2.234375 16.59375 C 1.855469 16.101562 0.242188 14.875 0.242188 14.628906 C 0.242188 11.132812 -0.25 5.890625 0.242188 2.707031 " clip-rule="nonzero"/></clipPath><clipPath id="6c8abb7104"><rect x="0" width="5" y="0" height="17"/></clipPath><clipPath id="65b5fca734"><path d="M 54 6.605469 L 59.601562 6.605469 L 59.601562 22.480469 L 54 22.480469 Z M 54 6.605469 " clip-rule="nonzero"/></clipPath><clipPath id="4b54b9c6ae"><path d="M 59.550781 7.320312 C 59.390625 9.601562 58.011719 22.992188 55.195312 22.402344 C 53.484375 21.285156 54.246094 20.617188 54.34375 19.230469 C 54.441406 17.789062 56.324219 4.074219 59.550781 7.320312 " clip-rule="nonzero"/></clipPath><clipPath id="9b71efaed1"><path d="M 0 0.605469 L 5.601562 0.605469 L 5.601562 16.480469 L 0 16.480469 Z M 0 0.605469 " clip-rule="nonzero"/></clipPath><clipPath id="c973a7fafe"><path d="M 5.550781 1.320312 C 5.390625 3.601562 4.011719 16.992188 1.195312 16.402344 C -0.515625 15.285156 0.246094 14.617188 0.34375 13.230469 C 0.441406 11.789062 2.324219 -1.925781 5.550781 1.320312 " clip-rule="nonzero"/></clipPath><clipPath id="18b50f2426"><rect x="0" width="6" y="0" height="17"/></clipPath><clipPath id="5d16a847cd"><path d="M 35 7.09375 L 40.546875 7.09375 L 40.546875 22.480469 L 35 22.480469 Z M 35 7.09375 " clip-rule="nonzero"/></clipPath><clipPath id="e577416ce5"><path d="M 38.101562 7.320312 C 38.421875 11.195312 39.875 15.421875 40.144531 19.238281 C 40.242188 20.628906 41.003906 21.304688 39.296875 22.414062 C 36.1875 23.070312 36.058594 10.667969 35.035156 8.578125 Z M 38.101562 7.320312 " clip-rule="nonzero"/></clipPath><clipPath id="505b359878"><path d="M 0.00390625 0.160156 L 5.546875 0.160156 L 5.546875 15.480469 L 0.00390625 15.480469 Z M 0.00390625 0.160156 " clip-rule="nonzero"/></clipPath><clipPath id="03cf376592"><path d="M 3.101562 0.320312 C 3.421875 4.195312 4.875 8.421875 5.144531 12.238281 C 5.242188 13.628906 6.003906 14.304688 4.296875 15.414062 C 1.1875 16.070312 1.058594 3.667969 0.0351562 1.578125 Z M 3.101562 0.320312 " clip-rule="nonzero"/></clipPath><clipPath id="6a4699c118"><rect x="0" width="6" y="0" height="16"/></clipPath><clipPath id="595b378c5b"><path d="M 5.128906 23 L 16.121094 23 L 16.121094 35.429688 L 5.128906 35.429688 Z M 5.128906 23 " clip-rule="nonzero"/></clipPath><clipPath id="44e5dedabc"><path d="M 15.855469 35.117188 C 14.027344 35.441406 13.414062 34.65625 12.253906 33.558594 C 10.984375 32.351562 4.25 24.5 5.527344 23.210938 C 7.949219 22.789062 9.273438 24.929688 10.691406 26.371094 C 11.917969 27.609375 17.210938 33.664062 15.84375 35.117188 " clip-rule="nonzero"/></clipPath><clipPath id="7ac1e3e64e"><path d="M 0.128906 0 L 11.121094 0 L 11.121094 12.429688 L 0.128906 12.429688 Z M 0.128906 0 " clip-rule="nonzero"/></clipPath><clipPath id="d590388f22"><path d="M 10.855469 12.117188 C 9.027344 12.441406 8.414062 11.65625 7.253906 10.558594 C 5.984375 9.351562 -0.75 1.5 0.527344 0.210938 C 2.949219 -0.210938 4.273438 1.929688 5.691406 3.371094 C 6.917969 4.609375 12.210938 10.664062 10.84375 12.117188 " clip-rule="nonzero"/></clipPath><clipPath id="778d04adc0"><rect x="0" width="12" y="0" height="13"/></clipPath><clipPath id="2190b0a1a2"><path d="M 62.777344 10.269531 L 70 10.269531 L 70 24.925781 L 62.777344 24.925781 Z M 62.777344 10.269531 " clip-rule="nonzero"/></clipPath><clipPath id="aaacf1aa99"><path d="M 69.875 10.503906 C 70.542969 11.195312 66.519531 25.316406 63.9375 24.789062 C 62.304688 24.457031 63.066406 22.757812 63.292969 21.800781 C 63.800781 19.691406 65.832031 13.507812 66.875 11.859375 C 67.824219 10.355469 68.027344 10.289062 69.875 10.503906 " clip-rule="nonzero"/></clipPath><clipPath id="73a28c24fe"><path d="M 0.777344 0.269531 L 8 0.269531 L 8 14.925781 L 0.777344 14.925781 Z M 0.777344 0.269531 " clip-rule="nonzero"/></clipPath><clipPath id="0ae037ed6d"><path d="M 7.875 0.503906 C 8.542969 1.195312 4.519531 15.316406 1.9375 14.789062 C 0.304688 14.457031 1.066406 12.757812 1.292969 11.800781 C 1.800781 9.691406 3.832031 3.507812 4.875 1.859375 C 5.824219 0.355469 6.027344 0.289062 7.875 0.503906 " clip-rule="nonzero"/></clipPath><clipPath id="f474eb60aa"><rect x="0" width="8" y="0" height="15"/></clipPath><clipPath id="36c96f3a64"><path d="M 24.425781 10.023438 L 31.753906 10.023438 L 31.753906 24.925781 L 24.425781 24.925781 Z M 24.425781 10.023438 " clip-rule="nonzero"/></clipPath><clipPath id="e20944e999"><path d="M 24.601562 10.503906 C 27.152344 7.933594 31.109375 20.015625 31.410156 21.59375 C 32.109375 25.351562 30.207031 26.09375 28.332031 22.261719 C 27.558594 20.671875 23.890625 11.238281 24.613281 10.503906 " clip-rule="nonzero"/></clipPath><clipPath id="e53e485bcd"><path d="M 0.425781 0.0234375 L 7.753906 0.0234375 L 7.753906 14.925781 L 0.425781 14.925781 Z M 0.425781 0.0234375 " clip-rule="nonzero"/></clipPath><clipPath id="6586790272"><path d="M 0.601562 0.503906 C 3.152344 -2.066406 7.109375 10.015625 7.410156 11.59375 C 8.109375 15.351562 6.207031 16.09375 4.332031 12.261719 C 3.558594 10.671875 -0.109375 1.238281 0.613281 0.503906 " clip-rule="nonzero"/></clipPath><clipPath id="f8245aa145"><rect x="0" width="8" y="0" height="15"/></clipPath><clipPath id="ed6aade9cc"><path d="M 78.164062 23 L 89.15625 23 L 89.15625 35.183594 L 78.164062 35.183594 Z M 78.164062 23 " clip-rule="nonzero"/></clipPath><clipPath id="abef625fb0"><path d="M 88.9375 23.210938 C 90.058594 24.316406 81.632812 36 78.621094 35.117188 C 77.257812 33.664062 82.546875 27.621094 83.773438 26.371094 C 85.195312 24.929688 86.527344 22.789062 88.9375 23.210938 " clip-rule="nonzero"/></clipPath><clipPath id="295ad7c8ab"><path d="M 0.164062 0 L 11.15625 0 L 11.15625 12.183594 L 0.164062 12.183594 Z M 0.164062 0 " clip-rule="nonzero"/></clipPath><clipPath id="71c9462308"><path d="M 10.9375 0.210938 C 12.058594 1.316406 3.632812 13 0.621094 12.117188 C -0.742188 10.664062 4.546875 4.621094 5.773438 3.371094 C 7.195312 1.929688 8.527344 -0.210938 10.9375 0.210938 " clip-rule="nonzero"/></clipPath><clipPath id="e5ba77fc9f"><rect x="0" width="12" y="0" height="13"/></clipPath><clipPath id="ddd99a1447"><path d="M 14.167969 15.886719 L 23.695312 15.886719 L 23.695312 29 L 14.167969 29 Z M 14.167969 15.886719 " clip-rule="nonzero"/></clipPath><clipPath id="40785b0f2e"><path d="M 17.363281 16.152344 C 17.878906 16.441406 22.964844 25.359375 23.417969 26.382812 C 24.300781 28.371094 21.996094 29.964844 20.382812 27.792969 C 19.597656 26.738281 14.4375 18.519531 14.351562 17.949219 C 14.113281 16.421875 16.210938 15.496094 17.371094 16.152344 " clip-rule="nonzero"/></clipPath><clipPath id="95880fc0a1"><path d="M 0.167969 0.886719 L 9.695312 0.886719 L 9.695312 14 L 0.167969 14 Z M 0.167969 0.886719 " clip-rule="nonzero"/></clipPath><clipPath id="fa760a1519"><path d="M 3.363281 1.152344 C 3.878906 1.441406 8.964844 10.359375 9.417969 11.382812 C 10.300781 13.371094 7.996094 14.964844 6.382812 12.792969 C 5.597656 11.738281 0.4375 3.519531 0.351562 2.949219 C 0.113281 1.421875 2.210938 0.496094 3.371094 1.152344 " clip-rule="nonzero"/></clipPath><clipPath id="437c6de68a"><rect x="0" width="10" y="0" height="14"/></clipPath><clipPath id="148ec68d34"><path d="M 70.835938 15.886719 L 79.875 15.886719 L 79.875 29 L 70.835938 29 Z M 70.835938 15.886719 " clip-rule="nonzero"/></clipPath><clipPath id="62a60f2f79"><path d="M 79.40625 16.066406 C 79.644531 17.355469 79.976562 17.539062 79.492188 18.851562 C 78.957031 20.316406 75.191406 26.339844 74.105469 27.800781 C 72.480469 29.984375 70.1875 28.382812 71.058594 26.394531 C 71.664062 25.039062 77.761719 14.710938 79.40625 16.066406 " clip-rule="nonzero"/></clipPath><clipPath id="154b63ba52"><path d="M 0.835938 0.886719 L 9.875 0.886719 L 9.875 14 L 0.835938 14 Z M 0.835938 0.886719 " clip-rule="nonzero"/></clipPath><clipPath id="ae68613484"><path d="M 9.40625 1.066406 C 9.644531 2.355469 9.976562 2.539062 9.492188 3.851562 C 8.957031 5.316406 5.191406 11.339844 4.105469 12.800781 C 2.480469 14.984375 0.1875 13.382812 1.058594 11.394531 C 1.664062 10.039062 7.761719 -0.289062 9.40625 1.066406 " clip-rule="nonzero"/></clipPath><clipPath id="9dfdb3bb1d"><rect x="0" width="10" y="0" height="14"/></clipPath><clipPath id="14f8f87b3b"><path d="M 39.570312 31.765625 L 56.179688 31.765625 L 56.179688 48.375 L 39.570312 48.375 Z M 39.570312 31.765625 " clip-rule="nonzero"/></clipPath><clipPath id="fb98ef656a"><path d="M 45.019531 32.117188 C 58.128906 29.113281 60.28125 47.972656 47.910156 48.347656 C 38.164062 48.636719 36.734375 34.007812 45.019531 32.117188 " clip-rule="nonzero"/></clipPath><clipPath id="901c8c31f8"><path d="M 0.570312 0.765625 L 17.179688 0.765625 L 17.179688 17.375 L 0.570312 17.375 Z M 0.570312 0.765625 " clip-rule="nonzero"/></clipPath><clipPath id="e950a9ca3e"><path d="M 6.019531 1.117188 C 19.128906 -1.886719 21.28125 16.972656 8.910156 17.347656 C -0.835938 17.636719 -2.265625 3.007812 6.019531 1.117188 " clip-rule="nonzero"/></clipPath><clipPath id="818eeaebad"><rect x="0" width="18" y="0" height="18"/></clipPath><clipPath id="907a9cec5e"><path d="M 0.382812 15 L 8 15 L 8 24 L 0.382812 24 Z M 0.382812 15 " clip-rule="nonzero"/></clipPath><clipPath id="c945b1d114"><rect x="0" width="51" y="0" height="27"/></clipPath></defs><g clip-path="url(#15fe8831d5)"><g clip-path="url(#ceb97b4e17)"><g transform="matrix(1, 0, 0, 1, 12, 23)"><g clip-path="url(#076f17c93b)"><g clip-path="url(#b349654cb7)"><g clip-path="url(#25d6c5a8a0)"><rect x="-32.955" width="137.16" fill="#fff8f8" height="139.32" y="-44.285" fill-opacity="1"/></g></g></g></g></g></g><g clip-path="url(#9c52aba2f0)"><g clip-path="url(#cc215428dd)"><g transform="matrix(1, 0, 0, 1, 45, 5)"><g clip-path="url(#6c8abb7104)"><g clip-path="url(#67597d5c1f)"><g clip-path="url(#0a23df4c3d)"><rect x="-65.955" width="137.16" fill="#fff8f8" height="139.32" y="-26.285" fill-opacity="1"/></g></g></g></g></g></g><g clip-path="url(#65b5fca734)"><g clip-path="url(#4b54b9c6ae)"><g transform="matrix(1, 0, 0, 1, 54, 6)"><g clip-path="url(#18b50f2426)"><g clip-path="url(#9b71efaed1)"><g clip-path="url(#c973a7fafe)"><rect x="-74.955" width="137.16" fill="#fff8f8" height="139.32" y="-27.285" fill-opacity="1"/></g></g></g></g></g></g><g clip-path="url(#5d16a847cd)"><g clip-path="url(#e577416ce5)"><g transform="matrix(1, 0, 0, 1, 35, 7)"><g clip-path="url(#6a4699c118)"><g clip-path="url(#505b359878)"><g clip-path="url(#03cf376592)"><rect x="-55.955" width="137.16" fill="#fff8f8" height="139.32" y="-28.285" fill-opacity="1"/></g></g></g></g></g></g><g clip-path="url(#595b378c5b)"><g clip-path="url(#44e5dedabc)"><g transform="matrix(1, 0, 0, 1, 5, 23)"><g clip-path="url(#778d04adc0)"><g clip-path="url(#7ac1e3e64e)"><g clip-path="url(#d590388f22)"><rect x="-25.955" width="137.16" fill="#fff8f8" height="139.32" y="-44.285" fill-opacity="1"/></g></g></g></g></g></g><g clip-path="url(#2190b0a1a2)"><g clip-path="url(#aaacf1aa99)"><g transform="matrix(1, 0, 0, 1, 62, 10)"><g clip-path="url(#f474eb60aa)"><g clip-path="url(#73a28c24fe)"><g clip-path="url(#0ae037ed6d)"><rect x="-82.955" width="137.16" fill="#fff8f8" height="139.32" y="-31.285" fill-opacity="1"/></g></g></g></g></g></g><g clip-path="url(#36c96f3a64)"><g clip-path="url(#e20944e999)"><g transform="matrix(1, 0, 0, 1, 24, 10)"><g clip-path="url(#f8245aa145)"><g clip-path="url(#e53e485bcd)"><g clip-path="url(#6586790272)"><rect x="-44.955" width="137.16" fill="#fff8f8" height="139.32" y="-31.285" fill-opacity="1"/></g></g></g></g></g></g><g clip-path="url(#ed6aade9cc)"><g clip-path="url(#abef625fb0)"><g transform="matrix(1, 0, 0, 1, 78, 23)"><g clip-path="url(#e5ba77fc9f)"><g clip-path="url(#295ad7c8ab)"><g clip-path="url(#71c9462308)"><rect x="-98.955" width="137.16" fill="#fff8f8" height="139.32" y="-44.285" fill-opacity="1"/></g></g></g></g></g></g><g clip-path="url(#ddd99a1447)"><g clip-path="url(#40785b0f2e)"><g transform="matrix(1, 0, 0, 1, 14, 15)"><g clip-path="url(#437c6de68a)"><g clip-path="url(#95880fc0a1)"><g clip-path="url(#fa760a1519)"><rect x="-34.955" width="137.16" fill="#fff8f8" height="139.32" y="-36.285" fill-opacity="1"/></g></g></g></g></g></g><g clip-path="url(#148ec68d34)"><g clip-path="url(#62a60f2f79)"><g transform="matrix(1, 0, 0, 1, 70, 15)"><g clip-path="url(#9dfdb3bb1d)"><g clip-path="url(#154b63ba52)"><g clip-path="url(#ae68613484)"><rect x="-90.955" width="137.16" fill="#fff8f8" height="139.32" y="-36.285" fill-opacity="1"/></g></g></g></g></g></g><g clip-path="url(#14f8f87b3b)"><g clip-path="url(#fb98ef656a)"><g transform="matrix(1, 0, 0, 1, 39, 31)"><g clip-path="url(#818eeaebad)"><g clip-path="url(#901c8c31f8)"><g clip-path="url(#e950a9ca3e)"><rect x="-59.955" width="137.16" fill="#4f6c54" height="139.32" y="-52.285" fill-opacity="1"/></g></g></g></g></g></g><g transform="matrix(1, 0, 0, 1, 22, 67)"><g clip-path="url(#c945b1d114)"><g fill="#ffffff" fill-opacity="1"><g transform="translate(4.644236, 9.503088)"><g><path d="M 6.6875 -7.15625 L 2.90625 0 L 1.5625 0 L 0.546875 -7.15625 L 2 -7.15625 L 2.5625 -1.859375 L 5.203125 -7.15625 Z M 6.6875 -7.15625 "/></g></g></g><g fill="#ffffff" fill-opacity="1"><g transform="translate(10.621992, 9.503088)"><g><path d="M 0.265625 0 L 1.671875 -7.15625 L 6 -7.15625 L 5.75 -5.9375 L 2.765625 -5.9375 L 2.484375 -4.4375 L 4.84375 -4.4375 L 4.609375 -3.203125 L 2.234375 -3.203125 L 1.859375 -1.234375 L 4.9375 -1.234375 L 4.703125 0 Z M 0.265625 0 "/></g></g></g><g fill="#ffffff" fill-opacity="1"><g transform="translate(16.497386, 9.503088)"><g><path d="M 6.125 -5.46875 C 6.125 -4.851562 5.945312 -4.347656 5.59375 -3.953125 C 5.238281 -3.554688 4.8125 -3.304688 4.3125 -3.203125 L 5.703125 0 L 4.25 0 L 2.9375 -3.09375 L 2.203125 -3.09375 L 1.609375 0 L 0.265625 0 L 1.671875 -7.15625 L 4.203125 -7.15625 C 4.796875 -7.15625 5.265625 -7.003906 5.609375 -6.703125 C 5.953125 -6.398438 6.125 -5.988281 6.125 -5.46875 Z M 2.765625 -5.9375 L 2.453125 -4.3125 L 3.65625 -4.3125 C 3.976562 -4.3125 4.242188 -4.398438 4.453125 -4.578125 C 4.660156 -4.753906 4.765625 -4.984375 4.765625 -5.265625 C 4.765625 -5.710938 4.515625 -5.9375 4.015625 -5.9375 Z M 2.765625 -5.9375 "/></g></g></g><g fill="#ffffff" fill-opacity="1"><g transform="translate(22.782211, 9.503088)"><g><path d="M 2.453125 0 L 0.265625 0 L 1.671875 -7.15625 L 3.703125 -7.15625 C 4.554688 -7.15625 5.242188 -6.910156 5.765625 -6.421875 C 6.304688 -5.921875 6.578125 -5.207031 6.578125 -4.28125 C 6.578125 -2.957031 6.195312 -1.910156 5.4375 -1.140625 C 4.675781 -0.378906 3.679688 0 2.453125 0 Z M 2.765625 -5.9375 L 1.859375 -1.234375 L 2.421875 -1.234375 C 3.285156 -1.234375 3.960938 -1.488281 4.453125 -2 C 4.953125 -2.519531 5.203125 -3.210938 5.203125 -4.078125 C 5.203125 -4.734375 5.035156 -5.207031 4.703125 -5.5 C 4.367188 -5.789062 3.882812 -5.9375 3.25 -5.9375 Z M 2.765625 -5.9375 "/></g></g></g><g fill="#ffffff" fill-opacity="1"><g transform="translate(29.742605, 9.503088)"><g><path d="M 0.265625 0 L 1.671875 -7.15625 L 6 -7.15625 L 5.75 -5.9375 L 2.765625 -5.9375 L 2.484375 -4.4375 L 4.84375 -4.4375 L 4.609375 -3.203125 L 2.234375 -3.203125 L 1.859375 -1.234375 L 4.9375 -1.234375 L 4.703125 0 Z M 0.265625 0 "/></g></g></g><g fill="#ffffff" fill-opacity="1"><g transform="translate(35.617999, 9.503088)"><g/></g></g><g fill="#ffffff" fill-opacity="1"><g transform="translate(37.880128, 9.503088)"><g><path d="M -0.890625 0.515625 L 5.0625 -7.671875 L 6.421875 -7.671875 L 0.46875 0.515625 Z M -0.890625 0.515625 "/></g></g></g><g fill="#ffffff" fill-opacity="1"><g transform="translate(43.495367, 9.503088)"><g/></g></g><g clip-path="url(#907a9cec5e)"><g fill="#ffffff" fill-opacity="1"><g transform="translate(0.396076, 23.218218)"><g><path d="M 7.0625 -4.984375 L 5.796875 -4.671875 C 5.703125 -5.140625 5.53125 -5.476562 5.28125 -5.6875 C 5.03125 -5.90625 4.691406 -6.015625 4.265625 -6.015625 C 3.523438 -6.015625 2.914062 -5.710938 2.4375 -5.109375 C 1.957031 -4.503906 1.71875 -3.816406 1.71875 -3.046875 C 1.71875 -2.441406 1.859375 -1.972656 2.140625 -1.640625 C 2.429688 -1.304688 2.820312 -1.140625 3.3125 -1.140625 C 3.738281 -1.140625 4.101562 -1.25 4.40625 -1.46875 C 4.707031 -1.6875 4.988281 -2.039062 5.25 -2.53125 L 6.421875 -2.171875 C 6.097656 -1.390625 5.664062 -0.816406 5.125 -0.453125 C 4.582031 -0.0976562 3.898438 0.078125 3.078125 0.078125 C 2.304688 0.078125 1.660156 -0.195312 1.140625 -0.75 C 0.617188 -1.289062 0.359375 -2.019531 0.359375 -2.9375 C 0.359375 -4.113281 0.75 -5.128906 1.53125 -5.984375 C 2.3125 -6.828125 3.300781 -7.25 4.5 -7.25 C 5.25 -7.25 5.847656 -7.035156 6.296875 -6.609375 C 6.734375 -6.191406 6.988281 -5.648438 7.0625 -4.984375 Z M 7.0625 -4.984375 "/></g></g></g></g><g fill="#ffffff" fill-opacity="1"><g transform="translate(7.499774, 23.218218)"><g><path d="M 1.671875 -7.15625 L 3.015625 -7.15625 L 1.609375 0 L 0.265625 0 Z M 1.671875 -7.15625 "/></g></g></g><g fill="#ffffff" fill-opacity="1"><g transform="translate(10.775256, 23.218218)"><g><path d="M 4.765625 -2.4375 L 5.6875 -7.15625 L 7.015625 -7.15625 L 5.625 0 L 4.203125 0 L 2.53125 -4.734375 L 1.609375 0 L 0.265625 0 L 1.671875 -7.15625 L 3.078125 -7.15625 Z M 4.765625 -2.4375 "/></g></g></g><g fill="#ffffff" fill-opacity="1"><g transform="translate(18.063203, 23.218218)"><g><path d="M 3.9375 -5.9375 L 1 -5.9375 L 1.25 -7.15625 L 6.03125 -7.15625 L 5.90625 -6.546875 L 1.796875 -1.234375 L 5.03125 -1.234375 L 4.796875 0 L -0.296875 0 L -0.171875 -0.609375 Z M 3.9375 -5.9375 "/></g></g></g><g fill="#ffffff" fill-opacity="1"><g transform="translate(23.9693, 23.218218)"><g><path d="M 0.265625 0 L 1.671875 -7.15625 L 6 -7.15625 L 5.75 -5.9375 L 2.765625 -5.9375 L 2.484375 -4.4375 L 4.84375 -4.4375 L 4.609375 -3.203125 L 2.234375 -3.203125 L 1.859375 -1.234375 L 4.9375 -1.234375 L 4.703125 0 Z M 0.265625 0 "/></g></g></g><g fill="#ffffff" fill-opacity="1"><g transform="translate(29.844694, 23.218218)"><g><path d="M 4.765625 -2.4375 L 5.6875 -7.15625 L 7.015625 -7.15625 L 5.625 0 L 4.203125 0 L 2.53125 -4.734375 L 1.609375 0 L 0.265625 0 L 1.671875 -7.15625 L 3.078125 -7.15625 Z M 4.765625 -2.4375 "/></g></g></g><g fill="#ffffff" fill-opacity="1"><g transform="translate(37.132642, 23.218218)"><g><path d="M 2.453125 -5.9375 L 0.5 -5.9375 L 0.75 -7.15625 L 5.984375 -7.15625 L 5.734375 -5.9375 L 3.78125 -5.9375 L 2.625 0 L 1.296875 0 Z M 2.453125 -5.9375 "/></g></g></g><g fill="#ffffff" fill-opacity="1"><g transform="translate(42.496245, 23.218218)"><g><path d="M 3.15625 0.078125 C 2.363281 0.078125 1.695312 -0.175781 1.15625 -0.6875 C 0.625 -1.207031 0.359375 -1.953125 0.359375 -2.921875 C 0.359375 -4.117188 0.6875 -5.109375 1.34375 -5.890625 C 2.101562 -6.796875 3.09375 -7.25 4.3125 -7.25 C 5.09375 -7.25 5.753906 -6.984375 6.296875 -6.453125 C 6.835938 -5.941406 7.109375 -5.203125 7.109375 -4.234375 C 7.109375 -3.046875 6.78125 -2.054688 6.125 -1.265625 C 5.375 -0.367188 4.382812 0.078125 3.15625 0.078125 Z M 3.265625 -1.140625 C 3.921875 -1.140625 4.488281 -1.414062 4.96875 -1.96875 C 5.476562 -2.5625 5.734375 -3.285156 5.734375 -4.140625 C 5.734375 -4.734375 5.597656 -5.191406 5.328125 -5.515625 C 5.066406 -5.847656 4.691406 -6.015625 4.203125 -6.015625 C 3.546875 -6.015625 2.976562 -5.742188 2.5 -5.203125 C 1.988281 -4.597656 1.734375 -3.875 1.734375 -3.03125 C 1.734375 -2.4375 1.863281 -1.972656 2.125 -1.640625 C 2.394531 -1.304688 2.773438 -1.140625 3.265625 -1.140625 Z M 3.265625 -1.140625 "/></g></g></g></g></g></svg>