<svg xmlns="http://www.w3.org/2000/svg" xmlns:xlink="http://www.w3.org/1999/xlink" width="127" zoomAndPan="magnify" viewBox="0 0 95.25 89.999999" height="120" preserveAspectRatio="xMidYMid meet" version="1.0"><defs><g/><clipPath id="141bdbd513"><path d="M 12.710938 23.082031 L 81.632812 23.082031 L 81.632812 57.789062 L 12.710938 57.789062 Z M 12.710938 23.082031 " clip-rule="nonzero"/></clipPath><clipPath id="73f476772f"><path d="M 77.816406 41.5625 C 78.117188 40.34375 77.632812 40.292969 76.976562 39.636719 C 75.136719 37.796875 62.003906 28.375 60.347656 29.664062 C 65.703125 37.160156 65.316406 46.121094 58.753906 52.683594 C 66.25 51.058594 71.578125 45.476562 77.816406 41.5625 M 34.132812 29.664062 C 32.550781 28.449219 19.082031 37.679688 17.425781 39.558594 C 16.824219 40.25 16.394531 40.441406 16.664062 41.550781 C 22.964844 45.324219 28.042969 51.394531 35.722656 52.671875 C 28.816406 45.9375 29.023438 37.410156 34.132812 29.652344 M 47.234375 26.921875 C 26.226562 27.242188 30.9375 59.351562 51.257812 53.523438 C 66.242188 49.21875 63.089844 26.671875 47.234375 26.921875 M 41.886719 23.511719 C 56.300781 21.53125 72.671875 29.75 81.484375 40.820312 C 63.800781 63.042969 29.9375 63.34375 12.886719 40.367188 C 19.597656 32.921875 31.863281 24.886719 41.886719 23.511719 " clip-rule="nonzero"/></clipPath><clipPath id="fd99643110"><path d="M 0.859375 0.0820312 L 69.632812 0.0820312 L 69.632812 34.789062 L 0.859375 34.789062 Z M 0.859375 0.0820312 " clip-rule="nonzero"/></clipPath><clipPath id="9eaa27a9cb"><path d="M 65.816406 18.5625 C 66.117188 17.34375 65.632812 17.292969 64.976562 16.636719 C 63.136719 14.796875 50.003906 5.375 48.347656 6.664062 C 53.703125 14.160156 53.316406 23.121094 46.753906 29.683594 C 54.25 28.058594 59.578125 22.476562 65.816406 18.5625 M 22.132812 6.664062 C 20.550781 5.449219 7.082031 14.679688 5.425781 16.558594 C 4.824219 17.25 4.394531 17.441406 4.664062 18.550781 C 10.964844 22.324219 16.042969 28.394531 23.722656 29.671875 C 16.816406 22.9375 17.023438 14.410156 22.132812 6.652344 M 35.234375 3.921875 C 14.226562 4.242188 18.9375 36.351562 39.257812 30.523438 C 54.242188 26.21875 51.089844 3.671875 35.234375 3.921875 M 29.886719 0.511719 C 44.300781 -1.46875 60.671875 6.75 69.484375 17.820312 C 51.800781 40.042969 17.9375 40.34375 0.886719 17.367188 C 7.597656 9.921875 19.863281 1.886719 29.886719 0.511719 " clip-rule="nonzero"/></clipPath><clipPath id="c548cf7692"><rect x="0" width="70" y="0" height="35"/></clipPath><clipPath id="1e947f9a89"><path d="M 45 5.730469 L 49.371094 5.730469 L 49.371094 21.859375 L 45 21.859375 Z M 45 5.730469 " clip-rule="nonzero"/></clipPath><clipPath id="62bc2ba92e"><path d="M 45.253906 7.816406 C 45.75 4.644531 49.222656 5.460938 49.222656 7.816406 L 49.222656 19.726562 C 49.222656 19.972656 47.609375 21.199219 47.234375 21.691406 C 46.855469 21.199219 45.242188 19.972656 45.242188 19.726562 C 45.242188 16.230469 44.75 10.988281 45.242188 7.804688 " clip-rule="nonzero"/></clipPath><clipPath id="037b0ac9b3"><path d="M 0 0.730469 L 4.292969 0.730469 L 4.292969 16.78125 L 0 16.78125 Z M 0 0.730469 " clip-rule="nonzero"/></clipPath><clipPath id="a2ea5022ab"><path d="M 0.253906 2.816406 C 0.75 -0.355469 4.222656 0.460938 4.222656 2.816406 L 4.222656 14.726562 C 4.222656 14.972656 2.609375 16.199219 2.234375 16.691406 C 1.855469 16.199219 0.242188 14.972656 0.242188 14.726562 C 0.242188 11.230469 -0.25 5.988281 0.242188 2.804688 " clip-rule="nonzero"/></clipPath><clipPath id="f80e03ac63"><rect x="0" width="5" y="0" height="17"/></clipPath><clipPath id="b612d36f9b"><path d="M 54.015625 6.707031 L 59.636719 6.707031 L 59.636719 22.59375 L 54.015625 22.59375 Z M 54.015625 6.707031 " clip-rule="nonzero"/></clipPath><clipPath id="e2eedee88e"><path d="M 59.550781 7.417969 C 59.390625 9.699219 58.011719 23.089844 55.195312 22.5 C 53.484375 21.382812 54.246094 20.714844 54.34375 19.328125 C 54.441406 17.886719 56.324219 4.171875 59.550781 7.417969 " clip-rule="nonzero"/></clipPath><clipPath id="42c3c61b76"><path d="M 0.015625 0.707031 L 5.636719 0.707031 L 5.636719 16.59375 L 0.015625 16.59375 Z M 0.015625 0.707031 " clip-rule="nonzero"/></clipPath><clipPath id="1758aa95ff"><path d="M 5.550781 1.417969 C 5.390625 3.699219 4.011719 17.089844 1.195312 16.5 C -0.515625 15.382812 0.246094 14.714844 0.34375 13.328125 C 0.441406 11.886719 2.324219 -1.828125 5.550781 1.417969 " clip-rule="nonzero"/></clipPath><clipPath id="4f4d9548b0"><rect x="0" width="6" y="0" height="17"/></clipPath><clipPath id="38685b2c71"><path d="M 35 7.195312 L 40.570312 7.195312 L 40.570312 22.59375 L 35 22.59375 Z M 35 7.195312 " clip-rule="nonzero"/></clipPath><clipPath id="873441c57c"><path d="M 38.101562 7.417969 C 38.421875 11.292969 39.875 15.519531 40.144531 19.335938 C 40.242188 20.726562 41.003906 21.402344 39.292969 22.511719 C 36.1875 23.167969 36.058594 10.765625 35.035156 8.675781 Z M 38.101562 7.417969 " clip-rule="nonzero"/></clipPath><clipPath id="06f56760fa"><path d="M 0.00390625 0.257812 L 5.570312 0.257812 L 5.570312 15.59375 L 0.00390625 15.59375 Z M 0.00390625 0.257812 " clip-rule="nonzero"/></clipPath><clipPath id="9bb63e1fd8"><path d="M 3.101562 0.417969 C 3.421875 4.292969 4.875 8.519531 5.144531 12.335938 C 5.242188 13.726562 6.003906 14.402344 4.292969 15.511719 C 1.1875 16.167969 1.058594 3.765625 0.0351562 1.675781 Z M 3.101562 0.417969 " clip-rule="nonzero"/></clipPath><clipPath id="8553f5c5a6"><rect x="0" width="6" y="0" height="16"/></clipPath><clipPath id="3059a55df5"><path d="M 62.8125 10.371094 L 70 10.371094 L 70 25 L 62.8125 25 Z M 62.8125 10.371094 " clip-rule="nonzero"/></clipPath><clipPath id="930b1cd4d1"><path d="M 69.875 10.601562 C 70.542969 11.292969 66.519531 25.414062 63.9375 24.886719 C 62.304688 24.554688 63.066406 22.855469 63.292969 21.898438 C 63.800781 19.789062 65.832031 13.605469 66.875 11.957031 C 67.820312 10.453125 68.027344 10.386719 69.875 10.601562 " clip-rule="nonzero"/></clipPath><clipPath id="d28936651f"><path d="M 0.8125 0.371094 L 8 0.371094 L 8 15 L 0.8125 15 Z M 0.8125 0.371094 " clip-rule="nonzero"/></clipPath><clipPath id="7c24abff7c"><path d="M 7.875 0.601562 C 8.542969 1.292969 4.519531 15.414062 1.9375 14.886719 C 0.304688 14.554688 1.066406 12.855469 1.292969 11.898438 C 1.800781 9.789062 3.832031 3.605469 4.875 1.957031 C 5.820312 0.453125 6.027344 0.386719 7.875 0.601562 " clip-rule="nonzero"/></clipPath><clipPath id="1f8fc19dfe"><rect x="0" width="8" y="0" height="15"/></clipPath><clipPath id="55262fe2f9"><path d="M 24.441406 10.128906 L 31.773438 10.128906 L 31.773438 25 L 24.441406 25 Z M 24.441406 10.128906 " clip-rule="nonzero"/></clipPath><clipPath id="737134cff1"><path d="M 24.601562 10.601562 C 27.148438 8.03125 31.109375 20.113281 31.410156 21.691406 C 32.109375 25.449219 30.207031 26.191406 28.332031 22.359375 C 27.558594 20.769531 23.890625 11.335938 24.613281 10.601562 " clip-rule="nonzero"/></clipPath><clipPath id="bb1bbd85ec"><path d="M 0.441406 0.128906 L 7.773438 0.128906 L 7.773438 15 L 0.441406 15 Z M 0.441406 0.128906 " clip-rule="nonzero"/></clipPath><clipPath id="42a9dc1596"><path d="M 0.601562 0.601562 C 3.148438 -1.96875 7.109375 10.113281 7.410156 11.691406 C 8.109375 15.449219 6.207031 16.191406 4.332031 12.359375 C 3.558594 10.769531 -0.109375 1.335938 0.613281 0.601562 " clip-rule="nonzero"/></clipPath><clipPath id="e52ce46941"><rect x="0" width="8" y="0" height="15"/></clipPath><clipPath id="ecf61a1177"><path d="M 5.132812 23.082031 L 16.132812 23.082031 L 16.132812 35.300781 L 5.132812 35.300781 Z M 5.132812 23.082031 " clip-rule="nonzero"/></clipPath><clipPath id="2111e37461"><path d="M 15.855469 35.214844 C 14.027344 35.539062 13.414062 34.753906 12.253906 33.65625 C 10.984375 32.449219 4.25 24.597656 5.527344 23.308594 C 7.949219 22.886719 9.273438 25.027344 10.691406 26.46875 C 11.917969 27.707031 17.210938 33.761719 15.84375 35.214844 " clip-rule="nonzero"/></clipPath><clipPath id="2f0d12c9b6"><path d="M 0.132812 0.0820312 L 11.132812 0.0820312 L 11.132812 12.300781 L 0.132812 12.300781 Z M 0.132812 0.0820312 " clip-rule="nonzero"/></clipPath><clipPath id="2c6ba7896b"><path d="M 10.855469 12.214844 C 9.027344 12.539062 8.414062 11.753906 7.253906 10.65625 C 5.984375 9.449219 -0.75 1.597656 0.527344 0.308594 C 2.949219 -0.113281 4.273438 2.027344 5.691406 3.46875 C 6.917969 4.707031 12.210938 10.761719 10.84375 12.214844 " clip-rule="nonzero"/></clipPath><clipPath id="742e1404e3"><rect x="0" width="12" y="0" height="13"/></clipPath><clipPath id="7ff5a7df46"><path d="M 78.210938 23.082031 L 89.207031 23.082031 L 89.207031 35.300781 L 78.210938 35.300781 Z M 78.210938 23.082031 " clip-rule="nonzero"/></clipPath><clipPath id="9a23800278"><path d="M 88.9375 23.308594 C 90.054688 24.414062 81.632812 36.097656 78.621094 35.214844 C 77.253906 33.761719 82.546875 27.71875 83.773438 26.46875 C 85.195312 25.027344 86.527344 22.886719 88.9375 23.308594 " clip-rule="nonzero"/></clipPath><clipPath id="0d4f71353d"><path d="M 0.210938 0.0820312 L 11.207031 0.0820312 L 11.207031 12.300781 L 0.210938 12.300781 Z M 0.210938 0.0820312 " clip-rule="nonzero"/></clipPath><clipPath id="f5013cd2dd"><path d="M 10.9375 0.308594 C 12.054688 1.414062 3.632812 13.097656 0.621094 12.214844 C -0.746094 10.761719 4.546875 4.71875 5.773438 3.46875 C 7.195312 2.027344 8.527344 -0.113281 10.9375 0.308594 " clip-rule="nonzero"/></clipPath><clipPath id="0f5a281276"><rect x="0" width="12" y="0" height="13"/></clipPath><clipPath id="eec4cbd70c"><path d="M 14.175781 16 L 23.707031 16 L 23.707031 28.949219 L 14.175781 28.949219 Z M 14.175781 16 " clip-rule="nonzero"/></clipPath><clipPath id="80ee3836d2"><path d="M 17.363281 16.25 C 17.878906 16.539062 22.964844 25.457031 23.417969 26.480469 C 24.300781 28.46875 21.996094 30.0625 20.382812 27.890625 C 19.597656 26.835938 14.4375 18.617188 14.351562 18.046875 C 14.113281 16.519531 16.210938 15.59375 17.371094 16.25 " clip-rule="nonzero"/></clipPath><clipPath id="462efaae0b"><path d="M 0.175781 0 L 9.707031 0 L 9.707031 12.949219 L 0.175781 12.949219 Z M 0.175781 0 " clip-rule="nonzero"/></clipPath><clipPath id="196438bc10"><path d="M 3.363281 0.25 C 3.878906 0.539062 8.964844 9.457031 9.417969 10.480469 C 10.300781 12.46875 7.996094 14.0625 6.382812 11.890625 C 5.597656 10.835938 0.4375 2.617188 0.351562 2.046875 C 0.113281 0.519531 2.210938 -0.40625 3.371094 0.25 " clip-rule="nonzero"/></clipPath><clipPath id="00ee2ea8be"><rect x="0" width="10" y="0" height="13"/></clipPath><clipPath id="2999143f9e"><path d="M 70.632812 16 L 79.921875 16 L 79.921875 29 L 70.632812 29 Z M 70.632812 16 " clip-rule="nonzero"/></clipPath><clipPath id="ffe8556f52"><path d="M 79.40625 16.164062 C 79.644531 17.453125 79.976562 17.636719 79.492188 18.949219 C 78.957031 20.414062 75.191406 26.4375 74.105469 27.898438 C 72.480469 30.082031 70.1875 28.480469 71.058594 26.492188 C 71.664062 25.136719 77.761719 14.808594 79.40625 16.164062 " clip-rule="nonzero"/></clipPath><clipPath id="154d81eb17"><path d="M 0.632812 0 L 9.921875 0 L 9.921875 13 L 0.632812 13 Z M 0.632812 0 " clip-rule="nonzero"/></clipPath><clipPath id="088fce742a"><path d="M 9.40625 0.164062 C 9.644531 1.453125 9.976562 1.636719 9.492188 2.949219 C 8.957031 4.414062 5.191406 10.4375 4.105469 11.898438 C 2.480469 14.082031 0.1875 12.480469 1.058594 10.492188 C 1.664062 9.136719 7.761719 -1.191406 9.40625 0.164062 " clip-rule="nonzero"/></clipPath><clipPath id="b989775aea"><rect x="0" width="10" y="0" height="13"/></clipPath><clipPath id="3d8171c306"><path d="M 39.351562 31.878906 L 55.96875 31.878906 L 55.96875 47.765625 L 39.351562 47.765625 Z M 39.351562 31.878906 " clip-rule="nonzero"/></clipPath><clipPath id="099222ceaf"><path d="M 45.835938 32.214844 C 57.292969 29.910156 59.121094 45.457031 50.257812 47.445312 C 38.21875 50.144531 35.667969 34.257812 45.835938 32.214844 " clip-rule="nonzero"/></clipPath><clipPath id="6c487b0e3a"><path d="M 0.351562 0.878906 L 16.96875 0.878906 L 16.96875 16.765625 L 0.351562 16.765625 Z M 0.351562 0.878906 " clip-rule="nonzero"/></clipPath><clipPath id="cae80ca9d2"><path d="M 6.835938 1.214844 C 18.292969 -1.089844 20.121094 14.457031 11.257812 16.445312 C -0.78125 19.144531 -3.332031 3.257812 6.835938 1.214844 " clip-rule="nonzero"/></clipPath><clipPath id="c3104bc1bc"><rect x="0" width="17" y="0" height="17"/></clipPath><clipPath id="f403904516"><rect x="0" width="35" y="0" height="13"/></clipPath></defs><g clip-path="url(#141bdbd513)"><g clip-path="url(#73f476772f)"><g transform="matrix(1, 0, 0, 1, 12, 23)"><g clip-path="url(#c548cf7692)"><g clip-path="url(#fd99643110)"><g clip-path="url(#9eaa27a9cb)"><rect x="-32.955" width="137.16" fill="#fff8f8" height="129.599999" y="-42.8" fill-opacity="1"/></g></g></g></g></g></g><g clip-path="url(#1e947f9a89)"><g clip-path="url(#62bc2ba92e)"><g transform="matrix(1, 0, 0, 1, 45, 5)"><g clip-path="url(#f80e03ac63)"><g clip-path="url(#037b0ac9b3)"><g clip-path="url(#a2ea5022ab)"><rect x="-65.955" width="137.16" fill="#fff8f8" height="129.599999" y="-24.8" fill-opacity="1"/></g></g></g></g></g></g><g clip-path="url(#b612d36f9b)"><g clip-path="url(#e2eedee88e)"><g transform="matrix(1, 0, 0, 1, 54, 6)"><g clip-path="url(#4f4d9548b0)"><g clip-path="url(#42c3c61b76)"><g clip-path="url(#1758aa95ff)"><rect x="-74.955" width="137.16" fill="#fff8f8" height="129.599999" y="-25.8" fill-opacity="1"/></g></g></g></g></g></g><g clip-path="url(#38685b2c71)"><g clip-path="url(#873441c57c)"><g transform="matrix(1, 0, 0, 1, 35, 7)"><g clip-path="url(#8553f5c5a6)"><g clip-path="url(#06f56760fa)"><g clip-path="url(#9bb63e1fd8)"><rect x="-55.955" width="137.16" fill="#fff8f8" height="129.599999" y="-26.8" fill-opacity="1"/></g></g></g></g></g></g><g clip-path="url(#3059a55df5)"><g clip-path="url(#930b1cd4d1)"><g transform="matrix(1, 0, 0, 1, 62, 10)"><g clip-path="url(#1f8fc19dfe)"><g clip-path="url(#d28936651f)"><g clip-path="url(#7c24abff7c)"><rect x="-82.955" width="137.16" fill="#fff8f8" height="129.599999" y="-29.8" fill-opacity="1"/></g></g></g></g></g></g><g clip-path="url(#55262fe2f9)"><g clip-path="url(#737134cff1)"><g transform="matrix(1, 0, 0, 1, 24, 10)"><g clip-path="url(#e52ce46941)"><g clip-path="url(#bb1bbd85ec)"><g clip-path="url(#42a9dc1596)"><rect x="-44.955" width="137.16" fill="#fff8f8" height="129.599999" y="-29.8" fill-opacity="1"/></g></g></g></g></g></g><g clip-path="url(#ecf61a1177)"><g clip-path="url(#2111e37461)"><g transform="matrix(1, 0, 0, 1, 5, 23)"><g clip-path="url(#742e1404e3)"><g clip-path="url(#2f0d12c9b6)"><g clip-path="url(#2c6ba7896b)"><rect x="-25.955" width="137.16" fill="#fff8f8" height="129.599999" y="-42.8" fill-opacity="1"/></g></g></g></g></g></g><g clip-path="url(#7ff5a7df46)"><g clip-path="url(#9a23800278)"><g transform="matrix(1, 0, 0, 1, 78, 23)"><g clip-path="url(#0f5a281276)"><g clip-path="url(#0d4f71353d)"><g clip-path="url(#f5013cd2dd)"><rect x="-98.955" width="137.16" fill="#fff8f8" height="129.599999" y="-42.8" fill-opacity="1"/></g></g></g></g></g></g><g clip-path="url(#eec4cbd70c)"><g clip-path="url(#80ee3836d2)"><g transform="matrix(1, 0, 0, 1, 14, 16)"><g clip-path="url(#00ee2ea8be)"><g clip-path="url(#462efaae0b)"><g clip-path="url(#196438bc10)"><rect x="-34.955" width="137.16" fill="#fff8f8" height="129.599999" y="-35.8" fill-opacity="1"/></g></g></g></g></g></g><g clip-path="url(#2999143f9e)"><g clip-path="url(#ffe8556f52)"><g transform="matrix(1, 0, 0, 1, 70, 16)"><g clip-path="url(#b989775aea)"><g clip-path="url(#154d81eb17)"><g clip-path="url(#088fce742a)"><rect x="-90.955" width="137.16" fill="#fff8f8" height="129.599999" y="-35.8" fill-opacity="1"/></g></g></g></g></g></g><g clip-path="url(#3d8171c306)"><g clip-path="url(#099222ceaf)"><g transform="matrix(1, 0, 0, 1, 39, 31)"><g clip-path="url(#c3104bc1bc)"><g clip-path="url(#6c487b0e3a)"><g clip-path="url(#cae80ca9d2)"><rect x="-59.955" width="137.16" fill="#6fc057" height="129.599999" y="-50.8" fill-opacity="1"/></g></g></g></g></g></g><g transform="matrix(1, 0, 0, 1, 30, 74)"><g clip-path="url(#f403904516)"><g fill="#ffffff" fill-opacity="1"><g transform="translate(0.615397, 9.169099)"><g><path d="M 6.6875 -7.15625 L 2.90625 0 L 1.5625 0 L 0.546875 -7.15625 L 2 -7.15625 L 2.5625 -1.859375 L 5.203125 -7.15625 Z M 6.6875 -7.15625 "/></g></g></g><g fill="#ffffff" fill-opacity="1"><g transform="translate(6.593153, 9.169099)"><g><path d="M 0.265625 0 L 1.671875 -7.15625 L 6 -7.15625 L 5.75 -5.9375 L 2.765625 -5.9375 L 2.484375 -4.4375 L 4.84375 -4.4375 L 4.609375 -3.203125 L 2.234375 -3.203125 L 1.859375 -1.234375 L 4.9375 -1.234375 L 4.703125 0 Z M 0.265625 0 "/></g></g></g><g fill="#ffffff" fill-opacity="1"><g transform="translate(12.468547, 9.169099)"><g><path d="M 6.125 -5.46875 C 6.125 -4.851562 5.945312 -4.347656 5.59375 -3.953125 C 5.238281 -3.554688 4.8125 -3.304688 4.3125 -3.203125 L 5.703125 0 L 4.25 0 L 2.9375 -3.09375 L 2.203125 -3.09375 L 1.609375 0 L 0.265625 0 L 1.671875 -7.15625 L 4.203125 -7.15625 C 4.796875 -7.15625 5.265625 -7.003906 5.609375 -6.703125 C 5.953125 -6.398438 6.125 -5.988281 6.125 -5.46875 Z M 2.765625 -5.9375 L 2.453125 -4.3125 L 3.65625 -4.3125 C 3.976562 -4.3125 4.242188 -4.398438 4.453125 -4.578125 C 4.660156 -4.753906 4.765625 -4.984375 4.765625 -5.265625 C 4.765625 -5.710938 4.515625 -5.9375 4.015625 -5.9375 Z M 2.765625 -5.9375 "/></g></g></g><g fill="#ffffff" fill-opacity="1"><g transform="translate(18.753372, 9.169099)"><g><path d="M 2.453125 0 L 0.265625 0 L 1.671875 -7.15625 L 3.703125 -7.15625 C 4.554688 -7.15625 5.242188 -6.910156 5.765625 -6.421875 C 6.304688 -5.921875 6.578125 -5.207031 6.578125 -4.28125 C 6.578125 -2.957031 6.195312 -1.910156 5.4375 -1.140625 C 4.675781 -0.378906 3.679688 0 2.453125 0 Z M 2.765625 -5.9375 L 1.859375 -1.234375 L 2.421875 -1.234375 C 3.285156 -1.234375 3.960938 -1.488281 4.453125 -2 C 4.953125 -2.519531 5.203125 -3.210938 5.203125 -4.078125 C 5.203125 -4.734375 5.035156 -5.207031 4.703125 -5.5 C 4.367188 -5.789062 3.882812 -5.9375 3.25 -5.9375 Z M 2.765625 -5.9375 "/></g></g></g><g fill="#ffffff" fill-opacity="1"><g transform="translate(25.713766, 9.169099)"><g><path d="M 0.265625 0 L 1.671875 -7.15625 L 6 -7.15625 L 5.75 -5.9375 L 2.765625 -5.9375 L 2.484375 -4.4375 L 4.84375 -4.4375 L 4.609375 -3.203125 L 2.234375 -3.203125 L 1.859375 -1.234375 L 4.9375 -1.234375 L 4.703125 0 Z M 0.265625 0 "/></g></g></g><g fill="#ffffff" fill-opacity="1"><g transform="translate(31.600498, 9.169099)"><g/></g></g></g></g></svg>