<svg xmlns="http://www.w3.org/2000/svg" xmlns:xlink="http://www.w3.org/1999/xlink" width="127" zoomAndPan="magnify" viewBox="0 0 95.25 96.75" height="129" preserveAspectRatio="xMidYMid meet" version="1.0"><defs><g/><clipPath id="4b77a56137"><path d="M 12.71875 23 L 81.691406 23 L 81.691406 57.488281 L 12.71875 57.488281 Z M 12.71875 23 " clip-rule="nonzero"/></clipPath><clipPath id="e257e61702"><path d="M 58.753906 52.585938 C 66.304688 50.855469 72.589844 45.746094 77.804688 40.28125 C 77.816406 39.074219 63.851562 29.933594 61.539062 29.546875 C 60.960938 29.449219 60.164062 29.394531 60.347656 29.941406 C 65.984375 37.011719 65.035156 46.316406 58.753906 52.574219 M 34.132812 29.566406 C 32.550781 28.351562 19.082031 37.582031 17.425781 39.464844 C 16.824219 40.152344 16.394531 40.34375 16.652344 41.453125 C 22.957031 45.230469 28.03125 51.296875 35.714844 52.574219 C 28.808594 45.84375 29.011719 37.3125 34.121094 29.554688 M 47.222656 26.824219 C 31.820312 26.824219 28.109375 47.605469 42.070312 52.964844 C 62.636719 60.859375 68.898438 26.824219 47.222656 26.824219 M 41.867188 23.402344 C 56.410156 21.421875 72.523438 29.589844 81.460938 40.710938 C 64.027344 63.277344 29.9375 63.011719 12.867188 40.257812 C 19.566406 32.824219 31.851562 24.769531 41.867188 23.402344 " clip-rule="nonzero"/></clipPath><clipPath id="107da78208"><path d="M 0.859375 0 L 69.675781 0 L 69.675781 34.488281 L 0.859375 34.488281 Z M 0.859375 0 " clip-rule="nonzero"/></clipPath><clipPath id="e96e993ca0"><path d="M 46.753906 29.585938 C 54.304688 27.855469 60.589844 22.746094 65.804688 17.28125 C 65.816406 16.074219 51.851562 6.933594 49.539062 6.546875 C 48.960938 6.449219 48.164062 6.394531 48.347656 6.941406 C 53.984375 14.011719 53.035156 23.316406 46.753906 29.574219 M 22.132812 6.566406 C 20.550781 5.351562 7.082031 14.582031 5.425781 16.464844 C 4.824219 17.152344 4.394531 17.34375 4.652344 18.453125 C 10.957031 22.230469 16.03125 28.296875 23.714844 29.574219 C 16.808594 22.84375 17.011719 14.3125 22.121094 6.554688 M 35.222656 3.824219 C 19.820312 3.824219 16.109375 24.605469 30.070312 29.964844 C 50.636719 37.859375 56.898438 3.824219 35.222656 3.824219 M 29.867188 0.402344 C 44.410156 -1.578125 60.523438 6.589844 69.460938 17.710938 C 52.027344 40.277344 17.9375 40.011719 0.867188 17.257812 C 7.566406 9.824219 19.851562 1.769531 29.867188 0.402344 " clip-rule="nonzero"/></clipPath><clipPath id="d7db12b87f"><rect x="0" width="70" y="0" height="35"/></clipPath><clipPath id="35444cf832"><path d="M 45.003906 5.390625 L 49.40625 5.390625 L 49.40625 21.777344 L 45.003906 21.777344 Z M 45.003906 5.390625 " clip-rule="nonzero"/></clipPath><clipPath id="4f66f49bbe"><path d="M 45.253906 7.71875 C 45.75 4.546875 49.222656 5.363281 49.222656 7.71875 L 49.222656 19.628906 C 49.222656 19.875 47.609375 21.101562 47.234375 21.597656 C 46.855469 21.101562 45.242188 19.875 45.242188 19.628906 C 45.242188 16.132812 44.75 10.890625 45.242188 7.707031 " clip-rule="nonzero"/></clipPath><clipPath id="9b264e9bc0"><path d="M 0.00390625 0.390625 L 4.292969 0.390625 L 4.292969 16.683594 L 0.00390625 16.683594 Z M 0.00390625 0.390625 " clip-rule="nonzero"/></clipPath><clipPath id="e083ecef58"><path d="M 0.253906 2.71875 C 0.75 -0.453125 4.222656 0.363281 4.222656 2.71875 L 4.222656 14.628906 C 4.222656 14.875 2.609375 16.101562 2.234375 16.597656 C 1.855469 16.101562 0.242188 14.875 0.242188 14.628906 C 0.242188 11.132812 -0.25 5.890625 0.242188 2.707031 " clip-rule="nonzero"/></clipPath><clipPath id="f1530c3c62"><rect x="0" width="5" y="0" height="17"/></clipPath><clipPath id="4ea1db8a70"><path d="M 54.054688 6.613281 L 59.679688 6.613281 L 59.679688 22.511719 L 54.054688 22.511719 Z M 54.054688 6.613281 " clip-rule="nonzero"/></clipPath><clipPath id="40001aa31a"><path d="M 59.550781 7.320312 C 59.390625 9.601562 58.011719 22.992188 55.195312 22.402344 C 53.484375 21.285156 54.246094 20.617188 54.34375 19.230469 C 54.441406 17.789062 56.324219 4.074219 59.550781 7.320312 " clip-rule="nonzero"/></clipPath><clipPath id="d47c18d8a1"><path d="M 0.0546875 0.613281 L 5.679688 0.613281 L 5.679688 16.511719 L 0.0546875 16.511719 Z M 0.0546875 0.613281 " clip-rule="nonzero"/></clipPath><clipPath id="4ca7ca3115"><path d="M 5.550781 1.320312 C 5.390625 3.601562 4.011719 16.992188 1.195312 16.402344 C -0.515625 15.285156 0.246094 14.617188 0.34375 13.230469 C 0.441406 11.789062 2.324219 -1.925781 5.550781 1.320312 " clip-rule="nonzero"/></clipPath><clipPath id="8be1fcb43c"><rect x="0" width="6" y="0" height="17"/></clipPath><clipPath id="837bfc8435"><path d="M 35 7.101562 L 40.601562 7.101562 L 40.601562 22.511719 L 35 22.511719 Z M 35 7.101562 " clip-rule="nonzero"/></clipPath><clipPath id="e25a1fd601"><path d="M 38.101562 7.320312 C 38.425781 11.195312 39.875 15.421875 40.144531 19.238281 C 40.242188 20.628906 41.003906 21.304688 39.296875 22.414062 C 36.1875 23.070312 36.058594 10.667969 35.023438 8.578125 Z M 38.101562 7.320312 " clip-rule="nonzero"/></clipPath><clipPath id="c82625969e"><path d="M 0.00390625 0.160156 L 5.601562 0.160156 L 5.601562 15.511719 L 0.00390625 15.511719 Z M 0.00390625 0.160156 " clip-rule="nonzero"/></clipPath><clipPath id="3e0ef8004e"><path d="M 3.101562 0.320312 C 3.425781 4.195312 4.875 8.421875 5.144531 12.238281 C 5.242188 13.628906 6.003906 14.304688 4.296875 15.414062 C 1.1875 16.070312 1.058594 3.667969 0.0234375 1.578125 Z M 3.101562 0.320312 " clip-rule="nonzero"/></clipPath><clipPath id="11cc4e481a"><rect x="0" width="6" y="0" height="16"/></clipPath><clipPath id="9b39187982"><path d="M 5.136719 23 L 16.144531 23 L 16.144531 35.230469 L 5.136719 35.230469 Z M 5.136719 23 " clip-rule="nonzero"/></clipPath><clipPath id="10122c2ed3"><path d="M 15.855469 35.117188 C 14.027344 35.441406 13.414062 34.65625 12.253906 33.558594 C 10.984375 32.351562 4.25 24.5 5.527344 23.210938 C 7.949219 22.789062 9.273438 24.929688 10.691406 26.371094 C 11.917969 27.609375 17.210938 33.664062 15.84375 35.117188 " clip-rule="nonzero"/></clipPath><clipPath id="9df32bffef"><path d="M 0.136719 0 L 11.144531 0 L 11.144531 12.230469 L 0.136719 12.230469 Z M 0.136719 0 " clip-rule="nonzero"/></clipPath><clipPath id="7203945615"><path d="M 10.855469 12.117188 C 9.027344 12.441406 8.414062 11.65625 7.253906 10.558594 C 5.984375 9.351562 -0.75 1.5 0.527344 0.210938 C 2.949219 -0.210938 4.273438 1.929688 5.691406 3.371094 C 6.917969 4.609375 12.210938 10.664062 10.84375 12.117188 " clip-rule="nonzero"/></clipPath><clipPath id="3ab93523ab"><rect x="0" width="12" y="0" height="13"/></clipPath><clipPath id="4cc8011a23"><path d="M 62.859375 10.28125 L 69.953125 10.28125 L 69.953125 24.957031 L 62.859375 24.957031 Z M 62.859375 10.28125 " clip-rule="nonzero"/></clipPath><clipPath id="0d2913d1fa"><path d="M 69.878906 10.503906 C 70.542969 11.195312 66.519531 25.316406 63.9375 24.789062 C 62.304688 24.457031 63.066406 22.757812 63.304688 21.800781 C 63.808594 19.691406 65.84375 13.507812 66.886719 11.859375 C 67.84375 10.355469 68.039062 10.289062 69.886719 10.503906 " clip-rule="nonzero"/></clipPath><clipPath id="a17cfadbab"><path d="M 0.859375 0.28125 L 7.953125 0.28125 L 7.953125 14.957031 L 0.859375 14.957031 Z M 0.859375 0.28125 " clip-rule="nonzero"/></clipPath><clipPath id="e913eb9d1a"><path d="M 7.878906 0.503906 C 8.542969 1.195312 4.519531 15.316406 1.9375 14.789062 C 0.304688 14.457031 1.066406 12.757812 1.304688 11.800781 C 1.808594 9.691406 3.84375 3.507812 4.886719 1.859375 C 5.84375 0.355469 6.039062 0.289062 7.886719 0.503906 " clip-rule="nonzero"/></clipPath><clipPath id="0b49549e73"><rect x="0" width="8" y="0" height="15"/></clipPath><clipPath id="a97910679b"><path d="M 24.460938 10.039062 L 31.796875 10.039062 L 31.796875 24.957031 L 24.460938 24.957031 Z M 24.460938 10.039062 " clip-rule="nonzero"/></clipPath><clipPath id="4918d65ade"><path d="M 24.601562 10.503906 C 27.152344 7.933594 31.109375 20.015625 31.410156 21.597656 C 32.109375 25.351562 30.207031 26.09375 28.324219 22.261719 C 27.546875 20.671875 23.878906 11.238281 24.601562 10.503906 " clip-rule="nonzero"/></clipPath><clipPath id="1895536d4b"><path d="M 0.460938 0.0390625 L 7.796875 0.0390625 L 7.796875 14.957031 L 0.460938 14.957031 Z M 0.460938 0.0390625 " clip-rule="nonzero"/></clipPath><clipPath id="8b71e36e6a"><path d="M 0.601562 0.503906 C 3.152344 -2.066406 7.109375 10.015625 7.410156 11.597656 C 8.109375 15.351562 6.207031 16.09375 4.324219 12.261719 C 3.546875 10.671875 -0.121094 1.238281 0.601562 0.503906 " clip-rule="nonzero"/></clipPath><clipPath id="f7ea23f359"><rect x="0" width="8" y="0" height="15"/></clipPath><clipPath id="232b4a327f"><path d="M 78.269531 23 L 89.277344 23 L 89.277344 35.230469 L 78.269531 35.230469 Z M 78.269531 23 " clip-rule="nonzero"/></clipPath><clipPath id="b650dda47d"><path d="M 88.9375 23.210938 C 90.058594 24.316406 81.644531 36 78.621094 35.117188 C 77.257812 33.664062 82.550781 27.621094 83.773438 26.371094 C 85.207031 24.929688 86.527344 22.789062 88.9375 23.210938 " clip-rule="nonzero"/></clipPath><clipPath id="e4a40003ee"><path d="M 0.269531 0 L 11.277344 0 L 11.277344 12.230469 L 0.269531 12.230469 Z M 0.269531 0 " clip-rule="nonzero"/></clipPath><clipPath id="742e5af3be"><path d="M 10.9375 0.210938 C 12.058594 1.316406 3.644531 13 0.621094 12.117188 C -0.742188 10.664062 4.550781 4.621094 5.773438 3.371094 C 7.207031 1.929688 8.527344 -0.210938 10.9375 0.210938 " clip-rule="nonzero"/></clipPath><clipPath id="08e68eaf63"><rect x="0" width="12" y="0" height="13"/></clipPath><clipPath id="73e10108b4"><path d="M 14.1875 15.90625 L 23.726562 15.90625 L 23.726562 28.871094 L 14.1875 28.871094 Z M 14.1875 15.90625 " clip-rule="nonzero"/></clipPath><clipPath id="b144e2b243"><path d="M 17.363281 16.152344 C 17.878906 16.441406 22.964844 25.359375 23.417969 26.382812 C 24.300781 28.371094 21.996094 29.964844 20.375 27.792969 C 19.589844 26.738281 14.425781 18.519531 14.339844 17.949219 C 14.101562 16.421875 16.199219 15.496094 17.363281 16.152344 " clip-rule="nonzero"/></clipPath><clipPath id="ac8f43ed74"><path d="M 0.1875 0.90625 L 9.726562 0.90625 L 9.726562 13.871094 L 0.1875 13.871094 Z M 0.1875 0.90625 " clip-rule="nonzero"/></clipPath><clipPath id="413297dea9"><path d="M 3.363281 1.152344 C 3.878906 1.441406 8.964844 10.359375 9.417969 11.382812 C 10.300781 13.371094 7.996094 14.964844 6.375 12.792969 C 5.589844 11.738281 0.425781 3.519531 0.339844 2.949219 C 0.101562 1.421875 2.199219 0.496094 3.363281 1.152344 " clip-rule="nonzero"/></clipPath><clipPath id="43235fa278"><rect x="0" width="10" y="0" height="14"/></clipPath><clipPath id="b63f2d1792"><path d="M 70.6875 15.90625 L 79.980469 15.90625 L 79.980469 28.871094 L 70.6875 28.871094 Z M 70.6875 15.90625 " clip-rule="nonzero"/></clipPath><clipPath id="efeb94670f"><path d="M 79.40625 16.066406 C 79.644531 17.359375 79.976562 17.539062 79.492188 18.851562 C 78.957031 20.316406 75.191406 26.339844 74.105469 27.800781 C 72.480469 29.984375 70.1875 28.382812 71.070312 26.394531 C 71.671875 25.039062 77.773438 14.710938 79.417969 16.066406 " clip-rule="nonzero"/></clipPath><clipPath id="127feaa144"><path d="M 0.6875 0.90625 L 9.980469 0.90625 L 9.980469 13.871094 L 0.6875 13.871094 Z M 0.6875 0.90625 " clip-rule="nonzero"/></clipPath><clipPath id="beb2d96da7"><path d="M 9.40625 1.066406 C 9.644531 2.359375 9.976562 2.539062 9.492188 3.851562 C 8.957031 5.316406 5.191406 11.339844 4.105469 12.800781 C 2.480469 14.984375 0.1875 13.382812 1.070312 11.394531 C 1.671875 10.039062 7.773438 -0.289062 9.417969 1.066406 " clip-rule="nonzero"/></clipPath><clipPath id="e3c6246f79"><rect x="0" width="10" y="0" height="14"/></clipPath><clipPath id="56ae7a0202"><path d="M 39 31.316406 L 56.5 31.316406 L 56.5 48.683594 L 39 48.683594 Z M 39 31.316406 " clip-rule="nonzero"/></clipPath><clipPath id="f294be01e6"><path d="M 41.554688 45.972656 C 33.476562 37.890625 47.082031 26.015625 54.324219 34.398438 C 61.5625 42.777344 49.007812 53.4375 41.554688 45.972656 " clip-rule="nonzero"/></clipPath><clipPath id="98cecfd584"><path d="M 0 0.316406 L 17.5 0.316406 L 17.5 17.683594 L 0 17.683594 Z M 0 0.316406 " clip-rule="nonzero"/></clipPath><clipPath id="8090052578"><path d="M 2.554688 14.972656 C -5.523438 6.890625 8.082031 -4.984375 15.324219 3.398438 C 22.5625 11.777344 10.007812 22.4375 2.554688 14.972656 " clip-rule="nonzero"/></clipPath><clipPath id="93591b2115"><rect x="0" width="18" y="0" height="18"/></clipPath><clipPath id="bc4b76bbfe"><rect x="0" width="56" y="0" height="27"/></clipPath></defs><g clip-path="url(#4b77a56137)"><g clip-path="url(#e257e61702)"><g transform="matrix(1, 0, 0, 1, 12, 23)"><g clip-path="url(#d7db12b87f)"><g clip-path="url(#107da78208)"><g clip-path="url(#e96e993ca0)"><rect x="-32.955" width="137.16" fill="#fff8f8" height="139.32" y="-44.285" fill-opacity="1"/></g></g></g></g></g></g><g clip-path="url(#35444cf832)"><g clip-path="url(#4f66f49bbe)"><g transform="matrix(1, 0, 0, 1, 45, 5)"><g clip-path="url(#f1530c3c62)"><g clip-path="url(#9b264e9bc0)"><g clip-path="url(#e083ecef58)"><rect x="-65.955" width="137.16" fill="#fff8f8" height="139.32" y="-26.285" fill-opacity="1"/></g></g></g></g></g></g><g clip-path="url(#4ea1db8a70)"><g clip-path="url(#40001aa31a)"><g transform="matrix(1, 0, 0, 1, 54, 6)"><g clip-path="url(#8be1fcb43c)"><g clip-path="url(#d47c18d8a1)"><g clip-path="url(#4ca7ca3115)"><rect x="-74.955" width="137.16" fill="#fff8f8" height="139.32" y="-27.285" fill-opacity="1"/></g></g></g></g></g></g><g clip-path="url(#837bfc8435)"><g clip-path="url(#e25a1fd601)"><g transform="matrix(1, 0, 0, 1, 35, 7)"><g clip-path="url(#11cc4e481a)"><g clip-path="url(#c82625969e)"><g clip-path="url(#3e0ef8004e)"><rect x="-55.955" width="137.16" fill="#fff8f8" height="139.32" y="-28.285" fill-opacity="1"/></g></g></g></g></g></g><g clip-path="url(#9b39187982)"><g clip-path="url(#10122c2ed3)"><g transform="matrix(1, 0, 0, 1, 5, 23)"><g clip-path="url(#3ab93523ab)"><g clip-path="url(#9df32bffef)"><g clip-path="url(#7203945615)"><rect x="-25.955" width="137.16" fill="#fff8f8" height="139.32" y="-44.285" fill-opacity="1"/></g></g></g></g></g></g><g clip-path="url(#4cc8011a23)"><g clip-path="url(#0d2913d1fa)"><g transform="matrix(1, 0, 0, 1, 62, 10)"><g clip-path="url(#0b49549e73)"><g clip-path="url(#a17cfadbab)"><g clip-path="url(#e913eb9d1a)"><rect x="-82.955" width="137.16" fill="#fff8f8" height="139.32" y="-31.285" fill-opacity="1"/></g></g></g></g></g></g><g clip-path="url(#a97910679b)"><g clip-path="url(#4918d65ade)"><g transform="matrix(1, 0, 0, 1, 24, 10)"><g clip-path="url(#f7ea23f359)"><g clip-path="url(#1895536d4b)"><g clip-path="url(#8b71e36e6a)"><rect x="-44.955" width="137.16" fill="#fff8f8" height="139.32" y="-31.285" fill-opacity="1"/></g></g></g></g></g></g><g clip-path="url(#232b4a327f)"><g clip-path="url(#b650dda47d)"><g transform="matrix(1, 0, 0, 1, 78, 23)"><g clip-path="url(#08e68eaf63)"><g clip-path="url(#e4a40003ee)"><g clip-path="url(#742e5af3be)"><rect x="-98.955" width="137.16" fill="#fff8f8" height="139.32" y="-44.285" fill-opacity="1"/></g></g></g></g></g></g><g clip-path="url(#73e10108b4)"><g clip-path="url(#b144e2b243)"><g transform="matrix(1, 0, 0, 1, 14, 15)"><g clip-path="url(#43235fa278)"><g clip-path="url(#ac8f43ed74)"><g clip-path="url(#413297dea9)"><rect x="-34.955" width="137.16" fill="#fff8f8" height="139.32" y="-36.285" fill-opacity="1"/></g></g></g></g></g></g><g clip-path="url(#b63f2d1792)"><g clip-path="url(#efeb94670f)"><g transform="matrix(1, 0, 0, 1, 70, 15)"><g clip-path="url(#e3c6246f79)"><g clip-path="url(#127feaa144)"><g clip-path="url(#beb2d96da7)"><rect x="-90.955" width="137.16" fill="#fff8f8" height="139.32" y="-36.285" fill-opacity="1"/></g></g></g></g></g></g><g clip-path="url(#56ae7a0202)"><g clip-path="url(#f294be01e6)"><g transform="matrix(1, 0, 0, 1, 39, 31)"><g clip-path="url(#93591b2115)"><g clip-path="url(#98cecfd584)"><g clip-path="url(#8090052578)"><rect x="-59.955" width="137.16" fill="#382c24" height="139.32" y="-52.285" fill-opacity="1"/></g></g></g></g></g></g><g transform="matrix(1, 0, 0, 1, 19, 67)"><g clip-path="url(#bc4b76bbfe)"><g fill="#ffffff" fill-opacity="1"><g transform="translate(0.915881, 9.538428)"><g><path d="M 7.0625 -4.984375 L 5.796875 -4.671875 C 5.703125 -5.140625 5.53125 -5.476562 5.28125 -5.6875 C 5.03125 -5.90625 4.691406 -6.015625 4.265625 -6.015625 C 3.523438 -6.015625 2.914062 -5.710938 2.4375 -5.109375 C 1.957031 -4.503906 1.71875 -3.816406 1.71875 -3.046875 C 1.71875 -2.441406 1.859375 -1.972656 2.140625 -1.640625 C 2.429688 -1.304688 2.820312 -1.140625 3.3125 -1.140625 C 3.738281 -1.140625 4.101562 -1.25 4.40625 -1.46875 C 4.707031 -1.6875 4.988281 -2.039062 5.25 -2.53125 L 6.421875 -2.171875 C 6.097656 -1.390625 5.664062 -0.816406 5.125 -0.453125 C 4.582031 -0.0976562 3.898438 0.078125 3.078125 0.078125 C 2.304688 0.078125 1.660156 -0.195312 1.140625 -0.75 C 0.617188 -1.289062 0.359375 -2.019531 0.359375 -2.9375 C 0.359375 -4.113281 0.75 -5.128906 1.53125 -5.984375 C 2.3125 -6.828125 3.300781 -7.25 4.5 -7.25 C 5.25 -7.25 5.847656 -7.035156 6.296875 -6.609375 C 6.734375 -6.191406 6.988281 -5.648438 7.0625 -4.984375 Z M 7.0625 -4.984375 "/></g></g></g><g fill="#ffffff" fill-opacity="1"><g transform="translate(8.01958, 9.538428)"><g><path d="M 5.515625 0 L 4.078125 0 L 3.90625 -1.6875 L 1.625 -1.6875 L 0.765625 0 L -0.671875 0 L 3.15625 -7.15625 L 4.46875 -7.15625 Z M 3.75 -2.921875 L 3.484375 -5.4375 L 2.234375 -2.921875 Z M 3.75 -2.921875 "/></g></g></g><g fill="#ffffff" fill-opacity="1"><g transform="translate(14.14064, 9.538428)"><g><path d="M 5.234375 -5.90625 L 4.140625 -5.296875 C 3.941406 -5.773438 3.628906 -6.015625 3.203125 -6.015625 C 2.972656 -6.015625 2.789062 -5.945312 2.65625 -5.8125 C 2.519531 -5.6875 2.453125 -5.507812 2.453125 -5.28125 C 2.453125 -5.070312 2.53125 -4.890625 2.6875 -4.734375 C 2.851562 -4.578125 3.117188 -4.40625 3.484375 -4.21875 C 3.992188 -3.945312 4.359375 -3.679688 4.578125 -3.421875 C 4.804688 -3.171875 4.921875 -2.785156 4.921875 -2.265625 C 4.921875 -1.492188 4.664062 -0.90625 4.15625 -0.5 C 3.882812 -0.28125 3.601562 -0.128906 3.3125 -0.046875 C 3.019531 0.0351562 2.648438 0.078125 2.203125 0.078125 C 1.628906 0.078125 1.140625 -0.125 0.734375 -0.53125 C 0.316406 -0.9375 0.109375 -1.40625 0.109375 -1.9375 L 1.25 -2.5625 C 1.332031 -1.613281 1.757812 -1.140625 2.53125 -1.140625 C 2.84375 -1.140625 3.085938 -1.222656 3.265625 -1.390625 C 3.453125 -1.566406 3.546875 -1.804688 3.546875 -2.109375 C 3.546875 -2.359375 3.472656 -2.5625 3.328125 -2.71875 C 3.179688 -2.875 2.914062 -3.0625 2.53125 -3.28125 C 2.050781 -3.53125 1.691406 -3.804688 1.453125 -4.109375 C 1.222656 -4.421875 1.109375 -4.796875 1.109375 -5.234375 C 1.109375 -5.835938 1.316406 -6.320312 1.734375 -6.6875 C 2.148438 -7.0625 2.679688 -7.25 3.328125 -7.25 C 3.785156 -7.25 4.191406 -7.117188 4.546875 -6.859375 C 4.890625 -6.609375 5.117188 -6.289062 5.234375 -5.90625 Z M 5.234375 -5.90625 "/></g></g></g><g fill="#ffffff" fill-opacity="1"><g transform="translate(19.66802, 9.538428)"><g><path d="M 2.453125 -5.9375 L 0.5 -5.9375 L 0.75 -7.15625 L 5.984375 -7.15625 L 5.734375 -5.9375 L 3.78125 -5.9375 L 2.625 0 L 1.296875 0 Z M 2.453125 -5.9375 "/></g></g></g><g fill="#ffffff" fill-opacity="1"><g transform="translate(25.031624, 9.538428)"><g><path d="M 5.515625 0 L 4.078125 0 L 3.90625 -1.6875 L 1.625 -1.6875 L 0.765625 0 L -0.671875 0 L 3.15625 -7.15625 L 4.46875 -7.15625 Z M 3.75 -2.921875 L 3.484375 -5.4375 L 2.234375 -2.921875 Z M 3.75 -2.921875 "/></g></g></g><g fill="#ffffff" fill-opacity="1"><g transform="translate(31.152684, 9.538428)"><g><path d="M 4.765625 -2.4375 L 5.6875 -7.15625 L 7.015625 -7.15625 L 5.625 0 L 4.203125 0 L 2.53125 -4.734375 L 1.609375 0 L 0.265625 0 L 1.671875 -7.15625 L 3.078125 -7.15625 Z M 4.765625 -2.4375 "/></g></g></g><g fill="#ffffff" fill-opacity="1"><g transform="translate(38.440632, 9.538428)"><g><path d="M 1.609375 0 L 0.265625 0 L 1.671875 -7.15625 L 3.015625 -7.15625 L 2.484375 -4.4375 L 5.140625 -4.4375 L 5.6875 -7.15625 L 7.015625 -7.15625 L 5.625 0 L 4.28125 0 L 4.90625 -3.21875 L 2.234375 -3.21875 Z M 1.609375 0 "/></g></g></g><g fill="#ffffff" fill-opacity="1"><g transform="translate(45.728579, 9.538428)"><g><path d="M 3.15625 0.078125 C 2.363281 0.078125 1.695312 -0.175781 1.15625 -0.6875 C 0.625 -1.207031 0.359375 -1.953125 0.359375 -2.921875 C 0.359375 -4.117188 0.6875 -5.109375 1.34375 -5.890625 C 2.101562 -6.796875 3.09375 -7.25 4.3125 -7.25 C 5.09375 -7.25 5.753906 -6.984375 6.296875 -6.453125 C 6.835938 -5.941406 7.109375 -5.203125 7.109375 -4.234375 C 7.109375 -3.046875 6.78125 -2.054688 6.125 -1.265625 C 5.375 -0.367188 4.382812 0.078125 3.15625 0.078125 Z M 3.265625 -1.140625 C 3.921875 -1.140625 4.488281 -1.414062 4.96875 -1.96875 C 5.476562 -2.5625 5.734375 -3.285156 5.734375 -4.140625 C 5.734375 -4.734375 5.597656 -5.191406 5.328125 -5.515625 C 5.066406 -5.847656 4.691406 -6.015625 4.203125 -6.015625 C 3.546875 -6.015625 2.976562 -5.742188 2.5 -5.203125 C 1.988281 -4.597656 1.734375 -3.875 1.734375 -3.03125 C 1.734375 -2.4375 1.863281 -1.972656 2.125 -1.640625 C 2.394531 -1.304688 2.773438 -1.140625 3.265625 -1.140625 Z M 3.265625 -1.140625 "/></g></g></g><g fill="#ffffff" fill-opacity="1"><g transform="translate(53.230026, 9.538428)"><g/></g></g><g fill="#ffffff" fill-opacity="1"><g transform="translate(8.567613, 23.253557)"><g><path d="M 0.265625 0 L 1.671875 -7.15625 L 6 -7.15625 L 5.75 -5.9375 L 2.765625 -5.9375 L 2.484375 -4.4375 L 4.84375 -4.4375 L 4.609375 -3.203125 L 2.234375 -3.203125 L 1.859375 -1.234375 L 4.9375 -1.234375 L 4.703125 0 Z M 0.265625 0 "/></g></g></g><g fill="#ffffff" fill-opacity="1"><g transform="translate(14.443007, 23.253557)"><g><path d="M 5.234375 -5.90625 L 4.140625 -5.296875 C 3.941406 -5.773438 3.628906 -6.015625 3.203125 -6.015625 C 2.972656 -6.015625 2.789062 -5.945312 2.65625 -5.8125 C 2.519531 -5.6875 2.453125 -5.507812 2.453125 -5.28125 C 2.453125 -5.070312 2.53125 -4.890625 2.6875 -4.734375 C 2.851562 -4.578125 3.117188 -4.40625 3.484375 -4.21875 C 3.992188 -3.945312 4.359375 -3.679688 4.578125 -3.421875 C 4.804688 -3.171875 4.921875 -2.785156 4.921875 -2.265625 C 4.921875 -1.492188 4.664062 -0.90625 4.15625 -0.5 C 3.882812 -0.28125 3.601562 -0.128906 3.3125 -0.046875 C 3.019531 0.0351562 2.648438 0.078125 2.203125 0.078125 C 1.628906 0.078125 1.140625 -0.125 0.734375 -0.53125 C 0.316406 -0.9375 0.109375 -1.40625 0.109375 -1.9375 L 1.25 -2.5625 C 1.332031 -1.613281 1.757812 -1.140625 2.53125 -1.140625 C 2.84375 -1.140625 3.085938 -1.222656 3.265625 -1.390625 C 3.453125 -1.566406 3.546875 -1.804688 3.546875 -2.109375 C 3.546875 -2.359375 3.472656 -2.5625 3.328125 -2.71875 C 3.179688 -2.875 2.914062 -3.0625 2.53125 -3.28125 C 2.050781 -3.53125 1.691406 -3.804688 1.453125 -4.109375 C 1.222656 -4.421875 1.109375 -4.796875 1.109375 -5.234375 C 1.109375 -5.835938 1.316406 -6.320312 1.734375 -6.6875 C 2.148438 -7.0625 2.679688 -7.25 3.328125 -7.25 C 3.785156 -7.25 4.191406 -7.117188 4.546875 -6.859375 C 4.890625 -6.609375 5.117188 -6.289062 5.234375 -5.90625 Z M 5.234375 -5.90625 "/></g></g></g><g fill="#ffffff" fill-opacity="1"><g transform="translate(19.970388, 23.253557)"><g><path d="M 7.0625 -4.984375 L 5.796875 -4.671875 C 5.703125 -5.140625 5.53125 -5.476562 5.28125 -5.6875 C 5.03125 -5.90625 4.691406 -6.015625 4.265625 -6.015625 C 3.523438 -6.015625 2.914062 -5.710938 2.4375 -5.109375 C 1.957031 -4.503906 1.71875 -3.816406 1.71875 -3.046875 C 1.71875 -2.441406 1.859375 -1.972656 2.140625 -1.640625 C 2.429688 -1.304688 2.820312 -1.140625 3.3125 -1.140625 C 3.738281 -1.140625 4.101562 -1.25 4.40625 -1.46875 C 4.707031 -1.6875 4.988281 -2.039062 5.25 -2.53125 L 6.421875 -2.171875 C 6.097656 -1.390625 5.664062 -0.816406 5.125 -0.453125 C 4.582031 -0.0976562 3.898438 0.078125 3.078125 0.078125 C 2.304688 0.078125 1.660156 -0.195312 1.140625 -0.75 C 0.617188 -1.289062 0.359375 -2.019531 0.359375 -2.9375 C 0.359375 -4.113281 0.75 -5.128906 1.53125 -5.984375 C 2.3125 -6.828125 3.300781 -7.25 4.5 -7.25 C 5.25 -7.25 5.847656 -7.035156 6.296875 -6.609375 C 6.734375 -6.191406 6.988281 -5.648438 7.0625 -4.984375 Z M 7.0625 -4.984375 "/></g></g></g><g fill="#ffffff" fill-opacity="1"><g transform="translate(27.074086, 23.253557)"><g><path d="M 5.421875 -7.15625 L 6.78125 -7.15625 L 5.921875 -2.71875 C 5.722656 -1.726562 5.363281 -1.015625 4.84375 -0.578125 C 4.332031 -0.140625 3.632812 0.078125 2.75 0.078125 C 2.09375 0.078125 1.566406 -0.101562 1.171875 -0.46875 C 0.785156 -0.832031 0.59375 -1.34375 0.59375 -2 C 0.59375 -2.195312 0.617188 -2.4375 0.671875 -2.71875 L 1.53125 -7.15625 L 2.875 -7.15625 L 2.015625 -2.703125 C 1.972656 -2.492188 1.953125 -2.3125 1.953125 -2.15625 C 1.953125 -1.832031 2.039062 -1.582031 2.21875 -1.40625 C 2.394531 -1.226562 2.648438 -1.140625 2.984375 -1.140625 C 3.828125 -1.140625 4.351562 -1.660156 4.5625 -2.703125 Z M 5.421875 -7.15625 "/></g></g></g><g fill="#ffffff" fill-opacity="1"><g transform="translate(34.044722, 23.253557)"><g><path d="M 6.125 -5.46875 C 6.125 -4.851562 5.945312 -4.347656 5.59375 -3.953125 C 5.238281 -3.554688 4.8125 -3.304688 4.3125 -3.203125 L 5.703125 0 L 4.25 0 L 2.9375 -3.09375 L 2.203125 -3.09375 L 1.609375 0 L 0.265625 0 L 1.671875 -7.15625 L 4.203125 -7.15625 C 4.796875 -7.15625 5.265625 -7.003906 5.609375 -6.703125 C 5.953125 -6.398438 6.125 -5.988281 6.125 -5.46875 Z M 2.765625 -5.9375 L 2.453125 -4.3125 L 3.65625 -4.3125 C 3.976562 -4.3125 4.242188 -4.398438 4.453125 -4.578125 C 4.660156 -4.753906 4.765625 -4.984375 4.765625 -5.265625 C 4.765625 -5.710938 4.515625 -5.9375 4.015625 -5.9375 Z M 2.765625 -5.9375 "/></g></g></g><g fill="#ffffff" fill-opacity="1"><g transform="translate(40.329547, 23.253557)"><g><path d="M 3.15625 0.078125 C 2.363281 0.078125 1.695312 -0.175781 1.15625 -0.6875 C 0.625 -1.207031 0.359375 -1.953125 0.359375 -2.921875 C 0.359375 -4.117188 0.6875 -5.109375 1.34375 -5.890625 C 2.101562 -6.796875 3.09375 -7.25 4.3125 -7.25 C 5.09375 -7.25 5.753906 -6.984375 6.296875 -6.453125 C 6.835938 -5.941406 7.109375 -5.203125 7.109375 -4.234375 C 7.109375 -3.046875 6.78125 -2.054688 6.125 -1.265625 C 5.375 -0.367188 4.382812 0.078125 3.15625 0.078125 Z M 3.265625 -1.140625 C 3.921875 -1.140625 4.488281 -1.414062 4.96875 -1.96875 C 5.476562 -2.5625 5.734375 -3.285156 5.734375 -4.140625 C 5.734375 -4.734375 5.597656 -5.191406 5.328125 -5.515625 C 5.066406 -5.847656 4.691406 -6.015625 4.203125 -6.015625 C 3.546875 -6.015625 2.976562 -5.742188 2.5 -5.203125 C 1.988281 -4.597656 1.734375 -3.875 1.734375 -3.03125 C 1.734375 -2.4375 1.863281 -1.972656 2.125 -1.640625 C 2.394531 -1.304688 2.773438 -1.140625 3.265625 -1.140625 Z M 3.265625 -1.140625 "/></g></g></g></g></g></svg>