<svg xmlns="http://www.w3.org/2000/svg" xmlns:xlink="http://www.w3.org/1999/xlink" width="675" zoomAndPan="magnify" viewBox="0 0 506.25 62.999997" height="84" preserveAspectRatio="xMidYMid meet" version="1.0"><defs><g/><clipPath id="bd90341156"><path d="M 2 0.046875 L 503 0.046875 L 503 60 L 2 60 Z M 2 0.046875 " clip-rule="nonzero"/></clipPath><clipPath id="4d741773ae"><path d="M 68 5 L 87.835938 5 L 87.835938 23 L 68 23 Z M 68 5 " clip-rule="nonzero"/></clipPath><clipPath id="c52bec619a"><path d="M 63.542969 6 L 68 6 L 68 9 L 63.542969 9 Z M 63.542969 6 " clip-rule="nonzero"/></clipPath><clipPath id="90f164ffeb"><path d="M 204 1.4375 L 214 1.4375 L 214 15 L 204 15 Z M 204 1.4375 " clip-rule="nonzero"/></clipPath><clipPath id="79b313575e"><path d="M 195.246094 7 L 222.671875 7 L 222.671875 29.648438 L 195.246094 29.648438 Z M 195.246094 7 " clip-rule="nonzero"/></clipPath><clipPath id="cdc706483a"><path d="M 289.578125 1.683594 L 317.003906 1.683594 L 317.003906 29.109375 L 289.578125 29.109375 Z M 289.578125 1.683594 " clip-rule="nonzero"/></clipPath><clipPath id="0687640c61"><path d="M 390.199219 1 L 416.058594 1 L 416.058594 30.664062 L 390.199219 30.664062 Z M 390.199219 1 " clip-rule="nonzero"/></clipPath><clipPath id="823754889f"><path d="M 470.050781 4 L 495.910156 4 L 495.910156 29.8125 L 470.050781 29.8125 Z M 470.050781 4 " clip-rule="nonzero"/></clipPath><clipPath id="053cfa2d1b"><path d="M 482 0.816406 L 495.910156 0.816406 L 495.910156 18 L 482 18 Z M 482 0.816406 " clip-rule="nonzero"/></clipPath><clipPath id="3e5809a7aa"><path d="M 0.394531 46 L 152 46 L 152 59.480469 L 0.394531 59.480469 Z M 0.394531 46 " clip-rule="nonzero"/></clipPath><clipPath id="2545814aae"><path d="M 0.394531 2 L 8 2 L 8 11 L 0.394531 11 Z M 0.394531 2 " clip-rule="nonzero"/></clipPath><clipPath id="b24f45c9f0"><rect x="0" width="152" y="0" height="14"/></clipPath><clipPath id="84f862fe66"><path d="M 176 46 L 242 46 L 242 59.480469 L 176 59.480469 Z M 176 46 " clip-rule="nonzero"/></clipPath><clipPath id="7565b86544"><rect x="0" width="66" y="0" height="14"/></clipPath><clipPath id="2d59db2cec"><path d="M 265 46 L 342 46 L 342 59.480469 L 265 59.480469 Z M 265 46 " clip-rule="nonzero"/></clipPath><clipPath id="0db538b1e7"><rect x="0" width="77" y="0" height="14"/></clipPath><clipPath id="3dd922e022"><path d="M 371 45 L 436 45 L 436 59.480469 L 371 59.480469 Z M 371 45 " clip-rule="nonzero"/></clipPath><clipPath id="b65dc2f730"><path d="M 0.128906 3 L 7 3 L 7 12 L 0.128906 12 Z M 0.128906 3 " clip-rule="nonzero"/></clipPath><clipPath id="d60bad23f7"><rect x="0" width="65" y="0" height="15"/></clipPath><clipPath id="caccd28494"><path d="M 465 46 L 500.535156 46 L 500.535156 59.480469 L 465 59.480469 Z M 465 46 " clip-rule="nonzero"/></clipPath><clipPath id="ef395e6e02"><rect x="0" width="36" y="0" height="14"/></clipPath><clipPath id="292baf4609"><rect x="0" width="501" y="0" height="60"/></clipPath></defs><g clip-path="url(#bd90341156)"><g transform="matrix(1, 0, 0, 1, 2, 0.00000000000001299)"><g clip-path="url(#292baf4609)"><path fill="#ffffff" d="M 74.359375 16.691406 C 73.671875 16.691406 73.125 16.484375 72.734375 16.074219 C 71.925781 15.234375 71.988281 13.777344 72.035156 12.609375 C 72.046875 12.363281 72.054688 12.128906 72.054688 11.921875 C 72.054688 11.679688 72.25 11.484375 72.492188 11.484375 L 76.382812 11.484375 C 76.625 11.484375 76.820312 11.679688 76.820312 11.921875 C 76.820312 12.128906 76.828125 12.363281 76.839844 12.609375 C 76.890625 13.78125 76.949219 15.234375 76.144531 16.074219 C 75.734375 16.503906 75.164062 16.714844 74.425781 16.691406 C 74.417969 16.691406 74.390625 16.691406 74.359375 16.691406 Z M 74.425781 15.820312 L 74.515625 15.820312 C 74.960938 15.820312 75.289062 15.707031 75.511719 15.472656 C 76.0625 14.898438 76.011719 13.652344 75.96875 12.648438 C 75.964844 12.546875 75.960938 12.453125 75.957031 12.359375 L 72.917969 12.359375 C 72.917969 12.453125 72.914062 12.546875 72.910156 12.648438 C 72.867188 13.648438 72.8125 14.898438 73.363281 15.472656 C 73.589844 15.707031 73.914062 15.820312 74.359375 15.820312 Z M 74.425781 15.820312 " fill-opacity="1" fill-rule="evenodd"/><path fill="#ffffff" d="M 74.4375 18.011719 C 72.148438 18.011719 70.289062 16.148438 70.289062 13.859375 C 70.289062 11.574219 72.148438 9.710938 74.4375 9.710938 C 76.726562 9.710938 78.589844 11.574219 78.589844 13.859375 C 78.589844 16.148438 76.726562 18.011719 74.4375 18.011719 Z M 74.4375 10.582031 C 72.632812 10.582031 71.160156 12.054688 71.160156 13.859375 C 71.160156 15.667969 72.632812 17.136719 74.4375 17.136719 C 76.246094 17.136719 77.714844 15.667969 77.714844 13.859375 C 77.714844 12.054688 76.246094 10.582031 74.4375 10.582031 Z M 74.4375 10.582031 " fill-opacity="1" fill-rule="evenodd"/><path fill="#ffffff" d="M 74.4375 12.359375 C 74.195312 12.359375 74 12.164062 74 11.921875 L 74 10.148438 C 74 9.90625 74.195312 9.710938 74.4375 9.710938 C 74.679688 9.710938 74.875 9.90625 74.875 10.148438 L 74.875 11.921875 C 74.875 12.164062 74.679688 12.359375 74.4375 12.359375 Z M 74.4375 12.359375 " fill-opacity="1" fill-rule="evenodd"/><path fill="#ffffff" d="M 74.4375 18.011719 C 74.195312 18.011719 74 17.816406 74 17.574219 L 74 16.253906 C 74 16.015625 74.195312 15.820312 74.4375 15.820312 C 74.679688 15.820312 74.875 16.015625 74.875 16.253906 L 74.875 17.574219 C 74.875 17.816406 74.679688 18.011719 74.4375 18.011719 Z M 74.4375 18.011719 " fill-opacity="1" fill-rule="evenodd"/><path fill="#ffffff" d="M 78.144531 14.503906 L 76.410156 14.503906 C 76.171875 14.503906 75.976562 14.308594 75.976562 14.066406 C 75.976562 13.828125 76.171875 13.632812 76.410156 13.632812 L 78.144531 13.632812 C 78.386719 13.632812 78.582031 13.828125 78.582031 14.066406 C 78.582031 14.308594 78.386719 14.503906 78.144531 14.503906 Z M 78.144531 14.503906 " fill-opacity="1" fill-rule="evenodd"/><path fill="#ffffff" d="M 77.941406 13.0625 L 76.40625 13.0625 C 76.167969 13.0625 75.972656 12.871094 75.96875 12.632812 C 75.964844 12.394531 76.152344 12.195312 76.390625 12.1875 L 77.941406 12.1875 C 78.183594 12.1875 78.378906 12.382812 78.378906 12.625 C 78.378906 12.867188 78.183594 13.0625 77.941406 13.0625 Z M 77.941406 13.0625 " fill-opacity="1" fill-rule="evenodd"/><path fill="#ffffff" d="M 76.03125 15.949219 C 75.796875 15.949219 75.605469 15.765625 75.59375 15.53125 C 75.585938 15.289062 75.769531 15.085938 76.011719 15.074219 L 76.390625 15.058594 L 77.773438 15.058594 C 78.015625 15.058594 78.210938 15.253906 78.210938 15.496094 C 78.210938 15.738281 78.015625 15.933594 77.773438 15.933594 L 76.40625 15.933594 L 76.046875 15.949219 C 76.042969 15.949219 76.035156 15.949219 76.03125 15.949219 Z M 76.03125 15.949219 " fill-opacity="1" fill-rule="evenodd"/><path fill="#ffffff" d="M 72.464844 14.5 L 70.730469 14.5 C 70.488281 14.5 70.292969 14.304688 70.292969 14.0625 C 70.292969 13.820312 70.488281 13.625 70.730469 13.625 L 72.464844 13.625 C 72.703125 13.625 72.898438 13.820312 72.898438 14.0625 C 72.898438 14.304688 72.703125 14.5 72.464844 14.5 Z M 72.464844 14.5 " fill-opacity="1" fill-rule="evenodd"/><path fill="#ffffff" d="M 72.472656 13.0625 L 70.933594 13.0625 C 70.691406 13.0625 70.496094 12.867188 70.496094 12.625 C 70.496094 12.382812 70.691406 12.1875 70.933594 12.1875 L 72.472656 12.1875 C 72.714844 12.1875 72.910156 12.382812 72.910156 12.625 C 72.910156 12.867188 72.714844 13.0625 72.472656 13.0625 Z M 72.472656 13.0625 " fill-opacity="1" fill-rule="evenodd"/><path fill="#ffffff" d="M 72.839844 15.9375 C 72.835938 15.9375 72.828125 15.9375 72.820312 15.9375 L 72.695312 15.933594 L 71.101562 15.933594 C 70.859375 15.933594 70.664062 15.738281 70.664062 15.496094 C 70.664062 15.253906 70.859375 15.058594 71.101562 15.058594 L 72.859375 15.066406 C 73.097656 15.074219 73.285156 15.277344 73.277344 15.519531 C 73.265625 15.753906 73.074219 15.9375 72.839844 15.9375 Z M 72.839844 15.9375 " fill-opacity="1" fill-rule="evenodd"/><g clip-path="url(#4d741773ae)"><path fill="#ffffff" d="M 87.339844 22.101562 C 87.304688 22.101562 87.269531 22.097656 87.234375 22.089844 C 86.46875 21.902344 85.910156 21.734375 85.417969 21.585938 C 84.371094 21.265625 83.738281 21.078125 82.21875 21.039062 C 81.769531 21.03125 81.257812 21.082031 80.710938 21.140625 C 79.425781 21.273438 77.96875 21.421875 76.882812 20.753906 C 75.082031 19.652344 71.660156 19.015625 69.242188 18.890625 C 69.003906 18.878906 68.816406 18.675781 68.828125 18.433594 C 68.84375 18.191406 69.046875 18.011719 69.289062 18.019531 C 71.898438 18.152344 75.398438 18.820312 77.339844 20.011719 C 78.175781 20.523438 79.417969 20.394531 80.621094 20.273438 C 81.195312 20.210938 81.738281 20.15625 82.238281 20.167969 C 83.875 20.207031 84.589844 20.421875 85.671875 20.75 C 85.824219 20.792969 85.980469 20.84375 86.152344 20.890625 C 85.097656 18.949219 85.148438 15.75 85.789062 13.871094 C 85.796875 13.847656 85.804688 13.828125 85.816406 13.808594 C 86.335938 12.8125 86.351562 11.648438 85.851562 10.84375 C 85.4375 10.175781 84.710938 9.835938 83.765625 9.851562 C 78.53125 9.96875 71.210938 6.949219 69.089844 6.019531 C 68.871094 5.925781 68.769531 5.667969 68.867188 5.445312 C 68.960938 5.226562 69.21875 5.125 69.441406 5.222656 C 71.519531 6.128906 78.691406 9.089844 83.746094 8.980469 C 85.011719 8.949219 86.015625 9.449219 86.59375 10.382812 C 87.246094 11.433594 87.25 12.921875 86.605469 14.183594 C 85.917969 16.238281 86.03125 20.117188 87.601562 21.320312 C 87.765625 21.445312 87.820312 21.667969 87.730469 21.855469 C 87.65625 22.007812 87.503906 22.101562 87.335938 22.101562 Z M 87.339844 22.101562 " fill-opacity="1" fill-rule="evenodd"/></g><path fill="#ffffff" d="M 69.265625 26.453125 C 69.023438 26.453125 68.828125 26.257812 68.828125 26.015625 L 68.828125 5.621094 C 68.828125 5.378906 69.023438 5.183594 69.265625 5.183594 C 69.507812 5.183594 69.703125 5.378906 69.703125 5.621094 L 69.703125 26.015625 C 69.703125 26.257812 69.507812 26.453125 69.265625 26.453125 Z M 67.585938 26.453125 C 67.34375 26.453125 67.148438 26.257812 67.148438 26.015625 L 67.148438 5.621094 C 67.148438 5.378906 67.34375 5.183594 67.585938 5.183594 C 67.824219 5.183594 68.019531 5.378906 68.019531 5.621094 L 68.019531 26.015625 C 68.019531 26.257812 67.824219 26.453125 67.585938 26.453125 Z M 67.585938 26.453125 " fill-opacity="1" fill-rule="evenodd"/><path fill="#ffffff" d="M 68.425781 6.210938 C 68.191406 6.210938 67.75 6.183594 67.394531 6.015625 C 67.386719 6.011719 67.378906 6.003906 67.371094 6 C 66.695312 5.621094 66.277344 4.902344 66.277344 4.128906 C 66.277344 2.945312 67.242188 1.980469 68.425781 1.980469 C 69.609375 1.980469 70.574219 2.945312 70.574219 4.128906 C 70.574219 4.902344 70.152344 5.621094 69.480469 6 C 69.472656 6.007812 69.460938 6.011719 69.453125 6.015625 C 69.101562 6.183594 68.65625 6.210938 68.425781 6.210938 Z M 67.785156 5.234375 C 68.070312 5.359375 68.78125 5.359375 69.066406 5.234375 C 69.457031 5.003906 69.699219 4.582031 69.699219 4.128906 C 69.699219 3.425781 69.128906 2.855469 68.425781 2.855469 C 67.722656 2.855469 67.148438 3.425781 67.148438 4.128906 C 67.148438 4.582031 67.394531 5.003906 67.785156 5.234375 Z M 67.785156 5.234375 " fill-opacity="1" fill-rule="evenodd"/><path fill="#ffffff" d="M 70.539062 29.914062 L 66.308594 29.914062 C 66.070312 29.914062 65.875 29.71875 65.875 29.476562 L 65.875 26.015625 C 65.875 25.773438 66.070312 25.578125 66.308594 25.578125 L 70.539062 25.578125 C 70.78125 25.578125 70.976562 25.773438 70.976562 26.015625 L 70.976562 29.476562 C 70.976562 29.71875 70.78125 29.914062 70.539062 29.914062 Z M 66.746094 29.039062 L 70.105469 29.039062 L 70.105469 26.453125 L 66.746094 26.453125 Z M 66.746094 29.039062 " fill-opacity="1" fill-rule="evenodd"/><path fill="#ffffff" d="M 70.226562 21.164062 L 69.265625 21.164062 C 69.023438 21.164062 68.828125 20.96875 68.828125 20.730469 C 68.828125 20.488281 69.023438 20.292969 69.265625 20.292969 L 70.226562 20.292969 C 70.46875 20.292969 70.664062 20.488281 70.664062 20.730469 C 70.664062 20.96875 70.46875 21.164062 70.226562 21.164062 Z M 70.226562 21.164062 " fill-opacity="1" fill-rule="evenodd"/><path fill="#ffffff" d="M 71.335938 21.859375 C 70.46875 21.859375 69.789062 21.363281 69.789062 20.730469 C 69.789062 20.09375 70.46875 19.597656 71.335938 19.597656 C 72.203125 19.597656 72.878906 20.09375 72.878906 20.730469 C 72.878906 21.363281 72.203125 21.859375 71.335938 21.859375 Z M 71.335938 20.46875 C 70.886719 20.46875 70.664062 20.679688 70.664062 20.730469 C 70.664062 20.777344 70.886719 20.988281 71.335938 20.988281 C 71.785156 20.988281 72.007812 20.777344 72.007812 20.730469 C 72.007812 20.679688 71.785156 20.46875 71.335938 20.46875 Z M 71.335938 20.46875 " fill-opacity="1" fill-rule="evenodd"/><path fill="#ffffff" d="M 67.585938 7.773438 L 66.625 7.773438 C 66.382812 7.773438 66.1875 7.578125 66.1875 7.339844 C 66.1875 7.097656 66.382812 6.902344 66.625 6.902344 L 67.585938 6.902344 C 67.824219 6.902344 68.019531 7.097656 68.019531 7.339844 C 68.019531 7.578125 67.824219 7.773438 67.585938 7.773438 Z M 67.585938 7.773438 " fill-opacity="1" fill-rule="evenodd"/><g clip-path="url(#c52bec619a)"><path fill="#ffffff" d="M 65.515625 8.46875 C 64.648438 8.46875 63.96875 7.972656 63.96875 7.339844 C 63.96875 6.703125 64.648438 6.207031 65.515625 6.207031 C 66.382812 6.207031 67.0625 6.703125 67.0625 7.339844 C 67.0625 7.972656 66.382812 8.46875 65.515625 8.46875 Z M 65.515625 7.078125 C 65.066406 7.078125 64.84375 7.289062 64.84375 7.339844 C 64.84375 7.386719 65.066406 7.597656 65.515625 7.597656 C 65.964844 7.597656 66.1875 7.386719 66.1875 7.339844 C 66.1875 7.289062 65.964844 7.078125 65.515625 7.078125 Z M 65.515625 7.078125 " fill-opacity="1" fill-rule="evenodd"/></g><path fill="#ffffff" d="M 67.585938 20.910156 C 67.519531 20.910156 67.457031 20.898438 67.398438 20.867188 C 63.285156 18.914062 64.257812 9.699219 64.492188 7.871094 C 64.523438 7.632812 64.746094 7.464844 64.980469 7.496094 C 65.222656 7.523438 65.390625 7.746094 65.359375 7.984375 C 65.222656 9.039062 64.128906 18.351562 67.769531 20.078125 C 67.988281 20.183594 68.082031 20.441406 67.976562 20.660156 C 67.902344 20.816406 67.746094 20.910156 67.585938 20.910156 Z M 67.585938 20.910156 " fill-opacity="1" fill-rule="evenodd"/><path fill="#ffffff" d="M 74.8125 19.839844 C 74.792969 19.839844 74.773438 19.839844 74.75 19.835938 C 74.511719 19.804688 74.347656 19.582031 74.378906 19.34375 C 74.476562 18.648438 74.597656 17.996094 74.738281 17.402344 C 74.792969 17.167969 75.027344 17.023438 75.265625 17.078125 C 75.5 17.136719 75.644531 17.371094 75.585938 17.605469 C 75.453125 18.171875 75.335938 18.796875 75.242188 19.464844 C 75.214844 19.683594 75.027344 19.839844 74.8125 19.839844 Z M 75.417969 10.714844 C 75.222656 10.714844 75.046875 10.582031 74.996094 10.382812 C 74.824219 9.695312 74.699219 9.125 74.636719 8.585938 C 74.601562 8.316406 74.578125 8.0625 74.558594 7.824219 C 74.535156 7.585938 74.714844 7.375 74.953125 7.351562 C 75.195312 7.332031 75.40625 7.511719 75.425781 7.75 C 75.445312 7.980469 75.472656 8.222656 75.503906 8.484375 C 75.5625 8.976562 75.679688 9.515625 75.84375 10.175781 C 75.902344 10.410156 75.757812 10.644531 75.523438 10.703125 C 75.488281 10.710938 75.453125 10.714844 75.417969 10.714844 Z M 75.417969 10.714844 " fill-opacity="1" fill-rule="evenodd"/><g clip-path="url(#90f164ffeb)"><path fill="#ffffff" d="M 205.570312 5.421875 C 205.570312 3.742188 207.042969 2.375 208.851562 2.375 C 210.660156 2.375 212.132812 3.742188 212.132812 5.421875 L 212.132812 5.765625 C 212.132812 6.230469 212.015625 6.699219 211.796875 7.101562 L 208.851562 12.214844 L 205.910156 7.117188 C 205.6875 6.699219 205.570312 6.230469 205.570312 5.765625 Z M 208.851562 14.09375 L 212.617188 7.558594 C 212.914062 7.003906 213.070312 6.382812 213.070312 5.765625 L 213.070312 5.421875 C 213.070312 3.222656 211.175781 1.4375 208.851562 1.4375 C 206.523438 1.4375 204.632812 3.222656 204.632812 5.421875 L 204.632812 5.765625 C 204.632812 6.382812 204.789062 7.003906 205.089844 7.570312 L 208.851562 14.09375 " fill-opacity="1" fill-rule="nonzero"/></g><path fill="#ffffff" d="M 208.851562 4.25 C 209.367188 4.25 209.789062 4.671875 209.789062 5.1875 C 209.789062 5.703125 209.367188 6.125 208.851562 6.125 C 208.332031 6.125 207.914062 5.703125 207.914062 5.1875 C 207.914062 4.671875 208.332031 4.25 208.851562 4.25 Z M 208.851562 7.0625 C 209.882812 7.0625 210.726562 6.222656 210.726562 5.1875 C 210.726562 4.152344 209.882812 3.3125 208.851562 3.3125 C 207.816406 3.3125 206.976562 4.152344 206.976562 5.1875 C 206.976562 6.222656 207.816406 7.0625 208.851562 7.0625 " fill-opacity="1" fill-rule="nonzero"/><g clip-path="url(#79b313575e)"><path fill="#ffffff" d="M 221.503906 17.140625 C 221.503906 17.785156 220.980469 18.3125 220.332031 18.3125 C 219.6875 18.3125 219.164062 17.785156 219.164062 17.140625 L 219.164062 15.96875 L 221.503906 15.96875 Z M 220.566406 28.625 L 214.476562 28.625 L 214.476562 19.121094 C 214.847656 18.988281 215.167969 18.753906 215.414062 18.449219 C 215.796875 18.933594 216.386719 19.25 217.054688 19.25 C 217.71875 19.25 218.308594 18.933594 218.695312 18.449219 C 219.078125 18.933594 219.667969 19.25 220.332031 19.25 C 220.414062 19.25 220.492188 19.234375 220.566406 19.226562 Z M 197.132812 27.6875 L 213.539062 27.6875 L 213.539062 28.625 L 197.132812 28.625 Z M 197.367188 19.25 C 198.03125 19.25 198.621094 18.933594 199.007812 18.449219 C 199.394531 18.933594 199.980469 19.25 200.648438 19.25 C 201.3125 19.25 201.902344 18.933594 202.289062 18.449219 C 202.675781 18.933594 203.261719 19.25 203.929688 19.25 C 204.59375 19.25 205.183594 18.933594 205.570312 18.449219 C 205.957031 18.933594 206.542969 19.25 207.210938 19.25 C 207.875 19.25 208.464844 18.933594 208.851562 18.449219 C 209.238281 18.933594 209.824219 19.25 210.492188 19.25 C 211.15625 19.25 211.746094 18.933594 212.132812 18.449219 C 212.472656 18.875 212.96875 19.160156 213.539062 19.226562 L 213.539062 26.75 L 197.132812 26.75 L 197.132812 19.226562 C 197.210938 19.234375 197.285156 19.25 197.367188 19.25 Z M 198.539062 15.96875 L 198.539062 17.140625 C 198.539062 17.785156 198.011719 18.3125 197.367188 18.3125 C 196.71875 18.3125 196.195312 17.785156 196.195312 17.140625 L 196.195312 15.96875 Z M 215.882812 15.96875 L 218.226562 15.96875 L 218.226562 17.140625 C 218.226562 17.785156 217.699219 18.3125 217.054688 18.3125 C 216.40625 18.3125 215.882812 17.785156 215.882812 17.140625 Z M 209.320312 15.96875 L 211.664062 15.96875 L 211.664062 17.140625 C 211.664062 17.785156 211.136719 18.3125 210.492188 18.3125 C 209.84375 18.3125 209.320312 17.785156 209.320312 17.140625 Z M 206.039062 15.96875 L 208.382812 15.96875 L 208.382812 17.140625 C 208.382812 17.785156 207.855469 18.3125 207.210938 18.3125 C 206.5625 18.3125 206.039062 17.785156 206.039062 17.140625 Z M 202.757812 15.96875 L 205.101562 15.96875 L 205.101562 17.140625 C 205.101562 17.785156 204.574219 18.3125 203.929688 18.3125 C 203.28125 18.3125 202.757812 17.785156 202.757812 17.140625 Z M 199.476562 15.96875 L 201.820312 15.96875 L 201.820312 17.140625 C 201.820312 17.785156 201.292969 18.3125 200.648438 18.3125 C 200 18.3125 199.476562 17.785156 199.476562 17.140625 Z M 213.773438 18.3125 C 213.125 18.3125 212.601562 17.785156 212.601562 17.140625 L 212.601562 15.96875 L 214.945312 15.96875 L 214.945312 17.140625 C 214.945312 17.785156 214.417969 18.3125 213.773438 18.3125 Z M 220.097656 9.765625 L 220.097656 7.53125 L 213.539062 7.53125 L 213.539062 8.46875 L 219.164062 8.46875 L 219.164062 9.40625 L 212.601562 9.40625 L 212.601562 10.34375 L 219.339844 10.34375 L 221.503906 14.671875 L 221.503906 15.03125 L 196.195312 15.03125 L 196.195312 14.671875 L 198.359375 10.34375 L 205.101562 10.34375 L 205.101562 9.40625 L 198.539062 9.40625 L 198.539062 8.46875 L 204.164062 8.46875 L 204.164062 7.53125 L 197.601562 7.53125 L 197.601562 9.765625 L 195.257812 14.453125 L 195.257812 17.140625 C 195.257812 17.867188 195.628906 18.511719 196.195312 18.890625 L 196.195312 29.5625 L 221.503906 29.5625 L 221.503906 18.890625 C 222.070312 18.511719 222.441406 17.867188 222.441406 17.140625 L 222.441406 14.453125 L 220.097656 9.765625 " fill-opacity="1" fill-rule="nonzero"/></g><path fill="#ffffff" d="M 215.414062 23.46875 L 216.351562 23.46875 L 216.351562 22.53125 L 215.414062 22.53125 L 215.414062 23.46875 " fill-opacity="1" fill-rule="nonzero"/><path fill="#ffffff" d="M 211.664062 24.40625 L 199.007812 24.40625 L 199.007812 21.125 L 211.664062 21.125 Z M 212.601562 20.1875 L 198.070312 20.1875 L 198.070312 25.34375 L 212.601562 25.34375 L 212.601562 20.1875 " fill-opacity="1" fill-rule="nonzero"/><g clip-path="url(#cdc706483a)"><path fill="#ffffff" d="M 303.394531 29.3125 C 295.777344 29.3125 289.578125 23.117188 289.578125 15.5 C 289.578125 7.882812 295.777344 1.6875 303.394531 1.6875 C 311.015625 1.6875 317.210938 7.882812 317.210938 15.5 C 317.210938 23.117188 311.015625 29.3125 303.394531 29.3125 Z M 303.394531 2.414062 C 296.175781 2.414062 290.304688 8.285156 290.304688 15.5 C 290.304688 22.714844 296.175781 28.585938 303.394531 28.585938 C 310.613281 28.585938 316.488281 22.714844 316.488281 15.5 C 316.488281 8.285156 310.613281 2.414062 303.394531 2.414062 Z M 303.394531 2.414062 " fill-opacity="1" fill-rule="nonzero"/></g><path fill="#ffffff" d="M 310.496094 8.761719 C 310.40625 8.761719 310.3125 8.726562 310.242188 8.652344 C 310.097656 8.511719 310.097656 8.28125 310.242188 8.140625 L 312.648438 5.734375 C 312.789062 5.59375 313.019531 5.59375 313.160156 5.734375 C 313.300781 5.875 313.300781 6.105469 313.160156 6.246094 L 310.753906 8.652344 C 310.683594 8.726562 310.589844 8.761719 310.496094 8.761719 Z M 310.496094 8.761719 " fill-opacity="1" fill-rule="nonzero"/><path fill="#ffffff" d="M 293.886719 25.371094 C 293.792969 25.371094 293.703125 25.335938 293.628906 25.265625 C 293.488281 25.121094 293.488281 24.894531 293.628906 24.753906 L 296.890625 21.492188 C 297.035156 21.347656 297.261719 21.347656 297.40625 21.492188 C 297.546875 21.632812 297.546875 21.863281 297.40625 22.003906 L 294.144531 25.265625 C 294.070312 25.335938 293.980469 25.371094 293.886719 25.371094 Z M 293.886719 25.371094 " fill-opacity="1" fill-rule="nonzero"/><path fill="#ffffff" d="M 300.058594 18.332031 C 300.050781 18.332031 300.042969 18.332031 300.03125 18.328125 C 299.914062 18.320312 299.804688 18.253906 299.746094 18.152344 C 299.101562 17.046875 298.511719 15.5625 298.085938 13.96875 C 297.199219 10.660156 297.078125 7.105469 298.558594 6.707031 C 298.6875 6.671875 298.824219 6.664062 298.96875 6.6875 C 300.402344 6.902344 301.855469 9.984375 302.597656 12.757812 C 302.90625 13.902344 303.113281 15.050781 303.203125 16.085938 C 303.21875 16.273438 303.089844 16.441406 302.90625 16.472656 C 302.011719 16.632812 301.101562 17.246094 300.34375 18.195312 C 300.273438 18.28125 300.167969 18.332031 300.058594 18.332031 Z M 298.8125 7.398438 C 298.789062 7.398438 298.765625 7.402344 298.746094 7.40625 C 298.113281 7.578125 297.8125 10.144531 298.785156 13.78125 C 299.140625 15.105469 299.609375 16.347656 300.125 17.339844 C 300.828125 16.582031 301.632812 16.0625 302.449219 15.835938 C 302.351562 14.925781 302.164062 13.933594 301.898438 12.945312 C 301.023438 9.671875 299.640625 7.519531 298.863281 7.402344 C 298.84375 7.398438 298.828125 7.398438 298.8125 7.398438 Z M 298.8125 7.398438 " fill-opacity="1" fill-rule="nonzero"/><path fill="#ffffff" d="M 306.730469 18.332031 C 306.621094 18.332031 306.519531 18.28125 306.449219 18.195312 C 305.6875 17.246094 304.777344 16.632812 303.886719 16.472656 C 303.703125 16.441406 303.574219 16.273438 303.589844 16.085938 C 303.675781 15.050781 303.886719 13.902344 304.191406 12.757812 C 304.9375 9.984375 306.386719 6.902344 307.820312 6.6875 C 307.964844 6.664062 308.101562 6.671875 308.234375 6.707031 C 309.714844 7.105469 309.59375 10.660156 308.707031 13.96875 C 308.277344 15.5625 307.6875 17.046875 307.042969 18.152344 C 306.984375 18.253906 306.878906 18.320312 306.757812 18.332031 C 306.75 18.332031 306.742188 18.332031 306.730469 18.332031 Z M 304.339844 15.835938 C 305.15625 16.0625 305.960938 16.582031 306.664062 17.339844 C 307.183594 16.347656 307.652344 15.105469 308.003906 13.78125 C 308.980469 10.144531 308.679688 7.578125 308.046875 7.40625 C 308.011719 7.398438 307.972656 7.398438 307.929688 7.402344 C 307.152344 7.519531 305.769531 9.671875 304.890625 12.945312 C 304.628906 13.933594 304.4375 14.925781 304.339844 15.835938 Z M 304.339844 15.835938 " fill-opacity="1" fill-rule="nonzero"/><path fill="#ffffff" d="M 303.394531 24.324219 C 300.710938 24.324219 298.175781 24.324219 298.175781 21.761719 C 298.175781 20.535156 298.804688 18.960938 299.777344 17.742188 C 300.644531 16.65625 301.710938 15.949219 302.777344 15.761719 C 303.1875 15.6875 303.605469 15.6875 304.011719 15.761719 C 305.078125 15.949219 306.144531 16.65625 307.015625 17.742188 C 307.988281 18.957031 308.617188 20.535156 308.617188 21.761719 C 308.617188 24.324219 306.082031 24.324219 303.394531 24.324219 Z M 303.394531 16.429688 C 303.234375 16.429688 303.066406 16.445312 302.90625 16.472656 C 302.011719 16.632812 301.101562 17.246094 300.34375 18.195312 C 299.464844 19.289062 298.898438 20.691406 298.898438 21.761719 C 298.898438 23.515625 300.523438 23.601562 303.394531 23.601562 C 306.265625 23.601562 307.890625 23.515625 307.890625 21.761719 C 307.890625 20.691406 307.324219 19.289062 306.449219 18.195312 C 305.6875 17.246094 304.777344 16.632812 303.886719 16.472656 C 303.722656 16.445312 303.558594 16.429688 303.394531 16.429688 Z M 303.394531 16.429688 " fill-opacity="1" fill-rule="nonzero"/><g clip-path="url(#0687640c61)"><path fill="#ffffff" d="M 399.324219 3.53125 C 400.367188 2.988281 401.472656 2.6875 402.644531 2.617188 C 403.816406 2.546875 404.949219 2.722656 406.046875 3.136719 C 405.855469 3.214844 405.695312 3.339844 405.5625 3.5 C 405.328125 3.84375 405.160156 4.214844 405.058594 4.617188 C 404.980469 5.183594 404.679688 5.585938 404.160156 5.820312 C 403.25 6.257812 402.667969 7.308594 402.335938 8.113281 C 402.183594 8.496094 402.148438 8.890625 402.234375 9.296875 C 402.316406 9.703125 402.507812 10.050781 402.800781 10.339844 C 403.0625 10.59375 403.367188 10.769531 403.714844 10.867188 C 404.0625 10.964844 404.414062 10.976562 404.769531 10.898438 C 405.632812 10.71875 405.910156 10.847656 405.957031 10.875 C 405.976562 10.886719 405.996094 10.902344 406.007812 10.917969 C 406.015625 11.0625 406.003906 11.203125 405.96875 11.339844 C 405.859375 11.796875 405.859375 12.25 405.964844 12.703125 C 406.03125 13 406.0625 13.300781 406.058594 13.605469 C 406.074219 14.230469 406.097656 15.089844 407.035156 15.304688 C 407.714844 15.375 408.304688 15.179688 408.804688 14.71875 C 409.609375 14.144531 410.066406 13.367188 410.179688 12.390625 C 410.199219 11.972656 410.371094 11.636719 410.695312 11.378906 C 410.929688 11.1875 411.074219 10.9375 411.125 10.640625 C 411.175781 10.339844 411.125 10.058594 410.96875 9.796875 L 411.363281 9.691406 C 411.433594 10.160156 411.464844 10.632812 411.453125 11.105469 C 411.441406 11.578125 411.394531 12.046875 411.300781 12.515625 C 411.210938 12.980469 411.082031 13.433594 410.914062 13.875 C 410.746094 14.320312 410.542969 14.746094 410.300781 15.152344 C 410.058594 15.5625 409.785156 15.945312 409.480469 16.308594 C 409.171875 16.667969 408.839844 17 408.476562 17.304688 C 408.113281 17.609375 407.726562 17.878906 407.316406 18.117188 C 406.90625 18.355469 406.476562 18.558594 406.035156 18.722656 C 405.589844 18.886719 405.132812 19.015625 404.667969 19.101562 C 404.203125 19.1875 403.734375 19.234375 403.257812 19.242188 C 402.785156 19.25 402.3125 19.214844 401.847656 19.140625 C 401.378906 19.066406 400.917969 18.953125 400.472656 18.800781 C 400.023438 18.648438 399.589844 18.460938 399.171875 18.234375 C 398.757812 18.007812 398.363281 17.75 397.988281 17.457031 C 397.617188 17.160156 397.273438 16.839844 396.957031 16.488281 C 396.640625 16.132812 396.355469 15.757812 396.101562 15.355469 C 396.027344 15.234375 395.917969 15.15625 395.777344 15.125 C 395.636719 15.09375 395.507812 15.117188 395.382812 15.195312 C 395.261719 15.269531 395.1875 15.378906 395.152344 15.519531 C 395.121094 15.660156 395.144531 15.789062 395.222656 15.914062 C 395.542969 16.421875 395.910156 16.898438 396.324219 17.335938 C 396.738281 17.777344 397.191406 18.171875 397.679688 18.523438 C 398.171875 18.875 398.6875 19.175781 399.238281 19.429688 C 399.785156 19.679688 400.355469 19.878906 400.941406 20.019531 C 401.527344 20.160156 402.121094 20.246094 402.722656 20.273438 C 403.328125 20.296875 403.925781 20.265625 404.523438 20.179688 C 405.121094 20.089844 405.703125 19.945312 406.269531 19.742188 C 406.839844 19.539062 407.382812 19.285156 407.902344 18.980469 C 408.421875 18.671875 408.90625 18.316406 409.359375 17.917969 C 409.808594 17.515625 410.21875 17.074219 410.582031 16.597656 C 410.949219 16.117188 411.265625 15.605469 411.53125 15.066406 C 411.800781 14.523438 412.011719 13.960938 412.171875 13.378906 C 412.328125 12.796875 412.429688 12.207031 412.476562 11.605469 C 412.519531 11.003906 412.503906 10.402344 412.433594 9.804688 C 412.359375 9.203125 412.230469 8.617188 412.046875 8.042969 C 411.859375 7.46875 411.621094 6.917969 411.332031 6.390625 C 411.039062 5.863281 410.699219 5.367188 410.3125 4.90625 C 409.921875 4.441406 409.496094 4.023438 409.027344 3.644531 C 408.554688 3.265625 408.054688 2.933594 407.523438 2.648438 C 406.988281 2.367188 406.433594 2.140625 405.855469 1.964844 C 405.277344 1.789062 404.691406 1.671875 404.089844 1.609375 C 403.488281 1.546875 402.890625 1.542969 402.289062 1.601562 C 401.6875 1.65625 401.097656 1.765625 400.519531 1.933594 C 399.941406 2.105469 399.382812 2.328125 398.847656 2.605469 C 398.71875 2.671875 398.632812 2.773438 398.589844 2.910156 C 398.546875 3.046875 398.558594 3.179688 398.625 3.304688 C 398.691406 3.433594 398.792969 3.519531 398.929688 3.5625 C 399.066406 3.605469 399.199219 3.59375 399.324219 3.53125 Z M 411.144531 8.671875 L 410.652344 8.804688 C 410.292969 8.890625 410.046875 9.109375 409.917969 9.457031 C 409.808594 9.769531 409.859375 10.050781 410.058594 10.3125 C 410.132812 10.40625 410.117188 10.503906 410.007812 10.597656 C 409.453125 11.054688 409.164062 11.644531 409.136719 12.363281 C 409.03125 13.011719 408.707031 13.523438 408.164062 13.894531 C 407.914062 14.140625 407.617188 14.269531 407.269531 14.285156 C 407.164062 14.261719 407.117188 14.253906 407.097656 13.578125 C 407.101562 13.191406 407.058594 12.8125 406.972656 12.4375 C 406.90625 12.132812 406.914062 11.828125 406.992188 11.527344 C 407.074219 11.078125 407.195312 10.40625 406.492188 9.984375 C 405.859375 9.703125 405.214844 9.667969 404.554688 9.878906 C 404.175781 9.96875 403.839844 9.882812 403.550781 9.617188 C 403.398438 9.476562 403.300781 9.304688 403.253906 9.101562 C 403.207031 8.902344 403.222656 8.703125 403.300781 8.511719 C 403.53125 7.769531 403.96875 7.1875 404.613281 6.757812 C 404.988281 6.582031 405.300781 6.335938 405.554688 6.011719 C 405.808594 5.6875 405.976562 5.324219 406.054688 4.917969 C 406.121094 4.636719 406.234375 4.378906 406.390625 4.136719 C 406.742188 3.953125 407.117188 3.859375 407.515625 3.855469 C 408.398438 4.40625 409.15625 5.09375 409.78125 5.925781 C 410.40625 6.753906 410.863281 7.671875 411.144531 8.671875 Z M 416.222656 21.640625 C 416.125 21.03125 415.816406 20.554688 415.300781 20.214844 C 415.105469 20.078125 414.890625 19.980469 414.65625 19.921875 C 414.425781 19.859375 414.191406 19.839844 413.953125 19.863281 C 413.714844 19.882812 413.488281 19.945312 413.269531 20.046875 C 413.050781 20.144531 412.859375 20.28125 412.6875 20.449219 L 409.496094 23.59375 C 409.082031 23.179688 408.265625 22.738281 406.648438 22.65625 C 405.199219 22.585938 403.835938 22.199219 402.566406 21.5 C 402.042969 21.191406 401.484375 20.972656 400.890625 20.847656 C 399.234375 20.535156 397.785156 20.78125 396.914062 21.53125 C 396.335938 21.984375 395.703125 22.339844 395.007812 22.585938 L 395.007812 22.351562 C 395.007812 22.144531 394.96875 21.945312 394.886719 21.753906 C 394.808594 21.5625 394.695312 21.394531 394.550781 21.246094 C 394.402344 21.101562 394.234375 20.988281 394.042969 20.910156 C 393.851562 20.828125 393.652344 20.789062 393.445312 20.789062 L 390.71875 20.789062 C 390.578125 20.789062 390.453125 20.839844 390.351562 20.941406 C 390.25 21.042969 390.199219 21.167969 390.199219 21.308594 L 390.199219 30.21875 C 390.199219 30.363281 390.25 30.484375 390.351562 30.585938 C 390.453125 30.6875 390.578125 30.738281 390.71875 30.738281 L 393.445312 30.738281 C 393.652344 30.738281 393.851562 30.699219 394.042969 30.621094 C 394.234375 30.539062 394.402344 30.425781 394.550781 30.28125 C 394.695312 30.132812 394.808594 29.964844 394.886719 29.773438 C 394.96875 29.582031 395.007812 29.382812 395.007812 29.175781 L 395.007812 29.109375 L 396.480469 28.992188 C 397.429688 28.917969 398.363281 29.007812 399.28125 29.269531 C 399.316406 29.273438 402.574219 29.945312 403.644531 30.195312 C 404.402344 30.375 405.167969 30.46875 405.945312 30.472656 C 407.277344 30.515625 408.488281 30.148438 409.574219 29.378906 C 411.316406 28.074219 415.605469 23.476562 415.816406 23.246094 C 416.1875 22.769531 416.320312 22.234375 416.222656 21.640625 Z M 393.964844 29.175781 C 393.964844 29.320312 393.914062 29.441406 393.8125 29.542969 C 393.710938 29.644531 393.589844 29.695312 393.445312 29.695312 L 391.242188 29.695312 L 391.242188 21.832031 L 393.445312 21.832031 C 393.589844 21.832031 393.710938 21.882812 393.8125 21.984375 C 393.914062 22.085938 393.964844 22.207031 393.964844 22.351562 Z M 415.023438 22.574219 C 414.980469 22.621094 410.617188 27.296875 408.953125 28.542969 C 407.425781 29.6875 405.351562 29.519531 403.878906 29.179688 C 402.796875 28.929688 399.625 28.273438 399.527344 28.257812 C 398.5 27.96875 397.457031 27.867188 396.394531 27.953125 L 395.007812 28.0625 L 395.007812 23.707031 C 395.949219 23.394531 396.808594 22.929688 397.59375 22.320312 C 397.890625 22.0625 398.789062 21.511719 400.691406 21.875 C 401.175781 21.976562 401.625 22.152344 402.046875 22.40625 C 403.464844 23.1875 404.980469 23.617188 406.597656 23.695312 C 408.628906 23.800781 408.878906 24.394531 408.898438 24.683594 C 408.898438 24.835938 408.847656 24.96875 408.753906 25.085938 C 408.558594 25.367188 407.972656 25.871094 406.253906 26.078125 C 405.550781 26.167969 404.882812 26.058594 404.242188 25.757812 C 403.261719 25.328125 402.238281 25.179688 401.171875 25.3125 C 401.03125 25.328125 400.914062 25.390625 400.824219 25.503906 C 400.734375 25.613281 400.695312 25.742188 400.710938 25.886719 C 400.726562 26.027344 400.789062 26.144531 400.898438 26.234375 C 401.011719 26.324219 401.136719 26.363281 401.28125 26.347656 C 402.179688 26.234375 403.042969 26.359375 403.871094 26.730469 C 404.675781 27.070312 405.511719 27.199219 406.378906 27.113281 C 408.035156 26.914062 409.132812 26.414062 409.644531 25.628906 C 409.847656 25.324219 409.945312 24.988281 409.9375 24.617188 L 413.417969 21.191406 C 413.597656 21.015625 413.816406 20.917969 414.066406 20.902344 C 414.316406 20.882812 414.542969 20.949219 414.746094 21.09375 C 414.859375 21.175781 414.957031 21.273438 415.03125 21.394531 C 415.109375 21.511719 415.160156 21.640625 415.183594 21.777344 C 415.210938 21.914062 415.210938 22.054688 415.183594 22.191406 C 415.15625 22.328125 415.101562 22.457031 415.023438 22.574219 Z M 390.871094 6.886719 C 390.210938 9.648438 393.523438 11.183594 394.601562 11.601562 C 394.613281 12.320312 394.546875 13.03125 394.40625 13.738281 C 394.378906 13.878906 394.402344 14.007812 394.484375 14.128906 C 394.5625 14.246094 394.675781 14.320312 394.816406 14.347656 C 394.957031 14.375 395.085938 14.351562 395.207031 14.269531 C 395.328125 14.1875 395.398438 14.078125 395.429688 13.9375 C 395.582031 13.175781 395.652344 12.40625 395.640625 11.628906 C 396.75 11.335938 399.386719 10.371094 399.449219 7.765625 C 399.429688 6.964844 399.671875 6.257812 400.179688 5.640625 C 400.328125 5.488281 400.371094 5.3125 400.304688 5.109375 C 400.242188 4.90625 400.101562 4.789062 399.894531 4.75 C 398.128906 4.484375 396.742188 4.644531 395.757812 5.226562 C 394.757812 4.445312 393.171875 3.984375 390.996094 3.867188 C 390.777344 3.859375 390.617188 3.953125 390.515625 4.148438 C 390.414062 4.34375 390.429688 4.53125 390.558594 4.707031 C 390.996094 5.386719 391.097656 6.113281 390.871094 6.886719 Z M 398.90625 5.6875 C 398.582031 6.335938 398.414062 7.019531 398.40625 7.742188 C 398.375 9.140625 397.238281 9.910156 396.28125 10.316406 C 396.84375 9.246094 397.351562 7.734375 396.726562 6.390625 C 396.660156 6.257812 396.582031 6.132812 396.496094 6.011719 C 397.273438 5.695312 398.074219 5.589844 398.90625 5.6875 Z M 395.78125 6.832031 C 396.214844 7.765625 395.832031 8.914062 395.394531 9.765625 C 395.140625 8.613281 394.570312 7.648438 393.683594 6.871094 C 393.566406 6.785156 393.4375 6.753906 393.296875 6.773438 C 393.15625 6.796875 393.042969 6.863281 392.957031 6.980469 C 392.871094 7.09375 392.839844 7.222656 392.859375 7.363281 C 392.878906 7.503906 392.945312 7.617188 393.058594 7.707031 C 393.859375 8.4375 394.332031 9.339844 394.476562 10.414062 C 393.367188 9.898438 391.492188 8.765625 391.886719 7.128906 C 392.070312 6.40625 392.050781 5.691406 391.832031 4.976562 C 393.964844 5.210938 395.324219 5.84375 395.78125 6.832031 Z M 399.609375 17.167969 C 399.835938 17.484375 400.140625 17.640625 400.53125 17.632812 C 401.328125 17.632812 401.769531 17 401.84375 15.746094 C 401.855469 15.558594 402.027344 15.457031 402.574219 15.21875 L 402.828125 15.109375 C 403.335938 14.84375 403.640625 14.429688 403.746094 13.867188 C 403.902344 13.351562 403.828125 12.875 403.523438 12.429688 C 403.183594 12.03125 402.753906 11.871094 402.234375 11.949219 C 401.917969 11.960938 401.90625 11.945312 401.851562 11.859375 C 401.789062 11.730469 401.746094 11.601562 401.714844 11.460938 C 401.652344 10.980469 401.414062 10.613281 400.992188 10.371094 C 400.617188 10.21875 400.230469 10.183594 399.835938 10.265625 C 399.441406 10.351562 399.105469 10.539062 398.824219 10.832031 C 398.546875 11.125 398.375 11.46875 398.308594 11.867188 C 398.242188 12.269531 398.292969 12.652344 398.464844 13.015625 C 398.5625 13.214844 398.707031 13.367188 398.894531 13.480469 C 399.074219 13.574219 399.230469 13.699219 399.367188 13.847656 C 399.550781 14.230469 399.585938 14.625 399.464844 15.03125 C 399.1875 15.765625 399.234375 16.476562 399.609375 17.167969 Z M 399.429688 12.582031 C 399.101562 12.242188 399.359375 11.667969 399.695312 11.449219 C 399.871094 11.328125 400.066406 11.261719 400.277344 11.25 C 400.59375 11.25 400.640625 11.457031 400.707031 11.722656 C 400.757812 11.960938 400.84375 12.183594 400.960938 12.398438 C 401.097656 12.621094 401.289062 12.789062 401.527344 12.894531 C 401.769531 13.003906 402.015625 13.035156 402.277344 12.992188 C 402.582031 12.976562 402.636719 12.992188 402.710938 13.082031 C 402.785156 13.261719 402.792969 13.441406 402.730469 13.625 C 402.695312 13.851562 402.585938 14.03125 402.398438 14.160156 L 402.164062 14.261719 C 401.582031 14.515625 400.855469 14.824219 400.804688 15.683594 C 400.769531 16.253906 400.667969 16.589844 400.53125 16.589844 C 400.367188 16.589844 400.355469 16.230469 400.351562 16.125 C 400.339844 15.851562 400.378906 15.585938 400.464844 15.328125 C 400.5 15.1875 400.8125 13.941406 400.160156 13.175781 C 400.050781 13.042969 399.925781 12.925781 399.789062 12.824219 C 399.660156 12.753906 399.542969 12.675781 399.429688 12.582031 Z M 399.429688 12.582031 " fill-opacity="1" fill-rule="nonzero"/></g><path fill="#ffffff" d="M 478.464844 24.714844 L 479 22.945312 L 479.539062 22.945312 L 478.71875 25.296875 L 478.210938 25.296875 L 477.394531 22.945312 L 477.933594 22.945312 Z M 478.464844 24.714844 " fill-opacity="1" fill-rule="nonzero"/><path fill="#ffffff" d="M 481.34375 24.273438 L 480.410156 24.273438 L 480.410156 24.910156 L 481.503906 24.910156 L 481.503906 25.296875 L 479.925781 25.296875 L 479.925781 22.945312 L 481.5 22.945312 L 481.5 23.335938 L 480.410156 23.335938 L 480.410156 23.898438 L 481.34375 23.898438 Z M 481.34375 24.273438 " fill-opacity="1" fill-rule="nonzero"/><path fill="#ffffff" d="M 483.816406 25 C 483.730469 25.105469 483.605469 25.1875 483.445312 25.242188 C 483.273438 25.304688 483.097656 25.332031 482.917969 25.332031 C 482.710938 25.332031 482.535156 25.285156 482.378906 25.195312 C 482.222656 25.105469 482.101562 24.976562 482.023438 24.808594 C 481.941406 24.640625 481.898438 24.441406 481.894531 24.214844 L 481.894531 24.054688 C 481.894531 23.816406 481.933594 23.613281 482.015625 23.441406 C 482.09375 23.269531 482.207031 23.140625 482.355469 23.046875 C 482.507812 22.957031 482.679688 22.910156 482.882812 22.910156 C 483.160156 22.910156 483.378906 22.976562 483.535156 23.109375 C 483.695312 23.246094 483.789062 23.4375 483.816406 23.691406 L 483.34375 23.691406 C 483.324219 23.558594 483.273438 23.460938 483.203125 23.398438 C 483.128906 23.335938 483.027344 23.304688 482.898438 23.304688 C 482.730469 23.304688 482.605469 23.363281 482.519531 23.488281 C 482.433594 23.613281 482.390625 23.796875 482.390625 24.042969 L 482.390625 24.191406 C 482.390625 24.4375 482.4375 24.625 482.53125 24.75 C 482.625 24.878906 482.761719 24.941406 482.941406 24.941406 C 483.125 24.941406 483.253906 24.902344 483.332031 24.824219 L 483.332031 24.417969 L 482.890625 24.417969 L 482.890625 24.0625 L 483.816406 24.0625 Z M 483.816406 25 " fill-opacity="1" fill-rule="nonzero"/><path fill="#ffffff" d="M 485.703125 24.8125 L 484.855469 24.8125 L 484.691406 25.296875 L 484.175781 25.296875 L 485.054688 22.945312 L 485.503906 22.945312 L 486.382812 25.296875 L 485.867188 25.296875 Z M 484.984375 24.421875 L 485.574219 24.421875 L 485.277344 23.539062 Z M 484.984375 24.421875 " fill-opacity="1" fill-rule="nonzero"/><path fill="#ffffff" d="M 488.683594 25.296875 L 488.199219 25.296875 L 487.253906 23.75 L 487.253906 25.296875 L 486.769531 25.296875 L 486.769531 22.945312 L 487.253906 22.945312 L 488.199219 24.496094 L 488.199219 22.945312 L 488.683594 22.945312 Z M 488.683594 25.296875 " fill-opacity="1" fill-rule="nonzero"/><g clip-path="url(#823754889f)"><path fill="#ffffff" d="M 483.050781 29.574219 C 482.238281 29.578125 481.429688 29.496094 480.632812 29.339844 C 479.832031 29.183594 479.058594 28.949219 478.304688 28.636719 C 477.554688 28.324219 476.839844 27.945312 476.164062 27.492188 C 475.484375 27.042969 474.859375 26.527344 474.285156 25.953125 C 473.707031 25.378906 473.195312 24.753906 472.742188 24.074219 C 472.289062 23.398438 471.90625 22.6875 471.59375 21.933594 C 471.285156 21.183594 471.046875 20.40625 470.890625 19.609375 C 470.730469 18.8125 470.652344 18.003906 470.652344 17.191406 C 470.652344 16.378906 470.730469 15.570312 470.890625 14.773438 C 471.046875 13.976562 471.285156 13.199219 471.59375 12.449219 C 471.90625 11.695312 472.289062 10.984375 472.742188 10.304688 C 473.195312 9.628906 473.707031 9.003906 474.285156 8.429688 C 474.859375 7.855469 475.484375 7.339844 476.164062 6.890625 C 476.839844 6.4375 477.554688 6.054688 478.304688 5.746094 C 479.058594 5.433594 479.832031 5.199219 480.632812 5.042969 C 481.429688 4.882812 482.238281 4.804688 483.050781 4.808594 C 484.050781 4.808594 485.035156 4.925781 486.003906 5.160156 C 486.074219 5.179688 486.125 5.214844 486.160156 5.277344 C 486.195312 5.335938 486.207031 5.398438 486.191406 5.46875 C 486.171875 5.535156 486.136719 5.589844 486.074219 5.625 C 486.015625 5.660156 485.953125 5.671875 485.882812 5.652344 C 484.953125 5.425781 484.007812 5.3125 483.050781 5.3125 C 482.617188 5.3125 482.1875 5.335938 481.757812 5.382812 C 481.324219 5.429688 480.898438 5.5 480.476562 5.59375 C 480.054688 5.6875 479.640625 5.804688 479.230469 5.945312 C 478.820312 6.082031 478.417969 6.246094 478.027344 6.425781 C 477.632812 6.609375 477.253906 6.8125 476.882812 7.039062 C 476.515625 7.261719 476.15625 7.507812 475.8125 7.769531 C 475.472656 8.035156 475.144531 8.316406 474.832031 8.613281 C 474.519531 8.914062 474.222656 9.230469 473.945312 9.5625 C 473.667969 9.890625 473.40625 10.238281 473.167969 10.597656 C 472.925781 10.957031 472.707031 11.328125 472.507812 11.714844 C 472.308594 12.097656 472.128906 12.492188 471.972656 12.894531 C 471.816406 13.296875 471.683594 13.707031 471.570312 14.125 C 471.460938 14.542969 471.371094 14.96875 471.304688 15.394531 C 471.238281 15.820312 471.199219 16.253906 471.179688 16.683594 C 471.160156 17.117188 471.164062 17.546875 471.195312 17.980469 C 471.222656 18.410156 471.273438 18.839844 471.351562 19.265625 C 471.425781 19.691406 471.523438 20.113281 471.644531 20.527344 C 471.765625 20.945312 471.910156 21.351562 472.074219 21.75 C 472.242188 22.152344 472.429688 22.539062 472.636719 22.917969 C 472.84375 23.296875 473.074219 23.664062 473.324219 24.019531 C 473.570312 24.375 473.835938 24.714844 474.125 25.039062 C 474.410156 25.363281 474.710938 25.671875 475.03125 25.964844 C 475.351562 26.253906 475.683594 26.53125 476.035156 26.785156 C 476.382812 27.039062 476.746094 27.277344 477.121094 27.492188 C 477.496094 27.707031 477.878906 27.902344 478.277344 28.078125 C 478.671875 28.25 479.078125 28.402344 479.488281 28.53125 C 479.902344 28.660156 480.320312 28.769531 480.746094 28.851562 C 481.167969 28.9375 481.597656 28.996094 482.027344 29.035156 C 482.460938 29.070312 482.890625 29.085938 483.324219 29.074219 C 483.757812 29.066406 484.1875 29.03125 484.617188 28.972656 C 485.042969 28.917969 485.46875 28.835938 485.890625 28.734375 C 486.308594 28.628906 486.722656 28.503906 487.128906 28.355469 C 487.535156 28.207031 487.933594 28.039062 488.320312 27.84375 C 488.707031 27.652344 489.085938 27.441406 489.449219 27.207031 C 489.8125 26.976562 490.164062 26.722656 490.5 26.453125 C 490.839844 26.179688 491.160156 25.890625 491.464844 25.585938 C 491.769531 25.277344 492.058594 24.957031 492.328125 24.617188 C 492.597656 24.28125 492.851562 23.929688 493.082031 23.5625 C 493.3125 23.199219 493.523438 22.820312 493.714844 22.433594 C 493.90625 22.046875 494.074219 21.648438 494.222656 21.242188 C 494.371094 20.832031 494.496094 20.421875 494.597656 20 C 494.699219 19.578125 494.777344 19.15625 494.832031 18.726562 C 494.890625 18.296875 494.921875 17.867188 494.929688 17.433594 C 494.9375 17 494.921875 16.570312 494.886719 16.136719 C 494.847656 15.707031 494.785156 15.28125 494.699219 14.855469 C 494.613281 14.429688 494.507812 14.011719 494.375 13.601562 C 494.246094 13.1875 494.089844 12.785156 493.917969 12.386719 C 493.742188 11.992188 493.546875 11.609375 493.328125 11.234375 C 493.292969 11.171875 493.285156 11.109375 493.304688 11.042969 C 493.320312 10.976562 493.359375 10.925781 493.421875 10.890625 C 493.480469 10.855469 493.542969 10.84375 493.613281 10.863281 C 493.679688 10.878906 493.730469 10.917969 493.765625 10.980469 C 494.3125 11.921875 494.726562 12.917969 495.011719 13.96875 C 495.292969 15.015625 495.4375 16.085938 495.4375 17.175781 C 495.441406 18.261719 495.300781 19.332031 495.019531 20.382812 C 494.742188 21.4375 494.328125 22.433594 493.785156 23.375 C 493.242188 24.320312 492.585938 25.175781 491.816406 25.945312 C 491.046875 26.714844 490.191406 27.371094 489.25 27.917969 C 488.308594 28.460938 487.3125 28.875 486.257812 29.15625 C 485.207031 29.4375 484.136719 29.574219 483.050781 29.574219 Z M 483.050781 29.574219 " fill-opacity="1" fill-rule="nonzero"/></g><path fill="#ffffff" d="M 483.148438 21.355469 C 483.0625 21.355469 482.992188 21.320312 482.941406 21.246094 L 482.363281 20.410156 C 481.960938 19.824219 481.167969 18.992188 480.1875 18.125 C 479.242188 17.289062 478.300781 16.574219 477.660156 16.214844 L 477.007812 15.851562 C 476.925781 15.804688 476.882812 15.734375 476.878906 15.640625 C 476.875 15.546875 476.910156 15.472656 476.988281 15.421875 L 477.90625 14.792969 C 478.148438 14.625 478.496094 14.578125 478.941406 14.652344 C 479.292969 14.710938 479.710938 14.847656 480.148438 15.042969 C 480.964844 15.410156 481.769531 15.949219 482.101562 16.355469 L 482.796875 17.210938 C 483.15625 16.289062 484.945312 13.757812 488.117188 9.679688 C 490.507812 6.605469 492.839844 3.742188 492.863281 3.714844 C 492.964844 3.589844 493.078125 3.574219 493.207031 3.664062 C 493.335938 3.753906 493.359375 3.867188 493.277344 4.003906 C 493.195312 4.144531 484.785156 18.304688 483.667969 20.613281 L 483.378906 21.214844 C 483.335938 21.300781 483.265625 21.347656 483.167969 21.355469 C 483.164062 21.355469 483.15625 21.355469 483.148438 21.355469 Z M 477.613281 15.609375 L 477.910156 15.773438 C 478.578125 16.148438 479.554688 16.886719 480.523438 17.746094 C 481.53125 18.640625 482.355469 19.507812 482.78125 20.125 L 483.113281 20.601562 L 483.210938 20.394531 C 484.023438 18.714844 488.484375 11.121094 491.042969 6.785156 C 490.285156 7.734375 489.40625 8.847656 488.515625 9.992188 C 484.539062 15.105469 483.460938 16.859375 483.257812 17.429688 L 483.121094 17.800781 C 483.089844 17.894531 483.023438 17.949219 482.925781 17.964844 C 482.828125 17.984375 482.75 17.953125 482.6875 17.875 L 481.710938 16.675781 C 481.425781 16.328125 480.683594 15.835938 479.941406 15.503906 C 479.128906 15.140625 478.457031 15.027344 478.191406 15.210938 Z M 477.613281 15.609375 " fill-opacity="1" fill-rule="nonzero"/><g clip-path="url(#053cfa2d1b)"><path fill="#ffffff" d="M 485.429688 17.15625 C 485.386719 17.15625 485.34375 17.144531 485.304688 17.121094 C 485.265625 17.097656 485.234375 17.066406 485.210938 17.027344 C 485.1875 16.988281 485.175781 16.949219 485.175781 16.902344 C 485.175781 16.855469 485.1875 16.816406 485.210938 16.777344 C 486.945312 13.75 489.390625 9.585938 491.042969 6.785156 C 488.808594 9.589844 485.476562 13.84375 483.980469 16.144531 C 483.921875 16.234375 483.839844 16.273438 483.734375 16.257812 C 483.628906 16.242188 483.558594 16.183594 483.527344 16.082031 L 483.136719 14.832031 C 482.742188 13.582031 482.632812 12.308594 482.804688 11.007812 C 482.976562 9.707031 483.414062 8.507812 484.121094 7.402344 L 484.339844 7.054688 C 485.097656 5.867188 486.074219 4.894531 487.265625 4.136719 C 489.042969 3.015625 490.941406 2.160156 492.960938 1.570312 L 495.457031 0.84375 C 495.558594 0.816406 495.644531 0.839844 495.714844 0.917969 C 495.789062 1 495.800781 1.085938 495.761719 1.183594 L 495.484375 1.851562 C 494.875 3.324219 494.597656 4.855469 494.660156 6.453125 L 494.683594 7.019531 C 494.730469 8.25 494.507812 9.425781 494.023438 10.554688 C 493.539062 11.683594 492.832031 12.652344 491.90625 13.464844 C 490.605469 14.605469 489.160156 15.527344 487.574219 16.230469 L 485.535156 17.132812 C 485.5 17.148438 485.464844 17.15625 485.429688 17.15625 Z M 493.0625 3.621094 C 493.160156 3.621094 493.234375 3.664062 493.28125 3.746094 C 493.328125 3.832031 493.328125 3.917969 493.277344 4.003906 C 493.234375 4.078125 488.890625 11.390625 486.035156 16.355469 L 487.371094 15.765625 C 488.90625 15.085938 490.308594 14.191406 491.574219 13.082031 C 492.441406 12.324219 493.101562 11.414062 493.558594 10.355469 C 494.015625 9.296875 494.21875 8.191406 494.175781 7.039062 L 494.152344 6.472656 C 494.089844 4.804688 494.378906 3.199219 495.019531 1.65625 L 495.089844 1.476562 L 493.101562 2.058594 C 491.128906 2.632812 489.273438 3.46875 487.535156 4.566406 C 486.40625 5.28125 485.484375 6.203125 484.765625 7.328125 L 484.546875 7.671875 C 483.882812 8.714844 483.46875 9.847656 483.308594 11.074219 C 483.144531 12.300781 483.25 13.5 483.617188 14.679688 L 483.851562 15.425781 C 486.445312 11.59375 492.796875 3.792969 492.863281 3.714844 C 492.914062 3.652344 492.980469 3.621094 493.0625 3.621094 Z M 493.0625 3.621094 " fill-opacity="1" fill-rule="nonzero"/></g><path fill="#ffffff" d="M 483.148438 21.355469 C 483.0625 21.355469 482.992188 21.320312 482.941406 21.246094 L 482.363281 20.410156 C 481.960938 19.824219 481.167969 18.992188 480.1875 18.125 C 479.242188 17.289062 478.300781 16.574219 477.660156 16.214844 L 477.007812 15.851562 C 476.925781 15.804688 476.882812 15.734375 476.878906 15.640625 C 476.875 15.546875 476.910156 15.472656 476.988281 15.421875 L 477.90625 14.792969 C 478.148438 14.625 478.496094 14.578125 478.941406 14.652344 C 479.292969 14.710938 479.710938 14.847656 480.148438 15.042969 C 480.964844 15.410156 481.769531 15.949219 482.101562 16.355469 L 482.796875 17.210938 C 483.15625 16.289062 484.945312 13.757812 488.117188 9.679688 C 490.507812 6.605469 492.839844 3.742188 492.863281 3.714844 C 492.964844 3.589844 493.078125 3.574219 493.207031 3.664062 C 493.335938 3.753906 493.359375 3.867188 493.277344 4.003906 C 493.195312 4.144531 484.785156 18.304688 483.667969 20.613281 L 483.378906 21.214844 C 483.335938 21.300781 483.265625 21.347656 483.167969 21.355469 C 483.164062 21.355469 483.15625 21.355469 483.148438 21.355469 Z M 477.613281 15.609375 L 477.910156 15.773438 C 478.578125 16.148438 479.554688 16.886719 480.523438 17.746094 C 481.53125 18.640625 482.355469 19.507812 482.78125 20.125 L 483.113281 20.601562 L 483.210938 20.394531 C 484.023438 18.714844 488.484375 11.121094 491.042969 6.785156 C 490.285156 7.734375 489.40625 8.847656 488.515625 9.992188 C 484.539062 15.105469 483.460938 16.859375 483.257812 17.429688 L 483.121094 17.800781 C 483.089844 17.894531 483.023438 17.949219 482.925781 17.964844 C 482.828125 17.984375 482.75 17.953125 482.6875 17.875 L 481.710938 16.675781 C 481.425781 16.328125 480.683594 15.835938 479.941406 15.503906 C 479.128906 15.140625 478.457031 15.027344 478.191406 15.210938 Z M 477.613281 15.609375 " fill-opacity="1" fill-rule="nonzero"/><g clip-path="url(#3e5809a7aa)"><g transform="matrix(1, 0, 0, 1, 0.000000000000000222, 46)"><g clip-path="url(#b24f45c9f0)"><g clip-path="url(#2545814aae)"><g fill="#ffffff" fill-opacity="1"><g transform="translate(0.516625, 10.029889)"><g><path d="M 2.59375 0 L 0.28125 0 L 1.765625 -7.609375 L 3.9375 -7.609375 C 4.84375 -7.609375 5.578125 -7.34375 6.140625 -6.8125 C 6.710938 -6.289062 7 -5.539062 7 -4.5625 C 7 -3.144531 6.59375 -2.03125 5.78125 -1.21875 C 4.96875 -0.40625 3.90625 0 2.59375 0 Z M 2.9375 -6.3125 L 1.96875 -1.3125 L 2.5625 -1.3125 C 3.488281 -1.3125 4.210938 -1.582031 4.734375 -2.125 C 5.265625 -2.675781 5.53125 -3.410156 5.53125 -4.328125 C 5.53125 -5.023438 5.351562 -5.53125 5 -5.84375 C 4.644531 -6.15625 4.128906 -6.3125 3.453125 -6.3125 Z M 2.9375 -6.3125 "/></g></g></g></g><g fill="#ffffff" fill-opacity="1"><g transform="translate(7.821925, 10.029889)"><g><path d="M 0.28125 0 L 1.765625 -7.609375 L 6.375 -7.609375 L 6.109375 -6.3125 L 2.9375 -6.3125 L 2.625 -4.703125 L 5.15625 -4.703125 L 4.890625 -3.40625 L 2.375 -3.40625 L 1.96875 -1.3125 L 5.25 -1.3125 L 4.984375 0 Z M 0.28125 0 "/></g></g></g><g fill="#ffffff" fill-opacity="1"><g transform="translate(13.974904, 10.029889)"><g><path d="M 5.5625 -6.28125 L 4.390625 -5.625 C 4.179688 -6.132812 3.851562 -6.390625 3.40625 -6.390625 C 3.164062 -6.390625 2.972656 -6.316406 2.828125 -6.171875 C 2.679688 -6.035156 2.609375 -5.847656 2.609375 -5.609375 C 2.609375 -5.390625 2.691406 -5.195312 2.859375 -5.03125 C 3.035156 -4.863281 3.316406 -4.679688 3.703125 -4.484375 C 4.253906 -4.203125 4.640625 -3.921875 4.859375 -3.640625 C 5.109375 -3.367188 5.234375 -2.957031 5.234375 -2.40625 C 5.234375 -1.59375 4.960938 -0.96875 4.421875 -0.53125 C 4.128906 -0.300781 3.828125 -0.140625 3.515625 -0.046875 C 3.210938 0.046875 2.820312 0.09375 2.34375 0.09375 C 1.738281 0.09375 1.210938 -0.125 0.765625 -0.5625 C 0.335938 -1 0.125 -1.5 0.125 -2.0625 L 1.328125 -2.71875 C 1.421875 -1.71875 1.875 -1.21875 2.6875 -1.21875 C 3.019531 -1.21875 3.28125 -1.304688 3.46875 -1.484375 C 3.664062 -1.671875 3.765625 -1.921875 3.765625 -2.234375 C 3.765625 -2.503906 3.6875 -2.722656 3.53125 -2.890625 C 3.382812 -3.054688 3.101562 -3.253906 2.6875 -3.484375 C 2.175781 -3.753906 1.796875 -4.050781 1.546875 -4.375 C 1.304688 -4.695312 1.1875 -5.09375 1.1875 -5.5625 C 1.1875 -6.207031 1.40625 -6.722656 1.84375 -7.109375 C 2.28125 -7.503906 2.84375 -7.703125 3.53125 -7.703125 C 4.019531 -7.703125 4.453125 -7.5625 4.828125 -7.28125 C 5.203125 -7.019531 5.445312 -6.6875 5.5625 -6.28125 Z M 5.5625 -6.28125 "/></g></g></g><g fill="#ffffff" fill-opacity="1"><g transform="translate(19.758267, 10.029889)"><g><path d="M 0.28125 0 L 1.765625 -7.609375 L 6.375 -7.609375 L 6.109375 -6.3125 L 2.9375 -6.3125 L 2.625 -4.703125 L 5.15625 -4.703125 L 4.890625 -3.40625 L 2.375 -3.40625 L 1.96875 -1.3125 L 5.25 -1.3125 L 4.984375 0 Z M 0.28125 0 "/></g></g></g><g fill="#ffffff" fill-opacity="1"><g transform="translate(25.911246, 10.029889)"><g><path d="M 5.0625 -2.59375 L 6.03125 -7.609375 L 7.453125 -7.609375 L 5.96875 0 L 4.46875 0 L 2.6875 -5.03125 L 1.703125 0 L 0.28125 0 L 1.765625 -7.609375 L 3.265625 -7.609375 Z M 5.0625 -2.59375 "/></g></g></g><g fill="#ffffff" fill-opacity="1"><g transform="translate(33.564422, 10.029889)"><g><path d="M 7.109375 -7.609375 L 3.09375 0 L 1.65625 0 L 0.578125 -7.609375 L 2.125 -7.609375 L 2.734375 -1.984375 L 5.53125 -7.609375 Z M 7.109375 -7.609375 "/></g></g></g><g fill="#ffffff" fill-opacity="1"><g transform="translate(39.826114, 10.029889)"><g><path d="M 3.359375 0.09375 C 2.515625 0.09375 1.804688 -0.179688 1.234375 -0.734375 C 0.660156 -1.285156 0.375 -2.078125 0.375 -3.109375 C 0.375 -4.378906 0.726562 -5.429688 1.4375 -6.265625 C 2.226562 -7.222656 3.273438 -7.703125 4.578125 -7.703125 C 5.410156 -7.703125 6.117188 -7.421875 6.703125 -6.859375 C 7.273438 -6.304688 7.5625 -5.519531 7.5625 -4.5 C 7.5625 -3.226562 7.207031 -2.175781 6.5 -1.34375 C 5.707031 -0.382812 4.660156 0.09375 3.359375 0.09375 Z M 3.46875 -1.21875 C 4.175781 -1.21875 4.78125 -1.507812 5.28125 -2.09375 C 5.820312 -2.726562 6.09375 -3.492188 6.09375 -4.390625 C 6.09375 -5.023438 5.953125 -5.515625 5.671875 -5.859375 C 5.390625 -6.210938 4.988281 -6.390625 4.46875 -6.390625 C 3.769531 -6.390625 3.171875 -6.101562 2.671875 -5.53125 C 2.117188 -4.882812 1.84375 -4.113281 1.84375 -3.21875 C 1.84375 -2.582031 1.984375 -2.085938 2.265625 -1.734375 C 2.546875 -1.390625 2.945312 -1.21875 3.46875 -1.21875 Z M 3.46875 -1.21875 "/></g></g></g><g fill="#ffffff" fill-opacity="1"><g transform="translate(47.696703, 10.029889)"><g><path d="M 0.28125 0 L 1.765625 -7.609375 L 3.203125 -7.609375 L 1.96875 -1.3125 L 5.078125 -1.3125 L 4.8125 0 Z M 0.28125 0 "/></g></g></g><g fill="#ffffff" fill-opacity="1"><g transform="translate(53.240902, 10.029889)"><g><path d="M 7.109375 -7.609375 L 3.09375 0 L 1.65625 0 L 0.578125 -7.609375 L 2.125 -7.609375 L 2.734375 -1.984375 L 5.53125 -7.609375 Z M 7.109375 -7.609375 "/></g></g></g><g fill="#ffffff" fill-opacity="1"><g transform="translate(59.502593, 10.029889)"><g><path d="M 1.765625 -7.609375 L 3.203125 -7.609375 L 1.703125 0 L 0.28125 0 Z M 1.765625 -7.609375 "/></g></g></g><g fill="#ffffff" fill-opacity="1"><g transform="translate(62.894343, 10.029889)"><g><path d="M 2.59375 0 L 0.28125 0 L 1.765625 -7.609375 L 3.9375 -7.609375 C 4.84375 -7.609375 5.578125 -7.34375 6.140625 -6.8125 C 6.710938 -6.289062 7 -5.539062 7 -4.5625 C 7 -3.144531 6.59375 -2.03125 5.78125 -1.21875 C 4.96875 -0.40625 3.90625 0 2.59375 0 Z M 2.9375 -6.3125 L 1.96875 -1.3125 L 2.5625 -1.3125 C 3.488281 -1.3125 4.210938 -1.582031 4.734375 -2.125 C 5.265625 -2.675781 5.53125 -3.410156 5.53125 -4.328125 C 5.53125 -5.023438 5.351562 -5.53125 5 -5.84375 C 4.644531 -6.15625 4.128906 -6.3125 3.453125 -6.3125 Z M 2.9375 -6.3125 "/></g></g></g><g fill="#ffffff" fill-opacity="1"><g transform="translate(70.199643, 10.029889)"><g><path d="M 3.359375 0.09375 C 2.515625 0.09375 1.804688 -0.179688 1.234375 -0.734375 C 0.660156 -1.285156 0.375 -2.078125 0.375 -3.109375 C 0.375 -4.378906 0.726562 -5.429688 1.4375 -6.265625 C 2.226562 -7.222656 3.273438 -7.703125 4.578125 -7.703125 C 5.410156 -7.703125 6.117188 -7.421875 6.703125 -6.859375 C 7.273438 -6.304688 7.5625 -5.519531 7.5625 -4.5 C 7.5625 -3.226562 7.207031 -2.175781 6.5 -1.34375 C 5.707031 -0.382812 4.660156 0.09375 3.359375 0.09375 Z M 3.46875 -1.21875 C 4.175781 -1.21875 4.78125 -1.507812 5.28125 -2.09375 C 5.820312 -2.726562 6.09375 -3.492188 6.09375 -4.390625 C 6.09375 -5.023438 5.953125 -5.515625 5.671875 -5.859375 C 5.390625 -6.210938 4.988281 -6.390625 4.46875 -6.390625 C 3.769531 -6.390625 3.171875 -6.101562 2.671875 -5.53125 C 2.117188 -4.882812 1.84375 -4.113281 1.84375 -3.21875 C 1.84375 -2.582031 1.984375 -2.085938 2.265625 -1.734375 C 2.546875 -1.390625 2.945312 -1.21875 3.46875 -1.21875 Z M 3.46875 -1.21875 "/></g></g></g><g fill="#ffffff" fill-opacity="1"><g transform="translate(78.070232, 10.029889)"><g/></g></g><g fill="#ffffff" fill-opacity="1"><g transform="translate(80.385759, 10.029889)"><g><path d="M 0.28125 0 L 1.765625 -7.609375 L 6.375 -7.609375 L 6.109375 -6.3125 L 2.9375 -6.3125 L 2.625 -4.703125 L 5.15625 -4.703125 L 4.890625 -3.40625 L 2.375 -3.40625 L 1.96875 -1.3125 L 5.25 -1.3125 L 4.984375 0 Z M 0.28125 0 "/></g></g></g><g fill="#ffffff" fill-opacity="1"><g transform="translate(86.538738, 10.029889)"><g><path d="M 1.703125 0 L 0.28125 0 L 1.765625 -7.609375 L 3.375 -7.609375 L 4.15625 -2.859375 L 6.78125 -7.609375 L 8.453125 -7.609375 L 6.953125 0 L 5.53125 0 L 6.4375 -4.609375 L 4.296875 -0.703125 L 3.265625 -0.703125 L 2.625 -4.703125 Z M 1.703125 0 "/></g></g></g><g fill="#ffffff" fill-opacity="1"><g transform="translate(95.181166, 10.029889)"><g/></g></g><g fill="#ffffff" fill-opacity="1"><g transform="translate(97.496693, 10.029889)"><g><path d="M 3.515625 -2.984375 L 2.296875 -2.984375 L 1.703125 0 L 0.28125 0 L 1.765625 -7.609375 L 4.4375 -7.609375 C 5.09375 -7.609375 5.609375 -7.429688 5.984375 -7.078125 C 6.367188 -6.734375 6.5625 -6.238281 6.5625 -5.59375 C 6.5625 -4.78125 6.28125 -4.140625 5.71875 -3.671875 C 5.164062 -3.210938 4.429688 -2.984375 3.515625 -2.984375 Z M 2.9375 -6.3125 L 2.546875 -4.28125 L 3.734375 -4.28125 C 4.148438 -4.28125 4.476562 -4.382812 4.71875 -4.59375 C 4.96875 -4.8125 5.09375 -5.109375 5.09375 -5.484375 C 5.09375 -5.742188 5.015625 -5.945312 4.859375 -6.09375 C 4.710938 -6.238281 4.5 -6.3125 4.21875 -6.3125 Z M 2.9375 -6.3125 "/></g></g></g><g fill="#ffffff" fill-opacity="1"><g transform="translate(103.888836, 10.029889)"><g><path d="M 3.359375 0.09375 C 2.515625 0.09375 1.804688 -0.179688 1.234375 -0.734375 C 0.660156 -1.285156 0.375 -2.078125 0.375 -3.109375 C 0.375 -4.378906 0.726562 -5.429688 1.4375 -6.265625 C 2.226562 -7.222656 3.273438 -7.703125 4.578125 -7.703125 C 5.410156 -7.703125 6.117188 -7.421875 6.703125 -6.859375 C 7.273438 -6.304688 7.5625 -5.519531 7.5625 -4.5 C 7.5625 -3.226562 7.207031 -2.175781 6.5 -1.34375 C 5.707031 -0.382812 4.660156 0.09375 3.359375 0.09375 Z M 3.46875 -1.21875 C 4.175781 -1.21875 4.78125 -1.507812 5.28125 -2.09375 C 5.820312 -2.726562 6.09375 -3.492188 6.09375 -4.390625 C 6.09375 -5.023438 5.953125 -5.515625 5.671875 -5.859375 C 5.390625 -6.210938 4.988281 -6.390625 4.46875 -6.390625 C 3.769531 -6.390625 3.171875 -6.101562 2.671875 -5.53125 C 2.117188 -4.882812 1.84375 -4.113281 1.84375 -3.21875 C 1.84375 -2.582031 1.984375 -2.085938 2.265625 -1.734375 C 2.546875 -1.390625 2.945312 -1.21875 3.46875 -1.21875 Z M 3.46875 -1.21875 "/></g></g></g><g fill="#ffffff" fill-opacity="1"><g transform="translate(111.759426, 10.029889)"><g><path d="M 6.5 -5.8125 C 6.5 -5.15625 6.3125 -4.617188 5.9375 -4.203125 C 5.5625 -3.785156 5.109375 -3.519531 4.578125 -3.40625 L 6.0625 0 L 4.53125 0 L 3.125 -3.28125 L 2.34375 -3.28125 L 1.703125 0 L 0.28125 0 L 1.765625 -7.609375 L 4.46875 -7.609375 C 5.101562 -7.609375 5.597656 -7.445312 5.953125 -7.125 C 6.316406 -6.800781 6.5 -6.363281 6.5 -5.8125 Z M 2.9375 -6.3125 L 2.59375 -4.59375 L 3.890625 -4.59375 C 4.222656 -4.59375 4.5 -4.6875 4.71875 -4.875 C 4.945312 -5.0625 5.0625 -5.300781 5.0625 -5.59375 C 5.0625 -6.070312 4.800781 -6.3125 4.28125 -6.3125 Z M 2.9375 -6.3125 "/></g></g></g><g fill="#ffffff" fill-opacity="1"><g transform="translate(118.347243, 10.029889)"><g><path d="M 2.59375 -6.3125 L 0.53125 -6.3125 L 0.796875 -7.609375 L 6.34375 -7.609375 L 6.09375 -6.3125 L 4.03125 -6.3125 L 2.796875 0 L 1.375 0 Z M 2.59375 -6.3125 "/></g></g></g><g fill="#ffffff" fill-opacity="1"><g transform="translate(123.956673, 10.029889)"><g><path d="M 5.765625 -7.609375 L 7.203125 -7.609375 L 6.28125 -2.890625 C 6.070312 -1.835938 5.691406 -1.078125 5.140625 -0.609375 C 4.597656 -0.140625 3.859375 0.09375 2.921875 0.09375 C 2.222656 0.09375 1.664062 -0.101562 1.25 -0.5 C 0.832031 -0.894531 0.625 -1.4375 0.625 -2.125 C 0.625 -2.332031 0.65625 -2.585938 0.71875 -2.890625 L 1.625 -7.609375 L 3.0625 -7.609375 L 2.140625 -2.875 C 2.097656 -2.644531 2.078125 -2.453125 2.078125 -2.296875 C 2.078125 -1.953125 2.164062 -1.6875 2.34375 -1.5 C 2.53125 -1.3125 2.804688 -1.21875 3.171875 -1.21875 C 4.078125 -1.21875 4.632812 -1.769531 4.84375 -2.875 Z M 5.765625 -7.609375 "/></g></g></g><g fill="#ffffff" fill-opacity="1"><g transform="translate(131.272848, 10.029889)"><g><path d="M 6.40625 0 L 5.234375 0 L 5.234375 -0.75 C 4.773438 -0.1875 4.109375 0.09375 3.234375 0.09375 C 2.441406 0.09375 1.765625 -0.191406 1.203125 -0.765625 C 0.648438 -1.316406 0.375 -2.082031 0.375 -3.0625 C 0.351562 -4.363281 0.75 -5.460938 1.5625 -6.359375 C 2.375 -7.265625 3.429688 -7.710938 4.734375 -7.703125 C 5.515625 -7.703125 6.132812 -7.488281 6.59375 -7.0625 C 7.0625 -6.632812 7.347656 -6.046875 7.453125 -5.296875 L 6.140625 -4.953125 C 5.972656 -5.441406 5.757812 -5.800781 5.5 -6.03125 C 5.25 -6.269531 4.910156 -6.390625 4.484375 -6.390625 C 3.710938 -6.390625 3.082031 -6.085938 2.59375 -5.484375 C 2.09375 -4.867188 1.84375 -4.128906 1.84375 -3.265625 C 1.84375 -2.628906 1.992188 -2.128906 2.296875 -1.765625 C 2.609375 -1.398438 3.03125 -1.21875 3.5625 -1.21875 C 4.039062 -1.21875 4.453125 -1.347656 4.796875 -1.609375 C 5.140625 -1.878906 5.394531 -2.238281 5.5625 -2.6875 L 4.140625 -2.6875 L 4.375 -3.84375 L 7.15625 -3.84375 Z M 6.40625 0 "/></g></g></g><g fill="#ffffff" fill-opacity="1"><g transform="translate(139.078216, 10.029889)"><g><path d="M 5.859375 0 L 4.34375 0 L 4.140625 -1.796875 L 1.734375 -1.796875 L 0.8125 0 L -0.71875 0 L 3.34375 -7.609375 L 4.734375 -7.609375 Z M 3.984375 -3.09375 L 3.703125 -5.78125 L 2.375 -3.09375 Z M 3.984375 -3.09375 "/></g></g></g><g fill="#ffffff" fill-opacity="1"><g transform="translate(145.4921, 10.029889)"><g><path d="M 0.28125 0 L 1.765625 -7.609375 L 3.203125 -7.609375 L 1.96875 -1.3125 L 5.078125 -1.3125 L 4.8125 0 Z M 0.28125 0 "/></g></g></g></g></g></g><g clip-path="url(#84f862fe66)"><g transform="matrix(1, 0, 0, 1, 176, 46)"><g clip-path="url(#7565b86544)"><g fill="#ffffff" fill-opacity="1"><g transform="translate(1.046811, 10.029889)"><g><path d="M 0.28125 0 L 1.765625 -7.609375 L 6.453125 -7.609375 L 6.1875 -6.3125 L 2.9375 -6.3125 L 2.59375 -4.5625 L 5.1875 -4.5625 L 4.9375 -3.265625 L 2.34375 -3.265625 L 1.703125 0 Z M 0.28125 0 "/></g></g></g><g fill="#ffffff" fill-opacity="1"><g transform="translate(7.047598, 10.029889)"><g><path d="M 0.28125 0 L 1.765625 -7.609375 L 6.375 -7.609375 L 6.109375 -6.3125 L 2.9375 -6.3125 L 2.625 -4.703125 L 5.15625 -4.703125 L 4.890625 -3.40625 L 2.375 -3.40625 L 1.96875 -1.3125 L 5.25 -1.3125 L 4.984375 0 Z M 0.28125 0 "/></g></g></g><g fill="#ffffff" fill-opacity="1"><g transform="translate(13.200577, 10.029889)"><g><path d="M 1.765625 -7.609375 L 3.203125 -7.609375 L 1.703125 0 L 0.28125 0 Z M 1.765625 -7.609375 "/></g></g></g><g fill="#ffffff" fill-opacity="1"><g transform="translate(16.592328, 10.029889)"><g><path d="M 2.59375 -6.3125 L 0.53125 -6.3125 L 0.796875 -7.609375 L 6.34375 -7.609375 L 6.09375 -6.3125 L 4.03125 -6.3125 L 2.796875 0 L 1.375 0 Z M 2.59375 -6.3125 "/></g></g></g><g fill="#ffffff" fill-opacity="1"><g transform="translate(22.201757, 10.029889)"><g><path d="M 3.359375 0.09375 C 2.515625 0.09375 1.804688 -0.179688 1.234375 -0.734375 C 0.660156 -1.285156 0.375 -2.078125 0.375 -3.109375 C 0.375 -4.378906 0.726562 -5.429688 1.4375 -6.265625 C 2.226562 -7.222656 3.273438 -7.703125 4.578125 -7.703125 C 5.410156 -7.703125 6.117188 -7.421875 6.703125 -6.859375 C 7.273438 -6.304688 7.5625 -5.519531 7.5625 -4.5 C 7.5625 -3.226562 7.207031 -2.175781 6.5 -1.34375 C 5.707031 -0.382812 4.660156 0.09375 3.359375 0.09375 Z M 3.46875 -1.21875 C 4.175781 -1.21875 4.78125 -1.507812 5.28125 -2.09375 C 5.820312 -2.726562 6.09375 -3.492188 6.09375 -4.390625 C 6.09375 -5.023438 5.953125 -5.515625 5.671875 -5.859375 C 5.390625 -6.210938 4.988281 -6.390625 4.46875 -6.390625 C 3.769531 -6.390625 3.171875 -6.101562 2.671875 -5.53125 C 2.117188 -4.882812 1.84375 -4.113281 1.84375 -3.21875 C 1.84375 -2.582031 1.984375 -2.085938 2.265625 -1.734375 C 2.546875 -1.390625 2.945312 -1.21875 3.46875 -1.21875 Z M 3.46875 -1.21875 "/></g></g></g><g fill="#ffffff" fill-opacity="1"><g transform="translate(30.072347, 10.029889)"><g/></g></g><g fill="#ffffff" fill-opacity="1"><g transform="translate(32.387873, 10.029889)"><g><path d="M 3.515625 -2.984375 L 2.296875 -2.984375 L 1.703125 0 L 0.28125 0 L 1.765625 -7.609375 L 4.4375 -7.609375 C 5.09375 -7.609375 5.609375 -7.429688 5.984375 -7.078125 C 6.367188 -6.734375 6.5625 -6.238281 6.5625 -5.59375 C 6.5625 -4.78125 6.28125 -4.140625 5.71875 -3.671875 C 5.164062 -3.210938 4.429688 -2.984375 3.515625 -2.984375 Z M 2.9375 -6.3125 L 2.546875 -4.28125 L 3.734375 -4.28125 C 4.148438 -4.28125 4.476562 -4.382812 4.71875 -4.59375 C 4.96875 -4.8125 5.09375 -5.109375 5.09375 -5.484375 C 5.09375 -5.742188 5.015625 -5.945312 4.859375 -6.09375 C 4.710938 -6.238281 4.5 -6.3125 4.21875 -6.3125 Z M 2.9375 -6.3125 "/></g></g></g><g fill="#ffffff" fill-opacity="1"><g transform="translate(38.780017, 10.029889)"><g><path d="M 3.359375 0.09375 C 2.515625 0.09375 1.804688 -0.179688 1.234375 -0.734375 C 0.660156 -1.285156 0.375 -2.078125 0.375 -3.109375 C 0.375 -4.378906 0.726562 -5.429688 1.4375 -6.265625 C 2.226562 -7.222656 3.273438 -7.703125 4.578125 -7.703125 C 5.410156 -7.703125 6.117188 -7.421875 6.703125 -6.859375 C 7.273438 -6.304688 7.5625 -5.519531 7.5625 -4.5 C 7.5625 -3.226562 7.207031 -2.175781 6.5 -1.34375 C 5.707031 -0.382812 4.660156 0.09375 3.359375 0.09375 Z M 3.46875 -1.21875 C 4.175781 -1.21875 4.78125 -1.507812 5.28125 -2.09375 C 5.820312 -2.726562 6.09375 -3.492188 6.09375 -4.390625 C 6.09375 -5.023438 5.953125 -5.515625 5.671875 -5.859375 C 5.390625 -6.210938 4.988281 -6.390625 4.46875 -6.390625 C 3.769531 -6.390625 3.171875 -6.101562 2.671875 -5.53125 C 2.117188 -4.882812 1.84375 -4.113281 1.84375 -3.21875 C 1.84375 -2.582031 1.984375 -2.085938 2.265625 -1.734375 C 2.546875 -1.390625 2.945312 -1.21875 3.46875 -1.21875 Z M 3.46875 -1.21875 "/></g></g></g><g fill="#ffffff" fill-opacity="1"><g transform="translate(46.650607, 10.029889)"><g><path d="M 6.5 -5.8125 C 6.5 -5.15625 6.3125 -4.617188 5.9375 -4.203125 C 5.5625 -3.785156 5.109375 -3.519531 4.578125 -3.40625 L 6.0625 0 L 4.53125 0 L 3.125 -3.28125 L 2.34375 -3.28125 L 1.703125 0 L 0.28125 0 L 1.765625 -7.609375 L 4.46875 -7.609375 C 5.101562 -7.609375 5.597656 -7.445312 5.953125 -7.125 C 6.316406 -6.800781 6.5 -6.363281 6.5 -5.8125 Z M 2.9375 -6.3125 L 2.59375 -4.59375 L 3.890625 -4.59375 C 4.222656 -4.59375 4.5 -4.6875 4.71875 -4.875 C 4.945312 -5.0625 5.0625 -5.300781 5.0625 -5.59375 C 5.0625 -6.070312 4.800781 -6.3125 4.28125 -6.3125 Z M 2.9375 -6.3125 "/></g></g></g><g fill="#ffffff" fill-opacity="1"><g transform="translate(53.238424, 10.029889)"><g/></g></g><g fill="#ffffff" fill-opacity="1"><g transform="translate(55.55395, 10.029889)"><g><path d="M 2.59375 -6.3125 L 0.53125 -6.3125 L 0.796875 -7.609375 L 6.34375 -7.609375 L 6.09375 -6.3125 L 4.03125 -6.3125 L 2.796875 0 L 1.375 0 Z M 2.59375 -6.3125 "/></g></g></g><g fill="#ffffff" fill-opacity="1"><g transform="translate(61.16338, 10.029889)"><g><path d="M 1.765625 -7.609375 L 3.203125 -7.609375 L 1.703125 0 L 0.28125 0 Z M 1.765625 -7.609375 "/></g></g></g></g></g></g><g clip-path="url(#2d59db2cec)"><g transform="matrix(1, 0, 0, 1, 265, 46)"><g clip-path="url(#0db538b1e7)"><g fill="#ffffff" fill-opacity="1"><g transform="translate(1.153964, 10.029889)"><g><path d="M 7.5 -5.296875 L 6.171875 -4.96875 C 6.066406 -5.457031 5.878906 -5.816406 5.609375 -6.046875 C 5.347656 -6.273438 4.988281 -6.390625 4.53125 -6.390625 C 3.75 -6.390625 3.101562 -6.066406 2.59375 -5.421875 C 2.082031 -4.785156 1.828125 -4.054688 1.828125 -3.234375 C 1.828125 -2.585938 1.976562 -2.085938 2.28125 -1.734375 C 2.582031 -1.390625 3 -1.21875 3.53125 -1.21875 C 3.976562 -1.21875 4.363281 -1.332031 4.6875 -1.5625 C 5.007812 -1.789062 5.304688 -2.171875 5.578125 -2.703125 L 6.828125 -2.3125 C 6.484375 -1.476562 6.023438 -0.867188 5.453125 -0.484375 C 4.878906 -0.0976562 4.148438 0.09375 3.265625 0.09375 C 2.453125 0.09375 1.765625 -0.203125 1.203125 -0.796875 C 0.648438 -1.367188 0.375 -2.144531 0.375 -3.125 C 0.375 -4.375 0.789062 -5.445312 1.625 -6.34375 C 2.457031 -7.25 3.507812 -7.703125 4.78125 -7.703125 C 5.582031 -7.703125 6.21875 -7.476562 6.6875 -7.03125 C 7.15625 -6.570312 7.425781 -5.992188 7.5 -5.296875 Z M 7.5 -5.296875 "/></g></g></g><g fill="#ffffff" fill-opacity="1"><g transform="translate(8.611456, 10.029889)"><g><path d="M 6.5 -5.8125 C 6.5 -5.15625 6.3125 -4.617188 5.9375 -4.203125 C 5.5625 -3.785156 5.109375 -3.519531 4.578125 -3.40625 L 6.0625 0 L 4.53125 0 L 3.125 -3.28125 L 2.34375 -3.28125 L 1.703125 0 L 0.28125 0 L 1.765625 -7.609375 L 4.46875 -7.609375 C 5.101562 -7.609375 5.597656 -7.445312 5.953125 -7.125 C 6.316406 -6.800781 6.5 -6.363281 6.5 -5.8125 Z M 2.9375 -6.3125 L 2.59375 -4.59375 L 3.890625 -4.59375 C 4.222656 -4.59375 4.5 -4.6875 4.71875 -4.875 C 4.945312 -5.0625 5.0625 -5.300781 5.0625 -5.59375 C 5.0625 -6.070312 4.800781 -6.3125 4.28125 -6.3125 Z M 2.9375 -6.3125 "/></g></g></g><g fill="#ffffff" fill-opacity="1"><g transform="translate(15.199273, 10.029889)"><g><path d="M 5.765625 -7.609375 L 7.203125 -7.609375 L 6.28125 -2.890625 C 6.070312 -1.835938 5.691406 -1.078125 5.140625 -0.609375 C 4.597656 -0.140625 3.859375 0.09375 2.921875 0.09375 C 2.222656 0.09375 1.664062 -0.101562 1.25 -0.5 C 0.832031 -0.894531 0.625 -1.4375 0.625 -2.125 C 0.625 -2.332031 0.65625 -2.585938 0.71875 -2.890625 L 1.625 -7.609375 L 3.0625 -7.609375 L 2.140625 -2.875 C 2.097656 -2.644531 2.078125 -2.453125 2.078125 -2.296875 C 2.078125 -1.953125 2.164062 -1.6875 2.34375 -1.5 C 2.53125 -1.3125 2.804688 -1.21875 3.171875 -1.21875 C 4.078125 -1.21875 4.632812 -1.769531 4.84375 -2.875 Z M 5.765625 -7.609375 "/></g></g></g><g fill="#ffffff" fill-opacity="1"><g transform="translate(22.515448, 10.029889)"><g><path d="M 0.28125 0 L 1.765625 -7.609375 L 6.375 -7.609375 L 6.109375 -6.3125 L 2.9375 -6.3125 L 2.625 -4.703125 L 5.15625 -4.703125 L 4.890625 -3.40625 L 2.375 -3.40625 L 1.96875 -1.3125 L 5.25 -1.3125 L 4.984375 0 Z M 0.28125 0 "/></g></g></g><g fill="#ffffff" fill-opacity="1"><g transform="translate(28.668427, 10.029889)"><g><path d="M 0.28125 0 L 1.765625 -7.609375 L 3.203125 -7.609375 L 1.96875 -1.3125 L 5.078125 -1.3125 L 4.8125 0 Z M 0.28125 0 "/></g></g></g><g fill="#ffffff" fill-opacity="1"><g transform="translate(34.212626, 10.029889)"><g><path d="M 2.59375 -6.3125 L 0.53125 -6.3125 L 0.796875 -7.609375 L 6.34375 -7.609375 L 6.09375 -6.3125 L 4.03125 -6.3125 L 2.796875 0 L 1.375 0 Z M 2.59375 -6.3125 "/></g></g></g><g fill="#ffffff" fill-opacity="1"><g transform="translate(39.822055, 10.029889)"><g><path d="M 1.875 -3.234375 L 0.515625 -7.609375 L 2.015625 -7.609375 L 2.8125 -4.65625 L 4.796875 -7.609375 L 6.3125 -7.609375 L 3.296875 -3.234375 L 2.671875 0 L 1.25 0 Z M 1.875 -3.234375 "/></g></g></g><g fill="#ffffff" fill-opacity="1"><g transform="translate(45.257552, 10.029889)"><g><path d="M 4.578125 -2.859375 L 0.515625 -2.859375 L 0.75 -4.03125 L 4.8125 -4.03125 Z M 4.578125 -2.859375 "/></g></g></g><g fill="#ffffff" fill-opacity="1"><g transform="translate(50.660433, 10.029889)"><g><path d="M 0.28125 0 L 1.765625 -7.609375 L 6.453125 -7.609375 L 6.1875 -6.3125 L 2.9375 -6.3125 L 2.59375 -4.5625 L 5.1875 -4.5625 L 4.9375 -3.265625 L 2.34375 -3.265625 L 1.703125 0 Z M 0.28125 0 "/></g></g></g><g fill="#ffffff" fill-opacity="1"><g transform="translate(56.66122, 10.029889)"><g><path d="M 6.5 -5.8125 C 6.5 -5.15625 6.3125 -4.617188 5.9375 -4.203125 C 5.5625 -3.785156 5.109375 -3.519531 4.578125 -3.40625 L 6.0625 0 L 4.53125 0 L 3.125 -3.28125 L 2.34375 -3.28125 L 1.703125 0 L 0.28125 0 L 1.765625 -7.609375 L 4.46875 -7.609375 C 5.101562 -7.609375 5.597656 -7.445312 5.953125 -7.125 C 6.316406 -6.800781 6.5 -6.363281 6.5 -5.8125 Z M 2.9375 -6.3125 L 2.59375 -4.59375 L 3.890625 -4.59375 C 4.222656 -4.59375 4.5 -4.6875 4.71875 -4.875 C 4.945312 -5.0625 5.0625 -5.300781 5.0625 -5.59375 C 5.0625 -6.070312 4.800781 -6.3125 4.28125 -6.3125 Z M 2.9375 -6.3125 "/></g></g></g><g fill="#ffffff" fill-opacity="1"><g transform="translate(63.249037, 10.029889)"><g><path d="M 0.28125 0 L 1.765625 -7.609375 L 6.375 -7.609375 L 6.109375 -6.3125 L 2.9375 -6.3125 L 2.625 -4.703125 L 5.15625 -4.703125 L 4.890625 -3.40625 L 2.375 -3.40625 L 1.96875 -1.3125 L 5.25 -1.3125 L 4.984375 0 Z M 0.28125 0 "/></g></g></g><g fill="#ffffff" fill-opacity="1"><g transform="translate(69.402016, 10.029889)"><g><path d="M 0.28125 0 L 1.765625 -7.609375 L 6.375 -7.609375 L 6.109375 -6.3125 L 2.9375 -6.3125 L 2.625 -4.703125 L 5.15625 -4.703125 L 4.890625 -3.40625 L 2.375 -3.40625 L 1.96875 -1.3125 L 5.25 -1.3125 L 4.984375 0 Z M 0.28125 0 "/></g></g></g></g></g></g><g clip-path="url(#3dd922e022)"><g transform="matrix(1, 0, 0, 1, 371, 45)"><g clip-path="url(#d60bad23f7)"><g clip-path="url(#b65dc2f730)"><g fill="#ffffff" fill-opacity="1"><g transform="translate(0.707236, 11.029889)"><g><path d="M 5.5625 -6.28125 L 4.390625 -5.625 C 4.179688 -6.132812 3.851562 -6.390625 3.40625 -6.390625 C 3.164062 -6.390625 2.972656 -6.316406 2.828125 -6.171875 C 2.679688 -6.035156 2.609375 -5.847656 2.609375 -5.609375 C 2.609375 -5.390625 2.691406 -5.195312 2.859375 -5.03125 C 3.035156 -4.863281 3.316406 -4.679688 3.703125 -4.484375 C 4.253906 -4.203125 4.640625 -3.921875 4.859375 -3.640625 C 5.109375 -3.367188 5.234375 -2.957031 5.234375 -2.40625 C 5.234375 -1.59375 4.960938 -0.96875 4.421875 -0.53125 C 4.128906 -0.300781 3.828125 -0.140625 3.515625 -0.046875 C 3.210938 0.046875 2.820312 0.09375 2.34375 0.09375 C 1.738281 0.09375 1.210938 -0.125 0.765625 -0.5625 C 0.335938 -1 0.125 -1.5 0.125 -2.0625 L 1.328125 -2.71875 C 1.421875 -1.71875 1.875 -1.21875 2.6875 -1.21875 C 3.019531 -1.21875 3.28125 -1.304688 3.46875 -1.484375 C 3.664062 -1.671875 3.765625 -1.921875 3.765625 -2.234375 C 3.765625 -2.503906 3.6875 -2.722656 3.53125 -2.890625 C 3.382812 -3.054688 3.101562 -3.253906 2.6875 -3.484375 C 2.175781 -3.753906 1.796875 -4.050781 1.546875 -4.375 C 1.304688 -4.695312 1.1875 -5.09375 1.1875 -5.5625 C 1.1875 -6.207031 1.40625 -6.722656 1.84375 -7.109375 C 2.28125 -7.503906 2.84375 -7.703125 3.53125 -7.703125 C 4.019531 -7.703125 4.453125 -7.5625 4.828125 -7.28125 C 5.203125 -7.019531 5.445312 -6.6875 5.5625 -6.28125 Z M 5.5625 -6.28125 "/></g></g></g></g><g fill="#ffffff" fill-opacity="1"><g transform="translate(6.490599, 11.029889)"><g><path d="M 0.28125 0 L 1.765625 -7.609375 L 6.375 -7.609375 L 6.109375 -6.3125 L 2.9375 -6.3125 L 2.625 -4.703125 L 5.15625 -4.703125 L 4.890625 -3.40625 L 2.375 -3.40625 L 1.96875 -1.3125 L 5.25 -1.3125 L 4.984375 0 Z M 0.28125 0 "/></g></g></g><g fill="#ffffff" fill-opacity="1"><g transform="translate(12.643578, 11.029889)"><g><path d="M 1.703125 0 L 0.28125 0 L 1.765625 -7.609375 L 3.375 -7.609375 L 4.15625 -2.859375 L 6.78125 -7.609375 L 8.453125 -7.609375 L 6.953125 0 L 5.53125 0 L 6.4375 -4.609375 L 4.296875 -0.703125 L 3.265625 -0.703125 L 2.625 -4.703125 Z M 1.703125 0 "/></g></g></g><g fill="#ffffff" fill-opacity="1"><g transform="translate(21.286006, 11.029889)"><g/></g></g><g fill="#ffffff" fill-opacity="1"><g transform="translate(23.601532, 11.029889)"><g><path d="M 6.40625 0 L 5.234375 0 L 5.234375 -0.75 C 4.773438 -0.1875 4.109375 0.09375 3.234375 0.09375 C 2.441406 0.09375 1.765625 -0.191406 1.203125 -0.765625 C 0.648438 -1.316406 0.375 -2.082031 0.375 -3.0625 C 0.351562 -4.363281 0.75 -5.460938 1.5625 -6.359375 C 2.375 -7.265625 3.429688 -7.710938 4.734375 -7.703125 C 5.515625 -7.703125 6.132812 -7.488281 6.59375 -7.0625 C 7.0625 -6.632812 7.347656 -6.046875 7.453125 -5.296875 L 6.140625 -4.953125 C 5.972656 -5.441406 5.757812 -5.800781 5.5 -6.03125 C 5.25 -6.269531 4.910156 -6.390625 4.484375 -6.390625 C 3.710938 -6.390625 3.082031 -6.085938 2.59375 -5.484375 C 2.09375 -4.867188 1.84375 -4.128906 1.84375 -3.265625 C 1.84375 -2.628906 1.992188 -2.128906 2.296875 -1.765625 C 2.609375 -1.398438 3.03125 -1.21875 3.5625 -1.21875 C 4.039062 -1.21875 4.453125 -1.347656 4.796875 -1.609375 C 5.140625 -1.878906 5.394531 -2.238281 5.5625 -2.6875 L 4.140625 -2.6875 L 4.375 -3.84375 L 7.15625 -3.84375 Z M 6.40625 0 "/></g></g></g><g fill="#ffffff" fill-opacity="1"><g transform="translate(31.406901, 11.029889)"><g><path d="M 0.28125 0 L 1.765625 -7.609375 L 3.203125 -7.609375 L 1.96875 -1.3125 L 5.078125 -1.3125 L 4.8125 0 Z M 0.28125 0 "/></g></g></g><g fill="#ffffff" fill-opacity="1"><g transform="translate(36.951099, 11.029889)"><g><path d="M 5.765625 -7.609375 L 7.203125 -7.609375 L 6.28125 -2.890625 C 6.070312 -1.835938 5.691406 -1.078125 5.140625 -0.609375 C 4.597656 -0.140625 3.859375 0.09375 2.921875 0.09375 C 2.222656 0.09375 1.664062 -0.101562 1.25 -0.5 C 0.832031 -0.894531 0.625 -1.4375 0.625 -2.125 C 0.625 -2.332031 0.65625 -2.585938 0.71875 -2.890625 L 1.625 -7.609375 L 3.0625 -7.609375 L 2.140625 -2.875 C 2.097656 -2.644531 2.078125 -2.453125 2.078125 -2.296875 C 2.078125 -1.953125 2.164062 -1.6875 2.34375 -1.5 C 2.53125 -1.3125 2.804688 -1.21875 3.171875 -1.21875 C 4.078125 -1.21875 4.632812 -1.769531 4.84375 -2.875 Z M 4.546875 -8.21875 L 3.515625 -8.21875 L 4.53125 -9.828125 L 6.34375 -9.828125 Z M 4.546875 -8.21875 "/></g></g></g><g fill="#ffffff" fill-opacity="1"><g transform="translate(44.267274, 11.029889)"><g><path d="M 2.59375 -6.3125 L 0.53125 -6.3125 L 0.796875 -7.609375 L 6.34375 -7.609375 L 6.09375 -6.3125 L 4.03125 -6.3125 L 2.796875 0 L 1.375 0 Z M 2.59375 -6.3125 "/></g></g></g><g fill="#ffffff" fill-opacity="1"><g transform="translate(49.876704, 11.029889)"><g><path d="M 0.28125 0 L 1.765625 -7.609375 L 6.375 -7.609375 L 6.109375 -6.3125 L 2.9375 -6.3125 L 2.625 -4.703125 L 5.15625 -4.703125 L 4.890625 -3.40625 L 2.375 -3.40625 L 1.96875 -1.3125 L 5.25 -1.3125 L 4.984375 0 Z M 0.28125 0 "/></g></g></g><g fill="#ffffff" fill-opacity="1"><g transform="translate(56.029683, 11.029889)"><g><path d="M 5.0625 -2.59375 L 6.03125 -7.609375 L 7.453125 -7.609375 L 5.96875 0 L 4.46875 0 L 2.6875 -5.03125 L 1.703125 0 L 0.28125 0 L 1.765625 -7.609375 L 3.265625 -7.609375 Z M 5.0625 -2.59375 "/></g></g></g></g></g></g><g clip-path="url(#caccd28494)"><g transform="matrix(1, 0, 0, 1, 465, 46)"><g clip-path="url(#ef395e6e02)"><g fill="#ffffff" fill-opacity="1"><g transform="translate(0.858663, 10.029889)"><g><path d="M 7.109375 -7.609375 L 3.09375 0 L 1.65625 0 L 0.578125 -7.609375 L 2.125 -7.609375 L 2.734375 -1.984375 L 5.53125 -7.609375 Z M 7.109375 -7.609375 "/></g></g></g><g fill="#ffffff" fill-opacity="1"><g transform="translate(7.120354, 10.029889)"><g><path d="M 0.28125 0 L 1.765625 -7.609375 L 6.375 -7.609375 L 6.109375 -6.3125 L 2.9375 -6.3125 L 2.625 -4.703125 L 5.15625 -4.703125 L 4.890625 -3.40625 L 2.375 -3.40625 L 1.96875 -1.3125 L 5.25 -1.3125 L 4.984375 0 Z M 0.28125 0 "/></g></g></g><g fill="#ffffff" fill-opacity="1"><g transform="translate(13.273334, 10.029889)"><g><path d="M 6.40625 0 L 5.234375 0 L 5.234375 -0.75 C 4.773438 -0.1875 4.109375 0.09375 3.234375 0.09375 C 2.441406 0.09375 1.765625 -0.191406 1.203125 -0.765625 C 0.648438 -1.316406 0.375 -2.082031 0.375 -3.0625 C 0.351562 -4.363281 0.75 -5.460938 1.5625 -6.359375 C 2.375 -7.265625 3.429688 -7.710938 4.734375 -7.703125 C 5.515625 -7.703125 6.132812 -7.488281 6.59375 -7.0625 C 7.0625 -6.632812 7.347656 -6.046875 7.453125 -5.296875 L 6.140625 -4.953125 C 5.972656 -5.441406 5.757812 -5.800781 5.5 -6.03125 C 5.25 -6.269531 4.910156 -6.390625 4.484375 -6.390625 C 3.710938 -6.390625 3.082031 -6.085938 2.59375 -5.484375 C 2.09375 -4.867188 1.84375 -4.128906 1.84375 -3.265625 C 1.84375 -2.628906 1.992188 -2.128906 2.296875 -1.765625 C 2.609375 -1.398438 3.03125 -1.21875 3.5625 -1.21875 C 4.039062 -1.21875 4.453125 -1.347656 4.796875 -1.609375 C 5.140625 -1.878906 5.394531 -2.238281 5.5625 -2.6875 L 4.140625 -2.6875 L 4.375 -3.84375 L 7.15625 -3.84375 Z M 6.40625 0 "/></g></g></g><g fill="#ffffff" fill-opacity="1"><g transform="translate(21.078702, 10.029889)"><g><path d="M 5.859375 0 L 4.34375 0 L 4.140625 -1.796875 L 1.734375 -1.796875 L 0.8125 0 L -0.71875 0 L 3.34375 -7.609375 L 4.734375 -7.609375 Z M 3.984375 -3.09375 L 3.703125 -5.78125 L 2.375 -3.09375 Z M 3.984375 -3.09375 "/></g></g></g><g fill="#ffffff" fill-opacity="1"><g transform="translate(27.492586, 10.029889)"><g><path d="M 5.0625 -2.59375 L 6.03125 -7.609375 L 7.453125 -7.609375 L 5.96875 0 L 4.46875 0 L 2.6875 -5.03125 L 1.703125 0 L 0.28125 0 L 1.765625 -7.609375 L 3.265625 -7.609375 Z M 5.0625 -2.59375 "/></g></g></g></g></g></g></g></g></g></svg>