<svg xmlns="http://www.w3.org/2000/svg" xmlns:xlink="http://www.w3.org/1999/xlink" width="40" zoomAndPan="magnify" viewBox="0 0 30 30.000001" height="40" preserveAspectRatio="xMidYMid meet" version="1.0"><defs><clipPath id="88e165636e"><path d="M 1.480469 0 L 28.519531 0 L 28.519531 29.03125 L 1.480469 29.03125 Z M 1.480469 0 " clip-rule="nonzero"/></clipPath><clipPath id="f0f60d653c"><path d="M 21.328125 16.226562 C 21.347656 21.808594 24.328125 25.585938 28.277344 28.992188 C 27.324219 28.992188 26.359375 28.949219 25.414062 29.011719 C 24.59375 29.066406 23.976562 28.808594 23.367188 28.261719 C 21.054688 26.167969 19.042969 23.863281 18.273438 20.746094 C 17.980469 19.582031 17.894531 18.363281 17.71875 17.164062 C 17.683594 16.890625 17.683594 16.617188 17.664062 16.308594 L 12.382812 16.308594 C 12.339844 16.589844 12.269531 16.863281 12.261719 17.128906 C 12.171875 21.488281 10.238281 24.941406 7.078125 27.847656 C 6.167969 28.683594 5.257812 29.171875 4.003906 29.019531 C 3.265625 28.933594 2.496094 29.003906 1.65625 28.921875 C 5.648438 25.648438 8.660156 21.871094 8.640625 16.261719 C 7.96875 16.261719 7.335938 16.261719 6.699219 16.261719 C 5.59375 16.261719 4.5 16.234375 3.398438 16.273438 C 2.796875 16.289062 2.601562 16.058594 2.628906 15.484375 C 2.664062 14.726562 2.664062 13.957031 2.628906 13.199219 C 2.609375 12.667969 2.8125 12.519531 3.316406 12.527344 C 5.054688 12.546875 6.804688 12.535156 8.632812 12.535156 C 8.570312 7.0625 5.691406 3.320312 1.480469 0.0273438 C 3.050781 0.0273438 4.375 0.0273438 5.691406 0.0429688 C 5.816406 0.0429688 5.9375 0.167969 6.054688 0.257812 C 9.683594 3.144531 12.109375 6.699219 12.226562 11.503906 C 12.242188 12.371094 12.535156 12.589844 13.375 12.546875 C 14.777344 12.476562 16.179688 12.527344 17.621094 12.527344 C 17.734375 11.566406 17.824219 10.675781 17.9375 9.78125 C 18.46875 5.675781 20.867188 2.738281 23.960938 0.230469 C 24.117188 0.0976562 24.367188 0.0195312 24.578125 0.0195312 C 25.785156 -0.0078125 27.003906 0 28.515625 0 C 24.375 3.300781 21.371094 7.027344 21.335938 12.484375 L 27.261719 12.484375 L 27.261719 16.21875 Z M 21.328125 16.226562 " clip-rule="nonzero"/></clipPath><clipPath id="5492680cee"><path d="M 0.480469 0 L 27.519531 0 L 27.519531 29.03125 L 0.480469 29.03125 Z M 0.480469 0 " clip-rule="nonzero"/></clipPath><clipPath id="bc7c017237"><path d="M 20.328125 16.226562 C 20.347656 21.808594 23.328125 25.585938 27.277344 28.992188 C 26.324219 28.992188 25.359375 28.949219 24.414062 29.011719 C 23.59375 29.066406 22.976562 28.808594 22.367188 28.261719 C 20.054688 26.167969 18.042969 23.863281 17.273438 20.746094 C 16.980469 19.582031 16.894531 18.363281 16.71875 17.164062 C 16.683594 16.890625 16.683594 16.617188 16.664062 16.308594 L 11.382812 16.308594 C 11.339844 16.589844 11.269531 16.863281 11.261719 17.128906 C 11.171875 21.488281 9.238281 24.941406 6.078125 27.847656 C 5.167969 28.683594 4.257812 29.171875 3.003906 29.019531 C 2.265625 28.933594 1.496094 29.003906 0.65625 28.921875 C 4.648438 25.648438 7.660156 21.871094 7.640625 16.261719 C 6.96875 16.261719 6.335938 16.261719 5.699219 16.261719 C 4.59375 16.261719 3.5 16.234375 2.398438 16.273438 C 1.796875 16.289062 1.601562 16.058594 1.628906 15.484375 C 1.664062 14.726562 1.664062 13.957031 1.628906 13.199219 C 1.609375 12.667969 1.8125 12.519531 2.316406 12.527344 C 4.054688 12.546875 5.804688 12.535156 7.632812 12.535156 C 7.570312 7.0625 4.691406 3.320312 0.480469 0.0273438 C 2.050781 0.0273438 3.375 0.0273438 4.691406 0.0429688 C 4.816406 0.0429688 4.9375 0.167969 5.054688 0.257812 C 8.683594 3.144531 11.109375 6.699219 11.226562 11.503906 C 11.242188 12.371094 11.535156 12.589844 12.375 12.546875 C 13.777344 12.476562 15.179688 12.527344 16.621094 12.527344 C 16.734375 11.566406 16.824219 10.675781 16.9375 9.78125 C 17.46875 5.675781 19.867188 2.738281 22.960938 0.230469 C 23.117188 0.0976562 23.367188 0.0195312 23.578125 0.0195312 C 24.785156 -0.0078125 26.003906 0 27.515625 0 C 23.375 3.300781 20.371094 7.027344 20.335938 12.484375 L 26.261719 12.484375 L 26.261719 16.21875 Z M 20.328125 16.226562 " clip-rule="nonzero"/></clipPath><clipPath id="cf4397c604"><rect x="0" width="28" y="0" height="30"/></clipPath></defs><g clip-path="url(#88e165636e)"><g clip-path="url(#f0f60d653c)"><g transform="matrix(1, 0, 0, 1, 1, 0.000000000000005692)"><g clip-path="url(#cf4397c604)"><g clip-path="url(#5492680cee)"><g clip-path="url(#bc7c017237)"><path fill="#b71419" d="M 0.480469 0 L 27.519531 0 L 27.519531 29.046875 L 0.480469 29.046875 Z M 0.480469 0 " fill-opacity="1" fill-rule="nonzero"/></g></g></g></g></g></g></svg>