<svg xmlns="http://www.w3.org/2000/svg" xmlns:xlink="http://www.w3.org/1999/xlink" width="98" zoomAndPan="magnify" viewBox="0 0 73.5 104.249996" height="139" preserveAspectRatio="xMidYMid meet" version="1.0"><defs><g/><clipPath id="b4ee89f810"><path d="M 5.417969 5.402344 L 67.402344 5.402344 L 67.402344 84.164062 L 5.417969 84.164062 Z M 5.417969 5.402344 " clip-rule="nonzero"/></clipPath><clipPath id="8af5b07da5"><path d="M 33.488281 74.890625 C 37.882812 74.222656 50.800781 76.34375 53.746094 73.761719 C 54.339844 73.230469 55.394531 71.5625 55.230469 70.847656 C 55.019531 69.902344 46.25 66.261719 44.347656 64.40625 C 42.820312 62.898438 42.039062 59.414062 41.003906 58.734375 C 40.160156 58.171875 33.550781 58.128906 32.421875 58.46875 C 28.242188 59.722656 34.257812 71.527344 33.476562 74.902344 M 50.601562 26.953125 C 49.84375 26.207031 45.324219 25.207031 43.28125 23.382812 C 42.070312 22.292969 40.566406 19.015625 39.191406 19.324219 C 38.742188 19.421875 36.027344 22.378906 34.75 23.195312 C 32.894531 24.382812 29.222656 26.097656 27.109375 26.832031 C 25.625 27.347656 22.835938 27.414062 22.140625 27.878906 C 21.175781 28.527344 21.691406 30.472656 21.097656 31.339844 C 20.363281 32.429688 17.261719 31.515625 17.261719 35.441406 C 17.261719 39.351562 20.285156 38.40625 21.097656 39.550781 C 24.417969 57.753906 42.796875 63.175781 50.578125 44.300781 C 51.109375 42.9375 51.339844 40.265625 51.84375 39.550781 C 52.582031 38.527344 55.363281 39.132812 55.890625 36.023438 C 56.539062 32.164062 52.558594 32.339844 51.84375 31.328125 C 51.164062 30.371094 51.480469 27.832031 50.589844 26.941406 M 44.105469 56.226562 C 43.511719 57.085938 43.886719 60.261719 45.160156 60.601562 C 47.292969 61.171875 54.746094 56.390625 56.417969 54.644531 C 60.40625 50.488281 61.527344 44.75 61.277344 39.1875 C 61.210938 37.683594 60.40625 36.363281 60.460938 34.714844 C 60.515625 33.042969 61.363281 31.503906 61.320312 29.425781 C 61.15625 21.203125 54.777344 10.683594 45.84375 10.222656 C 44.160156 10.136719 42.5 10.960938 41.433594 10.839844 C 39.882812 10.671875 37.082031 8.398438 34.519531 8.058594 C 28.441406 7.253906 21.613281 8.671875 18.054688 14.046875 C 16.921875 15.753906 16.601562 17.929688 15.535156 19.796875 C 12.996094 24.25 9.226562 26.910156 8.6875 32.503906 C 8.367188 35.8125 10.324219 43.5625 11.601562 46.75 C 12.917969 50.015625 16.933594 52.621094 17.503906 55.128906 C 18.710938 60.449219 14.746094 63.601562 15.449219 69.21875 C 16.085938 74.234375 23.957031 84.113281 28.980469 80.585938 C 30.660156 79.398438 30.605469 72.871094 30.375 70.835938 C 30.078125 68.261719 27.636719 63.339844 27.703125 61.734375 C 27.738281 60.996094 28.582031 60.195312 28.78125 59.347656 C 29.671875 55.601562 28.496094 56.65625 26.660156 55.027344 C 23.558594 52.269531 22 50.105469 20.296875 46.332031 C 19.734375 45.101562 19.460938 42.652344 18.976562 42.011719 C 18.667969 41.617188 17.273438 41.199219 16.492188 40.375 C 12.996094 36.671875 14.347656 30.613281 19.03125 28.933594 C 19.59375 28.128906 18.867188 25.570312 19.152344 25.292969 C 19.296875 25.152344 22.03125 25.304688 23.109375 25.117188 C 27.40625 24.359375 31.640625 22.511719 34.960938 19.675781 C 36.269531 18.554688 39.445312 14.222656 39.839844 14.027344 C 41.039062 13.433594 40.839844 14.476562 41.015625 15.082031 C 42.003906 18.699219 44.972656 22.027344 48.480469 23.425781 C 49.578125 23.863281 53.492188 24.402344 53.703125 24.589844 C 54.152344 24.984375 53.261719 28.074219 53.878906 28.933594 C 58.558594 30.613281 59.921875 36.660156 56.417969 40.375 C 55.636719 41.199219 54.242188 41.617188 53.933594 42.011719 C 52.007812 44.542969 51.84375 50.347656 47.679688 54.183594 C 46.851562 54.941406 44.25 56.019531 44.09375 56.238281 M 46.972656 62.886719 L 52.207031 66.296875 C 57.054688 68.375 65.058594 70.988281 66.9375 76.375 C 68.15625 79.871094 65.871094 80.621094 64.660156 78.640625 C 63.925781 77.429688 63.605469 75.464844 62.527344 74.386719 C 61.925781 73.78125 58.679688 71.890625 57.890625 71.890625 C 57.558594 71.890625 56.691406 74.96875 55.230469 76.023438 C 49.953125 79.816406 34.695312 76.640625 32.78125 78.015625 C 32.320312 78.34375 30.769531 83.839844 29.96875 83.972656 C 23.394531 85.070312 15.238281 79.144531 13.886719 72.660156 C 13.28125 71.945312 9.765625 75.332031 9.335938 76.003906 C 7.785156 78.464844 10.082031 80.113281 5.621094 79.433594 C 4.398438 74.320312 11.667969 71.804688 12.808594 69.648438 C 13.148438 69 12.929688 65.175781 13.347656 63.472656 C 13.800781 61.65625 15.304688 59.292969 15.414062 57.964844 C 15.65625 54.875 11.292969 52.191406 9.832031 49.289062 C 7.335938 44.367188 5.640625 35.023438 6.554688 29.601562 C 7.179688 25.808594 11.28125 21.789062 13.292969 18.292969 C 14.371094 16.421875 14.679688 14.246094 15.8125 12.542969 C 20.164062 5.992188 27.945312 4.824219 35.277344 5.792969 C 37.53125 6.089844 39.433594 7.683594 41.367188 7.96875 C 43.71875 8.320312 46.378906 7.738281 48.808594 8.046875 C 56.679688 9.058594 62.847656 19.09375 63.527344 26.402344 C 63.980469 31.25 64 36.683594 64.242188 41.519531 C 63.605469 52.378906 57.636719 60.152344 46.984375 62.878906 " clip-rule="nonzero"/></clipPath><clipPath id="4704f9bc89"><path d="M 0.417969 0.402344 L 62.402344 0.402344 L 62.402344 79.164062 L 0.417969 79.164062 Z M 0.417969 0.402344 " clip-rule="nonzero"/></clipPath><clipPath id="5586678fc9"><path d="M 28.488281 69.890625 C 32.882812 69.222656 45.800781 71.34375 48.746094 68.761719 C 49.339844 68.230469 50.394531 66.5625 50.230469 65.847656 C 50.019531 64.902344 41.25 61.261719 39.347656 59.40625 C 37.820312 57.898438 37.039062 54.414062 36.003906 53.734375 C 35.160156 53.171875 28.550781 53.128906 27.421875 53.46875 C 23.242188 54.722656 29.257812 66.527344 28.476562 69.902344 M 45.601562 21.953125 C 44.84375 21.207031 40.324219 20.207031 38.28125 18.382812 C 37.070312 17.292969 35.566406 14.015625 34.191406 14.324219 C 33.742188 14.421875 31.027344 17.378906 29.75 18.195312 C 27.894531 19.382812 24.222656 21.097656 22.109375 21.832031 C 20.625 22.347656 17.835938 22.414062 17.140625 22.878906 C 16.175781 23.527344 16.691406 25.472656 16.097656 26.339844 C 15.363281 27.429688 12.261719 26.515625 12.261719 30.441406 C 12.261719 34.351562 15.285156 33.40625 16.097656 34.550781 C 19.417969 52.753906 37.796875 58.175781 45.578125 39.300781 C 46.109375 37.9375 46.339844 35.265625 46.84375 34.550781 C 47.582031 33.527344 50.363281 34.132812 50.890625 31.023438 C 51.539062 27.164062 47.558594 27.339844 46.84375 26.328125 C 46.164062 25.371094 46.480469 22.832031 45.589844 21.941406 M 39.105469 51.226562 C 38.511719 52.085938 38.886719 55.261719 40.160156 55.601562 C 42.292969 56.171875 49.746094 51.390625 51.417969 49.644531 C 55.40625 45.488281 56.527344 39.75 56.277344 34.1875 C 56.210938 32.683594 55.40625 31.363281 55.460938 29.714844 C 55.515625 28.042969 56.363281 26.503906 56.320312 24.425781 C 56.15625 16.203125 49.777344 5.683594 40.84375 5.222656 C 39.160156 5.136719 37.5 5.960938 36.433594 5.839844 C 34.882812 5.671875 32.082031 3.398438 29.519531 3.058594 C 23.441406 2.253906 16.613281 3.671875 13.054688 9.046875 C 11.921875 10.753906 11.601562 12.929688 10.535156 14.796875 C 7.996094 19.25 4.226562 21.910156 3.6875 27.503906 C 3.367188 30.8125 5.324219 38.5625 6.601562 41.75 C 7.917969 45.015625 11.933594 47.621094 12.503906 50.128906 C 13.710938 55.449219 9.746094 58.601562 10.449219 64.21875 C 11.085938 69.234375 18.957031 79.113281 23.980469 75.585938 C 25.660156 74.398438 25.605469 67.871094 25.375 65.835938 C 25.078125 63.261719 22.636719 58.339844 22.703125 56.734375 C 22.738281 55.996094 23.582031 55.195312 23.78125 54.347656 C 24.671875 50.601562 23.496094 51.65625 21.660156 50.027344 C 18.558594 47.269531 17 45.105469 15.296875 41.332031 C 14.734375 40.101562 14.460938 37.652344 13.976562 37.011719 C 13.667969 36.617188 12.273438 36.199219 11.492188 35.375 C 7.996094 31.671875 9.347656 25.613281 14.03125 23.933594 C 14.59375 23.128906 13.867188 20.570312 14.152344 20.292969 C 14.296875 20.152344 17.03125 20.304688 18.109375 20.117188 C 22.40625 19.359375 26.640625 17.511719 29.960938 14.675781 C 31.269531 13.554688 34.445312 9.222656 34.839844 9.027344 C 36.039062 8.433594 35.839844 9.476562 36.015625 10.082031 C 37.003906 13.699219 39.972656 17.027344 43.480469 18.425781 C 44.578125 18.863281 48.492188 19.402344 48.703125 19.589844 C 49.152344 19.984375 48.261719 23.074219 48.878906 23.933594 C 53.558594 25.613281 54.921875 31.660156 51.417969 35.375 C 50.636719 36.199219 49.242188 36.617188 48.933594 37.011719 C 47.007812 39.542969 46.84375 45.347656 42.679688 49.183594 C 41.851562 49.941406 39.25 51.019531 39.09375 51.238281 M 41.972656 57.886719 L 47.207031 61.296875 C 52.054688 63.375 60.058594 65.988281 61.9375 71.375 C 63.15625 74.871094 60.871094 75.621094 59.660156 73.640625 C 58.925781 72.429688 58.605469 70.464844 57.527344 69.386719 C 56.925781 68.78125 53.679688 66.890625 52.890625 66.890625 C 52.558594 66.890625 51.691406 69.96875 50.230469 71.023438 C 44.953125 74.816406 29.695312 71.640625 27.78125 73.015625 C 27.320312 73.34375 25.769531 78.839844 24.96875 78.972656 C 18.394531 80.070312 10.238281 74.144531 8.886719 67.660156 C 8.28125 66.945312 4.765625 70.332031 4.335938 71.003906 C 2.785156 73.464844 5.082031 75.113281 0.621094 74.433594 C -0.601562 69.320312 6.667969 66.804688 7.808594 64.648438 C 8.148438 64 7.929688 60.175781 8.347656 58.472656 C 8.800781 56.65625 10.304688 54.292969 10.414062 52.964844 C 10.65625 49.875 6.292969 47.191406 4.832031 44.289062 C 2.335938 39.367188 0.640625 30.023438 1.554688 24.601562 C 2.179688 20.808594 6.28125 16.789062 8.292969 13.292969 C 9.371094 11.421875 9.679688 9.246094 10.8125 7.542969 C 15.164062 0.992188 22.945312 -0.175781 30.277344 0.792969 C 32.53125 1.089844 34.433594 2.683594 36.367188 2.96875 C 38.71875 3.320312 41.378906 2.738281 43.808594 3.046875 C 51.679688 4.058594 57.847656 14.09375 58.527344 21.402344 C 58.980469 26.25 59 31.683594 59.242188 36.519531 C 58.605469 47.378906 52.636719 55.152344 41.984375 57.878906 " clip-rule="nonzero"/></clipPath><clipPath id="7e0fb53484"><rect x="0" width="63" y="0" height="80"/></clipPath><clipPath id="8f54599278"><path d="M 17.074219 19.050781 L 56 19.050781 L 56 56.300781 L 17.074219 56.300781 Z M 17.074219 19.050781 " clip-rule="nonzero"/></clipPath><clipPath id="238d28b3ae"><path d="M 50.601562 26.953125 C 51.503906 27.84375 51.171875 30.371094 51.855469 31.339844 C 52.570312 32.351562 56.558594 32.175781 55.898438 36.035156 C 55.371094 39.144531 52.582031 38.527344 51.855469 39.5625 C 51.347656 40.277344 51.117188 42.949219 50.589844 44.3125 C 42.808594 63.195312 24.417969 57.777344 21.085938 39.5625 C 20.285156 38.429688 17.25 39.363281 17.25 35.449219 C 17.25 31.527344 20.351562 32.4375 21.085938 31.351562 C 21.679688 30.480469 21.164062 28.535156 22.132812 27.886719 C 22.824219 27.425781 25.617188 27.359375 27.101562 26.84375 C 29.210938 26.105469 32.882812 24.390625 34.738281 23.207031 C 36.015625 22.390625 38.730469 19.433594 39.179688 19.335938 C 40.554688 19.027344 42.0625 22.316406 43.28125 23.390625 C 45.335938 25.226562 49.855469 26.21875 50.601562 26.964844 " clip-rule="nonzero"/></clipPath><clipPath id="009a7d8f5b"><path d="M 0.171875 0.0507812 L 39 0.0507812 L 39 37.300781 L 0.171875 37.300781 Z M 0.171875 0.0507812 " clip-rule="nonzero"/></clipPath><clipPath id="2778200fc7"><path d="M 33.601562 7.953125 C 34.503906 8.84375 34.171875 11.371094 34.855469 12.339844 C 35.570312 13.351562 39.558594 13.175781 38.898438 17.035156 C 38.371094 20.144531 35.582031 19.527344 34.855469 20.5625 C 34.347656 21.277344 34.117188 23.949219 33.589844 25.3125 C 25.808594 44.195312 7.417969 38.777344 4.085938 20.5625 C 3.285156 19.429688 0.25 20.363281 0.25 16.449219 C 0.25 12.527344 3.351562 13.4375 4.085938 12.351562 C 4.679688 11.480469 4.164062 9.535156 5.132812 8.886719 C 5.824219 8.425781 8.617188 8.359375 10.101562 7.84375 C 12.210938 7.105469 15.882812 5.390625 17.738281 4.207031 C 19.015625 3.390625 21.730469 0.433594 22.179688 0.335938 C 23.554688 0.0273438 25.0625 3.316406 26.28125 4.390625 C 28.335938 6.226562 32.855469 7.21875 33.601562 7.964844 " clip-rule="nonzero"/></clipPath><clipPath id="b8d7502a79"><rect x="0" width="39" y="0" height="38"/></clipPath><clipPath id="1183732475"><path d="M 0.507812 2 L 8 2 L 8 10 L 0.507812 10 Z M 0.507812 2 " clip-rule="nonzero"/></clipPath><clipPath id="fdb0013e9f"><rect x="0" width="33" y="0" height="14"/></clipPath></defs><g clip-path="url(#b4ee89f810)"><g clip-path="url(#8af5b07da5)"><g transform="matrix(1, 0, 0, 1, 5, 5)"><g clip-path="url(#7e0fb53484)"><g clip-path="url(#4704f9bc89)"><g clip-path="url(#5586678fc9)"><rect x="-21.17" width="105.84" fill="#fff8f8" height="150.119995" y="-27.934999" fill-opacity="1"/></g></g></g></g></g></g><g clip-path="url(#8f54599278)"><g clip-path="url(#238d28b3ae)"><g transform="matrix(1, 0, 0, 1, 17, 19)"><g clip-path="url(#b8d7502a79)"><g clip-path="url(#009a7d8f5b)"><g clip-path="url(#2778200fc7)"><rect x="-33.17" width="105.84" fill="#ffbc9b" height="150.119995" y="-41.934999" fill-opacity="1"/></g></g></g></g></g></g><g transform="matrix(1, 0, 0, 1, 20, 88)"><g clip-path="url(#fdb0013e9f)"><g clip-path="url(#1183732475)"><g fill="#ffffff" fill-opacity="1"><g transform="translate(0.59428, 9.758717)"><g><path d="M 7.21875 -5.09375 L 5.9375 -4.78125 C 5.84375 -5.257812 5.664062 -5.609375 5.40625 -5.828125 C 5.15625 -6.046875 4.804688 -6.15625 4.359375 -6.15625 C 3.609375 -6.15625 2.984375 -5.84375 2.484375 -5.21875 C 2.003906 -4.601562 1.765625 -3.90625 1.765625 -3.125 C 1.765625 -2.5 1.910156 -2.015625 2.203125 -1.671875 C 2.492188 -1.335938 2.890625 -1.171875 3.390625 -1.171875 C 3.828125 -1.171875 4.195312 -1.28125 4.5 -1.5 C 4.8125 -1.726562 5.101562 -2.09375 5.375 -2.59375 L 6.578125 -2.21875 C 6.242188 -1.425781 5.800781 -0.84375 5.25 -0.46875 C 4.695312 -0.101562 4 0.078125 3.15625 0.078125 C 2.363281 0.078125 1.695312 -0.203125 1.15625 -0.765625 C 0.625 -1.328125 0.359375 -2.070312 0.359375 -3 C 0.359375 -4.207031 0.757812 -5.242188 1.5625 -6.109375 C 2.363281 -6.972656 3.378906 -7.40625 4.609375 -7.40625 C 5.367188 -7.40625 5.976562 -7.191406 6.4375 -6.765625 C 6.894531 -6.328125 7.15625 -5.769531 7.21875 -5.09375 Z M 7.21875 -5.09375 "/></g></g></g></g><g fill="#ffffff" fill-opacity="1"><g transform="translate(7.853538, 9.758717)"><g><path d="M 0.265625 0 L 1.703125 -7.328125 L 3.078125 -7.328125 L 1.890625 -1.25 L 4.890625 -1.25 L 4.640625 0 Z M 0.265625 0 "/></g></g></g><g fill="#ffffff" fill-opacity="1"><g transform="translate(13.271835, 9.758717)"><g><path d="M 5.640625 0 L 4.171875 0 L 3.984375 -1.734375 L 1.671875 -1.734375 L 0.78125 0 L -0.6875 0 L 3.21875 -7.328125 L 4.5625 -7.328125 Z M 3.84375 -2.984375 L 3.5625 -5.5625 L 2.296875 -2.984375 Z M 3.84375 -2.984375 "/></g></g></g><g fill="#ffffff" fill-opacity="1"><g transform="translate(19.526937, 9.758717)"><g><path d="M 6.265625 -5.59375 C 6.265625 -4.957031 6.082031 -4.441406 5.71875 -4.046875 C 5.351562 -3.640625 4.914062 -3.382812 4.40625 -3.28125 L 5.828125 0 L 4.359375 0 L 3 -3.15625 L 2.265625 -3.15625 L 1.640625 0 L 0.265625 0 L 1.703125 -7.328125 L 4.296875 -7.328125 C 4.910156 -7.328125 5.390625 -7.171875 5.734375 -6.859375 C 6.085938 -6.546875 6.265625 -6.125 6.265625 -5.59375 Z M 2.828125 -6.078125 L 2.5 -4.421875 L 3.75 -4.421875 C 4.070312 -4.421875 4.335938 -4.507812 4.546875 -4.6875 C 4.765625 -4.875 4.875 -5.109375 4.875 -5.390625 C 4.875 -5.847656 4.617188 -6.078125 4.109375 -6.078125 Z M 2.828125 -6.078125 "/></g></g></g><g fill="#ffffff" fill-opacity="1"><g transform="translate(25.94939, 9.758717)"><g><path d="M 5.640625 0 L 4.171875 0 L 3.984375 -1.734375 L 1.671875 -1.734375 L 0.78125 0 L -0.6875 0 L 3.21875 -7.328125 L 4.5625 -7.328125 Z M 3.84375 -2.984375 L 3.5625 -5.5625 L 2.296875 -2.984375 Z M 3.84375 -2.984375 "/></g></g></g></g></g></svg>