<svg xmlns="http://www.w3.org/2000/svg" xmlns:xlink="http://www.w3.org/1999/xlink" width="40" zoomAndPan="magnify" viewBox="0 0 30 30.000001" height="40" preserveAspectRatio="xMidYMid meet" version="1.0"><defs><clipPath id="56b4c8f024"><path d="M 3.386719 0 L 27.929688 0 L 27.929688 29.03125 L 3.386719 29.03125 Z M 3.386719 0 " clip-rule="nonzero"/></clipPath><clipPath id="b78a71a31a"><path d="M 11.453125 1.496094 C 12.285156 0.664062 13.230469 0.0859375 14.410156 0.0234375 C 16.535156 -0.09375 18.28125 1.144531 18.960938 3.417969 C 19.246094 4.367188 19.425781 5.378906 19.433594 6.367188 C 19.476562 12.03125 19.441406 17.699219 19.472656 23.363281 C 19.472656 23.96875 19.652344 24.605469 19.871094 25.171875 C 20.144531 25.882812 20.769531 26.058594 21.484375 26 C 22.144531 25.949219 22.515625 25.5625 22.65625 24.96875 C 22.808594 24.347656 22.875 23.714844 22.984375 23.085938 C 22.925781 23.054688 22.867188 23.019531 22.808594 22.984375 C 22.230469 23.3125 21.652344 23.640625 20.945312 24.042969 C 20.945312 23.019531 20.929688 22.078125 20.960938 21.144531 C 20.960938 21.027344 21.144531 20.878906 21.273438 20.800781 C 22.1875 20.238281 23.09375 19.667969 24.035156 19.152344 C 24.230469 19.039062 24.625 19.0625 24.816406 19.1875 C 25.765625 19.820312 26.683594 20.5 27.605469 21.179688 C 27.75 21.289062 27.902344 21.5 27.910156 21.675781 C 27.941406 22.421875 27.925781 23.164062 27.925781 24.042969 C 27.230469 23.648438 26.648438 23.304688 26.078125 22.976562 C 25.816406 24.003906 25.640625 25.042969 25.28125 26 C 24.398438 28.355469 22.207031 29.523438 19.988281 28.808594 C 18.164062 28.21875 17.1875 26.78125 16.710938 25.003906 C 16.515625 24.253906 16.441406 23.445312 16.441406 22.65625 C 16.417969 17.222656 16.433594 11.785156 16.417969 6.351562 C 16.417969 5.636719 16.339844 4.90625 16.207031 4.207031 C 16.0625 3.4375 15.484375 2.992188 14.796875 2.957031 C 13.964844 2.914062 13.402344 3.25 13.175781 4.082031 C 13.007812 4.679688 12.914062 5.316406 12.914062 5.9375 C 12.894531 11.675781 12.886719 17.414062 12.921875 23.152344 C 12.929688 23.882812 12.710938 24.085938 12.015625 24.027344 C 11.34375 23.96875 10.671875 24.011719 9.898438 24.011719 C 9.898438 23.707031 9.898438 23.457031 9.898438 23.210938 C 9.898438 17.59375 9.914062 11.988281 9.898438 6.375 C 9.898438 5.636719 9.832031 4.878906 9.679688 4.160156 C 9.511719 3.394531 8.90625 2.964844 8.234375 2.957031 C 7.546875 2.949219 6.933594 3.34375 6.703125 4.066406 C 6.535156 4.59375 6.425781 5.15625 6.417969 5.710938 C 6.394531 11.542969 6.402344 17.367188 6.402344 23.203125 C 6.402344 23.449219 6.378906 23.707031 6.367188 23.984375 L 3.4375 23.984375 C 3.421875 23.757812 3.394531 23.539062 3.394531 23.3125 C 3.394531 17.550781 3.378906 11.792969 3.402344 6.03125 C 3.410156 4.125 3.957031 2.394531 5.429688 1.082031 C 7.207031 -0.496094 9.417969 -0.351562 11.460938 1.488281 " clip-rule="nonzero"/></clipPath><clipPath id="8a495d8bb3"><path d="M 0.386719 0 L 24.929688 0 L 24.929688 29.03125 L 0.386719 29.03125 Z M 0.386719 0 " clip-rule="nonzero"/></clipPath><clipPath id="1978b38316"><path d="M 8.453125 1.496094 C 9.285156 0.664062 10.230469 0.0859375 11.410156 0.0234375 C 13.535156 -0.09375 15.28125 1.144531 15.960938 3.417969 C 16.246094 4.367188 16.425781 5.378906 16.433594 6.367188 C 16.476562 12.03125 16.441406 17.699219 16.472656 23.363281 C 16.472656 23.96875 16.652344 24.605469 16.871094 25.171875 C 17.144531 25.882812 17.769531 26.058594 18.484375 26 C 19.144531 25.949219 19.515625 25.5625 19.65625 24.96875 C 19.808594 24.347656 19.875 23.714844 19.984375 23.085938 C 19.925781 23.054688 19.867188 23.019531 19.808594 22.984375 C 19.230469 23.3125 18.652344 23.640625 17.945312 24.042969 C 17.945312 23.019531 17.929688 22.078125 17.960938 21.144531 C 17.960938 21.027344 18.144531 20.878906 18.273438 20.800781 C 19.1875 20.238281 20.09375 19.667969 21.035156 19.152344 C 21.230469 19.039062 21.625 19.0625 21.816406 19.1875 C 22.765625 19.820312 23.683594 20.5 24.605469 21.179688 C 24.75 21.289062 24.902344 21.5 24.910156 21.675781 C 24.941406 22.421875 24.925781 23.164062 24.925781 24.042969 C 24.230469 23.648438 23.648438 23.304688 23.078125 22.976562 C 22.816406 24.003906 22.640625 25.042969 22.28125 26 C 21.398438 28.355469 19.207031 29.523438 16.988281 28.808594 C 15.164062 28.21875 14.1875 26.78125 13.710938 25.003906 C 13.515625 24.253906 13.441406 23.445312 13.441406 22.65625 C 13.417969 17.222656 13.433594 11.785156 13.417969 6.351562 C 13.417969 5.636719 13.339844 4.90625 13.207031 4.207031 C 13.0625 3.4375 12.484375 2.992188 11.796875 2.957031 C 10.964844 2.914062 10.402344 3.25 10.175781 4.082031 C 10.007812 4.679688 9.914062 5.316406 9.914062 5.9375 C 9.894531 11.675781 9.886719 17.414062 9.921875 23.152344 C 9.929688 23.882812 9.710938 24.085938 9.015625 24.027344 C 8.34375 23.96875 7.671875 24.011719 6.898438 24.011719 C 6.898438 23.707031 6.898438 23.457031 6.898438 23.210938 C 6.898438 17.59375 6.914062 11.988281 6.898438 6.375 C 6.898438 5.636719 6.832031 4.878906 6.679688 4.160156 C 6.511719 3.394531 5.90625 2.964844 5.234375 2.957031 C 4.546875 2.949219 3.933594 3.34375 3.703125 4.066406 C 3.535156 4.59375 3.425781 5.15625 3.417969 5.710938 C 3.394531 11.542969 3.402344 17.367188 3.402344 23.203125 C 3.402344 23.449219 3.378906 23.707031 3.367188 23.984375 L 0.4375 23.984375 C 0.421875 23.757812 0.394531 23.539062 0.394531 23.3125 C 0.394531 17.550781 0.378906 11.792969 0.402344 6.03125 C 0.410156 4.125 0.957031 2.394531 2.429688 1.082031 C 4.207031 -0.496094 6.417969 -0.351562 8.460938 1.488281 " clip-rule="nonzero"/></clipPath><clipPath id="cc5fccf85c"><rect x="0" width="25" y="0" height="30"/></clipPath></defs><g clip-path="url(#56b4c8f024)"><g clip-path="url(#b78a71a31a)"><g transform="matrix(1, 0, 0, 1, 3, 0.000000000000005692)"><g clip-path="url(#cc5fccf85c)"><g clip-path="url(#8a495d8bb3)"><g clip-path="url(#1978b38316)"><path fill="#b71419" d="M 0.386719 0 L 24.929688 0 L 24.929688 29.050781 L 0.386719 29.050781 Z M 0.386719 0 " fill-opacity="1" fill-rule="nonzero"/></g></g></g></g></g></g></svg>