<svg xmlns="http://www.w3.org/2000/svg" xmlns:xlink="http://www.w3.org/1999/xlink" width="40" zoomAndPan="magnify" viewBox="0 0 30 30.000001" height="40" preserveAspectRatio="xMidYMid meet" version="1.0"><defs><clipPath id="bd5535adf4"><path d="M 3.097656 2.613281 L 26.945312 2.613281 L 26.945312 25.265625 L 3.097656 25.265625 Z M 3.097656 2.613281 " clip-rule="nonzero"/></clipPath><clipPath id="d08e4c2da6"><path d="M 22.394531 25.253906 C 22.367188 25.175781 22.355469 25.132812 22.339844 25.085938 C 21.433594 22.3125 20.527344 19.542969 19.617188 16.769531 C 19.578125 16.652344 19.605469 16.601562 19.695312 16.539062 C 22.050781 14.820312 24.414062 13.097656 26.773438 11.382812 C 26.8125 11.351562 26.851562 11.324219 26.894531 11.292969 C 26.886719 11.28125 26.886719 11.273438 26.882812 11.261719 L 26.730469 11.261719 C 23.816406 11.261719 20.902344 11.261719 17.988281 11.265625 C 17.871094 11.265625 17.824219 11.234375 17.789062 11.125 C 16.878906 8.34375 15.96875 5.554688 15.054688 2.773438 C 15.042969 2.730469 15.027344 2.695312 15 2.625 C 14.972656 2.695312 14.957031 2.742188 14.941406 2.78125 C 14.035156 5.558594 13.121094 8.332031 12.21875 11.109375 C 12.175781 11.230469 12.125 11.265625 11.996094 11.261719 C 9.082031 11.257812 6.167969 11.257812 3.257812 11.257812 L 3.109375 11.257812 C 3.140625 11.3125 3.183594 11.347656 3.222656 11.378906 C 5.582031 13.09375 7.9375 14.816406 10.296875 16.53125 C 10.390625 16.601562 10.410156 16.652344 10.375 16.765625 C 9.46875 19.535156 8.5625 22.308594 7.660156 25.085938 C 7.644531 25.128906 7.632812 25.167969 7.609375 25.242188 C 7.675781 25.195312 7.71875 25.167969 7.753906 25.144531 C 10.128906 23.425781 12.5 21.703125 14.875 19.980469 C 14.96875 19.914062 15.027344 19.914062 15.121094 19.980469 C 17.496094 21.703125 19.867188 23.421875 22.242188 25.144531 C 22.277344 25.167969 22.3125 25.195312 22.382812 25.242188 " clip-rule="nonzero"/></clipPath><clipPath id="16a20c515b"><path d="M 0.0976562 0.613281 L 23.945312 0.613281 L 23.945312 23.265625 L 0.0976562 23.265625 Z M 0.0976562 0.613281 " clip-rule="nonzero"/></clipPath><clipPath id="cdeeb23f37"><path d="M 19.394531 23.253906 C 19.367188 23.175781 19.355469 23.132812 19.339844 23.085938 C 18.433594 20.3125 17.527344 17.542969 16.617188 14.769531 C 16.578125 14.652344 16.605469 14.601562 16.695312 14.539062 C 19.050781 12.820312 21.414062 11.097656 23.773438 9.382812 C 23.8125 9.351562 23.851562 9.324219 23.894531 9.292969 C 23.886719 9.28125 23.886719 9.273438 23.882812 9.261719 L 23.730469 9.261719 C 20.816406 9.261719 17.902344 9.261719 14.988281 9.265625 C 14.871094 9.265625 14.824219 9.234375 14.789062 9.125 C 13.878906 6.34375 12.96875 3.554688 12.054688 0.773438 C 12.042969 0.730469 12.027344 0.695312 12 0.625 C 11.972656 0.695312 11.957031 0.742188 11.941406 0.78125 C 11.035156 3.558594 10.121094 6.332031 9.21875 9.109375 C 9.175781 9.230469 9.125 9.265625 8.996094 9.261719 C 6.082031 9.257812 3.167969 9.257812 0.257812 9.257812 L 0.109375 9.257812 C 0.140625 9.3125 0.183594 9.347656 0.222656 9.378906 C 2.582031 11.09375 4.9375 12.816406 7.296875 14.53125 C 7.390625 14.601562 7.410156 14.652344 7.375 14.765625 C 6.46875 17.535156 5.5625 20.308594 4.660156 23.085938 C 4.644531 23.128906 4.632812 23.167969 4.609375 23.242188 C 4.675781 23.195312 4.71875 23.167969 4.753906 23.144531 C 7.128906 21.425781 9.5 19.703125 11.875 17.980469 C 11.96875 17.914062 12.027344 17.914062 12.121094 17.980469 C 14.496094 19.703125 16.867188 21.421875 19.242188 23.144531 C 19.277344 23.167969 19.3125 23.195312 19.382812 23.242188 " clip-rule="nonzero"/></clipPath><clipPath id="6192db7fcb"><rect x="0" width="24" y="0" height="24"/></clipPath><clipPath id="95d773b8a6"><path d="M 3.097656 2.613281 L 26.945312 2.613281 L 26.945312 25.265625 L 3.097656 25.265625 Z M 3.097656 2.613281 " clip-rule="nonzero"/></clipPath><clipPath id="f27a10ba98"><path d="M 22.394531 25.253906 C 22.324219 25.207031 22.289062 25.179688 22.25 25.152344 C 19.878906 23.4375 17.5 21.714844 15.132812 19.992188 C 15.039062 19.925781 14.980469 19.925781 14.886719 19.992188 C 12.511719 21.714844 10.140625 23.433594 7.765625 25.152344 C 7.730469 25.179688 7.6875 25.207031 7.617188 25.253906 C 7.640625 25.179688 7.65625 25.136719 7.671875 25.097656 C 8.574219 22.324219 9.476562 19.546875 10.386719 16.773438 C 10.421875 16.664062 10.402344 16.605469 10.308594 16.542969 C 7.949219 14.828125 5.59375 13.105469 3.234375 11.386719 C 3.191406 11.355469 3.152344 11.328125 3.121094 11.265625 L 3.265625 11.265625 C 6.179688 11.265625 9.09375 11.265625 12.007812 11.273438 C 12.132812 11.273438 12.1875 11.242188 12.230469 11.121094 C 13.136719 8.34375 14.046875 5.566406 14.953125 2.792969 C 14.96875 2.75 14.984375 2.703125 15.011719 2.636719 C 15.039062 2.703125 15.054688 2.742188 15.0625 2.78125 C 15.976562 5.566406 16.890625 8.351562 17.800781 11.136719 C 17.835938 11.246094 17.882812 11.277344 18 11.277344 C 20.914062 11.273438 23.828125 11.273438 26.742188 11.273438 L 26.894531 11.273438 C 26.898438 11.28125 26.898438 11.292969 26.902344 11.304688 C 26.859375 11.335938 26.824219 11.363281 26.78125 11.394531 C 24.425781 13.109375 22.066406 14.832031 19.703125 16.546875 C 19.617188 16.617188 19.589844 16.664062 19.625 16.78125 C 20.539062 19.550781 21.441406 22.324219 22.351562 25.097656 C 22.367188 25.136719 22.378906 25.183594 22.402344 25.265625 " clip-rule="nonzero"/></clipPath><clipPath id="fd61553305"><path d="M 0.0976562 0.613281 L 23.945312 0.613281 L 23.945312 23.265625 L 0.0976562 23.265625 Z M 0.0976562 0.613281 " clip-rule="nonzero"/></clipPath><clipPath id="7865f9289d"><path d="M 19.394531 23.253906 C 19.324219 23.207031 19.289062 23.179688 19.25 23.152344 C 16.878906 21.4375 14.5 19.714844 12.132812 17.992188 C 12.039062 17.925781 11.980469 17.925781 11.886719 17.992188 C 9.511719 19.714844 7.140625 21.433594 4.765625 23.152344 C 4.730469 23.179688 4.6875 23.207031 4.617188 23.253906 C 4.640625 23.179688 4.65625 23.136719 4.671875 23.097656 C 5.574219 20.324219 6.476562 17.546875 7.386719 14.773438 C 7.421875 14.664062 7.402344 14.605469 7.308594 14.542969 C 4.949219 12.828125 2.59375 11.105469 0.234375 9.386719 C 0.191406 9.355469 0.152344 9.328125 0.121094 9.265625 L 0.265625 9.265625 C 3.179688 9.265625 6.09375 9.265625 9.007812 9.273438 C 9.132812 9.273438 9.1875 9.242188 9.230469 9.121094 C 10.136719 6.34375 11.046875 3.566406 11.953125 0.792969 C 11.96875 0.75 11.984375 0.703125 12.011719 0.636719 C 12.039062 0.703125 12.054688 0.742188 12.0625 0.78125 C 12.976562 3.566406 13.890625 6.351562 14.800781 9.136719 C 14.835938 9.246094 14.882812 9.277344 15 9.277344 C 17.914062 9.273438 20.828125 9.273438 23.742188 9.273438 L 23.894531 9.273438 C 23.898438 9.28125 23.898438 9.292969 23.902344 9.304688 C 23.859375 9.335938 23.824219 9.363281 23.78125 9.394531 C 21.425781 11.109375 19.066406 12.832031 16.703125 14.546875 C 16.617188 14.617188 16.589844 14.664062 16.625 14.78125 C 17.539062 17.550781 18.441406 20.324219 19.351562 23.097656 C 19.367188 23.136719 19.378906 23.183594 19.402344 23.265625 " clip-rule="nonzero"/></clipPath><clipPath id="dab1b515ed"><rect x="0" width="24" y="0" height="24"/></clipPath></defs><g clip-path="url(#bd5535adf4)"><g clip-path="url(#d08e4c2da6)"><g transform="matrix(1, 0, 0, 1, 3, 2)"><g clip-path="url(#6192db7fcb)"><g clip-path="url(#16a20c515b)"><g clip-path="url(#cdeeb23f37)"><rect x="-9.6" width="43.2" fill="#c41123" height="43.200001" y="-8.6" fill-opacity="1"/></g></g></g></g></g></g><g clip-path="url(#95d773b8a6)"><g clip-path="url(#f27a10ba98)"><g transform="matrix(1, 0, 0, 1, 3, 2)"><g clip-path="url(#dab1b515ed)"><g clip-path="url(#fd61553305)"><g clip-path="url(#7865f9289d)"><rect x="-9.6" width="43.2" fill="#c41123" height="43.200001" y="-8.6" fill-opacity="1"/></g></g></g></g></g></g></svg>