<svg xmlns="http://www.w3.org/2000/svg" xmlns:xlink="http://www.w3.org/1999/xlink" width="40" zoomAndPan="magnify" viewBox="0 0 30 30.000001" height="40" preserveAspectRatio="xMidYMid meet" version="1.0"><defs><clipPath id="c22b6f8c1b"><path d="M 3.386719 0 L 25.9375 0 L 25.9375 29.03125 L 3.386719 29.03125 Z M 3.386719 0 " clip-rule="nonzero"/></clipPath><clipPath id="324543c039"><path d="M 21.046875 17.921875 C 21.113281 17.929688 21.179688 17.9375 21.25 17.9375 C 21.339844 17.628906 21.46875 17.324219 21.515625 17.007812 C 21.984375 13.804688 22.496094 10.601562 22.875 7.394531 C 23 6.324219 22.875 5.207031 22.714844 4.132812 C 22.589844 3.289062 22.011719 2.941406 21.214844 2.960938 C 20.328125 2.984375 19.789062 3.394531 19.628906 4.242188 C 19.519531 4.8125 19.402344 5.402344 19.460938 5.96875 C 19.722656 8.839844 20.015625 11.714844 20.367188 14.589844 C 20.503906 15.707031 20.820312 16.8125 21.054688 17.914062 M 6.390625 24.042969 C 5.464844 24.042969 4.652344 24.066406 3.839844 24.019531 C 3.695312 24.015625 3.503906 23.785156 3.429688 23.617188 C 3.359375 23.464844 3.410156 23.253906 3.410156 23.0625 C 3.410156 17.453125 3.417969 11.847656 3.402344 6.238281 C 3.402344 4.980469 3.636719 3.796875 4.191406 2.65625 C 5.589844 -0.203125 9.191406 -1.007812 11.445312 1.484375 C 12.335938 0.59375 13.382812 0.0078125 14.699219 0 C 16.015625 -0.0078125 17.097656 0.503906 17.984375 1.527344 C 18.875 0.535156 19.925781 0.0078125 21.222656 0.0078125 C 23.175781 0.0078125 24.753906 1.234375 25.476562 3.261719 C 25.953125 4.59375 26.003906 5.953125 25.878906 7.335938 C 25.574219 10.75 25.230469 14.164062 24.335938 17.492188 C 23.914062 19.0625 23.328125 20.589844 22.851562 22.148438 C 22.78125 22.40625 22.800781 22.75 22.917969 22.988281 C 23.628906 24.480469 24.550781 25.820312 25.867188 26.859375 C 25.140625 27.539062 24.4375 28.195312 23.640625 28.941406 C 22.902344 27.960938 22.070312 26.851562 21.230469 25.730469 C 20.402344 26.8125 19.546875 27.933594 18.707031 29.039062 C 17.945312 28.269531 17.265625 27.582031 16.558594 26.871094 C 17.835938 25.855469 18.78125 24.53125 19.453125 23.027344 C 19.570312 22.761719 19.582031 22.382812 19.480469 22.121094 C 17.996094 18.375 17.289062 14.464844 16.863281 10.484375 C 16.667969 8.628906 16.558594 6.765625 16.402344 4.90625 C 16.285156 3.523438 15.503906 2.824219 14.339844 3.019531 C 13.683594 3.128906 13.257812 3.515625 13.148438 4.140625 C 13.015625 4.890625 12.953125 5.667969 12.953125 6.433594 C 12.9375 11.992188 12.945312 17.558594 12.945312 23.121094 L 12.945312 24.066406 C 12.007812 24.066406 11.132812 24.09375 10.253906 24.035156 C 10.128906 24.027344 9.9375 23.589844 9.933594 23.355469 C 9.910156 20.761719 9.917969 18.171875 9.917969 15.574219 C 9.917969 12.511719 9.925781 9.453125 9.910156 6.390625 C 9.910156 5.785156 9.867188 5.175781 9.792969 4.578125 C 9.683594 3.65625 9.113281 3.035156 8.367188 2.960938 C 7.5625 2.882812 6.898438 3.355469 6.632812 4.277344 C 6.496094 4.738281 6.40625 5.234375 6.40625 5.71875 C 6.390625 11.539062 6.390625 17.351562 6.390625 23.171875 C 6.390625 23.429688 6.390625 23.675781 6.390625 24.042969 " clip-rule="nonzero"/></clipPath><clipPath id="0ddbab00f5"><path d="M 0.386719 0 L 22.9375 0 L 22.9375 29.03125 L 0.386719 29.03125 Z M 0.386719 0 " clip-rule="nonzero"/></clipPath><clipPath id="3a0d4ccafc"><path d="M 18.046875 17.921875 C 18.113281 17.929688 18.179688 17.9375 18.25 17.9375 C 18.339844 17.628906 18.46875 17.324219 18.515625 17.007812 C 18.984375 13.804688 19.496094 10.601562 19.875 7.394531 C 20 6.324219 19.875 5.207031 19.714844 4.132812 C 19.589844 3.289062 19.011719 2.941406 18.214844 2.960938 C 17.328125 2.984375 16.789062 3.394531 16.628906 4.242188 C 16.519531 4.8125 16.402344 5.402344 16.460938 5.96875 C 16.722656 8.839844 17.015625 11.714844 17.367188 14.589844 C 17.503906 15.707031 17.820312 16.8125 18.054688 17.914062 M 3.390625 24.042969 C 2.464844 24.042969 1.652344 24.066406 0.839844 24.019531 C 0.695312 24.015625 0.503906 23.785156 0.429688 23.617188 C 0.359375 23.464844 0.410156 23.253906 0.410156 23.0625 C 0.410156 17.453125 0.417969 11.847656 0.402344 6.238281 C 0.402344 4.980469 0.636719 3.796875 1.191406 2.65625 C 2.589844 -0.203125 6.191406 -1.007812 8.445312 1.484375 C 9.335938 0.59375 10.382812 0.0078125 11.699219 0 C 13.015625 -0.0078125 14.097656 0.503906 14.984375 1.527344 C 15.875 0.535156 16.925781 0.0078125 18.222656 0.0078125 C 20.175781 0.0078125 21.753906 1.234375 22.476562 3.261719 C 22.953125 4.59375 23.003906 5.953125 22.878906 7.335938 C 22.574219 10.75 22.230469 14.164062 21.335938 17.492188 C 20.914062 19.0625 20.328125 20.589844 19.851562 22.148438 C 19.78125 22.40625 19.800781 22.75 19.917969 22.988281 C 20.628906 24.480469 21.550781 25.820312 22.867188 26.859375 C 22.140625 27.539062 21.4375 28.195312 20.640625 28.941406 C 19.902344 27.960938 19.070312 26.851562 18.230469 25.730469 C 17.402344 26.8125 16.546875 27.933594 15.707031 29.039062 C 14.945312 28.269531 14.265625 27.582031 13.558594 26.871094 C 14.835938 25.855469 15.78125 24.53125 16.453125 23.027344 C 16.570312 22.761719 16.582031 22.382812 16.480469 22.121094 C 14.996094 18.375 14.289062 14.464844 13.863281 10.484375 C 13.667969 8.628906 13.558594 6.765625 13.402344 4.90625 C 13.285156 3.523438 12.503906 2.824219 11.339844 3.019531 C 10.683594 3.128906 10.257812 3.515625 10.148438 4.140625 C 10.015625 4.890625 9.953125 5.667969 9.953125 6.433594 C 9.9375 11.992188 9.945312 17.558594 9.945312 23.121094 L 9.945312 24.066406 C 9.007812 24.066406 8.132812 24.09375 7.253906 24.035156 C 7.128906 24.027344 6.9375 23.589844 6.933594 23.355469 C 6.910156 20.761719 6.917969 18.171875 6.917969 15.574219 C 6.917969 12.511719 6.925781 9.453125 6.910156 6.390625 C 6.910156 5.785156 6.867188 5.175781 6.792969 4.578125 C 6.683594 3.65625 6.113281 3.035156 5.367188 2.960938 C 4.5625 2.882812 3.898438 3.355469 3.632812 4.277344 C 3.496094 4.738281 3.40625 5.234375 3.40625 5.71875 C 3.390625 11.539062 3.390625 17.351562 3.390625 23.171875 C 3.390625 23.429688 3.390625 23.675781 3.390625 24.042969 " clip-rule="nonzero"/></clipPath><clipPath id="92aaec28db"><rect x="0" width="23" y="0" height="30"/></clipPath></defs><g clip-path="url(#c22b6f8c1b)"><g clip-path="url(#324543c039)"><g transform="matrix(1, 0, 0, 1, 3, 0.000000000000005692)"><g clip-path="url(#92aaec28db)"><g clip-path="url(#0ddbab00f5)"><g clip-path="url(#3a0d4ccafc)"><path fill="#b71419" d="M 0.386719 0 L 22.9375 0 L 22.9375 29.070312 L 0.386719 29.070312 Z M 0.386719 0 " fill-opacity="1" fill-rule="nonzero"/></g></g></g></g></g></g></svg>