<svg xmlns="http://www.w3.org/2000/svg" xmlns:xlink="http://www.w3.org/1999/xlink" width="40" zoomAndPan="magnify" viewBox="0 0 30 30.000001" height="40" preserveAspectRatio="xMidYMid meet" version="1.0"><defs><clipPath id="9bbe4e534a"><path d="M 3.835938 14.679688 L 26.222656 14.679688 L 26.222656 21.625 L 3.835938 21.625 Z M 3.835938 14.679688 " clip-rule="nonzero"/></clipPath><clipPath id="0161b50cc9"><path d="M 25.878906 21.414062 C 24.75 20.222656 23.617188 19.03125 22.4375 17.789062 C 21.15625 19.105469 19.976562 20.316406 18.730469 21.589844 C 17.476562 20.289062 16.304688 19.070312 15.023438 17.734375 C 13.757812 19.082031 12.59375 20.332031 11.394531 21.605469 C 10.074219 20.25 8.886719 19.042969 7.625 17.75 C 6.398438 19.03125 5.261719 20.214844 4.121094 21.410156 C 4.042969 21.375 3.960938 21.347656 3.886719 21.3125 C 3.886719 20.648438 3.960938 19.964844 3.867188 19.3125 C 3.746094 18.503906 4.25 18.101562 4.722656 17.636719 C 5.671875 16.699219 6.601562 15.75 7.625 14.71875 C 8.847656 15.992188 10.03125 17.222656 11.292969 18.53125 C 12.546875 17.230469 13.726562 16.011719 14.949219 14.746094 C 16.210938 16.042969 17.402344 17.269531 18.652344 18.558594 C 19.9375 17.25 21.125 16.039062 22.445312 14.695312 C 23.164062 15.464844 23.777344 16.28125 24.554688 16.90625 C 25.765625 17.882812 26.351562 19.03125 26.078125 20.578125 C 26.035156 20.816406 26.070312 21.070312 26.070312 21.320312 C 26.007812 21.355469 25.941406 21.386719 25.878906 21.414062 " clip-rule="nonzero"/></clipPath><clipPath id="84e9f4bc4d"><path d="M 0.835938 0.679688 L 23.222656 0.679688 L 23.222656 7.625 L 0.835938 7.625 Z M 0.835938 0.679688 " clip-rule="nonzero"/></clipPath><clipPath id="5806376b6c"><path d="M 22.878906 7.414062 C 21.75 6.222656 20.617188 5.03125 19.4375 3.789062 C 18.15625 5.105469 16.976562 6.316406 15.730469 7.589844 C 14.476562 6.289062 13.304688 5.070312 12.023438 3.734375 C 10.757812 5.082031 9.59375 6.332031 8.394531 7.605469 C 7.074219 6.25 5.886719 5.042969 4.625 3.75 C 3.398438 5.03125 2.261719 6.214844 1.121094 7.410156 C 1.042969 7.375 0.960938 7.347656 0.886719 7.3125 C 0.886719 6.648438 0.960938 5.964844 0.867188 5.3125 C 0.746094 4.503906 1.25 4.101562 1.722656 3.636719 C 2.671875 2.699219 3.601562 1.75 4.625 0.71875 C 5.847656 1.992188 7.03125 3.222656 8.292969 4.53125 C 9.546875 3.230469 10.726562 2.011719 11.949219 0.746094 C 13.210938 2.042969 14.402344 3.269531 15.652344 4.558594 C 16.9375 3.25 18.125 2.039062 19.445312 0.695312 C 20.164062 1.464844 20.777344 2.28125 21.554688 2.90625 C 22.765625 3.882812 23.351562 5.03125 23.078125 6.578125 C 23.035156 6.816406 23.070312 7.070312 23.070312 7.320312 C 23.007812 7.355469 22.941406 7.386719 22.878906 7.414062 " clip-rule="nonzero"/></clipPath><clipPath id="09ba55ce0c"><rect x="0" width="24" y="0" height="8"/></clipPath><clipPath id="a50c4aa345"><path d="M 3.835938 7.40625 L 26.140625 7.40625 L 26.140625 14.433594 L 3.835938 14.433594 Z M 3.835938 7.40625 " clip-rule="nonzero"/></clipPath><clipPath id="6ba4237a3f"><path d="M 26.078125 14.199219 C 24.800781 12.898438 23.664062 11.726562 22.484375 10.519531 C 21.203125 11.847656 20.019531 13.078125 18.792969 14.351562 C 17.492188 13.011719 16.3125 11.792969 15.050781 10.5 C 13.792969 11.832031 12.621094 13.074219 11.375 14.386719 C 10.046875 13.003906 8.851562 11.773438 7.519531 10.382812 C 6.292969 11.671875 5.160156 12.863281 3.90625 14.191406 C 3.90625 13.105469 3.898438 12.191406 3.914062 11.28125 C 3.914062 11.1875 3.996094 11.078125 4.070312 11.011719 C 5.214844 9.839844 6.351562 8.671875 7.578125 7.425781 C 8.824219 8.734375 10 9.960938 11.273438 11.289062 C 12.082031 10.445312 12.808594 9.691406 13.535156 8.941406 C 13.894531 8.570312 14.277344 8.222656 14.628906 7.84375 C 14.898438 7.546875 15.09375 7.574219 15.363281 7.859375 C 16.433594 8.96875 17.53125 10.066406 18.628906 11.179688 C 19.875 9.933594 21.070312 8.742188 22.316406 7.488281 C 22.613281 7.761719 22.847656 7.972656 23.070312 8.195312 C 23.941406 9.058594 24.828125 9.914062 25.664062 10.808594 C 25.886719 11.042969 26.027344 11.429688 26.054688 11.757812 C 26.109375 12.519531 26.078125 13.28125 26.078125 14.207031 " clip-rule="nonzero"/></clipPath><clipPath id="413a1bc8e8"><path d="M 0.835938 0.40625 L 23.140625 0.40625 L 23.140625 7.398438 L 0.835938 7.398438 Z M 0.835938 0.40625 " clip-rule="nonzero"/></clipPath><clipPath id="37c3ae04bf"><path d="M 23.078125 7.199219 C 21.800781 5.898438 20.664062 4.726562 19.484375 3.519531 C 18.203125 4.847656 17.019531 6.078125 15.792969 7.351562 C 14.492188 6.011719 13.3125 4.792969 12.050781 3.5 C 10.792969 4.832031 9.621094 6.074219 8.375 7.386719 C 7.046875 6.003906 5.851562 4.773438 4.519531 3.382812 C 3.292969 4.671875 2.160156 5.863281 0.90625 7.191406 C 0.90625 6.105469 0.898438 5.191406 0.914062 4.28125 C 0.914062 4.1875 0.996094 4.078125 1.070312 4.011719 C 2.214844 2.839844 3.351562 1.671875 4.578125 0.425781 C 5.824219 1.734375 7 2.960938 8.273438 4.289062 C 9.082031 3.445312 9.808594 2.691406 10.535156 1.941406 C 10.894531 1.570312 11.277344 1.222656 11.628906 0.84375 C 11.898438 0.546875 12.09375 0.574219 12.363281 0.859375 C 13.433594 1.96875 14.53125 3.066406 15.628906 4.179688 C 16.875 2.933594 18.070312 1.742188 19.316406 0.488281 C 19.613281 0.761719 19.847656 0.972656 20.070312 1.195312 C 20.941406 2.058594 21.828125 2.914062 22.664062 3.808594 C 22.886719 4.042969 23.027344 4.429688 23.054688 4.757812 C 23.109375 5.519531 23.078125 6.28125 23.078125 7.207031 " clip-rule="nonzero"/></clipPath><clipPath id="94e80d363e"><rect x="0" width="24" y="0" height="8"/></clipPath></defs><g clip-path="url(#9bbe4e534a)"><g clip-path="url(#0161b50cc9)"><g transform="matrix(1, 0, 0, 1, 3, 14)"><g clip-path="url(#09ba55ce0c)"><g clip-path="url(#84e9f4bc4d)"><g clip-path="url(#5806376b6c)"><rect x="-9.6" width="43.2" fill="#b71419" height="43.200001" y="-20.6" fill-opacity="1"/></g></g></g></g></g></g><g clip-path="url(#a50c4aa345)"><g clip-path="url(#6ba4237a3f)"><g transform="matrix(1, 0, 0, 1, 3, 7)"><g clip-path="url(#94e80d363e)"><g clip-path="url(#413a1bc8e8)"><g clip-path="url(#37c3ae04bf)"><rect x="-9.6" width="43.2" fill="#b71419" height="43.200001" y="-13.6" fill-opacity="1"/></g></g></g></g></g></g></svg>