<?xml version="1.0" encoding="UTF-8"?>
<svg id="Camada_1" data-name="Camada 1" xmlns="http://www.w3.org/2000/svg" viewBox="0 0 1080 1080">
  <defs>
    <style>
      .cls-1 {
        fill: #fff;
        stroke: #fff;
        stroke-miterlimit: 10;
        stroke-width: 18.19px;
      }
    </style>
  </defs>
  <path class="cls-1" d="M437.56,368.18l1.79-18.35c-.99-19.72-7.17-61,.38-77.87,8.61-19.23,32.88-22.65,48.22-9.05,14.17,12.56,25.91,75.43,30.61,96.55,5.8,26,10.59,52.28,15.65,78.4,2.73-1.84,2.3-4.8,2.96-7.49,11.07-45.3,16.94-110.04,34.73-151.67,16.41-38.42,62.77-28.82,62.65,13.72-.07,22.33-4.51,47.23-3.64,69.69.08,2.1-1.31,6.48,1.72,6.07l43.26-145.75c16.9-30.68,63.5-29.25,68.05,9.21,3.18,26.86-19.33,95.09-23.73,127.45-.26,1.89-1.92,6.01,1.26,5.61l61.98-130.53c28.31-33.69,74.79-11.48,66.81,31.97-17.62,52.09-39.96,102.73-53.84,156.06,10.86-9.55,20.15-21.2,29.55-32.27,13.55-15.95,62.48-81.97,76.28-87.47,26.8-10.68,49.05,14.35,47.54,40.53-.64,11.15-6.68,20.46-12.24,29.61-34.43,56.7-91.28,115.23-117.06,175.59-7.06,16.52-11.97,25.26,9.9,27.29,27.8,2.58,79.01-12.3,101.01,3.51,21.87,15.71,23.93,47.82,1.75,64.44-14.91,11.17-72.01,21.96-93.17,27.03-32.22,7.71-64.7,14.48-97.12,21.34-44.72,60.31-109.38,106.23-177.52,137.79-5.68,2.63-25.01,12.38-29.4,12.57-7.38.32-42.2-17.48-51.14-22.11-59.45-30.83-117.45-72.57-156.45-127.5-45.31-10.49-91.05-19.58-136.1-31.13-15.8-4.05-36.84-7.71-50.89-15.3-27.1-14.63-26.19-51.07-1.57-67.89,18.85-12.88,53.59-3.42,75.68-2.74,12.81.39,25.95,1,38.16-3.26,7.62-5.17-14.44-44.25-18.48-51.25-31.96-55.27-76.93-105.24-109.74-160.27-18.07-33.72,14.08-78.37,49.94-53.42l98.45,116.67c-4.69-21.03-12.11-41.54-19.11-61.87-8.39-24.35-36.08-85.94-35.56-107.33.89-36.72,37.8-47.6,63.45-25.08,20.68,36.66,37.44,76.58,55.94,114.77,3.22,6.65,6.57,15.43,11.93,20.28l-24.16-117.8c-7.05-48.23,46.52-63.37,68.96-21.93l42.34,143.2ZM919.56,620.29c6.29-7.68-.94-19.32-9.1-22.11-44.82.96-147.68,24.52-116.65-55.76,25.93-67.06,89.11-129.3,125.47-191.58,6.51-8.18,1.47-31.45-9.78-21.97-39.33,46.7-76.68,98.36-119.18,142.11-6.89,7.09-13.09,15.98-24.34,13.9-15.4-2.86-7.84-28.63-5.65-38.67,6.19-28.43,17.84-59.9,27.33-87.65,9.53-27.86,30.42-70.3,35.84-96.54,3.11-15.07-6.1-23.69-18.15-12.94-30.44,68.49-64.21,135.97-99.56,201.8-15.52,8.91-22.43-5.02-22.6-19.13-.24-19.44,5.96-49.17,9.25-69.13,6.71-40.73,16.39-80.99,25.2-121.28,1.02-16.73-11.5-17.79-19.15-5.07-15.03,50.38-26.69,102.62-44.89,151.96-3.84,10.42-16.19,45.51-26.21,48.61-16.34,5.06-20.84-5.11-22.38-19.25-3.74-34.16.55-71.83,1.6-105.97.22-7.1,1.2-47.41-9.67-23.61-2.33,5.1-3.92,13.06-5.58,18.81-18.35,63.38-28.86,132.02-38.8,197.22,46.67-33.95,101.72-50.21,155.05-20.07,54.4,30.75,72.86,89.79,58.68,149.33-.97,4.09-9.24,26.45-8.19,27.5,10.46-1.83,20.97-3.84,31.37-6.07,35.75-7.68,85.67-17.11,119.22-28.84,2.77-.97,9.25-3.63,10.89-5.64ZM463.68,281.09c.38,3.83-1.61,7.37-1.58,11.15.33,39.78,6.58,80.19,3.09,120.16-1.23,14.07-4.17,30.69-22.94,25.11-8.8-2.61-20.47-33.34-23.9-42.28-19.37-50.46-30.92-105.44-46.62-157.19-8.5-13.77-21.25-13.48-19.36,5.42,2.79,27.83,14.91,65.46,20.18,94.8,4.78,26.65,11.31,58.08,12.72,84.83.5,9.45,2.86,24.98-7.4,29.14-8.55,3.47-14.72-.51-19.05-7.92-21.85-45.19-45.49-89.54-67.35-134.72-7.97-16.46-16.77-43.89-25.67-57.95-6.28-9.92-19.13-10.56-19.91,2.46-.85,14.18,25.57,75.09,31.87,93.58,6.48,19.04,13.36,38.25,19.15,57.5,4.37,14.5,18.67,57.73,15.56,70.34-2.12,8.61-11.67,12.05-19.48,8.47-2.44-1.11-18.53-18.19-21.83-21.71-39.47-42.18-74-89.42-111.11-133.61-7.07-6.26-13.82,5.7-13.36,12.41.22,3.22,3.34,7.74,4.88,10.85,30.92,62.58,97.6,121.27,124.29,189.27,22,56.04-19.8,63.47-65.71,60.49l-50.36-3.44c-22.54,13.46-11.82,23.76,8.4,29.72,46.36,13.66,96.72,21.98,143.93,32.87-25.95-63-15.74-137.49,45.88-174.49,42.45-25.49,86.9-23.09,130.11-.61,3.16,1.64,26.77,17.8,27.83,16.58-6.53-58.34-17.91-117.18-32.19-174.22-1.95-7.78-9.61-42.24-13.84-45.39-2.11-1.58-3.57-1.98-6.21-1.63ZM405.77,495.81c-42,5.71-76.79,47.82-79.78,89.2-6.38,88.2,72.58,153.19,140.63,193.97,9.3,5.57,62.55,35.33,69.06,34.79,79.45-37.52,188.07-98.5,205.9-192.91,7.37-39.04-.47-76.4-31.38-102.88-45.11-38.66-102.54-24.71-144.58,10.54-8.45,7.09-20.25,24.93-31.37,24.46-9.56-.4-21.2-17.26-28.76-23.66-28.31-23.99-61.89-38.65-99.74-33.5Z"/>
</svg>