<svg xmlns="http://www.w3.org/2000/svg" xmlns:xlink="http://www.w3.org/1999/xlink" width="103" zoomAndPan="magnify" viewBox="0 0 77.25 102.75" height="137" preserveAspectRatio="xMidYMid meet" version="1.0"><defs><g/><clipPath id="7fa0dece0e"><path d="M 0 0.371094 L 76.003906 0.371094 L 76.003906 76.375 L 0 76.375 Z M 0 0.371094 " clip-rule="nonzero"/></clipPath><clipPath id="6f8ab6e975"><path d="M 38.003906 0.371094 C 17.015625 0.371094 0 17.382812 0 38.371094 C 0 59.359375 17.015625 76.375 38.003906 76.375 C 58.988281 76.375 76.003906 59.359375 76.003906 38.371094 C 76.003906 17.382812 58.988281 0.371094 38.003906 0.371094 Z M 38.003906 0.371094 " clip-rule="nonzero"/></clipPath><clipPath id="59d399394d"><path d="M 0 0.371094 L 76.003906 0.371094 L 76.003906 76.375 L 0 76.375 Z M 0 0.371094 " clip-rule="nonzero"/></clipPath><clipPath id="27184e696e"><path d="M 38.003906 0.371094 C 17.015625 0.371094 0 17.382812 0 38.371094 C 0 59.359375 17.015625 76.375 38.003906 76.375 C 58.988281 76.375 76.003906 59.359375 76.003906 38.371094 C 76.003906 17.382812 58.988281 0.371094 38.003906 0.371094 Z M 38.003906 0.371094 " clip-rule="nonzero"/></clipPath><clipPath id="8bc4a73bb8"><rect x="0" width="77" y="0" height="77"/></clipPath><clipPath id="78f156bb19"><path d="M 33 31 L 64.59375 31 L 64.59375 55 L 33 55 Z M 33 31 " clip-rule="nonzero"/></clipPath><clipPath id="5cc74d616b"><path d="M 33 41 L 64.59375 41 L 64.59375 59 L 33 59 Z M 33 41 " clip-rule="nonzero"/></clipPath><clipPath id="3ff72375c6"><path d="M 12 17.632812 L 47 17.632812 L 47 52 L 12 52 Z M 12 17.632812 " clip-rule="nonzero"/></clipPath><clipPath id="d83b00e7f1"><path d="M 33 31 L 64.59375 31 L 64.59375 55 L 33 55 Z M 33 31 " clip-rule="nonzero"/></clipPath><clipPath id="01fd1aa8bb"><path d="M 33 41 L 64.59375 41 L 64.59375 59 L 33 59 Z M 33 41 " clip-rule="nonzero"/></clipPath><clipPath id="492ce1d4f7"><path d="M 12 17.632812 L 47 17.632812 L 47 52 L 12 52 Z M 12 17.632812 " clip-rule="nonzero"/></clipPath><clipPath id="405e7985d0"><path d="M 0.726562 4 L 10 4 L 10 15 L 0.726562 15 Z M 0.726562 4 " clip-rule="nonzero"/></clipPath><clipPath id="df58d6736e"><rect x="0" width="38" y="0" height="19"/></clipPath></defs><g clip-path="url(#7fa0dece0e)"><g clip-path="url(#6f8ab6e975)"><g transform="matrix(1, 0, 0, 1, 0, -0.000000000000009381)"><g clip-path="url(#8bc4a73bb8)"><g clip-path="url(#59d399394d)"><g clip-path="url(#27184e696e)"><path fill="#ec84a1" d="M 0 0.371094 L 76.003906 0.371094 L 76.003906 76.375 L 0 76.375 Z M 0 0.371094 " fill-opacity="1" fill-rule="nonzero"/></g></g></g></g></g></g><g clip-path="url(#78f156bb19)"><path fill="#ffffff" d="M 47.789062 31.761719 C 48.480469 31.847656 49.058594 32.078125 49.625 32.316406 C 50.136719 32.539062 50.640625 32.765625 51.226562 32.871094 C 58.910156 34.269531 62.824219 36.773438 64.082031 40.65625 C 64.703125 42.570312 64.246094 44.734375 62.703125 46.761719 C 60.480469 49.699219 55.949219 52.382812 49.207031 53.578125 C 45.480469 54.238281 42.144531 54.269531 39.546875 53.605469 C 37.535156 53.097656 35.96875 52.179688 34.964844 50.84375 C 33.964844 49.5 33.535156 47.734375 33.84375 45.507812 C 34.285156 42.410156 36.183594 40.035156 38.277344 38.265625 C 40.328125 36.535156 42.566406 35.398438 43.738281 34.738281 C 45.996094 33.472656 47.484375 31.871094 47.484375 31.871094 C 47.5625 31.785156 47.675781 31.746094 47.789062 31.761719 Z M 47.871094 32.488281 C 47.449219 32.910156 46.046875 34.257812 44.082031 35.355469 C 42.9375 36.003906 40.746094 37.113281 38.730469 38.804688 C 36.761719 40.46875 34.960938 42.695312 34.546875 45.609375 C 34.265625 47.617188 34.632812 49.210938 35.539062 50.417969 C 36.445312 51.636719 37.886719 52.457031 39.722656 52.921875 C 42.234375 53.558594 45.46875 53.527344 49.082031 52.882812 C 55.597656 51.726562 59.992188 49.171875 62.136719 46.335938 C 63.519531 44.519531 63.960938 42.585938 63.40625 40.878906 C 62.207031 37.175781 58.417969 34.898438 51.101562 33.566406 C 50.457031 33.449219 49.910156 33.210938 49.347656 32.96875 C 48.882812 32.777344 48.417969 32.582031 47.871094 32.488281 Z M 47.871094 32.488281 " fill-opacity="1" fill-rule="evenodd"/></g><g clip-path="url(#5cc74d616b)"><path fill="#ffffff" d="M 34.089844 46.761719 L 34.089844 46.753906 C 33.90625 46.742188 33.761719 46.589844 33.761719 46.402344 C 33.761719 46.21875 33.902344 46.0625 34.082031 46.640625 L 34.039062 46.050781 L 34.058594 46.050781 L 34.113281 46.738281 L 34.445312 46.433594 C 34.445312 46.433594 34.40625 46.957031 34.484375 47.785156 C 34.554688 48.5 34.710938 49.421875 35.058594 50.429688 C 36.132812 53.578125 39.054688 57.46875 46.8125 57.859375 C 57.09375 58.375 62.066406 52.015625 63.519531 46.90625 C 64.125 44.777344 64.136719 42.871094 63.628906 41.816406 C 63.542969 41.640625 63.617188 41.433594 63.796875 41.347656 C 63.972656 41.261719 64.183594 41.335938 64.265625 41.511719 C 64.820312 42.667969 64.867188 44.761719 64.199219 47.105469 C 62.683594 52.433594 57.511719 59.101562 46.777344 58.566406 C 38.578125 58.152344 35.527344 53.992188 34.390625 50.65625 C 34.019531 49.589844 33.855469 48.605469 33.78125 47.851562 C 33.691406 46.953125 33.738281 46.382812 33.738281 46.382812 C 33.730469 46.476562 33.765625 46.574219 33.828125 46.648438 C 33.894531 46.714844 33.992188 46.761719 34.089844 46.761719 Z M 34.128906 46.753906 C 34.132812 46.753906 34.152344 46.753906 34.167969 46.75 Z M 34.128906 46.753906 " fill-opacity="1" fill-rule="evenodd"/></g><path fill="#ffffff" d="M 48.335938 38.832031 C 49.414062 39.800781 50.433594 40.621094 50.226562 42.898438 C 50.003906 45.390625 49.476562 46.210938 47.894531 47.484375 C 47.796875 47.558594 47.667969 47.582031 47.546875 47.542969 C 47.429688 47.496094 47.34375 47.394531 47.320312 47.277344 C 46.945312 45.328125 46.132812 43.757812 45.878906 42.445312 C 45.730469 41.710938 45.753906 41.042969 46.058594 40.429688 C 46.351562 39.835938 46.929688 39.285156 47.945312 38.78125 C 48.074219 38.714844 48.226562 38.738281 48.335938 38.832031 Z M 48.046875 39.523438 C 47.195312 39.984375 46.75 40.46875 46.578125 41.023438 C 46.390625 41.636719 46.535156 42.320312 46.773438 43.089844 C 47.082031 44.09375 47.570312 45.238281 47.894531 46.5625 C 48.960938 45.609375 49.34375 44.808594 49.523438 42.835938 C 49.6875 41.011719 48.90625 40.289062 48.046875 39.523438 Z M 48.046875 39.523438 " fill-opacity="1" fill-rule="evenodd"/><g clip-path="url(#3ff72375c6)"><path fill="#ffffff" d="M 46.703125 33.296875 C 46.742188 33.488281 46.625 33.675781 46.4375 33.722656 C 46.246094 33.765625 46.058594 33.640625 46.011719 33.453125 C 45.199219 29.921875 42.945312 27.488281 40.632812 25.792969 C 36.621094 22.859375 34.082031 21.246094 31.953125 18.496094 C 30.890625 19.289062 27.039062 22.078125 23.222656 23.621094 C 21.039062 24.503906 16.269531 27.050781 14.089844 34.027344 C 11.917969 40.980469 16.605469 49.132812 28.5 50.050781 C 28.511719 50.050781 28.523438 50.050781 28.535156 50.054688 C 28.535156 50.054688 31.332031 50.578125 34.683594 50.191406 C 34.875 50.167969 35.050781 50.308594 35.074219 50.503906 C 35.097656 50.695312 34.953125 50.871094 34.761719 50.894531 C 31.460938 51.273438 28.679688 50.796875 28.425781 50.753906 C 15.941406 49.785156 11.128906 41.117188 13.410156 33.816406 C 15.691406 26.535156 20.675781 23.886719 22.957031 22.964844 C 27.355469 21.191406 31.800781 17.71875 31.800781 17.71875 C 31.878906 17.664062 31.972656 17.636719 32.066406 17.648438 C 32.164062 17.664062 32.25 17.714844 32.304688 17.789062 C 34.441406 20.664062 36.976562 22.242188 41.054688 25.222656 C 43.480469 27 45.847656 29.578125 46.703125 33.296875 Z M 46.703125 33.296875 " fill-opacity="1" fill-rule="evenodd"/></g><path fill="#ffffff" d="M 33.875 47.65625 C 33.929688 47.636719 34.027344 47.738281 34.132812 48.089844 L 34.117188 47.46875 L 34.140625 47.46875 L 34.15625 48.175781 L 34.167969 48.175781 L 34.132812 48.175781 L 34.132812 48.171875 C 34.132812 48.175781 34.132812 48.175781 34.132812 48.175781 C 33.9375 48.175781 33.777344 48.015625 33.777344 47.820312 C 33.777344 47.730469 33.816406 47.644531 33.875 47.65625 Z M 33.875 47.65625 " fill-opacity="1" fill-rule="evenodd"/><path fill="#ffffff" d="M 28.175781 23.835938 C 28.335938 23.722656 28.558594 23.761719 28.671875 23.921875 C 28.785156 24.078125 28.742188 24.300781 28.578125 24.414062 C 27.972656 24.835938 25.203125 26.785156 22.910156 31.738281 C 21.46875 34.871094 21.398438 38.371094 21.609375 42.164062 C 21.621094 42.355469 21.46875 42.523438 21.277344 42.535156 C 21.078125 42.546875 20.914062 42.394531 20.902344 42.203125 C 20.6875 38.285156 20.777344 34.671875 22.273438 31.4375 C 24.648438 26.285156 27.542969 24.277344 28.175781 23.835938 Z M 28.175781 23.835938 " fill-opacity="1" fill-rule="evenodd"/><path fill="#ffffff" d="M 30.613281 26.59375 C 30.617188 26.394531 30.78125 26.242188 30.972656 26.246094 C 31.171875 26.246094 31.324219 26.410156 31.320312 26.605469 C 31.167969 33.816406 30.476562 33.738281 29.949219 40.941406 C 29.933594 41.136719 29.761719 41.285156 29.570312 41.269531 C 29.378906 41.25 29.230469 41.085938 29.242188 40.890625 C 29.769531 33.703125 30.460938 33.78125 30.613281 26.59375 Z M 30.613281 26.59375 " fill-opacity="1" fill-rule="evenodd"/><path fill="#ffffff" d="M 34.554688 23.484375 C 34.445312 23.324219 34.492188 23.105469 34.65625 22.996094 C 34.820312 22.890625 35.039062 22.933594 35.148438 23.097656 C 37.648438 26.933594 37.984375 29.792969 38.085938 36.824219 C 38.089844 37.023438 37.933594 37.179688 37.742188 37.1875 C 37.542969 37.1875 37.382812 37.03125 37.378906 36.835938 C 37.28125 30 36.988281 27.210938 34.554688 23.484375 Z M 34.554688 23.484375 " fill-opacity="1" fill-rule="evenodd"/><g clip-path="url(#d83b00e7f1)"><path fill="#ffffff" d="M 47.789062 31.761719 C 48.480469 31.847656 49.058594 32.078125 49.625 32.316406 C 50.136719 32.539062 50.640625 32.765625 51.226562 32.871094 C 58.910156 34.269531 62.824219 36.773438 64.082031 40.65625 C 64.703125 42.570312 64.246094 44.734375 62.703125 46.761719 C 60.480469 49.699219 55.949219 52.382812 49.207031 53.578125 C 45.480469 54.238281 42.144531 54.269531 39.546875 53.605469 C 37.535156 53.097656 35.96875 52.179688 34.964844 50.84375 C 33.964844 49.5 33.535156 47.734375 33.84375 45.507812 C 34.285156 42.410156 36.183594 40.035156 38.277344 38.265625 C 40.328125 36.535156 42.566406 35.398438 43.738281 34.738281 C 45.996094 33.472656 47.484375 31.871094 47.484375 31.871094 C 47.5625 31.785156 47.675781 31.746094 47.789062 31.761719 Z M 47.871094 32.488281 C 47.449219 32.910156 46.046875 34.257812 44.082031 35.355469 C 42.9375 36.003906 40.746094 37.113281 38.730469 38.804688 C 36.761719 40.46875 34.960938 42.695312 34.546875 45.609375 C 34.265625 47.617188 34.632812 49.210938 35.539062 50.417969 C 36.445312 51.636719 37.886719 52.457031 39.722656 52.921875 C 42.234375 53.558594 45.46875 53.527344 49.082031 52.882812 C 55.597656 51.726562 59.992188 49.171875 62.136719 46.335938 C 63.519531 44.519531 63.960938 42.585938 63.40625 40.878906 C 62.207031 37.175781 58.417969 34.898438 51.101562 33.566406 C 50.457031 33.449219 49.910156 33.210938 49.347656 32.96875 C 48.882812 32.777344 48.417969 32.582031 47.871094 32.488281 Z M 47.871094 32.488281 " fill-opacity="1" fill-rule="evenodd"/></g><g clip-path="url(#01fd1aa8bb)"><path fill="#ffffff" d="M 34.089844 46.761719 L 34.089844 46.753906 C 33.90625 46.742188 33.761719 46.589844 33.761719 46.402344 C 33.761719 46.21875 33.902344 46.0625 34.082031 46.640625 L 34.039062 46.050781 L 34.058594 46.050781 L 34.113281 46.738281 L 34.445312 46.433594 C 34.445312 46.433594 34.40625 46.957031 34.484375 47.785156 C 34.554688 48.5 34.710938 49.421875 35.058594 50.429688 C 36.132812 53.578125 39.054688 57.46875 46.8125 57.859375 C 57.09375 58.375 62.066406 52.015625 63.519531 46.90625 C 64.125 44.777344 64.136719 42.871094 63.628906 41.816406 C 63.542969 41.640625 63.617188 41.433594 63.796875 41.347656 C 63.972656 41.261719 64.183594 41.335938 64.265625 41.511719 C 64.820312 42.667969 64.867188 44.761719 64.199219 47.105469 C 62.683594 52.433594 57.511719 59.101562 46.777344 58.566406 C 38.578125 58.152344 35.527344 53.992188 34.390625 50.65625 C 34.019531 49.589844 33.855469 48.605469 33.78125 47.851562 C 33.691406 46.953125 33.738281 46.382812 33.738281 46.382812 C 33.730469 46.476562 33.765625 46.574219 33.828125 46.648438 C 33.894531 46.714844 33.992188 46.761719 34.089844 46.761719 Z M 34.128906 46.753906 C 34.132812 46.753906 34.152344 46.753906 34.167969 46.75 Z M 34.128906 46.753906 " fill-opacity="1" fill-rule="evenodd"/></g><path fill="#ffffff" d="M 48.335938 38.832031 C 49.414062 39.800781 50.433594 40.621094 50.226562 42.898438 C 50.003906 45.390625 49.476562 46.210938 47.894531 47.484375 C 47.796875 47.558594 47.667969 47.582031 47.546875 47.542969 C 47.429688 47.496094 47.34375 47.394531 47.320312 47.277344 C 46.945312 45.328125 46.132812 43.757812 45.878906 42.445312 C 45.730469 41.710938 45.753906 41.042969 46.058594 40.429688 C 46.351562 39.835938 46.929688 39.285156 47.945312 38.78125 C 48.074219 38.714844 48.226562 38.738281 48.335938 38.832031 Z M 48.046875 39.523438 C 47.195312 39.984375 46.75 40.46875 46.578125 41.023438 C 46.390625 41.636719 46.535156 42.320312 46.773438 43.089844 C 47.082031 44.09375 47.570312 45.238281 47.894531 46.5625 C 48.960938 45.609375 49.34375 44.808594 49.523438 42.835938 C 49.6875 41.011719 48.90625 40.289062 48.046875 39.523438 Z M 48.046875 39.523438 " fill-opacity="1" fill-rule="evenodd"/><g clip-path="url(#492ce1d4f7)"><path fill="#ffffff" d="M 46.703125 33.296875 C 46.742188 33.488281 46.625 33.675781 46.4375 33.722656 C 46.246094 33.765625 46.058594 33.640625 46.011719 33.453125 C 45.199219 29.921875 42.945312 27.488281 40.632812 25.792969 C 36.621094 22.859375 34.082031 21.246094 31.953125 18.496094 C 30.890625 19.289062 27.039062 22.078125 23.222656 23.621094 C 21.039062 24.503906 16.269531 27.050781 14.089844 34.027344 C 11.917969 40.980469 16.605469 49.132812 28.5 50.050781 C 28.511719 50.050781 28.523438 50.050781 28.535156 50.054688 C 28.535156 50.054688 31.332031 50.578125 34.683594 50.191406 C 34.875 50.167969 35.050781 50.308594 35.074219 50.503906 C 35.097656 50.695312 34.953125 50.871094 34.761719 50.894531 C 31.460938 51.273438 28.679688 50.796875 28.425781 50.753906 C 15.941406 49.785156 11.128906 41.117188 13.410156 33.816406 C 15.691406 26.535156 20.675781 23.886719 22.957031 22.964844 C 27.355469 21.191406 31.800781 17.71875 31.800781 17.71875 C 31.878906 17.664062 31.972656 17.636719 32.066406 17.648438 C 32.164062 17.664062 32.25 17.714844 32.304688 17.789062 C 34.441406 20.664062 36.976562 22.242188 41.054688 25.222656 C 43.480469 27 45.847656 29.578125 46.703125 33.296875 Z M 46.703125 33.296875 " fill-opacity="1" fill-rule="evenodd"/></g><path fill="#ffffff" d="M 33.875 47.65625 C 33.929688 47.636719 34.027344 47.738281 34.132812 48.089844 L 34.117188 47.46875 L 34.140625 47.46875 L 34.15625 48.175781 L 34.167969 48.175781 L 34.132812 48.175781 L 34.132812 48.171875 C 34.132812 48.175781 34.132812 48.175781 34.132812 48.175781 C 33.9375 48.175781 33.777344 48.015625 33.777344 47.820312 C 33.777344 47.730469 33.816406 47.644531 33.875 47.65625 Z M 33.875 47.65625 " fill-opacity="1" fill-rule="evenodd"/><path fill="#ffffff" d="M 28.175781 23.835938 C 28.335938 23.722656 28.558594 23.761719 28.671875 23.921875 C 28.785156 24.078125 28.742188 24.300781 28.578125 24.414062 C 27.972656 24.835938 25.203125 26.785156 22.910156 31.738281 C 21.46875 34.871094 21.398438 38.371094 21.609375 42.164062 C 21.621094 42.355469 21.46875 42.523438 21.277344 42.535156 C 21.078125 42.546875 20.914062 42.394531 20.902344 42.203125 C 20.6875 38.285156 20.777344 34.671875 22.273438 31.4375 C 24.648438 26.285156 27.542969 24.277344 28.175781 23.835938 Z M 28.175781 23.835938 " fill-opacity="1" fill-rule="evenodd"/><path fill="#ffffff" d="M 30.613281 26.59375 C 30.617188 26.394531 30.78125 26.242188 30.972656 26.246094 C 31.171875 26.246094 31.324219 26.410156 31.320312 26.605469 C 31.167969 33.816406 30.476562 33.738281 29.949219 40.941406 C 29.933594 41.136719 29.761719 41.285156 29.570312 41.269531 C 29.378906 41.25 29.230469 41.085938 29.242188 40.890625 C 29.769531 33.703125 30.460938 33.78125 30.613281 26.59375 Z M 30.613281 26.59375 " fill-opacity="1" fill-rule="evenodd"/><path fill="#ffffff" d="M 34.554688 23.484375 C 34.445312 23.324219 34.492188 23.105469 34.65625 22.996094 C 34.820312 22.890625 35.039062 22.933594 35.148438 23.097656 C 37.648438 26.933594 37.984375 29.792969 38.085938 36.824219 C 38.089844 37.023438 37.933594 37.179688 37.742188 37.1875 C 37.542969 37.1875 37.382812 37.03125 37.378906 36.835938 C 37.28125 30 36.988281 27.210938 34.554688 23.484375 Z M 34.554688 23.484375 " fill-opacity="1" fill-rule="evenodd"/><g transform="matrix(1, 0, 0, 1, 19, 81)"><g clip-path="url(#df58d6736e)"><g clip-path="url(#405e7985d0)"><g fill="#c41123" fill-opacity="1"><g transform="translate(1.825526, 14.304875)"><g><path d="M 7.296875 0 L 5.40625 0 L 5.15625 -2.234375 L 2.15625 -2.234375 L 1.015625 0 L -0.890625 0 L 4.171875 -9.46875 L 5.90625 -9.46875 Z M 4.96875 -3.859375 L 4.59375 -7.203125 L 2.96875 -3.859375 Z M 4.96875 -3.859375 "/></g></g></g></g><g fill="#c41123" fill-opacity="1"><g transform="translate(9.909798, 14.304875)"><g><path d="M 1.3125 0 L 0.28125 -6.8125 L 1.96875 -6.8125 L 2.421875 -2.109375 L 4.734375 -6.8125 L 6.421875 -6.8125 L 2.875 0 Z M 1.3125 0 "/></g></g></g><g fill="#c41123" fill-opacity="1"><g transform="translate(16.074388, 14.304875)"><g><path d="M 7 -3.5625 L 6.859375 -2.875 L 1.96875 -2.875 L 1.96875 -2.65625 C 1.96875 -2.269531 2.09375 -1.953125 2.34375 -1.703125 C 2.59375 -1.453125 2.925781 -1.328125 3.34375 -1.328125 C 4.050781 -1.328125 4.671875 -1.710938 5.203125 -2.484375 L 6.546875 -1.796875 C 6.109375 -1.128906 5.625 -0.644531 5.09375 -0.34375 C 4.5625 -0.0390625 3.925781 0.109375 3.1875 0.109375 C 2.34375 0.109375 1.640625 -0.160156 1.078125 -0.703125 C 0.535156 -1.242188 0.265625 -1.976562 0.265625 -2.90625 C 0.265625 -3.988281 0.640625 -4.929688 1.390625 -5.734375 C 2.128906 -6.523438 3.101562 -6.921875 4.3125 -6.921875 C 5.1875 -6.921875 5.859375 -6.664062 6.328125 -6.15625 C 6.804688 -5.632812 7.046875 -4.976562 7.046875 -4.1875 C 7.046875 -3.914062 7.03125 -3.707031 7 -3.5625 Z M 4.09375 -5.5 C 3.695312 -5.5 3.335938 -5.375 3.015625 -5.125 C 2.691406 -4.882812 2.445312 -4.570312 2.28125 -4.1875 L 5.40625 -4.1875 C 5.34375 -5.0625 4.90625 -5.5 4.09375 -5.5 Z M 4.09375 -5.5 "/></g></g></g><g fill="#c41123" fill-opacity="1"><g transform="translate(23.73957, 14.304875)"><g><path d="M 0.34375 0 L 2.1875 -9.578125 L 3.890625 -9.578125 L 2.03125 0 Z M 0.34375 0 "/></g></g></g><g fill="#c41123" fill-opacity="1"><g transform="translate(27.984491, 14.304875)"><g><path d="M 4.1875 -6.921875 C 4.519531 -6.921875 4.820312 -6.851562 5.09375 -6.71875 C 5.363281 -6.59375 5.566406 -6.429688 5.703125 -6.234375 L 5.8125 -6.8125 L 7.515625 -6.8125 L 6.203125 0 L 4.5 0 L 4.640625 -0.703125 C 4.484375 -0.492188 4.234375 -0.304688 3.890625 -0.140625 C 3.546875 0.0234375 3.191406 0.109375 2.828125 0.109375 C 2.015625 0.109375 1.390625 -0.144531 0.953125 -0.65625 C 0.515625 -1.195312 0.296875 -1.863281 0.296875 -2.65625 C 0.296875 -3.9375 0.640625 -4.960938 1.328125 -5.734375 C 2.015625 -6.523438 2.96875 -6.921875 4.1875 -6.921875 Z M 2.09375 -2.96875 C 2.09375 -2.457031 2.207031 -2.054688 2.4375 -1.765625 C 2.664062 -1.472656 2.96875 -1.328125 3.34375 -1.328125 C 3.976562 -1.328125 4.476562 -1.585938 4.84375 -2.109375 C 5.207031 -2.628906 5.390625 -3.253906 5.390625 -3.984375 C 5.390625 -4.460938 5.273438 -4.832031 5.046875 -5.09375 C 4.828125 -5.363281 4.523438 -5.5 4.140625 -5.5 C 3.503906 -5.5 3.003906 -5.234375 2.640625 -4.703125 C 2.273438 -4.171875 2.09375 -3.59375 2.09375 -2.96875 Z M 2.90625 -7.703125 L 2.078125 -8.4375 C 2.304688 -8.800781 2.585938 -9.085938 2.921875 -9.296875 C 3.265625 -9.515625 3.609375 -9.625 3.953125 -9.625 C 4.273438 -9.625 4.585938 -9.53125 4.890625 -9.34375 C 5.210938 -9.15625 5.472656 -9.0625 5.671875 -9.0625 C 5.898438 -9.0625 6.195312 -9.253906 6.5625 -9.640625 L 7.390625 -8.90625 C 7.160156 -8.539062 6.875 -8.25 6.53125 -8.03125 C 6.195312 -7.820312 5.859375 -7.71875 5.515625 -7.71875 C 5.203125 -7.71875 4.890625 -7.8125 4.578125 -8 C 4.265625 -8.1875 4.003906 -8.28125 3.796875 -8.28125 C 3.566406 -8.28125 3.269531 -8.085938 2.90625 -7.703125 Z M 2.90625 -7.703125 "/></g></g></g></g></g></svg>