<svg xmlns="http://www.w3.org/2000/svg" xmlns:xlink="http://www.w3.org/1999/xlink" width="40" zoomAndPan="magnify" viewBox="0 0 30 30.000001" height="40" preserveAspectRatio="xMidYMid meet" version="1.0"><defs><clipPath id="6c29b1d950"><path d="M 3.796875 4.582031 L 26.144531 4.582031 L 26.144531 16.378906 L 3.796875 16.378906 Z M 3.796875 4.582031 " clip-rule="nonzero"/></clipPath><clipPath id="6e6812f1d5"><path d="M 9.4375 13.613281 C 10.824219 13.609375 12.246094 12.167969 12.21875 10.792969 C 12.191406 9.402344 10.769531 8.027344 9.371094 8.046875 C 8.023438 8.070312 6.617188 9.488281 6.605469 10.828125 C 6.589844 12.167969 8.074219 13.621094 9.4375 13.609375 M 26.125 11.125 C 22.554688 7.792969 18.359375 7.269531 13.847656 7.5625 C 13.921875 7.738281 13.964844 7.847656 14.023438 7.949219 C 15.484375 10.238281 15.277344 12.484375 13.402344 14.5 C 11.460938 16.589844 8.742188 16.964844 6.496094 15.453125 C 4.09375 13.839844 3.203125 10.992188 4.386719 8.542969 C 5.179688 6.898438 6.5625 5.890625 8.289062 5.484375 C 12.921875 4.398438 17.5625 4.253906 22.132812 5.84375 C 23.507812 6.324219 24.746094 7.082031 25.804688 8.101562 C 25.949219 8.238281 26.105469 8.441406 26.109375 8.625 C 26.144531 9.394531 26.125 10.171875 26.125 11.148438 " clip-rule="nonzero"/></clipPath><clipPath id="81b155948b"><path d="M 0.796875 0.582031 L 23.144531 0.582031 L 23.144531 12.378906 L 0.796875 12.378906 Z M 0.796875 0.582031 " clip-rule="nonzero"/></clipPath><clipPath id="09d907c63e"><path d="M 6.4375 9.613281 C 7.824219 9.609375 9.246094 8.167969 9.21875 6.792969 C 9.191406 5.402344 7.769531 4.027344 6.371094 4.046875 C 5.023438 4.070312 3.617188 5.488281 3.605469 6.828125 C 3.589844 8.167969 5.074219 9.621094 6.4375 9.609375 M 23.125 7.125 C 19.554688 3.792969 15.359375 3.269531 10.847656 3.5625 C 10.921875 3.738281 10.964844 3.847656 11.023438 3.949219 C 12.484375 6.238281 12.277344 8.484375 10.402344 10.5 C 8.460938 12.589844 5.742188 12.964844 3.496094 11.453125 C 1.09375 9.839844 0.203125 6.992188 1.386719 4.542969 C 2.179688 2.898438 3.5625 1.890625 5.289062 1.484375 C 9.921875 0.398438 14.5625 0.253906 19.132812 1.84375 C 20.507812 2.324219 21.746094 3.082031 22.804688 4.101562 C 22.949219 4.238281 23.105469 4.441406 23.109375 4.625 C 23.144531 5.394531 23.125 6.171875 23.125 7.148438 " clip-rule="nonzero"/></clipPath><clipPath id="480a9f3819"><rect x="0" width="24" y="0" height="13"/></clipPath><clipPath id="1dd0e498f5"><path d="M 3.796875 12.652344 L 26.144531 12.652344 L 26.144531 24.449219 L 3.796875 24.449219 Z M 3.796875 12.652344 " clip-rule="nonzero"/></clipPath><clipPath id="26815e4280"><path d="M 23.351562 18.28125 C 23.363281 16.890625 21.972656 15.46875 20.578125 15.453125 C 19.210938 15.441406 17.765625 16.882812 17.765625 18.253906 C 17.765625 19.609375 19.15625 21.019531 20.515625 21.046875 C 21.902344 21.070312 23.339844 19.675781 23.351562 18.28125 M 3.878906 18.003906 C 6.125 20.011719 8.628906 21.148438 11.476562 21.425781 C 13.011719 21.574219 14.550781 21.582031 16.242188 21.664062 C 15.910156 21.0625 15.648438 20.664062 15.472656 20.238281 C 14.503906 17.898438 15.214844 15.550781 17.371094 13.886719 C 19.433594 12.296875 22.046875 12.351562 24.046875 14.027344 C 26.050781 15.707031 26.726562 18.566406 25.582031 20.765625 C 24.792969 22.285156 23.386719 23.03125 21.824219 23.523438 C 19.320312 24.316406 16.742188 24.4375 14.140625 24.375 C 11.8125 24.320312 9.507812 24.058594 7.394531 23.058594 C 6.238281 22.507812 5.21875 21.683594 4.148438 20.96875 C 4.027344 20.886719 3.90625 20.695312 3.898438 20.546875 C 3.878906 19.757812 3.886719 18.964844 3.886719 18.011719 " clip-rule="nonzero"/></clipPath><clipPath id="a7de5a56cd"><path d="M 0.796875 0.652344 L 23.144531 0.652344 L 23.144531 12.449219 L 0.796875 12.449219 Z M 0.796875 0.652344 " clip-rule="nonzero"/></clipPath><clipPath id="956acd3868"><path d="M 20.351562 6.28125 C 20.363281 4.890625 18.972656 3.46875 17.578125 3.453125 C 16.210938 3.441406 14.765625 4.882812 14.765625 6.253906 C 14.765625 7.609375 16.15625 9.019531 17.515625 9.046875 C 18.902344 9.070312 20.339844 7.675781 20.351562 6.28125 M 0.878906 6.003906 C 3.125 8.011719 5.628906 9.148438 8.476562 9.425781 C 10.011719 9.574219 11.550781 9.582031 13.242188 9.664062 C 12.910156 9.0625 12.648438 8.664062 12.472656 8.238281 C 11.503906 5.898438 12.214844 3.550781 14.371094 1.886719 C 16.433594 0.296875 19.046875 0.351562 21.046875 2.027344 C 23.050781 3.707031 23.726562 6.566406 22.582031 8.765625 C 21.792969 10.285156 20.386719 11.03125 18.824219 11.523438 C 16.320312 12.316406 13.742188 12.4375 11.140625 12.375 C 8.8125 12.320312 6.507812 12.058594 4.394531 11.058594 C 3.238281 10.507812 2.21875 9.683594 1.148438 8.96875 C 1.027344 8.886719 0.90625 8.695312 0.898438 8.546875 C 0.878906 7.757812 0.886719 6.964844 0.886719 6.011719 " clip-rule="nonzero"/></clipPath><clipPath id="6d3a3c86c5"><rect x="0" width="24" y="0" height="13"/></clipPath></defs><g clip-path="url(#6c29b1d950)"><g clip-path="url(#6e6812f1d5)"><g transform="matrix(1, 0, 0, 1, 3, 4)"><g clip-path="url(#480a9f3819)"><g clip-path="url(#81b155948b)"><g clip-path="url(#09d907c63e)"><rect x="-9.6" width="43.2" fill="#b71419" height="43.200001" y="-10.6" fill-opacity="1"/></g></g></g></g></g></g><g clip-path="url(#1dd0e498f5)"><g clip-path="url(#26815e4280)"><g transform="matrix(1, 0, 0, 1, 3, 12)"><g clip-path="url(#6d3a3c86c5)"><g clip-path="url(#a7de5a56cd)"><g clip-path="url(#956acd3868)"><rect x="-9.6" width="43.2" fill="#b71419" height="43.200001" y="-18.6" fill-opacity="1"/></g></g></g></g></g></g></svg>