<svg xmlns="http://www.w3.org/2000/svg" xmlns:xlink="http://www.w3.org/1999/xlink" width="103" zoomAndPan="magnify" viewBox="0 0 77.25 102.75" height="137" preserveAspectRatio="xMidYMid meet" version="1.0"><defs><g/><clipPath id="8b5bb45031"><path d="M 0 0.371094 L 76.003906 0.371094 L 76.003906 76.375 L 0 76.375 Z M 0 0.371094 " clip-rule="nonzero"/></clipPath><clipPath id="8d33fabcd0"><path d="M 38.003906 0.371094 C 17.015625 0.371094 0 17.382812 0 38.371094 C 0 59.359375 17.015625 76.375 38.003906 76.375 C 58.988281 76.375 76.003906 59.359375 76.003906 38.371094 C 76.003906 17.382812 58.988281 0.371094 38.003906 0.371094 Z M 38.003906 0.371094 " clip-rule="nonzero"/></clipPath><clipPath id="4386fb1fb7"><path d="M 0 0.371094 L 76.003906 0.371094 L 76.003906 76.375 L 0 76.375 Z M 0 0.371094 " clip-rule="nonzero"/></clipPath><clipPath id="93ff0caa8c"><path d="M 38.003906 0.371094 C 17.015625 0.371094 0 17.382812 0 38.371094 C 0 59.359375 17.015625 76.375 38.003906 76.375 C 58.988281 76.375 76.003906 59.359375 76.003906 38.371094 C 76.003906 17.382812 58.988281 0.371094 38.003906 0.371094 Z M 38.003906 0.371094 " clip-rule="nonzero"/></clipPath><clipPath id="9d8fc8ec87"><rect x="0" width="77" y="0" height="77"/></clipPath><clipPath id="a8d01edf66"><path d="M 0 0.371094 L 75.765625 0.371094 L 75.765625 76.132812 L 0 76.132812 Z M 0 0.371094 " clip-rule="nonzero"/></clipPath><clipPath id="59c32683f7"><path d="M 38 0.371094 C 17.011719 0.371094 0 17.382812 0 38.367188 C 0 59.355469 17.011719 76.367188 38 76.367188 C 58.984375 76.367188 75.996094 59.355469 75.996094 38.367188 C 75.996094 17.382812 58.984375 0.371094 38 0.371094 Z M 38 0.371094 " clip-rule="nonzero"/></clipPath><clipPath id="6621c8a033"><path d="M 16 16.417969 L 44 16.417969 L 44 46 L 16 46 Z M 16 16.417969 " clip-rule="nonzero"/></clipPath><clipPath id="7768375ea3"><path d="M 13.808594 24 L 45 24 L 45 59 L 13.808594 59 Z M 13.808594 24 " clip-rule="nonzero"/></clipPath><clipPath id="a729077418"><path d="M 40 50 L 55 50 L 55 60.242188 L 40 60.242188 Z M 40 50 " clip-rule="nonzero"/></clipPath><clipPath id="22d897135b"><path d="M 56 33 L 62.089844 33 L 62.089844 46 L 56 46 Z M 56 33 " clip-rule="nonzero"/></clipPath><clipPath id="7ddf127ccb"><path d="M 16 16.417969 L 44 16.417969 L 44 46 L 16 46 Z M 16 16.417969 " clip-rule="nonzero"/></clipPath><clipPath id="847970b780"><path d="M 13.808594 24 L 45 24 L 45 59 L 13.808594 59 Z M 13.808594 24 " clip-rule="nonzero"/></clipPath><clipPath id="cda6eaaf17"><path d="M 40 50 L 55 50 L 55 60.242188 L 40 60.242188 Z M 40 50 " clip-rule="nonzero"/></clipPath><clipPath id="07c66843e3"><path d="M 56 33 L 62.089844 33 L 62.089844 46 L 56 46 Z M 56 33 " clip-rule="nonzero"/></clipPath><clipPath id="e1cd5407fc"><rect x="0" width="47" y="0" height="19"/></clipPath></defs><g clip-path="url(#8b5bb45031)"><g clip-path="url(#8d33fabcd0)"><g transform="matrix(1, 0, 0, 1, 0, -0.000000000000009381)"><g clip-path="url(#9d8fc8ec87)"><g clip-path="url(#4386fb1fb7)"><g clip-path="url(#93ff0caa8c)"><path fill="#ec84a1" d="M 0 0.371094 L 76.003906 0.371094 L 76.003906 76.375 L 0 76.375 Z M 0 0.371094 " fill-opacity="1" fill-rule="nonzero"/></g></g></g></g></g></g><g clip-path="url(#a8d01edf66)"><g clip-path="url(#59c32683f7)"><path stroke-linecap="butt" transform="matrix(0.742788, 0, 0, 0.742788, 0.000000000000005278, 0.370195)" fill="none" stroke-linejoin="miter" d="M 51.158578 0.00120959 C 22.902509 0.00120959 -0.000000000000007105 22.903719 -0.000000000000007105 51.154529 C -0.000000000000007105 79.410598 22.902509 102.313107 51.158578 102.313107 C 79.409388 102.313107 102.311897 79.410598 102.311897 51.154529 C 102.311897 22.903719 79.409388 0.00120959 51.158578 0.00120959 Z M 51.158578 0.00120959 " stroke="#c41323" stroke-width="2" stroke-opacity="1" stroke-miterlimit="4"/></g></g><g clip-path="url(#6621c8a033)"><path fill="#ffffff" d="M 31.832031 45.183594 C 31.75 45.183594 31.683594 45.148438 31.636719 45.082031 C 31.601562 45.035156 31.570312 44.992188 31.542969 44.949219 C 31.480469 44.867188 31.429688 44.792969 31.378906 44.714844 L 29.085938 41.167969 C 26.359375 36.957031 23.542969 32.597656 20.773438 28.3125 C 20.476562 27.84375 20.167969 27.375 19.867188 26.917969 C 18.992188 25.578125 18.089844 24.195312 17.265625 22.792969 C 16.726562 21.867188 16.59375 20.78125 16.898438 19.734375 C 17.203125 18.664062 17.839844 17.851562 18.804688 17.292969 C 19.929688 16.636719 21.171875 16.421875 22.40625 16.667969 C 23.628906 16.914062 24.75 17.601562 25.652344 18.65625 C 29.128906 22.726562 32.667969 26.867188 36.089844 30.867188 C 37.765625 32.828125 39.441406 34.785156 41.113281 36.742188 C 41.726562 37.457031 42.347656 38.1875 42.945312 38.890625 C 43.226562 39.21875 43.507812 39.550781 43.789062 39.882812 C 43.847656 39.949219 43.863281 40.023438 43.835938 40.109375 C 43.8125 40.191406 43.757812 40.246094 43.671875 40.269531 C 43.496094 40.324219 43.320312 40.308594 43.15625 40.234375 C 40.464844 39.136719 37.914062 39.183594 35.570312 40.367188 C 33.582031 41.371094 32.40625 42.921875 32.070312 44.980469 C 32.050781 45.117188 31.96875 45.183594 31.832031 45.183594 Z M 21.421875 17.046875 C 20.621094 17.046875 19.808594 17.265625 19.046875 17.710938 C 18.195312 18.203125 17.632812 18.921875 17.359375 19.867188 C 17.097656 20.785156 17.210938 21.738281 17.683594 22.546875 C 18.5 23.941406 19.402344 25.320312 20.273438 26.652344 C 20.570312 27.109375 20.878906 27.582031 21.179688 28.046875 C 23.949219 32.335938 26.765625 36.691406 29.492188 40.90625 L 31.710938 44.335938 C 32.183594 42.398438 33.40625 40.917969 35.351562 39.9375 C 37.710938 38.742188 40.261719 38.640625 42.941406 39.632812 L 42.578125 39.203125 C 41.976562 38.5 41.359375 37.773438 40.746094 37.058594 C 39.074219 35.097656 37.398438 33.140625 35.722656 31.183594 C 32.300781 27.179688 28.761719 23.042969 25.28125 18.96875 C 24.207031 17.707031 22.824219 17.046875 21.421875 17.046875 Z M 21.421875 17.046875 " fill-opacity="1" fill-rule="nonzero"/></g><g clip-path="url(#7768375ea3)"><path fill="#ffffff" d="M 39.984375 58.710938 C 39.921875 58.710938 39.867188 58.691406 39.824219 58.652344 C 39.765625 58.597656 39.71875 58.558594 39.683594 58.527344 C 39.632812 58.484375 39.582031 58.441406 39.535156 58.390625 C 38.703125 57.476562 37.855469 56.550781 37.035156 55.652344 C 35.167969 53.613281 33.242188 51.507812 31.382812 49.40625 C 28.390625 46.019531 25.359375 42.570312 22.429688 39.230469 C 19.886719 36.335938 17.257812 33.339844 14.664062 30.398438 C 14.082031 29.742188 13.8125 29.011719 13.832031 28.171875 C 13.847656 27.542969 13.9375 26.925781 14.023438 26.40625 C 14.164062 25.546875 14.664062 24.863281 15.511719 24.375 C 15.953125 24.117188 16.214844 23.976562 16.484375 24.042969 C 16.765625 24.105469 16.9375 24.371094 17.199219 24.765625 L 20.117188 29.1875 C 24.089844 35.199219 28.195312 41.417969 32.238281 47.535156 C 33.644531 49.664062 36 50.402344 38.382812 49.464844 C 38.757812 49.316406 39.125 49.128906 39.507812 48.929688 C 39.691406 48.835938 39.878906 48.738281 40.074219 48.640625 C 40.175781 48.59375 40.265625 48.605469 40.347656 48.683594 L 44.351562 52.460938 C 44.441406 52.542969 44.457031 52.640625 44.398438 52.75 C 44.339844 52.859375 44.25 52.898438 44.128906 52.871094 C 43.03125 52.621094 41.929688 53.003906 41.109375 53.921875 C 40.050781 55.109375 39.691406 56.90625 40.210938 58.390625 C 40.238281 58.46875 40.230469 58.542969 40.179688 58.609375 C 40.132812 58.675781 40.066406 58.710938 39.984375 58.710938 Z M 16.355469 24.507812 C 16.242188 24.507812 15.972656 24.667969 15.753906 24.792969 C 15.027344 25.210938 14.617188 25.765625 14.5 26.484375 C 14.417969 26.988281 14.328125 27.582031 14.316406 28.183594 C 14.296875 28.90625 14.523438 29.507812 15.027344 30.078125 C 17.621094 33.019531 20.25 36.015625 22.792969 38.914062 C 25.722656 42.25 28.75 45.703125 31.746094 49.085938 C 33.601562 51.183594 35.527344 53.289062 37.390625 55.324219 C 38.097656 56.097656 38.824219 56.890625 39.539062 57.679688 C 39.453125 57.078125 39.476562 56.480469 39.605469 55.886719 C 39.789062 55.019531 40.1875 54.230469 40.746094 53.601562 C 41.503906 52.753906 42.472656 52.304688 43.488281 52.3125 L 40.136719 49.148438 C 40 49.21875 39.863281 49.289062 39.730469 49.359375 C 39.335938 49.5625 38.960938 49.757812 38.558594 49.914062 C 37.8125 50.210938 37.066406 50.351562 36.347656 50.351562 C 34.5625 50.351562 32.933594 49.464844 31.835938 47.800781 C 27.792969 41.6875 23.6875 35.46875 19.714844 29.453125 L 16.796875 25.03125 C 16.632812 24.785156 16.464844 24.535156 16.375 24.511719 C 16.367188 24.511719 16.359375 24.507812 16.355469 24.507812 Z M 16.355469 24.507812 " fill-opacity="1" fill-rule="nonzero"/></g><path fill="#ffffff" d="M 57.8125 38.207031 C 57.785156 38.207031 57.757812 38.199219 57.730469 38.191406 C 57.601562 38.144531 57.480469 38.105469 57.367188 38.0625 C 57.132812 37.980469 56.929688 37.910156 56.722656 37.835938 C 56.046875 37.585938 55.367188 37.332031 54.691406 37.078125 C 53.871094 36.773438 53.027344 36.457031 52.191406 36.148438 C 50.992188 35.707031 49.796875 35.261719 48.597656 34.820312 C 45.03125 33.5 41.339844 32.132812 37.71875 30.78125 C 37.332031 30.640625 36.996094 30.421875 36.761719 30.167969 C 36.015625 29.351562 35.28125 28.503906 34.566406 27.683594 C 34.347656 27.429688 34.125 27.175781 33.90625 26.925781 C 33.542969 26.507812 33.175781 26.085938 32.820312 25.671875 C 32.65625 25.484375 32.492188 25.292969 32.324219 25.101562 C 32.242188 25.003906 32.238281 24.902344 32.316406 24.800781 L 32.382812 24.707031 C 32.453125 24.617188 32.539062 24.589844 32.648438 24.625 L 59.140625 32.695312 C 59.234375 32.722656 59.289062 32.785156 59.308594 32.875 C 59.328125 32.96875 59.304688 33.046875 59.230469 33.109375 C 57.925781 34.265625 57.574219 35.703125 58.046875 37.914062 C 58.0625 37.988281 58.046875 38.054688 58 38.117188 C 57.953125 38.175781 57.886719 38.207031 57.8125 38.207031 Z M 33.109375 25.269531 L 33.183594 25.355469 C 33.539062 25.765625 33.90625 26.191406 34.269531 26.605469 C 34.492188 26.859375 34.710938 27.113281 34.933594 27.367188 C 35.644531 28.183594 36.378906 29.027344 37.121094 29.839844 C 37.296875 30.035156 37.578125 30.214844 37.886719 30.328125 C 41.507812 31.679688 45.199219 33.046875 48.765625 34.363281 C 49.964844 34.808594 51.160156 35.253906 52.359375 35.695312 C 53.195312 36.003906 54.042969 36.320312 54.859375 36.625 C 55.539062 36.878906 56.214844 37.128906 56.894531 37.382812 C 57.082031 37.453125 57.273438 37.519531 57.492188 37.597656 C 57.328125 36.660156 57.316406 35.882812 57.460938 35.183594 C 57.625 34.367188 58.003906 33.664062 58.605469 33.039062 Z M 33.109375 25.269531 " fill-opacity="1" fill-rule="nonzero"/><path fill="#ffffff" d="M 56.222656 45.367188 C 56.175781 45.367188 56.132812 45.359375 56.09375 45.339844 C 55.410156 45.015625 54.722656 44.6875 54.039062 44.363281 C 52.054688 43.417969 50.003906 42.441406 47.992188 41.46875 C 47.851562 41.402344 47.703125 41.335938 47.5625 41.269531 C 46.925781 40.980469 46.269531 40.683594 45.753906 40.085938 C 44.992188 39.210938 44.183594 38.34375 43.402344 37.511719 C 43.058594 37.144531 42.707031 36.769531 42.363281 36.398438 C 41.53125 35.492188 40.699219 34.589844 39.867188 33.6875 L 38.773438 32.5 C 38.6875 32.40625 38.679688 32.308594 38.75 32.203125 L 38.824219 32.09375 C 38.894531 31.988281 38.988281 31.957031 39.105469 32 L 57.617188 38.472656 C 57.730469 38.511719 57.785156 38.589844 57.78125 38.710938 C 57.777344 38.828125 57.714844 38.902344 57.601562 38.933594 C 56.183594 39.320312 55.796875 40.261719 55.636719 41.652344 C 55.492188 42.875 55.796875 43.996094 56.546875 44.976562 C 56.605469 45.054688 56.613281 45.140625 56.570312 45.230469 C 56.523438 45.320312 56.453125 45.363281 56.351562 45.363281 C 56.304688 45.363281 56.277344 45.367188 56.253906 45.367188 C 56.246094 45.367188 56.234375 45.367188 56.222656 45.367188 Z M 39.601562 32.6875 L 40.222656 33.359375 C 41.054688 34.261719 41.886719 35.164062 42.71875 36.070312 C 43.0625 36.441406 43.414062 36.816406 43.753906 37.179688 C 44.539062 38.019531 45.351562 38.886719 46.117188 39.769531 C 46.566406 40.289062 47.144531 40.550781 47.761719 40.828125 C 47.90625 40.894531 48.054688 40.964844 48.203125 41.035156 C 50.214844 42.007812 52.265625 42.984375 54.246094 43.925781 C 54.746094 44.164062 55.246094 44.402344 55.746094 44.640625 C 55.226562 43.714844 55.027344 42.695312 55.15625 41.597656 C 55.222656 41 55.34375 40.308594 55.691406 39.730469 C 55.960938 39.285156 56.335938 38.945312 56.824219 38.707031 Z M 39.601562 32.6875 " fill-opacity="1" fill-rule="nonzero"/><path fill="#ffffff" d="M 36.378906 49.03125 C 36.328125 49.03125 36.277344 49.03125 36.230469 49.027344 C 34.402344 48.933594 33.105469 47.871094 32.839844 46.257812 C 32.675781 45.246094 32.835938 44.253906 33.300781 43.390625 C 33.765625 42.527344 34.523438 41.808594 35.496094 41.320312 C 37.136719 40.492188 38.953125 40.144531 41.054688 40.257812 C 43.367188 40.378906 44.972656 41.550781 45.824219 43.734375 C 46.136719 44.542969 46.160156 45.410156 45.886719 46.175781 C 45.613281 46.941406 45.046875 47.585938 44.300781 47.984375 C 43.066406 48.640625 41.929688 48.21875 40.832031 47.8125 L 40.792969 47.796875 C 40.164062 47.5625 39.949219 47.167969 40.097656 46.511719 C 40.375 45.285156 40 44.277344 38.992188 43.519531 C 38.9375 43.480469 38.882812 43.449219 38.824219 43.417969 C 38.789062 43.398438 38.757812 43.382812 38.722656 43.363281 C 38.65625 43.320312 38.617188 43.261719 38.605469 43.183594 C 38.597656 43.105469 38.621094 43.039062 38.675781 42.984375 C 39.089844 42.5625 39.65625 42.351562 40.265625 42.394531 C 40.984375 42.441406 42.09375 42.847656 43.316406 44.503906 C 43.375 44.582031 43.382812 44.667969 43.335938 44.753906 C 43.292969 44.84375 43.21875 44.886719 43.121094 44.886719 C 43.089844 44.886719 43.0625 44.890625 43.035156 44.890625 C 42.96875 44.898438 42.898438 44.894531 42.835938 44.875 C 42.160156 44.6875 41.996094 45.007812 41.945312 45.113281 C 41.875 45.25 41.898438 45.558594 41.996094 45.757812 C 42.046875 45.867188 42.210938 46.207031 42.890625 46.109375 C 43.335938 46.046875 43.6875 45.816406 43.886719 45.46875 C 44.085938 45.113281 44.097656 44.683594 43.921875 44.261719 C 43.625 43.558594 43.132812 43.007812 42.457031 42.621094 C 41.414062 42.027344 40.210938 41.855469 38.777344 42.105469 C 37.273438 42.363281 36.242188 42.816406 35.425781 43.570312 C 34.921875 44.03125 34.691406 44.65625 34.789062 45.277344 C 34.886719 45.886719 35.28125 46.390625 35.875 46.660156 C 36.292969 46.851562 37.023438 46.695312 37.300781 46.355469 C 37.433594 46.191406 37.519531 45.996094 37.234375 45.667969 C 37.085938 45.5 36.992188 45.496094 36.8125 45.644531 C 36.511719 45.890625 35.992188 45.863281 35.839844 45.847656 C 35.660156 45.828125 35.226562 45.757812 35.011719 45.5 C 34.703125 45.121094 34.953125 44.351562 35.367188 43.964844 C 36.179688 43.199219 37.253906 43.089844 38.234375 43.664062 C 38.769531 43.976562 39.210938 44.433594 39.480469 44.949219 C 39.753906 45.476562 39.832031 46.042969 39.703125 46.546875 C 39.351562 47.925781 37.851562 49.03125 36.378906 49.03125 Z M 40.300781 40.71875 C 38.589844 40.71875 37.085938 41.058594 35.710938 41.753906 C 33.90625 42.664062 33.011719 44.316406 33.316406 46.179688 C 33.546875 47.578125 34.644531 48.460938 36.253906 48.546875 C 37.535156 48.613281 38.929688 47.621094 39.234375 46.425781 C 39.445312 45.613281 38.921875 44.625 37.992188 44.082031 C 37.203125 43.621094 36.347656 43.707031 35.695312 44.316406 C 35.398438 44.597656 35.304688 45.089844 35.386719 45.195312 C 35.441406 45.257812 35.628906 45.339844 35.886719 45.367188 C 36.179688 45.394531 36.421875 45.339844 36.503906 45.269531 C 36.890625 44.953125 37.277344 44.984375 37.597656 45.351562 C 38.085938 45.910156 37.910156 46.371094 37.675781 46.660156 C 37.261719 47.167969 36.289062 47.382812 35.675781 47.101562 C 34.929688 46.761719 34.433594 46.125 34.3125 45.355469 C 34.1875 44.570312 34.472656 43.789062 35.097656 43.214844 C 35.972656 42.402344 37.117188 41.898438 38.695312 41.628906 C 40.242188 41.359375 41.550781 41.546875 42.699219 42.203125 C 43.46875 42.640625 44.027344 43.269531 44.367188 44.074219 C 44.601562 44.628906 44.578125 45.222656 44.304688 45.707031 C 44.035156 46.183594 43.546875 46.503906 42.960938 46.585938 C 42.292969 46.683594 41.796875 46.460938 41.558594 45.964844 C 41.417969 45.667969 41.355469 45.207031 41.511719 44.898438 C 41.636719 44.648438 41.929688 44.289062 42.566406 44.339844 C 41.800781 43.441406 40.984375 42.929688 40.234375 42.875 C 39.871094 42.851562 39.542969 42.933594 39.265625 43.121094 C 39.269531 43.125 39.277344 43.128906 39.28125 43.132812 C 40.441406 44.003906 40.886719 45.207031 40.566406 46.617188 C 40.472656 47.035156 40.5625 47.195312 40.960938 47.34375 L 41 47.359375 C 42.042969 47.746094 43.03125 48.109375 44.074219 47.554688 C 45.398438 46.851562 45.933594 45.351562 45.371094 43.910156 C 44.585938 41.890625 43.164062 40.855469 41.027344 40.738281 C 40.78125 40.726562 40.539062 40.71875 40.300781 40.71875 Z M 40.300781 40.71875 " fill-opacity="1" fill-rule="nonzero"/><g clip-path="url(#a729077418)"><path fill="#ffffff" d="M 44.371094 60.324219 C 43.96875 60.324219 43.554688 60.308594 43.136719 60.28125 C 42.496094 60.234375 41.84375 59.785156 41.441406 59.378906 C 40.972656 58.902344 40.679688 58.179688 40.613281 57.34375 C 40.546875 56.550781 40.703125 55.726562 41.035156 55.085938 C 41.742188 53.730469 42.878906 53.140625 44.511719 53.285156 C 45.226562 53.347656 45.753906 53.585938 46.070312 54 C 46.382812 54.40625 46.484375 54.960938 46.367188 55.648438 C 46.300781 56.039062 46.175781 56.410156 45.992188 56.761719 C 45.777344 57.179688 45.4375 57.429688 44.976562 57.519531 C 44.5625 57.59375 44.195312 57.492188 43.878906 57.210938 C 43.605469 56.96875 43.1875 56.316406 43.371094 55.933594 C 43.464844 55.734375 43.597656 55.609375 43.769531 55.5625 C 44.023438 55.496094 44.273438 55.621094 44.492188 55.761719 C 44.570312 55.523438 44.492188 55.476562 44.375 55.402344 C 43.980469 55.152344 43.292969 55.269531 42.988281 55.636719 C 42.703125 55.980469 42.589844 56.414062 42.679688 56.824219 C 42.761719 57.207031 43.011719 57.515625 43.378906 57.695312 C 44 57.996094 44.644531 58.144531 45.140625 58.101562 C 46.9375 57.953125 48.554688 57.492188 49.945312 56.738281 C 51.152344 56.085938 51.847656 55.074219 52.019531 53.738281 C 52.050781 53.472656 52.015625 53.277344 51.910156 53.164062 C 51.800781 53.042969 51.605469 52.988281 51.328125 53 C 50.570312 53.027344 49.941406 53.328125 49.464844 53.894531 C 49.394531 53.976562 49.347656 54.097656 49.304688 54.226562 L 50.582031 53.558594 C 50.695312 53.5 50.792969 53.515625 50.875 53.609375 C 51.363281 54.15625 51.453125 54.425781 51.050781 55.035156 C 50.570312 55.765625 49.9375 56.265625 49.175781 56.519531 C 48.476562 56.753906 47.820312 56.53125 47.46875 55.9375 C 47.066406 55.269531 46.972656 54.585938 47.179688 53.898438 C 47.714844 52.160156 49.230469 51.03125 51.457031 50.730469 C 52.871094 50.535156 53.855469 51.300781 54.09375 52.769531 C 54.253906 53.769531 54.179688 54.695312 53.871094 55.523438 C 53.558594 56.359375 53.007812 57.097656 52.230469 57.722656 C 50.949219 58.753906 49.511719 59.476562 47.921875 59.890625 C 46.824219 60.179688 45.636719 60.324219 44.371094 60.324219 Z M 44.046875 53.746094 C 42.84375 53.746094 42.019531 54.25 41.464844 55.3125 C 41.171875 55.875 41.035156 56.601562 41.09375 57.308594 C 41.152344 58.03125 41.398438 58.644531 41.789062 59.039062 C 42.136719 59.390625 42.699219 59.761719 43.167969 59.796875 C 46.691406 60.046875 49.554688 59.246094 51.929688 57.34375 C 53.347656 56.207031 53.914062 54.695312 53.617188 52.847656 C 53.421875 51.632812 52.675781 51.050781 51.519531 51.207031 C 49.496094 51.484375 48.117188 52.492188 47.644531 54.039062 C 47.472656 54.597656 47.550781 55.136719 47.882812 55.6875 C 48.121094 56.089844 48.535156 56.222656 49.023438 56.0625 C 49.679688 55.84375 50.226562 55.410156 50.644531 54.769531 C 50.78125 54.566406 50.828125 54.453125 50.816406 54.371094 C 50.804688 54.296875 50.742188 54.199219 50.636719 54.074219 L 49.253906 54.800781 C 49.164062 54.847656 49.078125 54.839844 48.996094 54.777344 L 48.820312 54.644531 C 48.722656 54.570312 48.695312 54.472656 48.742188 54.359375 C 48.773438 54.292969 48.796875 54.21875 48.824219 54.140625 C 48.886719 53.949219 48.953125 53.75 49.09375 53.582031 C 49.65625 52.917969 50.425781 52.550781 51.3125 52.515625 C 51.734375 52.5 52.058594 52.609375 52.265625 52.835938 C 52.472656 53.0625 52.550781 53.386719 52.5 53.800781 C 52.308594 55.300781 51.527344 56.429688 50.175781 57.160156 C 48.726562 57.949219 47.042969 58.429688 45.183594 58.585938 C 44.386719 58.652344 43.578125 58.328125 43.167969 58.128906 C 42.664062 57.882812 42.320312 57.457031 42.207031 56.925781 C 42.085938 56.371094 42.234375 55.789062 42.617188 55.328125 C 43.074219 54.777344 44.035156 54.617188 44.632812 54.992188 C 45.164062 55.328125 45.03125 55.792969 44.828125 56.207031 C 44.785156 56.296875 44.710938 56.339844 44.609375 56.339844 C 44.542969 56.347656 44.480469 56.332031 44.421875 56.296875 L 44.367188 56.257812 C 44.226562 56.164062 43.996094 56.003906 43.898438 56.03125 C 43.871094 56.039062 43.839844 56.074219 43.808594 56.136719 C 43.789062 56.246094 43.980469 56.652344 44.199219 56.847656 C 44.398438 57.027344 44.628906 57.089844 44.890625 57.042969 C 45.199219 56.980469 45.421875 56.8125 45.5625 56.535156 C 45.726562 56.230469 45.835938 55.90625 45.890625 55.566406 C 45.984375 55.019531 45.917969 54.589844 45.6875 54.296875 C 45.457031 53.996094 45.046875 53.816406 44.46875 53.765625 C 44.324219 53.753906 44.183594 53.746094 44.046875 53.746094 Z M 44.601562 56.339844 Z M 44.601562 56.339844 Z M 44.601562 56.339844 " fill-opacity="1" fill-rule="nonzero"/></g><g clip-path="url(#22d897135b)"><path fill="#ffffff" d="M 58.027344 45.210938 C 57.984375 45.210938 57.941406 45.207031 57.898438 45.203125 C 57.421875 45.15625 57 44.859375 56.746094 44.386719 C 56.644531 44.207031 56.558594 44.023438 56.480469 43.835938 C 55.972656 42.566406 56.011719 41.40625 56.582031 40.570312 C 57.089844 39.832031 57.980469 39.402344 59.105469 39.351562 C 59.03125 39.222656 58.957031 39.09375 58.882812 38.964844 C 58.433594 38.164062 58.234375 37.304688 58.304688 36.484375 C 58.378906 35.65625 58.722656 34.867188 59.300781 34.191406 C 59.738281 33.683594 60.246094 33.480469 60.8125 33.59375 C 61.417969 33.714844 61.835938 34.125 62.015625 34.777344 C 62.109375 35.101562 62.1875 35.449219 62.148438 35.785156 C 62.121094 36.023438 62.097656 36.265625 62.074219 36.5 C 61.976562 37.449219 61.875 38.429688 61.660156 39.378906 C 61.191406 41.425781 60.351562 43.195312 59.160156 44.636719 C 58.855469 45.007812 58.449219 45.210938 58.027344 45.210938 Z M 59.351562 39.828125 C 58.269531 39.828125 57.433594 40.1875 56.984375 40.839844 C 56.503906 41.539062 56.484375 42.539062 56.929688 43.65625 C 57 43.828125 57.082031 43.996094 57.171875 44.15625 C 57.347656 44.484375 57.632812 44.691406 57.945312 44.722656 C 58.253906 44.753906 58.554688 44.613281 58.789062 44.332031 C 59.929688 42.949219 60.738281 41.246094 61.1875 39.269531 C 61.398438 38.351562 61.496094 37.386719 61.59375 36.449219 C 61.617188 36.214844 61.640625 35.972656 61.667969 35.734375 C 61.695312 35.476562 61.628906 35.1875 61.550781 34.90625 C 61.421875 34.433594 61.140625 34.152344 60.71875 34.070312 C 60.324219 33.992188 59.992188 34.128906 59.667969 34.507812 C 58.617188 35.730469 58.484375 37.269531 59.304688 38.726562 C 59.394531 38.882812 59.484375 39.042969 59.574219 39.195312 C 59.617188 39.265625 59.660156 39.335938 59.703125 39.40625 C 59.78125 39.542969 59.753906 39.648438 59.625 39.734375 C 59.605469 39.746094 59.59375 39.753906 59.582031 39.761719 C 59.53125 39.804688 59.46875 39.828125 59.398438 39.828125 C 59.382812 39.828125 59.367188 39.828125 59.351562 39.828125 Z M 59.40625 39.34375 Z M 59.40625 39.34375 " fill-opacity="1" fill-rule="nonzero"/></g><path fill="#ffffff" d="M 46.625 53.070312 C 46.5625 53.070312 46.511719 53.050781 46.464844 53.007812 L 42.304688 49.332031 C 42.222656 49.257812 42.199219 49.171875 42.238281 49.066406 C 42.277344 48.960938 42.351562 48.910156 42.464844 48.910156 C 43.785156 48.90625 44.753906 48.648438 45.429688 48.128906 C 46.160156 47.566406 46.554688 46.683594 46.628906 45.433594 C 46.636719 45.332031 46.683594 45.265625 46.773438 45.226562 C 46.863281 45.1875 46.945312 45.195312 47.023438 45.257812 L 52.496094 49.625 C 52.570312 49.6875 52.601562 49.765625 52.582031 49.863281 L 52.550781 50.015625 C 52.519531 50.160156 52.429688 50.222656 52.285156 50.207031 C 49.679688 49.890625 47.898438 50.78125 46.84375 52.933594 C 46.796875 53.023438 46.726562 53.070312 46.625 53.070312 Z M 43.078125 49.371094 L 46.554688 52.441406 C 47.132812 51.378906 47.910156 50.609375 48.867188 50.160156 C 49.6875 49.773438 50.667969 49.609375 51.78125 49.675781 L 47.070312 45.914062 C 46.921875 47.078125 46.476562 47.929688 45.726562 48.511719 C 45.074219 49.011719 44.207031 49.296875 43.078125 49.371094 Z M 43.078125 49.371094 " fill-opacity="1" fill-rule="nonzero"/><g clip-path="url(#7ddf127ccb)"><path fill="#ffffff" d="M 31.832031 45.183594 C 31.75 45.183594 31.683594 45.148438 31.636719 45.082031 C 31.601562 45.035156 31.570312 44.992188 31.542969 44.949219 C 31.480469 44.867188 31.429688 44.792969 31.378906 44.714844 L 29.085938 41.167969 C 26.359375 36.957031 23.542969 32.597656 20.773438 28.3125 C 20.476562 27.84375 20.167969 27.375 19.867188 26.917969 C 18.992188 25.578125 18.089844 24.195312 17.265625 22.792969 C 16.726562 21.867188 16.59375 20.78125 16.898438 19.734375 C 17.203125 18.664062 17.839844 17.851562 18.804688 17.292969 C 19.929688 16.636719 21.171875 16.421875 22.40625 16.667969 C 23.628906 16.914062 24.75 17.601562 25.652344 18.65625 C 29.128906 22.726562 32.667969 26.867188 36.089844 30.867188 C 37.765625 32.828125 39.441406 34.785156 41.113281 36.742188 C 41.726562 37.457031 42.347656 38.1875 42.945312 38.890625 C 43.226562 39.21875 43.507812 39.550781 43.789062 39.882812 C 43.847656 39.949219 43.863281 40.023438 43.835938 40.109375 C 43.8125 40.191406 43.757812 40.246094 43.671875 40.269531 C 43.496094 40.324219 43.320312 40.308594 43.15625 40.234375 C 40.464844 39.136719 37.914062 39.183594 35.570312 40.367188 C 33.582031 41.371094 32.40625 42.921875 32.070312 44.980469 C 32.050781 45.117188 31.96875 45.183594 31.832031 45.183594 Z M 21.421875 17.046875 C 20.621094 17.046875 19.808594 17.265625 19.046875 17.710938 C 18.195312 18.203125 17.632812 18.921875 17.359375 19.867188 C 17.097656 20.785156 17.210938 21.738281 17.683594 22.546875 C 18.5 23.941406 19.402344 25.320312 20.273438 26.652344 C 20.570312 27.109375 20.878906 27.582031 21.179688 28.046875 C 23.949219 32.335938 26.765625 36.691406 29.492188 40.90625 L 31.710938 44.335938 C 32.183594 42.398438 33.40625 40.917969 35.351562 39.9375 C 37.710938 38.742188 40.261719 38.640625 42.941406 39.632812 L 42.578125 39.203125 C 41.976562 38.5 41.359375 37.773438 40.746094 37.058594 C 39.074219 35.097656 37.398438 33.140625 35.722656 31.183594 C 32.300781 27.179688 28.761719 23.042969 25.28125 18.96875 C 24.207031 17.707031 22.824219 17.046875 21.421875 17.046875 Z M 21.421875 17.046875 " fill-opacity="1" fill-rule="nonzero"/></g><g clip-path="url(#847970b780)"><path fill="#ffffff" d="M 39.984375 58.710938 C 39.921875 58.710938 39.867188 58.691406 39.824219 58.652344 C 39.765625 58.597656 39.71875 58.558594 39.683594 58.527344 C 39.632812 58.484375 39.582031 58.441406 39.535156 58.390625 C 38.703125 57.476562 37.855469 56.550781 37.035156 55.652344 C 35.167969 53.613281 33.242188 51.507812 31.382812 49.40625 C 28.390625 46.019531 25.359375 42.570312 22.429688 39.230469 C 19.886719 36.335938 17.257812 33.339844 14.664062 30.398438 C 14.082031 29.742188 13.8125 29.011719 13.832031 28.171875 C 13.847656 27.542969 13.9375 26.925781 14.023438 26.40625 C 14.164062 25.546875 14.664062 24.863281 15.511719 24.375 C 15.953125 24.117188 16.214844 23.976562 16.484375 24.042969 C 16.765625 24.105469 16.9375 24.371094 17.199219 24.765625 L 20.117188 29.1875 C 24.089844 35.199219 28.195312 41.417969 32.238281 47.535156 C 33.644531 49.664062 36 50.402344 38.382812 49.464844 C 38.757812 49.316406 39.125 49.128906 39.507812 48.929688 C 39.691406 48.835938 39.878906 48.738281 40.074219 48.640625 C 40.175781 48.59375 40.265625 48.605469 40.347656 48.683594 L 44.351562 52.460938 C 44.441406 52.542969 44.457031 52.640625 44.398438 52.75 C 44.339844 52.859375 44.25 52.898438 44.128906 52.871094 C 43.03125 52.621094 41.929688 53.003906 41.109375 53.921875 C 40.050781 55.109375 39.691406 56.90625 40.210938 58.390625 C 40.238281 58.46875 40.230469 58.542969 40.179688 58.609375 C 40.132812 58.675781 40.066406 58.710938 39.984375 58.710938 Z M 16.355469 24.507812 C 16.242188 24.507812 15.972656 24.667969 15.753906 24.792969 C 15.027344 25.210938 14.617188 25.765625 14.5 26.484375 C 14.417969 26.988281 14.328125 27.582031 14.316406 28.183594 C 14.296875 28.90625 14.523438 29.507812 15.027344 30.078125 C 17.621094 33.019531 20.25 36.015625 22.792969 38.914062 C 25.722656 42.25 28.75 45.703125 31.746094 49.085938 C 33.601562 51.183594 35.527344 53.289062 37.390625 55.324219 C 38.097656 56.097656 38.824219 56.890625 39.539062 57.679688 C 39.453125 57.078125 39.476562 56.480469 39.605469 55.886719 C 39.789062 55.019531 40.1875 54.230469 40.746094 53.601562 C 41.503906 52.753906 42.472656 52.304688 43.488281 52.3125 L 40.136719 49.148438 C 40 49.21875 39.863281 49.289062 39.730469 49.359375 C 39.335938 49.5625 38.960938 49.757812 38.558594 49.914062 C 37.8125 50.210938 37.066406 50.351562 36.347656 50.351562 C 34.5625 50.351562 32.933594 49.464844 31.835938 47.800781 C 27.792969 41.6875 23.6875 35.46875 19.714844 29.453125 L 16.796875 25.03125 C 16.632812 24.785156 16.464844 24.535156 16.375 24.511719 C 16.367188 24.511719 16.359375 24.507812 16.355469 24.507812 Z M 16.355469 24.507812 " fill-opacity="1" fill-rule="nonzero"/></g><path fill="#ffffff" d="M 57.8125 38.207031 C 57.785156 38.207031 57.757812 38.199219 57.730469 38.191406 C 57.601562 38.144531 57.480469 38.105469 57.367188 38.0625 C 57.132812 37.980469 56.929688 37.910156 56.722656 37.835938 C 56.046875 37.585938 55.367188 37.332031 54.691406 37.078125 C 53.871094 36.773438 53.027344 36.457031 52.191406 36.148438 C 50.992188 35.707031 49.796875 35.261719 48.597656 34.820312 C 45.03125 33.5 41.339844 32.132812 37.71875 30.78125 C 37.332031 30.640625 36.996094 30.421875 36.761719 30.167969 C 36.015625 29.351562 35.28125 28.503906 34.566406 27.683594 C 34.347656 27.429688 34.125 27.175781 33.90625 26.925781 C 33.542969 26.507812 33.175781 26.085938 32.820312 25.671875 C 32.65625 25.484375 32.492188 25.292969 32.324219 25.101562 C 32.242188 25.003906 32.238281 24.902344 32.316406 24.800781 L 32.382812 24.707031 C 32.453125 24.617188 32.539062 24.589844 32.648438 24.625 L 59.140625 32.695312 C 59.234375 32.722656 59.289062 32.785156 59.308594 32.875 C 59.328125 32.96875 59.304688 33.046875 59.230469 33.109375 C 57.925781 34.265625 57.574219 35.703125 58.046875 37.914062 C 58.0625 37.988281 58.046875 38.054688 58 38.117188 C 57.953125 38.175781 57.886719 38.207031 57.8125 38.207031 Z M 33.109375 25.269531 L 33.183594 25.355469 C 33.539062 25.765625 33.90625 26.191406 34.269531 26.605469 C 34.492188 26.859375 34.710938 27.113281 34.933594 27.367188 C 35.644531 28.183594 36.378906 29.027344 37.121094 29.839844 C 37.296875 30.035156 37.578125 30.214844 37.886719 30.328125 C 41.507812 31.679688 45.199219 33.046875 48.765625 34.363281 C 49.964844 34.808594 51.160156 35.253906 52.359375 35.695312 C 53.195312 36.003906 54.042969 36.320312 54.859375 36.625 C 55.539062 36.878906 56.214844 37.128906 56.894531 37.382812 C 57.082031 37.453125 57.273438 37.519531 57.492188 37.597656 C 57.328125 36.660156 57.316406 35.882812 57.460938 35.183594 C 57.625 34.367188 58.003906 33.664062 58.605469 33.039062 Z M 33.109375 25.269531 " fill-opacity="1" fill-rule="nonzero"/><path fill="#ffffff" d="M 56.222656 45.367188 C 56.175781 45.367188 56.132812 45.359375 56.09375 45.339844 C 55.410156 45.015625 54.722656 44.6875 54.039062 44.363281 C 52.054688 43.417969 50.003906 42.441406 47.992188 41.46875 C 47.851562 41.402344 47.703125 41.335938 47.5625 41.269531 C 46.925781 40.980469 46.269531 40.683594 45.753906 40.085938 C 44.992188 39.210938 44.183594 38.34375 43.402344 37.511719 C 43.058594 37.144531 42.707031 36.769531 42.363281 36.398438 C 41.53125 35.492188 40.699219 34.589844 39.867188 33.6875 L 38.773438 32.5 C 38.6875 32.40625 38.679688 32.308594 38.75 32.203125 L 38.824219 32.09375 C 38.894531 31.988281 38.988281 31.957031 39.105469 32 L 57.617188 38.472656 C 57.730469 38.511719 57.785156 38.589844 57.78125 38.710938 C 57.777344 38.828125 57.714844 38.902344 57.601562 38.933594 C 56.183594 39.320312 55.796875 40.261719 55.636719 41.652344 C 55.492188 42.875 55.796875 43.996094 56.546875 44.976562 C 56.605469 45.054688 56.613281 45.140625 56.570312 45.230469 C 56.523438 45.320312 56.453125 45.363281 56.351562 45.363281 C 56.304688 45.363281 56.277344 45.367188 56.253906 45.367188 C 56.246094 45.367188 56.234375 45.367188 56.222656 45.367188 Z M 39.601562 32.6875 L 40.222656 33.359375 C 41.054688 34.261719 41.886719 35.164062 42.71875 36.070312 C 43.0625 36.441406 43.414062 36.816406 43.753906 37.179688 C 44.539062 38.019531 45.351562 38.886719 46.117188 39.769531 C 46.566406 40.289062 47.144531 40.550781 47.761719 40.828125 C 47.90625 40.894531 48.054688 40.964844 48.203125 41.035156 C 50.214844 42.007812 52.265625 42.984375 54.246094 43.925781 C 54.746094 44.164062 55.246094 44.402344 55.746094 44.640625 C 55.226562 43.714844 55.027344 42.695312 55.15625 41.597656 C 55.222656 41 55.34375 40.308594 55.691406 39.730469 C 55.960938 39.285156 56.335938 38.945312 56.824219 38.707031 Z M 39.601562 32.6875 " fill-opacity="1" fill-rule="nonzero"/><path fill="#ffffff" d="M 36.378906 49.03125 C 36.328125 49.03125 36.277344 49.03125 36.230469 49.027344 C 34.402344 48.933594 33.105469 47.871094 32.839844 46.257812 C 32.675781 45.246094 32.835938 44.253906 33.300781 43.390625 C 33.765625 42.527344 34.523438 41.808594 35.496094 41.320312 C 37.136719 40.492188 38.953125 40.144531 41.054688 40.257812 C 43.367188 40.378906 44.972656 41.550781 45.824219 43.734375 C 46.136719 44.542969 46.160156 45.410156 45.886719 46.175781 C 45.613281 46.941406 45.046875 47.585938 44.300781 47.984375 C 43.066406 48.640625 41.929688 48.21875 40.832031 47.8125 L 40.792969 47.796875 C 40.164062 47.5625 39.949219 47.167969 40.097656 46.511719 C 40.375 45.285156 40 44.277344 38.992188 43.519531 C 38.9375 43.480469 38.882812 43.449219 38.824219 43.417969 C 38.789062 43.398438 38.757812 43.382812 38.722656 43.363281 C 38.65625 43.320312 38.617188 43.261719 38.605469 43.183594 C 38.597656 43.105469 38.621094 43.039062 38.675781 42.984375 C 39.089844 42.5625 39.65625 42.351562 40.265625 42.394531 C 40.984375 42.441406 42.09375 42.847656 43.316406 44.503906 C 43.375 44.582031 43.382812 44.667969 43.335938 44.753906 C 43.292969 44.84375 43.21875 44.886719 43.121094 44.886719 C 43.089844 44.886719 43.0625 44.890625 43.035156 44.890625 C 42.96875 44.898438 42.898438 44.894531 42.835938 44.875 C 42.160156 44.6875 41.996094 45.007812 41.945312 45.113281 C 41.875 45.25 41.898438 45.558594 41.996094 45.757812 C 42.046875 45.867188 42.210938 46.207031 42.890625 46.109375 C 43.335938 46.046875 43.6875 45.816406 43.886719 45.46875 C 44.085938 45.113281 44.097656 44.683594 43.921875 44.261719 C 43.625 43.558594 43.132812 43.007812 42.457031 42.621094 C 41.414062 42.027344 40.210938 41.855469 38.777344 42.105469 C 37.273438 42.363281 36.242188 42.816406 35.425781 43.570312 C 34.921875 44.03125 34.691406 44.65625 34.789062 45.277344 C 34.886719 45.886719 35.28125 46.390625 35.875 46.660156 C 36.292969 46.851562 37.023438 46.695312 37.300781 46.355469 C 37.433594 46.191406 37.519531 45.996094 37.234375 45.667969 C 37.085938 45.5 36.992188 45.496094 36.8125 45.644531 C 36.511719 45.890625 35.992188 45.863281 35.839844 45.847656 C 35.660156 45.828125 35.226562 45.757812 35.011719 45.5 C 34.703125 45.121094 34.953125 44.351562 35.367188 43.964844 C 36.179688 43.199219 37.253906 43.089844 38.234375 43.664062 C 38.769531 43.976562 39.210938 44.433594 39.480469 44.949219 C 39.753906 45.476562 39.832031 46.042969 39.703125 46.546875 C 39.351562 47.925781 37.851562 49.03125 36.378906 49.03125 Z M 40.300781 40.71875 C 38.589844 40.71875 37.085938 41.058594 35.710938 41.753906 C 33.90625 42.664062 33.011719 44.316406 33.316406 46.179688 C 33.546875 47.578125 34.644531 48.460938 36.253906 48.546875 C 37.535156 48.613281 38.929688 47.621094 39.234375 46.425781 C 39.445312 45.613281 38.921875 44.625 37.992188 44.082031 C 37.203125 43.621094 36.347656 43.707031 35.695312 44.316406 C 35.398438 44.597656 35.304688 45.089844 35.386719 45.195312 C 35.441406 45.257812 35.628906 45.339844 35.886719 45.367188 C 36.179688 45.394531 36.421875 45.339844 36.503906 45.269531 C 36.890625 44.953125 37.277344 44.984375 37.597656 45.351562 C 38.085938 45.910156 37.910156 46.371094 37.675781 46.660156 C 37.261719 47.167969 36.289062 47.382812 35.675781 47.101562 C 34.929688 46.761719 34.433594 46.125 34.3125 45.355469 C 34.1875 44.570312 34.472656 43.789062 35.097656 43.214844 C 35.972656 42.402344 37.117188 41.898438 38.695312 41.628906 C 40.242188 41.359375 41.550781 41.546875 42.699219 42.203125 C 43.46875 42.640625 44.027344 43.269531 44.367188 44.074219 C 44.601562 44.628906 44.578125 45.222656 44.304688 45.707031 C 44.035156 46.183594 43.546875 46.503906 42.960938 46.585938 C 42.292969 46.683594 41.796875 46.460938 41.558594 45.964844 C 41.417969 45.667969 41.355469 45.207031 41.511719 44.898438 C 41.636719 44.648438 41.929688 44.289062 42.566406 44.339844 C 41.800781 43.441406 40.984375 42.929688 40.234375 42.875 C 39.871094 42.851562 39.542969 42.933594 39.265625 43.121094 C 39.269531 43.125 39.277344 43.128906 39.28125 43.132812 C 40.441406 44.003906 40.886719 45.207031 40.566406 46.617188 C 40.472656 47.035156 40.5625 47.195312 40.960938 47.34375 L 41 47.359375 C 42.042969 47.746094 43.03125 48.109375 44.074219 47.554688 C 45.398438 46.851562 45.933594 45.351562 45.371094 43.910156 C 44.585938 41.890625 43.164062 40.855469 41.027344 40.738281 C 40.78125 40.726562 40.539062 40.71875 40.300781 40.71875 Z M 40.300781 40.71875 " fill-opacity="1" fill-rule="nonzero"/><g clip-path="url(#cda6eaaf17)"><path fill="#ffffff" d="M 44.371094 60.324219 C 43.96875 60.324219 43.554688 60.308594 43.136719 60.28125 C 42.496094 60.234375 41.84375 59.785156 41.441406 59.378906 C 40.972656 58.902344 40.679688 58.179688 40.613281 57.34375 C 40.546875 56.550781 40.703125 55.726562 41.035156 55.085938 C 41.742188 53.730469 42.878906 53.140625 44.511719 53.285156 C 45.226562 53.347656 45.753906 53.585938 46.070312 54 C 46.382812 54.40625 46.484375 54.960938 46.367188 55.648438 C 46.300781 56.039062 46.175781 56.410156 45.992188 56.761719 C 45.777344 57.179688 45.4375 57.429688 44.976562 57.519531 C 44.5625 57.59375 44.195312 57.492188 43.878906 57.210938 C 43.605469 56.96875 43.1875 56.316406 43.371094 55.933594 C 43.464844 55.734375 43.597656 55.609375 43.769531 55.5625 C 44.023438 55.496094 44.273438 55.621094 44.492188 55.761719 C 44.570312 55.523438 44.492188 55.476562 44.375 55.402344 C 43.980469 55.152344 43.292969 55.269531 42.988281 55.636719 C 42.703125 55.980469 42.589844 56.414062 42.679688 56.824219 C 42.761719 57.207031 43.011719 57.515625 43.378906 57.695312 C 44 57.996094 44.644531 58.144531 45.140625 58.101562 C 46.9375 57.953125 48.554688 57.492188 49.945312 56.738281 C 51.152344 56.085938 51.847656 55.074219 52.019531 53.738281 C 52.050781 53.472656 52.015625 53.277344 51.910156 53.164062 C 51.800781 53.042969 51.605469 52.988281 51.328125 53 C 50.570312 53.027344 49.941406 53.328125 49.464844 53.894531 C 49.394531 53.976562 49.347656 54.097656 49.304688 54.226562 L 50.582031 53.558594 C 50.695312 53.5 50.792969 53.515625 50.875 53.609375 C 51.363281 54.15625 51.453125 54.425781 51.050781 55.035156 C 50.570312 55.765625 49.9375 56.265625 49.175781 56.519531 C 48.476562 56.753906 47.820312 56.53125 47.46875 55.9375 C 47.066406 55.269531 46.972656 54.585938 47.179688 53.898438 C 47.714844 52.160156 49.230469 51.03125 51.457031 50.730469 C 52.871094 50.535156 53.855469 51.300781 54.09375 52.769531 C 54.253906 53.769531 54.179688 54.695312 53.871094 55.523438 C 53.558594 56.359375 53.007812 57.097656 52.230469 57.722656 C 50.949219 58.753906 49.511719 59.476562 47.921875 59.890625 C 46.824219 60.179688 45.636719 60.324219 44.371094 60.324219 Z M 44.046875 53.746094 C 42.84375 53.746094 42.019531 54.25 41.464844 55.3125 C 41.171875 55.875 41.035156 56.601562 41.09375 57.308594 C 41.152344 58.03125 41.398438 58.644531 41.789062 59.039062 C 42.136719 59.390625 42.699219 59.761719 43.167969 59.796875 C 46.691406 60.046875 49.554688 59.246094 51.929688 57.34375 C 53.347656 56.207031 53.914062 54.695312 53.617188 52.847656 C 53.421875 51.632812 52.675781 51.050781 51.519531 51.207031 C 49.496094 51.484375 48.117188 52.492188 47.644531 54.039062 C 47.472656 54.597656 47.550781 55.136719 47.882812 55.6875 C 48.121094 56.089844 48.535156 56.222656 49.023438 56.0625 C 49.679688 55.84375 50.226562 55.410156 50.644531 54.769531 C 50.78125 54.566406 50.828125 54.453125 50.816406 54.371094 C 50.804688 54.296875 50.742188 54.199219 50.636719 54.074219 L 49.253906 54.800781 C 49.164062 54.847656 49.078125 54.839844 48.996094 54.777344 L 48.820312 54.644531 C 48.722656 54.570312 48.695312 54.472656 48.742188 54.359375 C 48.773438 54.292969 48.796875 54.21875 48.824219 54.140625 C 48.886719 53.949219 48.953125 53.75 49.09375 53.582031 C 49.65625 52.917969 50.425781 52.550781 51.3125 52.515625 C 51.734375 52.5 52.058594 52.609375 52.265625 52.835938 C 52.472656 53.0625 52.550781 53.386719 52.5 53.800781 C 52.308594 55.300781 51.527344 56.429688 50.175781 57.160156 C 48.726562 57.949219 47.042969 58.429688 45.183594 58.585938 C 44.386719 58.652344 43.578125 58.328125 43.167969 58.128906 C 42.664062 57.882812 42.320312 57.457031 42.207031 56.925781 C 42.085938 56.371094 42.234375 55.789062 42.617188 55.328125 C 43.074219 54.777344 44.035156 54.617188 44.632812 54.992188 C 45.164062 55.328125 45.03125 55.792969 44.828125 56.207031 C 44.785156 56.296875 44.710938 56.339844 44.609375 56.339844 C 44.542969 56.347656 44.480469 56.332031 44.421875 56.296875 L 44.367188 56.257812 C 44.226562 56.164062 43.996094 56.003906 43.898438 56.03125 C 43.871094 56.039062 43.839844 56.074219 43.808594 56.136719 C 43.789062 56.246094 43.980469 56.652344 44.199219 56.847656 C 44.398438 57.027344 44.628906 57.089844 44.890625 57.042969 C 45.199219 56.980469 45.421875 56.8125 45.5625 56.535156 C 45.726562 56.230469 45.835938 55.90625 45.890625 55.566406 C 45.984375 55.019531 45.917969 54.589844 45.6875 54.296875 C 45.457031 53.996094 45.046875 53.816406 44.46875 53.765625 C 44.324219 53.753906 44.183594 53.746094 44.046875 53.746094 Z M 44.601562 56.339844 Z M 44.601562 56.339844 Z M 44.601562 56.339844 " fill-opacity="1" fill-rule="nonzero"/></g><g clip-path="url(#07c66843e3)"><path fill="#ffffff" d="M 58.027344 45.210938 C 57.984375 45.210938 57.941406 45.207031 57.898438 45.203125 C 57.421875 45.15625 57 44.859375 56.746094 44.386719 C 56.644531 44.207031 56.558594 44.023438 56.480469 43.835938 C 55.972656 42.566406 56.011719 41.40625 56.582031 40.570312 C 57.089844 39.832031 57.980469 39.402344 59.105469 39.351562 C 59.03125 39.222656 58.957031 39.09375 58.882812 38.964844 C 58.433594 38.164062 58.234375 37.304688 58.304688 36.484375 C 58.378906 35.65625 58.722656 34.867188 59.300781 34.191406 C 59.738281 33.683594 60.246094 33.480469 60.8125 33.59375 C 61.417969 33.714844 61.835938 34.125 62.015625 34.777344 C 62.109375 35.101562 62.1875 35.449219 62.148438 35.785156 C 62.121094 36.023438 62.097656 36.265625 62.074219 36.5 C 61.976562 37.449219 61.875 38.429688 61.660156 39.378906 C 61.191406 41.425781 60.351562 43.195312 59.160156 44.636719 C 58.855469 45.007812 58.449219 45.210938 58.027344 45.210938 Z M 59.351562 39.828125 C 58.269531 39.828125 57.433594 40.1875 56.984375 40.839844 C 56.503906 41.539062 56.484375 42.539062 56.929688 43.65625 C 57 43.828125 57.082031 43.996094 57.171875 44.15625 C 57.347656 44.484375 57.632812 44.691406 57.945312 44.722656 C 58.253906 44.753906 58.554688 44.613281 58.789062 44.332031 C 59.929688 42.949219 60.738281 41.246094 61.1875 39.269531 C 61.398438 38.351562 61.496094 37.386719 61.59375 36.449219 C 61.617188 36.214844 61.640625 35.972656 61.667969 35.734375 C 61.695312 35.476562 61.628906 35.1875 61.550781 34.90625 C 61.421875 34.433594 61.140625 34.152344 60.71875 34.070312 C 60.324219 33.992188 59.992188 34.128906 59.667969 34.507812 C 58.617188 35.730469 58.484375 37.269531 59.304688 38.726562 C 59.394531 38.882812 59.484375 39.042969 59.574219 39.195312 C 59.617188 39.265625 59.660156 39.335938 59.703125 39.40625 C 59.78125 39.542969 59.753906 39.648438 59.625 39.734375 C 59.605469 39.746094 59.59375 39.753906 59.582031 39.761719 C 59.53125 39.804688 59.46875 39.828125 59.398438 39.828125 C 59.382812 39.828125 59.367188 39.828125 59.351562 39.828125 Z M 59.40625 39.34375 Z M 59.40625 39.34375 " fill-opacity="1" fill-rule="nonzero"/></g><path fill="#ffffff" d="M 46.625 53.070312 C 46.5625 53.070312 46.511719 53.050781 46.464844 53.007812 L 42.304688 49.332031 C 42.222656 49.257812 42.199219 49.171875 42.238281 49.066406 C 42.277344 48.960938 42.351562 48.910156 42.464844 48.910156 C 43.785156 48.90625 44.753906 48.648438 45.429688 48.128906 C 46.160156 47.566406 46.554688 46.683594 46.628906 45.433594 C 46.636719 45.332031 46.683594 45.265625 46.773438 45.226562 C 46.863281 45.1875 46.945312 45.195312 47.023438 45.257812 L 52.496094 49.625 C 52.570312 49.6875 52.601562 49.765625 52.582031 49.863281 L 52.550781 50.015625 C 52.519531 50.160156 52.429688 50.222656 52.285156 50.207031 C 49.679688 49.890625 47.898438 50.78125 46.84375 52.933594 C 46.796875 53.023438 46.726562 53.070312 46.625 53.070312 Z M 43.078125 49.371094 L 46.554688 52.441406 C 47.132812 51.378906 47.910156 50.609375 48.867188 50.160156 C 49.6875 49.773438 50.667969 49.609375 51.78125 49.675781 L 47.070312 45.914062 C 46.921875 47.078125 46.476562 47.929688 45.726562 48.511719 C 45.074219 49.011719 44.207031 49.296875 43.078125 49.371094 Z M 43.078125 49.371094 " fill-opacity="1" fill-rule="nonzero"/><g transform="matrix(1, 0, 0, 1, 15, 81)"><g clip-path="url(#e1cd5407fc)"><g fill="#c41123" fill-opacity="1"><g transform="translate(1.137673, 14.304875)"><g><path d="M 9.34375 -6.59375 L 7.671875 -6.1875 C 7.546875 -6.800781 7.316406 -7.25 6.984375 -7.53125 C 6.660156 -7.8125 6.210938 -7.953125 5.640625 -7.953125 C 4.671875 -7.953125 3.863281 -7.550781 3.21875 -6.75 C 2.582031 -5.957031 2.265625 -5.050781 2.265625 -4.03125 C 2.265625 -3.226562 2.453125 -2.609375 2.828125 -2.171875 C 3.210938 -1.734375 3.734375 -1.515625 4.390625 -1.515625 C 4.941406 -1.515625 5.414062 -1.65625 5.8125 -1.9375 C 6.21875 -2.226562 6.59375 -2.703125 6.9375 -3.359375 L 8.5 -2.875 C 8.0625 -1.84375 7.484375 -1.085938 6.765625 -0.609375 C 6.054688 -0.128906 5.160156 0.109375 4.078125 0.109375 C 3.054688 0.109375 2.195312 -0.253906 1.5 -0.984375 C 0.8125 -1.703125 0.46875 -2.671875 0.46875 -3.890625 C 0.46875 -5.441406 0.984375 -6.78125 2.015625 -7.90625 C 3.054688 -9.019531 4.367188 -9.578125 5.953125 -9.578125 C 6.941406 -9.578125 7.734375 -9.296875 8.328125 -8.734375 C 8.910156 -8.179688 9.25 -7.46875 9.34375 -6.59375 Z M 9.34375 -6.59375 "/></g></g></g><g fill="#c41123" fill-opacity="1"><g transform="translate(10.519747, 14.304875)"><g><path d="M 4.1875 -6.921875 C 4.519531 -6.921875 4.820312 -6.851562 5.09375 -6.71875 C 5.363281 -6.59375 5.566406 -6.429688 5.703125 -6.234375 L 5.8125 -6.8125 L 7.515625 -6.8125 L 6.203125 0 L 4.5 0 L 4.640625 -0.703125 C 4.484375 -0.492188 4.234375 -0.304688 3.890625 -0.140625 C 3.546875 0.0234375 3.191406 0.109375 2.828125 0.109375 C 2.015625 0.109375 1.390625 -0.144531 0.953125 -0.65625 C 0.515625 -1.195312 0.296875 -1.863281 0.296875 -2.65625 C 0.296875 -3.9375 0.640625 -4.960938 1.328125 -5.734375 C 2.015625 -6.523438 2.96875 -6.921875 4.1875 -6.921875 Z M 2.09375 -2.96875 C 2.09375 -2.457031 2.207031 -2.054688 2.4375 -1.765625 C 2.664062 -1.472656 2.96875 -1.328125 3.34375 -1.328125 C 3.976562 -1.328125 4.476562 -1.585938 4.84375 -2.109375 C 5.207031 -2.628906 5.390625 -3.253906 5.390625 -3.984375 C 5.390625 -4.460938 5.273438 -4.832031 5.046875 -5.09375 C 4.828125 -5.363281 4.523438 -5.5 4.140625 -5.5 C 3.503906 -5.5 3.003906 -5.234375 2.640625 -4.703125 C 2.273438 -4.171875 2.09375 -3.59375 2.09375 -2.96875 Z M 2.09375 -2.96875 "/></g></g></g><g fill="#c41123" fill-opacity="1"><g transform="translate(18.671607, 14.304875)"><g><path d="M 0.25 0 L 1.5625 -6.8125 L 3.265625 -6.8125 L 3.046875 -5.71875 C 3.679688 -6.519531 4.441406 -6.921875 5.328125 -6.921875 C 5.867188 -6.921875 6.285156 -6.785156 6.578125 -6.515625 C 6.878906 -6.253906 7.03125 -5.882812 7.03125 -5.40625 C 7.03125 -5.195312 7.015625 -5.019531 6.984375 -4.875 L 6.03125 0 L 4.34375 0 L 5.203125 -4.375 C 5.222656 -4.519531 5.234375 -4.648438 5.234375 -4.765625 C 5.234375 -4.992188 5.164062 -5.171875 5.03125 -5.296875 C 4.90625 -5.429688 4.726562 -5.5 4.5 -5.5 C 4.0625 -5.5 3.648438 -5.242188 3.265625 -4.734375 C 2.890625 -4.234375 2.625 -3.5625 2.46875 -2.71875 L 1.9375 0 Z M 0.25 0 "/></g></g></g><g fill="#c41123" fill-opacity="1"><g transform="translate(26.580128, 14.304875)"><g><path d="M 7 -3.5625 L 6.859375 -2.875 L 1.96875 -2.875 L 1.96875 -2.65625 C 1.96875 -2.269531 2.09375 -1.953125 2.34375 -1.703125 C 2.59375 -1.453125 2.925781 -1.328125 3.34375 -1.328125 C 4.050781 -1.328125 4.671875 -1.710938 5.203125 -2.484375 L 6.546875 -1.796875 C 6.109375 -1.128906 5.625 -0.644531 5.09375 -0.34375 C 4.5625 -0.0390625 3.925781 0.109375 3.1875 0.109375 C 2.34375 0.109375 1.640625 -0.160156 1.078125 -0.703125 C 0.535156 -1.242188 0.265625 -1.976562 0.265625 -2.90625 C 0.265625 -3.988281 0.640625 -4.929688 1.390625 -5.734375 C 2.128906 -6.523438 3.101562 -6.921875 4.3125 -6.921875 C 5.1875 -6.921875 5.859375 -6.664062 6.328125 -6.15625 C 6.804688 -5.632812 7.046875 -4.976562 7.046875 -4.1875 C 7.046875 -3.914062 7.03125 -3.707031 7 -3.5625 Z M 4.09375 -5.5 C 3.695312 -5.5 3.335938 -5.375 3.015625 -5.125 C 2.691406 -4.882812 2.445312 -4.570312 2.28125 -4.1875 L 5.40625 -4.1875 C 5.34375 -5.0625 4.90625 -5.5 4.09375 -5.5 Z M 4.09375 -5.5 "/></g></g></g><g fill="#c41123" fill-opacity="1"><g transform="translate(34.245311, 14.304875)"><g><path d="M 0.34375 0 L 2.1875 -9.578125 L 3.890625 -9.578125 L 2.03125 0 Z M 0.34375 0 "/></g></g></g><g fill="#c41123" fill-opacity="1"><g transform="translate(38.490231, 14.304875)"><g><path d="M 4.1875 -6.921875 C 4.519531 -6.921875 4.820312 -6.851562 5.09375 -6.71875 C 5.363281 -6.59375 5.566406 -6.429688 5.703125 -6.234375 L 5.8125 -6.8125 L 7.515625 -6.8125 L 6.203125 0 L 4.5 0 L 4.640625 -0.703125 C 4.484375 -0.492188 4.234375 -0.304688 3.890625 -0.140625 C 3.546875 0.0234375 3.191406 0.109375 2.828125 0.109375 C 2.015625 0.109375 1.390625 -0.144531 0.953125 -0.65625 C 0.515625 -1.195312 0.296875 -1.863281 0.296875 -2.65625 C 0.296875 -3.9375 0.640625 -4.960938 1.328125 -5.734375 C 2.015625 -6.523438 2.96875 -6.921875 4.1875 -6.921875 Z M 2.09375 -2.96875 C 2.09375 -2.457031 2.207031 -2.054688 2.4375 -1.765625 C 2.664062 -1.472656 2.96875 -1.328125 3.34375 -1.328125 C 3.976562 -1.328125 4.476562 -1.585938 4.84375 -2.109375 C 5.207031 -2.628906 5.390625 -3.253906 5.390625 -3.984375 C 5.390625 -4.460938 5.273438 -4.832031 5.046875 -5.09375 C 4.828125 -5.363281 4.523438 -5.5 4.140625 -5.5 C 3.503906 -5.5 3.003906 -5.234375 2.640625 -4.703125 C 2.273438 -4.171875 2.09375 -3.59375 2.09375 -2.96875 Z M 2.09375 -2.96875 "/></g></g></g></g></g></svg>