<svg xmlns="http://www.w3.org/2000/svg" xmlns:xlink="http://www.w3.org/1999/xlink" width="40" zoomAndPan="magnify" viewBox="0 0 30 30.000001" height="40" preserveAspectRatio="xMidYMid meet" version="1.0"><defs><clipPath id="7edb0eeec3"><path d="M 0.484375 0 L 29.515625 0 L 29.515625 29.03125 L 0.484375 29.03125 Z M 0.484375 0 " clip-rule="nonzero"/></clipPath><clipPath id="3626ff5b3e"><path d="M 22.851562 8.398438 C 24.285156 8.398438 25.417969 7.253906 25.410156 5.816406 C 25.402344 4.5625 24.132812 3.277344 22.910156 3.277344 C 21.65625 3.265625 20.335938 4.648438 20.335938 5.953125 C 20.335938 7.277344 21.496094 8.398438 22.851562 8.398438 M 0.484375 5.265625 C 1.617188 5.265625 2.632812 5.234375 3.640625 5.289062 C 3.832031 5.296875 4.085938 5.601562 4.167969 5.816406 C 5.269531 8.914062 6.339844 12.023438 7.417969 15.132812 C 8.304688 17.679688 9.191406 20.238281 10.078125 22.785156 C 10.125 22.921875 10.214844 23.046875 10.359375 23.328125 C 10.949219 21.953125 11.492188 20.707031 12.019531 19.445312 C 13.480469 15.96875 14.929688 12.480469 16.429688 9.019531 C 16.582031 8.660156 17.046875 8.445312 17.445312 8.09375 C 16.613281 4.417969 17.851562 1.582031 20.929688 0.40625 C 23.75 -0.664062 26.65625 0.398438 28.085938 3.109375 C 28.902344 4.640625 29.035156 6.253906 28.398438 7.910156 C 27.773438 9.515625 26.59375 10.578125 25.210938 11.234375 C 26.191406 12.671875 27.207031 14.027344 28.085938 15.476562 C 30.011719 18.671875 29.914062 22.578125 27.824219 25.277344 C 26.058594 27.5625 23.546875 28.488281 20.785156 28.847656 C 20.023438 28.945312 19.265625 28.976562 18.425781 29.039062 L 18.425781 25.957031 C 19.003906 25.894531 19.609375 25.835938 20.199219 25.757812 C 22.269531 25.460938 24.15625 24.78125 25.25 22.863281 C 26.417969 20.828125 25.976562 18.773438 25.035156 16.785156 C 24.117188 14.859375 22.71875 13.316406 21.097656 11.960938 C 20.320312 11.3125 19.171875 11.558594 18.777344 12.472656 C 16.605469 17.503906 14.433594 22.539062 12.292969 27.585938 C 12.058594 28.128906 11.773438 28.34375 11.214844 28.265625 C 11.011719 28.234375 10.804688 28.257812 10.597656 28.257812 C 8.640625 28.257812 8.671875 28.25 8.007812 26.386719 C 5.789062 20.148438 3.550781 13.910156 1.324219 7.667969 C 1.050781 6.910156 0.789062 6.144531 0.484375 5.265625 " clip-rule="nonzero"/></clipPath><clipPath id="45554378f0"><path d="M 0.484375 0 L 29.515625 0 L 29.515625 29.03125 L 0.484375 29.03125 Z M 0.484375 0 " clip-rule="nonzero"/></clipPath><clipPath id="3ac9bd343a"><path d="M 22.851562 8.398438 C 24.285156 8.398438 25.417969 7.253906 25.410156 5.816406 C 25.402344 4.5625 24.132812 3.277344 22.910156 3.277344 C 21.65625 3.265625 20.335938 4.648438 20.335938 5.953125 C 20.335938 7.277344 21.496094 8.398438 22.851562 8.398438 M 0.484375 5.265625 C 1.617188 5.265625 2.632812 5.234375 3.640625 5.289062 C 3.832031 5.296875 4.085938 5.601562 4.167969 5.816406 C 5.269531 8.914062 6.339844 12.023438 7.417969 15.132812 C 8.304688 17.679688 9.191406 20.238281 10.078125 22.785156 C 10.125 22.921875 10.214844 23.046875 10.359375 23.328125 C 10.949219 21.953125 11.492188 20.707031 12.019531 19.445312 C 13.480469 15.96875 14.929688 12.480469 16.429688 9.019531 C 16.582031 8.660156 17.046875 8.445312 17.445312 8.09375 C 16.613281 4.417969 17.851562 1.582031 20.929688 0.40625 C 23.75 -0.664062 26.65625 0.398438 28.085938 3.109375 C 28.902344 4.640625 29.035156 6.253906 28.398438 7.910156 C 27.773438 9.515625 26.59375 10.578125 25.210938 11.234375 C 26.191406 12.671875 27.207031 14.027344 28.085938 15.476562 C 30.011719 18.671875 29.914062 22.578125 27.824219 25.277344 C 26.058594 27.5625 23.546875 28.488281 20.785156 28.847656 C 20.023438 28.945312 19.265625 28.976562 18.425781 29.039062 L 18.425781 25.957031 C 19.003906 25.894531 19.609375 25.835938 20.199219 25.757812 C 22.269531 25.460938 24.15625 24.78125 25.25 22.863281 C 26.417969 20.828125 25.976562 18.773438 25.035156 16.785156 C 24.117188 14.859375 22.71875 13.316406 21.097656 11.960938 C 20.320312 11.3125 19.171875 11.558594 18.777344 12.472656 C 16.605469 17.503906 14.433594 22.539062 12.292969 27.585938 C 12.058594 28.128906 11.773438 28.34375 11.214844 28.265625 C 11.011719 28.234375 10.804688 28.257812 10.597656 28.257812 C 8.640625 28.257812 8.671875 28.25 8.007812 26.386719 C 5.789062 20.148438 3.550781 13.910156 1.324219 7.667969 C 1.050781 6.910156 0.789062 6.144531 0.484375 5.265625 " clip-rule="nonzero"/></clipPath><clipPath id="89150eba5e"><rect x="0" width="30" y="0" height="30"/></clipPath></defs><g clip-path="url(#7edb0eeec3)"><g clip-path="url(#3626ff5b3e)"><g transform="matrix(1, 0, 0, 1, 0, 0.000000000000005692)"><g clip-path="url(#89150eba5e)"><g clip-path="url(#45554378f0)"><g clip-path="url(#3ac9bd343a)"><path fill="#b71419" d="M 0.484375 0 L 29.457031 0 L 29.457031 29.085938 L 0.484375 29.085938 Z M 0.484375 0 " fill-opacity="1" fill-rule="nonzero"/></g></g></g></g></g></g></svg>