<?xml version="1.0" encoding="UTF-8"?>
<svg id="Camada_1" data-name="Camada 1" xmlns="http://www.w3.org/2000/svg" viewBox="0 0 1080 1080">
  <defs>
    <style>
      .cls-1 {
        fill: #fff;
      }
    </style>
  </defs>
  <path class="cls-1" d="M488.61,423.53c26.28-5.53,52.01-5.57,78.16,0,3.04-9.67,5.76-19.22,9.02-28.57,31.44-90.15,85.34-164.02,161.16-221.91,14.76-11.27,32.35-4.31,35.4,13.91,19.57,116.96-2.18,225.95-63.18,327.35-4.92,8.18-9.86,16.36-14.99,24.41-11.88,18.63-11.49,37.1.03,55.76,13.61,22.05,27.08,44.19,40.45,66.39,21.65,35.97,17.57,78.38-11.21,108.91-16.39,17.38-37.11,27.56-61.09,27.69-89.01.48-178.03.88-267.04,0-67.9-.67-109.5-72.85-76.76-132.25,13.37-24.27,28.35-47.66,42.95-71.24,11.5-18.57,11.27-36.71-.19-55.11-19.84-31.85-38.72-64.17-52.54-99.26-25.06-63.6-35.55-129.55-31.94-197.67.98-18.57,3.98-37.05,6.5-55.51,2.28-16.74,19.59-24.46,33.37-14.54,11.24,8.09,21.98,16.99,32.27,26.27,66.49,59.92,112.2,133.01,137.57,218.84.57,1.94,1.21,3.86,2.05,6.54ZM322.41,229.02c-.77.55-1.54,1.09-2.32,1.64-8.58,103.9,18.08,198.28,76.76,284.08,32.7-20.5,65.63-10.05,82.9,9.15,20.55,22.84,22.37,55.17,4.58,79.79-8.4,11.63-19.7,19.2-33.53,23.3-19.37,5.73-37.18,2.12-54.47-9.05-14.54,24.3-30.26,47.31-42.57,72.02-14.94,29.99,9.06,65.46,42.6,65.48,86.53.05,173.05,0,259.58.03,19.01,0,34.32-7.23,43.75-23.99,9.54-16.94,8.03-33.95-2.15-50.41-9.93-16.05-19.66-32.22-29.49-48.33-2.92-4.79-5.89-9.54-8.78-14.23-36.25,17.37-65,13.33-85.66-11.62-17.93-21.65-19.39-54.13-3.48-76.14,8.82-12.2,20.13-20.88,34.82-24.82,19.29-5.17,37.22-1.7,53.73,9.1,58.26-86.56,85.5-180.72,76.68-285.59-1.57,1.16-2.31,1.61-2.93,2.18-28.1,25.58-52.56,54.3-72.91,86.38-26.13,41.19-45.32,85.4-55.5,133.25-3.38,15.91-18.01,22.36-30.66,17.97-30.11-10.44-60.67-9.8-91.14-.43-4.19,1.29-9.03,2.13-13.23,1.37-10.82-1.96-15.29-10.05-17.66-20.1-14.73-62.45-41.58-119.16-82.12-168.96-14.71-18.08-31.16-34.75-46.81-52.06ZM412.82,566.6c.08,11.61,9.39,20.93,20.76,20.76,11.18-.17,20.72-10.03,20.51-21.2-.21-11.28-9.22-20.06-20.61-20.1-11.92-.04-20.74,8.74-20.66,20.55ZM622.56,546.05c-11.84-.12-21.01,8.71-21.04,20.27-.03,11.41,9.4,21.03,20.62,21.04,11.08,0,20.45-9.19,20.63-20.25.19-11.85-8.53-20.94-20.21-21.05Z"/>
  <path class="cls-1" d="M428.09,199.89c-.4-48.65,51.09-80.74,94.5-58.7,4.01,2.04,6.61,1.67,10.49-.18,23.84-11.36,47.16-9.36,68.1,6.28,21.01,15.69,29.25,37.72,25.43,63.72-4.64,31.58-22.75,55.66-45.38,76.37-13,11.9-27.78,21.89-42.07,32.32-6.56,4.78-14.35,5.09-21.27.91-31.79-19.18-59.15-43.02-77.59-75.88-8.06-14.37-12.09-29.8-12.22-44.84ZM470.36,199.91c-.56.21-1.12.42-1.67.63,3.28,8.58,5.61,17.69,10.04,25.63,11.07,19.83,27.6,34.86,45.7,48.16,1.52,1.12,5.55.98,6.95-.24,11.44-10.05,23.03-20,33.57-30.95,10.02-10.42,17.17-22.88,19.94-37.42,2.08-10.92-2.18-21.05-10.83-25.86-10.13-5.63-19.95-4.25-28.66,4.03-12.64,12.02-22.77,11.86-35.46-.34-7.17-6.89-15.59-9.17-25.07-5.53-8.87,3.41-14.52,12.18-14.5,21.9Z"/>
  <path class="cls-1" d="M526.84,670.06c6.19-3.68,11.22-7.83,16.99-9.82,8.32-2.86,17.16,1.12,21.99,8.25,5.02,7.4,5.72,16.91-.07,23.53-8.21,9.38-17.12,18.28-26.52,26.47-6.74,5.87-18.26,4.7-25.11-1.63-7.68-7.1-15.2-14.42-22.3-22.1-7.97-8.62-7.72-21.23-.06-29.01,8.08-8.2,20.4-8.55,29.6-.78,2.07,1.75,3.98,3.69,5.47,5.09Z"/>
</svg>