<?xml version="1.0" encoding="UTF-8"?>
<svg id="Camada_1" data-name="Camada 1" xmlns="http://www.w3.org/2000/svg" viewBox="0 0 1080 1080">
  <defs>
    <style>
      .cls-1 {
        fill: #fff;
        stroke: #fff;
        stroke-miterlimit: 10;
        stroke-width: 18.19px;
      }
    </style>
  </defs>
  <path class="cls-1" d="M511.66,572.71c0-8.62-.27-17.25.1-25.86.23-5.33-1.95-7.65-6.85-9.37-24.68-8.63-48.27-19.53-69.59-34.94-50.66-36.64-67.72-88.35-54.73-148.91,8.52-39.71,26.99-75.1,48.8-108.9,23.98-37.15,52.17-70.93,83.2-102.37,7.1-7.2,12.51-7.45,19.2-.61,43.08,44.04,81.14,91.84,108.76,147.25,15.37,30.84,26.18,63.06,27.64,97.93,1.76,42.16-13.99,76.73-44.98,104.69-23.75,21.43-51.99,35.03-81.85,45.48-5.64,1.97-8.31,4.31-8.13,10.56.46,16.31.45,32.63.42,48.94,0,3.68-.57,7.42-1.38,11.01-1.14,5.07-4.84,7.13-9.83,7.12-5.02,0-8.57-2.17-9.73-7.23-.67-2.92-1.21-5.94-1.27-8.93-.17-8.62-.06-17.25-.06-25.88.1,0,.19,0,.29,0ZM511.42,515.98c0-14.29.13-26.87-.14-39.44-.04-1.95-1.51-4.34-3.05-5.71-7.3-6.52-14.92-12.67-22.27-19.13-4.54-3.99-9.22-7.94-13.06-12.55-3.49-4.2-3.05-9.06.71-13.37,3.72-4.27,8.2-4.23,12.61-1.76,3.21,1.79,6.05,4.3,8.87,6.71,5.16,4.43,10.17,9.03,16.33,14.52,0-14.43-.42-27.03.16-39.58.34-7.41-1.73-12.48-7.71-17.15-9.72-7.6-18.71-16.14-27.9-24.41-4-3.6-6.78-7.87-4.31-13.57,2.57-5.94,11.56-10.15,17.92-3.79,6.59,6.59,13.85,12.51,21.84,19.65,0-28.46-.06-55.04.03-81.62.03-8.93,5.67-13.65,13.96-11.77,6.75,1.53,8.23,6.74,8.23,12.8-.01,24.02,0,48.04,0,72.07,0,2.39,0,4.78,0,9.13,3.87-3.7,6.1-6.01,8.52-8.1,5.44-4.7,10.65-9.78,16.58-13.79,4.55-3.07,9.26-1.75,12.91,2.77,3.45,4.27,3.66,8.51.29,12.69-2.47,3.07-5.17,6.03-8.14,8.61-8.45,7.32-17.17,14.34-25.62,21.66-1.84,1.59-4.25,3.91-4.3,5.94-.36,15.49-.2,30.99-.2,48.33,4.3-4.04,7.17-6.94,10.27-9.59,4.94-4.22,9.71-8.75,15.14-12.23,4.36-2.79,8.92-1.42,12.46,2.64,3.59,4.12,3.87,8.47.59,12.69-2.56,3.29-5.44,6.41-8.59,9.14-8.44,7.34-17.2,14.31-25.6,21.69-1.92,1.69-4.05,4.4-4.12,6.7-.4,12.79-.19,25.61-.19,38.74,1.38-.19,2.32-.16,3.14-.46,28.65-10.53,55.6-23.88,77.24-46.15,21.85-22.49,32.96-49.15,31.87-80.72-1.19-34.55-12.85-66.02-28.57-96.15-21.8-41.79-50.29-78.89-81.55-113.96-4.26-4.78-8.79-9.32-14.26-15.1-19.39,23.42-38.83,45.47-56.64,68.76-24.85,32.49-45.69,67.44-57.95,106.86-9.03,29.02-12.38,58.47-2.27,87.81,17.44,50.62,59.88,72.05,106.76,90.21Z"/>
  <path class="cls-1" d="M334.84,572.17c3.15,7.42,5.63,14.38,8.95,20.92,12.53,24.68,25.77,49.02,37.8,73.94,4.16,8.62,6.21,18.45,8,27.95,1.23,6.5-2.78,10.48-8.75,11.07-6.18.62-11.56-2.82-12.23-8.77-1.62-14.49-7.93-27.14-14.72-39.63-10.99-20.24-22.27-40.33-33.06-60.67-5.42-10.22-6.99-21.28-7.09-33.01-.46-53.17-1.42-106.35-2.66-159.51-.34-14.65-4.36-28.67-14.17-40.06-3.51-4.08-8.3-7.65-13.23-9.77-7.21-3.09-13,.36-14.63,8.14-1.43,6.8-2.59,13.81-2.61,20.73-.18,75.11-.13,150.22-.1,225.32,0,13.44,5.39,25.36,11.11,37.11,23.61,48.53,47.42,96.96,70.72,145.63,2.77,5.79,3.43,12.82,4,19.36.6,6.93-.03,13.98-.23,20.97-.17,6.28-3.33,10.03-9.7,10.61-6.83.63-10.5-2-11.59-9.09-.73-4.78-1-9.79-.42-14.57,1.04-8.64-.48-16.31-4.38-24.21-24.61-49.85-48.85-99.9-73.17-149.89-7.35-15.1-8.4-31.45-8.4-47.76,0-49.21.59-98.43.65-147.64.03-23.09-1.04-46.18-.77-69.26.1-8.7,1.47-17.74,4.18-26,6.91-21.13,29.28-29.46,48.71-18.6,17.9,10,27.09,26.72,31.93,45.65,2.85,11.15,4.17,22.93,4.41,34.47.89,43.14,1.04,86.29,1.48,129.44,0,.91.16,1.82.29,3.25.92.11,1.82.45,2.59.26,18.08-4.34,33.52,2.25,47.9,12.06,22.1,15.08,39.45,35.06,54.22,56.95,16.39,24.29,31.49,49.47,46.35,74.74,3.47,5.9,5.09,13.7,5.16,20.65.4,38.95.11,77.9-.05,116.85-.04,8.53-4.11,12.83-11.44,12.73-7.05-.09-10.53-4.17-10.54-12.59-.03-35.45-.27-70.91.14-106.36.12-10.6-1.97-20.25-6.86-29.48-20.95-39.58-45.63-76.48-78.93-106.86-6.94-6.33-15.32-11.33-23.64-15.84-7.46-4.04-15.67-3.24-25.22.72Z"/>
  <path class="cls-1" d="M710.23,549.15c0-3.34-.02-5.84,0-8.35.43-45.25.38-90.52,1.51-135.75.6-24.05,8.96-45.67,27.25-62.26,22.54-20.45,52.33-11.5,59.21,17.97,2.15,9.19,2.69,18.92,2.74,28.41.24,41.52.02,83.05-.02,124.57-.02,25.89-.73,51.82.21,77.68.87,24.03-4.96,45.94-15.66,67.14-19.18,38-37.59,76.39-56.95,114.3-9.03,17.69-15.96,35.34-13.84,55.84.98,9.46-3.96,13.37-12.37,12.65-5.47-.47-8.83-3.37-9.02-8.8-.63-18.09-1.58-35.92,7.29-53.12,21.31-41.35,41.16-83.45,62.54-124.76,9.74-18.83,15.92-37.95,15.83-59.27-.28-69.98-.15-139.97-.36-209.95-.02-7.19-.7-14.48-2.09-21.52-2-10.08-9.3-13.86-18.08-8.55-6.12,3.7-11.76,9.22-15.77,15.18-7.32,10.88-9.16,23.67-9.33,36.7-.69,53.18-1.47,106.35-2.24,159.52-.2,13.52-3.56,26.12-10.21,38-11.93,21.31-23.91,42.62-34.97,64.39-4.35,8.56-6.62,18.26-9.23,27.61-1.65,5.91-5.21,8.65-10.92,8.84-5.93.2-10.78-3.74-10.49-9.77.3-6.39,1.12-13.25,3.78-18.95,9.42-20.21,19.69-40.03,29.7-59.96,6.25-12.45,13.06-24.63,18.72-37.34,3.56-7.98,2.21-8.75-6.04-10.15-11.86-2-22.14,2.12-30.3,9.47-14.49,13.05-28.77,26.58-41.43,41.38-19.73,23.07-36.23,48.58-48.96,76.22-3,6.52-4.69,14.22-4.78,21.4-.46,38.02-.08,76.05-.44,114.07-.03,3.57-2.31,8.58-5.13,10.27-2.92,1.75-9.07,1.82-11.46-.18-3-2.51-4.89-7.83-5.02-12.01-.54-17.01-.23-34.05-.23-51.08,0-17.73.57-35.48-.17-53.18-.69-16.69,3.53-31.52,11.8-45.9,18.84-32.81,38.77-64.82,64.58-92.71,7.57-8.19,15.71-16.05,24.54-22.83,16.08-12.35,33.69-20.98,55.82-15.19Z"/>
</svg>