<svg xmlns="http://www.w3.org/2000/svg" xmlns:xlink="http://www.w3.org/1999/xlink" width="40" zoomAndPan="magnify" viewBox="0 0 30 30.000001" height="40" preserveAspectRatio="xMidYMid meet" version="1.0"><defs><clipPath id="f40c640254"><path d="M 0.484375 0 L 29.515625 0 L 29.515625 29.03125 L 0.484375 29.03125 Z M 0.484375 0 " clip-rule="nonzero"/></clipPath><clipPath id="28e8f9a8f2"><path d="M 0.484375 0 L 29.515625 0 L 29.515625 29.03125 L 0.484375 29.03125 Z M 0.484375 0 " clip-rule="nonzero"/></clipPath></defs><g clip-path="url(#f40c640254)"><path fill="#c41323" d="M 29.519531 14.519531 C 29.519531 22.539062 23.023438 29.039062 15.003906 29.039062 C 6.988281 29.039062 0.488281 22.539062 0.488281 14.519531 C 0.488281 6.503906 6.988281 0.00390625 15.003906 0.00390625 C 23.023438 0.00390625 29.519531 6.503906 29.519531 14.519531 " fill-opacity="1" fill-rule="nonzero"/></g><path fill="#ffffff" d="M 12.828125 20.742188 L 8.785156 16.699219 L 18.316406 7.167969 L 22.359375 11.210938 L 12.828125 20.742188 " fill-opacity="1" fill-rule="nonzero"/><path fill="#ffffff" d="M 22.683594 10.882812 L 23.144531 10.421875 C 23.78125 9.785156 23.78125 8.753906 23.144531 8.117188 L 21.410156 6.382812 C 20.773438 5.746094 19.738281 5.746094 19.101562 6.382812 L 18.644531 6.839844 L 22.683594 10.882812 " fill-opacity="1" fill-rule="nonzero"/><path fill="#ffffff" d="M 9.414062 21.53125 L 12.417969 21.09375 L 8.402344 17.078125 L 7.964844 20.082031 L 9.414062 21.53125 " fill-opacity="1" fill-rule="nonzero"/><path fill="#ffffff" d="M 7.894531 20.5625 L 7.71875 21.777344 L 8.933594 21.601562 Z M 7.894531 20.5625 " fill-opacity="1" fill-rule="nonzero"/><g clip-path="url(#28e8f9a8f2)"><path fill="#c41323" d="M 29.519531 14.519531 C 29.519531 22.539062 23.023438 29.039062 15.003906 29.039062 C 6.988281 29.039062 0.488281 22.539062 0.488281 14.519531 C 0.488281 6.503906 6.988281 0.00390625 15.003906 0.00390625 C 23.023438 0.00390625 29.519531 6.503906 29.519531 14.519531 " fill-opacity="1" fill-rule="nonzero"/></g><path fill="#ffffff" d="M 12.828125 20.742188 L 8.785156 16.699219 L 18.316406 7.167969 L 22.359375 11.210938 L 12.828125 20.742188 " fill-opacity="1" fill-rule="nonzero"/><path fill="#ffffff" d="M 22.683594 10.882812 L 23.144531 10.421875 C 23.78125 9.785156 23.78125 8.753906 23.144531 8.117188 L 21.410156 6.382812 C 20.773438 5.746094 19.738281 5.746094 19.101562 6.382812 L 18.644531 6.839844 L 22.683594 10.882812 " fill-opacity="1" fill-rule="nonzero"/><path fill="#ffffff" d="M 9.414062 21.53125 L 12.417969 21.09375 L 8.402344 17.078125 L 7.964844 20.082031 L 9.414062 21.53125 " fill-opacity="1" fill-rule="nonzero"/><path fill="#ffffff" d="M 7.894531 20.5625 L 7.71875 21.777344 L 8.933594 21.601562 Z M 7.894531 20.5625 " fill-opacity="1" fill-rule="nonzero"/></svg>