<svg xmlns="http://www.w3.org/2000/svg" xmlns:xlink="http://www.w3.org/1999/xlink" width="98" zoomAndPan="magnify" viewBox="0 0 73.5 104.249996" height="139" preserveAspectRatio="xMidYMid meet" version="1.0"><defs><g/><clipPath id="3c70bdd739"><path d="M 5.417969 5.402344 L 67.402344 5.402344 L 67.402344 84.164062 L 5.417969 84.164062 Z M 5.417969 5.402344 " clip-rule="nonzero"/></clipPath><clipPath id="7da2187d5c"><path d="M 33.488281 74.890625 C 37.882812 74.222656 50.800781 76.34375 53.746094 73.761719 C 54.339844 73.230469 55.394531 71.5625 55.230469 70.847656 C 55.019531 69.902344 46.25 66.261719 44.347656 64.40625 C 42.808594 62.898438 42.027344 59.414062 41.003906 58.734375 C 40.160156 58.171875 33.550781 58.128906 32.421875 58.46875 C 28.242188 59.722656 34.257812 71.527344 33.476562 74.902344 M 50.601562 26.953125 C 49.734375 26.097656 44.796875 24.984375 42.457031 22.699219 C 41.402344 21.667969 40.445312 19.007812 39.136719 19.304688 C 38.609375 19.421875 36.628906 21.941406 35.683594 22.632812 C 33.222656 24.414062 28.914062 26.316406 25.988281 27.21875 C 24.8125 27.582031 22.921875 27.359375 22.140625 27.878906 C 21.175781 28.527344 21.691406 30.472656 21.097656 31.339844 C 20.382812 32.382812 16.339844 31.890625 17.4375 36.386719 C 18.359375 40.15625 20.789062 38.285156 21.417969 38.847656 C 21.933594 56.6875 42.886719 63.316406 50.371094 44.828125 C 50.976562 43.355469 51.347656 40.253906 51.855469 39.550781 C 52.582031 38.539062 54.945312 39.222656 55.703125 36.582031 C 56.902344 32.449219 52.46875 32.21875 51.855469 31.339844 C 51.171875 30.382812 51.503906 27.84375 50.601562 26.953125 M 44.117188 56.238281 C 43.523438 57.09375 43.894531 60.273438 45.171875 60.613281 C 47.304688 61.183594 54.757812 56.402344 56.429688 54.65625 C 60.417969 50.5 61.539062 44.761719 61.285156 39.199219 C 61.21875 37.695312 60.417969 36.375 60.472656 34.726562 C 60.527344 33.054688 61.375 31.515625 61.332031 29.4375 C 61.164062 21.214844 54.789062 10.695312 45.851562 10.234375 C 44.171875 10.144531 42.511719 10.96875 41.445312 10.851562 C 39.894531 10.683594 37.09375 8.410156 34.53125 8.070312 C 28.453125 7.265625 21.625 8.683594 18.0625 14.058594 C 16.933594 15.761719 16.613281 17.941406 15.546875 19.808594 C 13.007812 24.261719 9.238281 26.921875 8.699219 32.515625 C 8.378906 35.824219 10.335938 43.574219 11.613281 46.761719 C 12.917969 50.027344 16.941406 52.632812 17.515625 55.136719 C 18.722656 60.457031 14.753906 63.613281 15.457031 69.230469 C 16.097656 74.242188 23.96875 84.125 28.992188 80.597656 C 30.671875 79.410156 30.617188 72.878906 30.386719 70.847656 C 30.089844 68.273438 27.648438 63.351562 27.714844 61.746094 C 27.738281 61.007812 28.59375 60.207031 28.792969 59.359375 C 29.683594 55.609375 28.507812 56.667969 26.671875 55.039062 C 23.570312 52.28125 22.011719 50.113281 20.304688 46.34375 C 19.746094 45.113281 19.472656 42.660156 18.988281 42.023438 C 18.679688 41.628906 17.285156 41.210938 16.503906 40.386719 C 13.007812 36.683594 14.359375 30.625 19.042969 28.941406 C 19.601562 28.140625 18.878906 25.578125 19.164062 25.304688 C 19.304688 25.160156 22.042969 25.316406 23.121094 25.128906 C 27.417969 24.371094 31.660156 22.523438 34.96875 19.6875 C 36.289062 18.566406 39.457031 14.234375 39.851562 14.039062 C 41.050781 13.445312 40.851562 14.488281 41.027344 15.09375 C 42.015625 18.710938 44.984375 22.039062 48.480469 23.4375 C 49.578125 23.875 53.492188 24.414062 53.703125 24.601562 C 54.152344 24.996094 53.261719 28.085938 53.878906 28.941406 C 58.558594 30.625 59.921875 36.671875 56.417969 40.386719 C 55.636719 41.210938 54.242188 41.628906 53.933594 42.023438 C 52.007812 44.550781 51.84375 50.355469 47.679688 54.191406 C 46.851562 54.953125 44.25 56.027344 44.09375 56.25 M 46.972656 62.898438 L 52.207031 66.308594 C 57.054688 68.382812 65.058594 71 66.9375 76.386719 C 68.15625 79.882812 65.871094 80.628906 64.660156 78.652344 C 63.925781 77.441406 63.605469 75.476562 62.527344 74.398438 C 61.925781 73.792969 58.679688 71.902344 57.890625 71.902344 C 57.558594 71.902344 56.691406 74.980469 55.230469 76.035156 C 49.953125 79.828125 34.695312 76.652344 32.78125 78.023438 C 32.320312 78.355469 30.769531 83.851562 29.96875 83.984375 C 23.394531 85.082031 15.238281 79.15625 13.886719 72.671875 C 13.28125 71.957031 9.765625 75.34375 9.335938 76.011719 C 7.785156 78.476562 10.082031 80.125 5.621094 79.441406 C 4.398438 74.332031 11.667969 71.8125 12.808594 69.660156 C 13.148438 69.011719 12.917969 65.1875 13.347656 63.480469 C 13.800781 61.667969 15.304688 59.304688 15.414062 57.972656 C 15.65625 54.886719 11.292969 52.203125 9.832031 49.300781 C 7.335938 44.375 5.640625 35.03125 6.554688 29.613281 C 7.191406 25.820312 11.28125 21.796875 13.292969 18.300781 C 14.371094 16.433594 14.679688 14.257812 15.8125 12.554688 C 20.152344 6 27.945312 4.835938 35.277344 5.804688 C 37.53125 6.101562 39.433594 7.695312 41.367188 7.980469 C 43.71875 8.332031 46.378906 7.75 48.808594 8.058594 C 56.679688 9.070312 62.847656 19.105469 63.527344 26.414062 C 63.980469 31.261719 64 36.691406 64.242188 41.53125 C 63.605469 52.390625 57.636719 60.160156 46.984375 62.886719 " clip-rule="nonzero"/></clipPath><clipPath id="e1fb87ddb6"><path d="M 0.417969 0.402344 L 62.402344 0.402344 L 62.402344 79.164062 L 0.417969 79.164062 Z M 0.417969 0.402344 " clip-rule="nonzero"/></clipPath><clipPath id="4a42f39394"><path d="M 28.488281 69.890625 C 32.882812 69.222656 45.800781 71.34375 48.746094 68.761719 C 49.339844 68.230469 50.394531 66.5625 50.230469 65.847656 C 50.019531 64.902344 41.25 61.261719 39.347656 59.40625 C 37.808594 57.898438 37.027344 54.414062 36.003906 53.734375 C 35.160156 53.171875 28.550781 53.128906 27.421875 53.46875 C 23.242188 54.722656 29.257812 66.527344 28.476562 69.902344 M 45.601562 21.953125 C 44.734375 21.097656 39.796875 19.984375 37.457031 17.699219 C 36.402344 16.667969 35.445312 14.007812 34.136719 14.304688 C 33.609375 14.421875 31.628906 16.941406 30.683594 17.632812 C 28.222656 19.414062 23.914062 21.316406 20.988281 22.21875 C 19.8125 22.582031 17.921875 22.359375 17.140625 22.878906 C 16.175781 23.527344 16.691406 25.472656 16.097656 26.339844 C 15.382812 27.382812 11.339844 26.890625 12.4375 31.386719 C 13.359375 35.15625 15.789062 33.285156 16.417969 33.847656 C 16.933594 51.6875 37.886719 58.316406 45.371094 39.828125 C 45.976562 38.355469 46.347656 35.253906 46.855469 34.550781 C 47.582031 33.539062 49.945312 34.222656 50.703125 31.582031 C 51.902344 27.449219 47.46875 27.21875 46.855469 26.339844 C 46.171875 25.382812 46.503906 22.84375 45.601562 21.953125 M 39.117188 51.238281 C 38.523438 52.09375 38.894531 55.273438 40.171875 55.613281 C 42.304688 56.183594 49.757812 51.402344 51.429688 49.65625 C 55.417969 45.5 56.539062 39.761719 56.285156 34.199219 C 56.21875 32.695312 55.417969 31.375 55.472656 29.726562 C 55.527344 28.054688 56.375 26.515625 56.332031 24.4375 C 56.164062 16.214844 49.789062 5.695312 40.851562 5.234375 C 39.171875 5.144531 37.511719 5.96875 36.445312 5.851562 C 34.894531 5.683594 32.09375 3.410156 29.53125 3.070312 C 23.453125 2.265625 16.625 3.683594 13.0625 9.058594 C 11.933594 10.761719 11.613281 12.941406 10.546875 14.808594 C 8.007812 19.261719 4.238281 21.921875 3.699219 27.515625 C 3.378906 30.824219 5.335938 38.574219 6.613281 41.761719 C 7.917969 45.027344 11.941406 47.632812 12.515625 50.136719 C 13.722656 55.457031 9.753906 58.613281 10.457031 64.230469 C 11.097656 69.242188 18.96875 79.125 23.992188 75.597656 C 25.671875 74.410156 25.617188 67.878906 25.386719 65.847656 C 25.089844 63.273438 22.648438 58.351562 22.714844 56.746094 C 22.738281 56.007812 23.59375 55.207031 23.792969 54.359375 C 24.683594 50.609375 23.507812 51.667969 21.671875 50.039062 C 18.570312 47.28125 17.011719 45.113281 15.304688 41.34375 C 14.746094 40.113281 14.472656 37.660156 13.988281 37.023438 C 13.679688 36.628906 12.285156 36.210938 11.503906 35.386719 C 8.007812 31.683594 9.359375 25.625 14.042969 23.941406 C 14.601562 23.140625 13.878906 20.578125 14.164062 20.304688 C 14.304688 20.160156 17.042969 20.316406 18.121094 20.128906 C 22.417969 19.371094 26.660156 17.523438 29.96875 14.6875 C 31.289062 13.566406 34.457031 9.234375 34.851562 9.039062 C 36.050781 8.445312 35.851562 9.488281 36.027344 10.09375 C 37.015625 13.710938 39.984375 17.039062 43.480469 18.4375 C 44.578125 18.875 48.492188 19.414062 48.703125 19.601562 C 49.152344 19.996094 48.261719 23.085938 48.878906 23.941406 C 53.558594 25.625 54.921875 31.671875 51.417969 35.386719 C 50.636719 36.210938 49.242188 36.628906 48.933594 37.023438 C 47.007812 39.550781 46.84375 45.355469 42.679688 49.191406 C 41.851562 49.953125 39.25 51.027344 39.09375 51.25 M 41.972656 57.898438 L 47.207031 61.308594 C 52.054688 63.382812 60.058594 66 61.9375 71.386719 C 63.15625 74.882812 60.871094 75.628906 59.660156 73.652344 C 58.925781 72.441406 58.605469 70.476562 57.527344 69.398438 C 56.925781 68.792969 53.679688 66.902344 52.890625 66.902344 C 52.558594 66.902344 51.691406 69.980469 50.230469 71.035156 C 44.953125 74.828125 29.695312 71.652344 27.78125 73.023438 C 27.320312 73.355469 25.769531 78.851562 24.96875 78.984375 C 18.394531 80.082031 10.238281 74.15625 8.886719 67.671875 C 8.28125 66.957031 4.765625 70.34375 4.335938 71.011719 C 2.785156 73.476562 5.082031 75.125 0.621094 74.441406 C -0.601562 69.332031 6.667969 66.8125 7.808594 64.660156 C 8.148438 64.011719 7.917969 60.1875 8.347656 58.480469 C 8.800781 56.667969 10.304688 54.304688 10.414062 52.972656 C 10.65625 49.886719 6.292969 47.203125 4.832031 44.300781 C 2.335938 39.375 0.640625 30.03125 1.554688 24.613281 C 2.191406 20.820312 6.28125 16.796875 8.292969 13.300781 C 9.371094 11.433594 9.679688 9.257812 10.8125 7.554688 C 15.152344 1 22.945312 -0.164062 30.277344 0.804688 C 32.53125 1.101562 34.433594 2.695312 36.367188 2.980469 C 38.71875 3.332031 41.378906 2.75 43.808594 3.058594 C 51.679688 4.070312 57.847656 14.105469 58.527344 21.414062 C 58.980469 26.261719 59 31.691406 59.242188 36.53125 C 58.605469 47.390625 52.636719 55.160156 41.984375 57.886719 " clip-rule="nonzero"/></clipPath><clipPath id="0a31b06304"><rect x="0" width="63" y="0" height="80"/></clipPath><clipPath id="64a4f17985"><path d="M 17.074219 19.050781 L 55.746094 19.050781 L 55.746094 56 L 17.074219 56 Z M 17.074219 19.050781 " clip-rule="nonzero"/></clipPath><clipPath id="bfa3863bcc"><path d="M 50.4375 26.953125 C 51.339844 27.84375 51.019531 30.382812 51.691406 31.339844 C 52.304688 32.21875 56.734375 32.449219 55.539062 36.582031 C 54.777344 39.222656 52.414062 38.539062 51.691406 39.550781 C 51.183594 40.253906 50.8125 43.355469 50.207031 44.828125 C 42.710938 63.304688 21.757812 56.6875 21.25 38.835938 C 20.625 38.285156 18.195312 40.144531 17.273438 36.375 C 16.171875 31.878906 20.21875 32.371094 20.933594 31.328125 C 21.527344 30.460938 21.011719 28.515625 21.976562 27.867188 C 22.757812 27.339844 24.648438 27.570312 25.824219 27.195312 C 28.757812 26.292969 33.058594 24.390625 35.519531 22.613281 C 36.464844 21.917969 38.445312 19.402344 38.972656 19.28125 C 40.28125 18.984375 41.226562 21.644531 42.292969 22.675781 C 44.644531 24.964844 49.570312 26.074219 50.4375 26.933594 " clip-rule="nonzero"/></clipPath><clipPath id="cd3a432465"><path d="M 0.0742188 0.0507812 L 38.746094 0.0507812 L 38.746094 37 L 0.0742188 37 Z M 0.0742188 0.0507812 " clip-rule="nonzero"/></clipPath><clipPath id="b9e72a35f1"><path d="M 33.4375 7.953125 C 34.339844 8.84375 34.019531 11.382812 34.691406 12.339844 C 35.304688 13.21875 39.734375 13.449219 38.539062 17.582031 C 37.777344 20.222656 35.414062 19.539062 34.691406 20.550781 C 34.183594 21.253906 33.8125 24.355469 33.207031 25.828125 C 25.710938 44.304688 4.757812 37.6875 4.25 19.835938 C 3.625 19.285156 1.195312 21.144531 0.273438 17.375 C -0.828125 12.878906 3.21875 13.371094 3.933594 12.328125 C 4.527344 11.460938 4.011719 9.515625 4.976562 8.867188 C 5.757812 8.339844 7.648438 8.570312 8.824219 8.195312 C 11.757812 7.292969 16.058594 5.390625 18.519531 3.613281 C 19.464844 2.917969 21.445312 0.402344 21.972656 0.28125 C 23.28125 -0.015625 24.226562 2.644531 25.292969 3.675781 C 27.644531 5.964844 32.570312 7.074219 33.4375 7.933594 " clip-rule="nonzero"/></clipPath><clipPath id="c8a5e615fe"><rect x="0" width="39" y="0" height="37"/></clipPath><clipPath id="b0faa931f6"><path d="M 0.316406 2 L 7 2 L 7 10 L 0.316406 10 Z M 0.316406 2 " clip-rule="nonzero"/></clipPath><clipPath id="947f829de9"><rect x="0" width="41" y="0" height="14"/></clipPath></defs><g clip-path="url(#3c70bdd739)"><g clip-path="url(#7da2187d5c)"><g transform="matrix(1, 0, 0, 1, 5, 5)"><g clip-path="url(#0a31b06304)"><g clip-path="url(#e1fb87ddb6)"><g clip-path="url(#4a42f39394)"><rect x="-21.17" width="105.84" fill="#fff8f8" height="150.119995" y="-27.934999" fill-opacity="1"/></g></g></g></g></g></g><g clip-path="url(#64a4f17985)"><g clip-path="url(#bfa3863bcc)"><g transform="matrix(1, 0, 0, 1, 17, 19)"><g clip-path="url(#c8a5e615fe)"><g clip-path="url(#cd3a432465)"><g clip-path="url(#b9e72a35f1)"><rect x="-33.17" width="105.84" fill="#633621" height="150.119995" y="-41.934999" fill-opacity="1"/></g></g></g></g></g></g><g transform="matrix(1, 0, 0, 1, 19, 88)"><g clip-path="url(#947f829de9)"><g clip-path="url(#b0faa931f6)"><g fill="#ffffff" fill-opacity="1"><g transform="translate(0.483218, 9.812027)"><g><path d="M 0.265625 0 L 1.703125 -7.328125 L 6.140625 -7.328125 L 5.890625 -6.078125 L 2.828125 -6.078125 L 2.53125 -4.53125 L 4.96875 -4.53125 L 4.703125 -3.28125 L 2.28125 -3.28125 L 1.890625 -1.25 L 5.0625 -1.25 L 4.8125 0 Z M 0.265625 0 "/></g></g></g></g><g fill="#ffffff" fill-opacity="1"><g transform="translate(6.508208, 9.812027)"><g><path d="M 5.359375 -6.046875 L 4.234375 -5.40625 C 4.023438 -5.90625 3.707031 -6.15625 3.28125 -6.15625 C 3.050781 -6.15625 2.863281 -6.085938 2.71875 -5.953125 C 2.582031 -5.816406 2.515625 -5.632812 2.515625 -5.40625 C 2.515625 -5.195312 2.59375 -5.007812 2.75 -4.84375 C 2.914062 -4.675781 3.1875 -4.5 3.5625 -4.3125 C 4.09375 -4.039062 4.460938 -3.769531 4.671875 -3.5 C 4.910156 -3.238281 5.03125 -2.84375 5.03125 -2.3125 C 5.03125 -1.53125 4.769531 -0.929688 4.25 -0.515625 C 3.976562 -0.285156 3.691406 -0.128906 3.390625 -0.046875 C 3.085938 0.0351562 2.710938 0.078125 2.265625 0.078125 C 1.671875 0.078125 1.164062 -0.128906 0.75 -0.546875 C 0.320312 -0.960938 0.109375 -1.441406 0.109375 -1.984375 L 1.28125 -2.609375 C 1.363281 -1.648438 1.796875 -1.171875 2.578125 -1.171875 C 2.898438 -1.171875 3.15625 -1.257812 3.34375 -1.4375 C 3.53125 -1.613281 3.625 -1.851562 3.625 -2.15625 C 3.625 -2.414062 3.550781 -2.625 3.40625 -2.78125 C 3.257812 -2.945312 2.984375 -3.132812 2.578125 -3.34375 C 2.097656 -3.613281 1.738281 -3.898438 1.5 -4.203125 C 1.257812 -4.515625 1.140625 -4.898438 1.140625 -5.359375 C 1.140625 -5.972656 1.347656 -6.46875 1.765625 -6.84375 C 2.191406 -7.21875 2.738281 -7.40625 3.40625 -7.40625 C 3.875 -7.40625 4.285156 -7.273438 4.640625 -7.015625 C 5.003906 -6.753906 5.242188 -6.429688 5.359375 -6.046875 Z M 5.359375 -6.046875 "/></g></g></g><g fill="#ffffff" fill-opacity="1"><g transform="translate(12.177563, 9.812027)"><g><path d="M 7.21875 -5.09375 L 5.9375 -4.78125 C 5.84375 -5.257812 5.664062 -5.609375 5.40625 -5.828125 C 5.15625 -6.046875 4.804688 -6.15625 4.359375 -6.15625 C 3.609375 -6.15625 2.984375 -5.84375 2.484375 -5.21875 C 2.003906 -4.601562 1.765625 -3.90625 1.765625 -3.125 C 1.765625 -2.5 1.910156 -2.015625 2.203125 -1.671875 C 2.492188 -1.335938 2.890625 -1.171875 3.390625 -1.171875 C 3.828125 -1.171875 4.195312 -1.28125 4.5 -1.5 C 4.8125 -1.726562 5.101562 -2.09375 5.375 -2.59375 L 6.578125 -2.21875 C 6.242188 -1.425781 5.800781 -0.84375 5.25 -0.46875 C 4.695312 -0.101562 4 0.078125 3.15625 0.078125 C 2.363281 0.078125 1.695312 -0.203125 1.15625 -0.765625 C 0.625 -1.328125 0.359375 -2.070312 0.359375 -3 C 0.359375 -4.207031 0.757812 -5.242188 1.5625 -6.109375 C 2.363281 -6.972656 3.378906 -7.40625 4.609375 -7.40625 C 5.367188 -7.40625 5.976562 -7.191406 6.4375 -6.765625 C 6.894531 -6.328125 7.15625 -5.769531 7.21875 -5.09375 Z M 7.21875 -5.09375 "/></g></g></g><g fill="#ffffff" fill-opacity="1"><g transform="translate(19.457754, 9.812027)"><g><path d="M 5.546875 -7.328125 L 6.9375 -7.328125 L 6.046875 -2.78125 C 5.847656 -1.757812 5.484375 -1.023438 4.953125 -0.578125 C 4.429688 -0.140625 3.71875 0.078125 2.8125 0.078125 C 2.144531 0.078125 1.609375 -0.109375 1.203125 -0.484375 C 0.804688 -0.859375 0.609375 -1.378906 0.609375 -2.046875 C 0.609375 -2.242188 0.632812 -2.488281 0.6875 -2.78125 L 1.5625 -7.328125 L 2.9375 -7.328125 L 2.0625 -2.765625 C 2.019531 -2.546875 2 -2.359375 2 -2.203125 C 2 -1.878906 2.085938 -1.625 2.265625 -1.4375 C 2.441406 -1.257812 2.703125 -1.171875 3.046875 -1.171875 C 3.921875 -1.171875 4.460938 -1.703125 4.671875 -2.765625 Z M 5.546875 -7.328125 "/></g></g></g><g fill="#ffffff" fill-opacity="1"><g transform="translate(26.60197, 9.812027)"><g><path d="M 6.265625 -5.59375 C 6.265625 -4.957031 6.082031 -4.441406 5.71875 -4.046875 C 5.351562 -3.640625 4.914062 -3.382812 4.40625 -3.28125 L 5.828125 0 L 4.359375 0 L 3 -3.15625 L 2.265625 -3.15625 L 1.640625 0 L 0.265625 0 L 1.703125 -7.328125 L 4.296875 -7.328125 C 4.910156 -7.328125 5.390625 -7.171875 5.734375 -6.859375 C 6.085938 -6.546875 6.265625 -6.125 6.265625 -5.59375 Z M 2.828125 -6.078125 L 2.5 -4.421875 L 3.75 -4.421875 C 4.070312 -4.421875 4.335938 -4.507812 4.546875 -4.6875 C 4.765625 -4.875 4.875 -5.109375 4.875 -5.390625 C 4.875 -5.847656 4.617188 -6.078125 4.109375 -6.078125 Z M 2.828125 -6.078125 "/></g></g></g><g fill="#ffffff" fill-opacity="1"><g transform="translate(33.045356, 9.812027)"><g><path d="M 5.640625 0 L 4.171875 0 L 3.984375 -1.734375 L 1.671875 -1.734375 L 0.78125 0 L -0.6875 0 L 3.21875 -7.328125 L 4.5625 -7.328125 Z M 3.84375 -2.984375 L 3.5625 -5.5625 L 2.296875 -2.984375 Z M 3.84375 -2.984375 "/></g></g></g></g></g></svg>