<svg xmlns="http://www.w3.org/2000/svg" xmlns:xlink="http://www.w3.org/1999/xlink" width="40" zoomAndPan="magnify" viewBox="0 0 30 30.000001" height="40" preserveAspectRatio="xMidYMid meet" version="1.0"><defs><clipPath id="ead8f54b9f"><path d="M 3.027344 2.546875 L 26.929688 2.546875 L 26.929688 25.78125 L 3.027344 25.78125 Z M 3.027344 2.546875 " clip-rule="nonzero"/></clipPath><clipPath id="bf12bf8cce"><path d="M 10.878906 8.980469 C 9.292969 8.953125 7.617188 8.878906 6.226562 9.785156 C 4.445312 10.816406 4.125 12.925781 5.328125 14.5625 C 6.152344 15.742188 7.332031 16.480469 8.636719 17.019531 C 7.890625 18.164062 7.378906 19.410156 7.429688 20.800781 C 7.488281 22.476562 8.585938 23.679688 10.242188 23.871094 C 12.113281 24.074219 13.910156 23.140625 15.269531 21.933594 C 16.617188 23.019531 18.136719 23.933594 19.921875 23.902344 C 23.078125 23.867188 23.800781 20.621094 22.585938 18.195312 C 22.425781 17.84375 22.234375 17.511719 22.050781 17.160156 C 26.710938 13.714844 25.378906 8.1875 19.136719 9.585938 C 18.988281 8.035156 18.523438 6.550781 17.472656 5.363281 C 16.117188 3.753906 13.917969 3.65625 12.507812 5.25 C 11.53125 6.269531 11.136719 7.609375 10.882812 8.972656 M 26.929688 12.542969 C 26.871094 15.101562 25.445312 16.082031 23.574219 17.441406 C 23.425781 17.542969 23.390625 17.636719 23.449219 17.8125 C 23.679688 18.582031 23.953125 19.34375 24.105469 20.125 C 24.667969 22.917969 22.554688 25.386719 19.953125 25.6875 C 17.960938 25.9375 16.730469 24.878906 15.210938 23.804688 C 15.066406 23.699219 14.96875 23.691406 14.8125 23.800781 C 14.304688 24.167969 13.789062 24.519531 13.269531 24.875 C 10.25 26.9375 6.453125 24.960938 5.882812 21.796875 C 5.609375 20.417969 6.179688 19.121094 6.5625 17.820312 C 6.617188 17.648438 6.601562 17.546875 6.445312 17.441406 C 5.90625 17.046875 5.359375 16.652344 4.847656 16.226562 C 3.382812 15.007812 2.800781 13.433594 3.203125 11.578125 C 3.628906 9.28125 5.589844 7.792969 7.90625 7.78125 C 8.472656 7.75 9.042969 7.75 9.609375 7.75 C 9.769531 7.75 9.847656 7.691406 9.894531 7.542969 C 10.097656 6.929688 10.308594 6.324219 10.527344 5.722656 C 11.230469 3.800781 12.964844 2.589844 15.007812 2.59375 C 17.042969 2.597656 18.769531 3.808594 19.46875 5.722656 C 19.6875 6.316406 19.894531 6.914062 20.09375 7.523438 C 20.152344 7.707031 20.246094 7.761719 20.433594 7.765625 C 21.289062 7.785156 22.152344 7.761719 22.992188 7.878906 C 25.242188 8.1875 26.929688 10.296875 26.917969 12.554688 " clip-rule="nonzero"/></clipPath><clipPath id="06535d4140"><path d="M 0.0273438 0.554688 L 23.929688 0.554688 L 23.929688 23.78125 L 0.0273438 23.78125 Z M 0.0273438 0.554688 " clip-rule="nonzero"/></clipPath><clipPath id="7dd8cc0227"><path d="M 7.878906 6.980469 C 6.292969 6.953125 4.617188 6.878906 3.226562 7.785156 C 1.445312 8.816406 1.125 10.925781 2.328125 12.5625 C 3.152344 13.742188 4.332031 14.480469 5.636719 15.019531 C 4.890625 16.164062 4.378906 17.410156 4.429688 18.800781 C 4.488281 20.476562 5.585938 21.679688 7.242188 21.871094 C 9.113281 22.074219 10.910156 21.140625 12.269531 19.933594 C 13.617188 21.019531 15.136719 21.933594 16.921875 21.902344 C 20.078125 21.867188 20.800781 18.621094 19.585938 16.195312 C 19.425781 15.84375 19.234375 15.511719 19.050781 15.160156 C 23.710938 11.714844 22.378906 6.1875 16.136719 7.585938 C 15.988281 6.035156 15.523438 4.550781 14.472656 3.363281 C 13.117188 1.753906 10.917969 1.65625 9.507812 3.25 C 8.53125 4.269531 8.136719 5.609375 7.882812 6.972656 M 23.929688 10.542969 C 23.871094 13.101562 22.445312 14.082031 20.574219 15.441406 C 20.425781 15.542969 20.390625 15.636719 20.449219 15.8125 C 20.679688 16.582031 20.953125 17.34375 21.105469 18.125 C 21.667969 20.917969 19.554688 23.386719 16.953125 23.6875 C 14.960938 23.9375 13.730469 22.878906 12.210938 21.804688 C 12.066406 21.699219 11.96875 21.691406 11.8125 21.800781 C 11.304688 22.167969 10.789062 22.519531 10.269531 22.875 C 7.25 24.9375 3.453125 22.960938 2.882812 19.796875 C 2.609375 18.417969 3.179688 17.121094 3.5625 15.820312 C 3.617188 15.648438 3.601562 15.546875 3.445312 15.441406 C 2.90625 15.046875 2.359375 14.652344 1.847656 14.226562 C 0.382812 13.007812 -0.199219 11.433594 0.203125 9.578125 C 0.628906 7.28125 2.589844 5.792969 4.90625 5.78125 C 5.472656 5.75 6.042969 5.75 6.609375 5.75 C 6.769531 5.75 6.847656 5.691406 6.894531 5.542969 C 7.097656 4.929688 7.308594 4.324219 7.527344 3.722656 C 8.230469 1.800781 9.964844 0.589844 12.007812 0.59375 C 14.042969 0.597656 15.769531 1.808594 16.46875 3.722656 C 16.6875 4.316406 16.894531 4.914062 17.09375 5.523438 C 17.152344 5.707031 17.246094 5.761719 17.433594 5.765625 C 18.289062 5.785156 19.152344 5.761719 19.992188 5.878906 C 22.242188 6.1875 23.929688 8.296875 23.917969 10.554688 " clip-rule="nonzero"/></clipPath><clipPath id="f87e4c29de"><rect x="0" width="24" y="0" height="24"/></clipPath><clipPath id="b7a3b11823"><path d="M 10.664062 10.511719 L 19.625 10.511719 L 19.625 19.476562 L 10.664062 19.476562 Z M 10.664062 10.511719 " clip-rule="nonzero"/></clipPath><clipPath id="f8a2dbb6aa"><path d="M 15.117188 11.910156 C 13.414062 11.90625 12.046875 13.265625 12.042969 14.964844 C 12.175781 19.03125 18.011719 19.046875 18.183594 14.984375 C 18.191406 13.296875 16.820312 11.914062 15.121094 11.910156 M 19.519531 14.976562 C 19.519531 17.410156 17.539062 19.390625 15.113281 19.386719 C 9.253906 19.128906 9.261719 10.808594 15.113281 10.5625 C 17.542969 10.5625 19.519531 12.539062 19.519531 14.96875 " clip-rule="nonzero"/></clipPath><clipPath id="16bbe98d94"><path d="M 0.664062 0.511719 L 9.527344 0.511719 L 9.527344 9.476562 L 0.664062 9.476562 Z M 0.664062 0.511719 " clip-rule="nonzero"/></clipPath><clipPath id="e9eafa9af9"><path d="M 5.117188 1.910156 C 3.414062 1.90625 2.046875 3.265625 2.042969 4.964844 C 2.175781 9.03125 8.011719 9.046875 8.183594 4.984375 C 8.191406 3.296875 6.820312 1.914062 5.121094 1.910156 M 9.519531 4.976562 C 9.519531 7.410156 7.539062 9.390625 5.113281 9.386719 C -0.746094 9.128906 -0.738281 0.808594 5.113281 0.5625 C 7.542969 0.5625 9.519531 2.539062 9.519531 4.96875 " clip-rule="nonzero"/></clipPath><clipPath id="d9f668d3df"><rect x="0" width="10" y="0" height="10"/></clipPath></defs><g clip-path="url(#ead8f54b9f)"><g clip-path="url(#bf12bf8cce)"><g transform="matrix(1, 0, 0, 1, 3, 2)"><g clip-path="url(#f87e4c29de)"><g clip-path="url(#06535d4140)"><g clip-path="url(#7dd8cc0227)"><rect x="-9.6" width="43.2" fill="#b71419" height="43.200001" y="-8.6" fill-opacity="1"/></g></g></g></g></g></g><g clip-path="url(#b7a3b11823)"><g clip-path="url(#f8a2dbb6aa)"><g transform="matrix(1, 0, 0, 1, 10, 10)"><g clip-path="url(#d9f668d3df)"><g clip-path="url(#16bbe98d94)"><g clip-path="url(#e9eafa9af9)"><rect x="-16.6" width="43.2" fill="#b71419" height="43.200001" y="-16.6" fill-opacity="1"/></g></g></g></g></g></g></svg>