<svg xmlns="http://www.w3.org/2000/svg" xmlns:xlink="http://www.w3.org/1999/xlink" width="40" zoomAndPan="magnify" viewBox="0 0 30 30.000001" height="40" preserveAspectRatio="xMidYMid meet" version="1.0"><defs><clipPath id="d44521f285"><path d="M 7.175781 10.03125 L 23.277344 10.03125 L 23.277344 22.730469 L 7.175781 22.730469 Z M 7.175781 10.03125 " clip-rule="nonzero"/></clipPath><clipPath id="6d8f314b4e"><path d="M 21.503906 21.867188 L 21.503906 10.984375 L 22.351562 10.984375 L 22.351562 11.832031 L 8.09375 11.832031 C 7.625 11.832031 7.246094 11.453125 7.246094 10.984375 C 7.246094 10.519531 7.625 10.136719 8.09375 10.136719 L 22.351562 10.136719 C 22.820312 10.136719 23.199219 10.519531 23.199219 10.984375 L 23.199219 21.855469 C 23.199219 22.324219 22.820312 22.703125 22.351562 22.703125 C 21.882812 22.703125 21.503906 22.324219 21.503906 21.855469 Z M 21.503906 21.867188 " clip-rule="nonzero"/></clipPath><clipPath id="7aee74e961"><path d="M 0.21875 0.03125 L 16.246094 0.03125 L 16.246094 12.730469 L 0.21875 12.730469 Z M 0.21875 0.03125 " clip-rule="nonzero"/></clipPath><clipPath id="bb1f42c6c9"><path d="M 14.503906 11.867188 L 14.503906 0.984375 L 15.351562 0.984375 L 15.351562 1.832031 L 1.09375 1.832031 C 0.625 1.832031 0.246094 1.453125 0.246094 0.984375 C 0.246094 0.519531 0.625 0.136719 1.09375 0.136719 L 15.351562 0.136719 C 15.820312 0.136719 16.199219 0.519531 16.199219 0.984375 L 16.199219 11.855469 C 16.199219 12.324219 15.820312 12.703125 15.351562 12.703125 C 14.882812 12.703125 14.503906 12.324219 14.503906 11.855469 Z M 14.503906 11.867188 " clip-rule="nonzero"/></clipPath><clipPath id="b1574e587e"><rect x="0" width="17" y="0" height="13"/></clipPath><clipPath id="f5ace1c411"><path d="M 6.722656 6.0625 L 12.84375 6.0625 L 12.84375 15.925781 L 6.722656 15.925781 Z M 6.722656 6.0625 " clip-rule="nonzero"/></clipPath><clipPath id="b2044014f8"><path d="M 12.011719 6.144531 L 12.820312 7.015625 L 8.546875 10.984375 L 12.832031 14.96875 L 12.023438 15.839844 L 6.804688 10.984375 Z M 12.011719 6.144531 " clip-rule="nonzero"/></clipPath><clipPath id="d4d6052cd6"><path d="M 0.753906 0.0625 L 6.84375 0.0625 L 6.84375 9.925781 L 0.753906 9.925781 Z M 0.753906 0.0625 " clip-rule="nonzero"/></clipPath><clipPath id="84cf58f358"><path d="M 6.011719 0.144531 L 6.820312 1.015625 L 2.546875 4.984375 L 6.832031 8.96875 L 6.023438 9.839844 L 0.804688 4.984375 Z M 6.011719 0.144531 " clip-rule="nonzero"/></clipPath><clipPath id="5564c11358"><rect x="0" width="7" y="0" height="10"/></clipPath></defs><g clip-path="url(#d44521f285)"><g clip-path="url(#6d8f314b4e)"><g transform="matrix(1, 0, 0, 1, 7, 10)"><g clip-path="url(#b1574e587e)"><g clip-path="url(#7aee74e961)"><g clip-path="url(#bb1f42c6c9)"><rect x="-13.6" width="43.2" fill="#ffffff" height="43.200001" y="-16.6" fill-opacity="1"/></g></g></g></g></g></g><g clip-path="url(#f5ace1c411)"><g clip-path="url(#b2044014f8)"><g transform="matrix(1, 0, 0, 1, 6, 6)"><g clip-path="url(#5564c11358)"><g clip-path="url(#d4d6052cd6)"><g clip-path="url(#84cf58f358)"><rect x="-12.6" width="43.2" fill="#ffffff" height="43.200001" y="-12.6" fill-opacity="1"/></g></g></g></g></g></g></svg>