<svg xmlns="http://www.w3.org/2000/svg" xmlns:xlink="http://www.w3.org/1999/xlink" width="40" zoomAndPan="magnify" viewBox="0 0 30 30.000001" height="40" preserveAspectRatio="xMidYMid meet" version="1.0"><defs><clipPath id="7eb5a56093"><path d="M 0.484375 1.78125 L 29.515625 1.78125 L 29.515625 27.25 L 0.484375 27.25 Z M 0.484375 1.78125 " clip-rule="nonzero"/></clipPath><clipPath id="563a6d72ed"><path d="M 14.992188 24.90625 C 15.578125 24.425781 16.089844 24.058594 16.550781 23.625 C 19.535156 20.875 22.605469 18.191406 25.457031 15.308594 C 27.300781 13.449219 28.191406 11.03125 27.679688 8.363281 C 26.800781 3.808594 21.503906 1.9375 17.859375 4.851562 C 16.800781 5.695312 15.84375 6.65625 14.929688 7.484375 C 14.078125 6.679688 13.125 5.617188 12.015625 4.761719 C 8.308594 1.9375 2.992188 3.996094 2.289062 8.523438 C 1.894531 11.089844 2.835938 13.292969 4.4375 15.242188 C 7.492188 18.953125 11.335938 21.789062 14.992188 24.898438 M 15.183594 27.246094 C 10.769531 23.519531 6.339844 20.289062 2.90625 15.996094 C 0.777344 13.339844 -0.148438 10.3125 0.949219 6.980469 C 2.613281 1.925781 8.921875 0.148438 13.113281 3.484375 C 13.777344 4.011719 14.378906 4.621094 15.042969 5.226562 C 16.347656 3.851562 17.746094 2.628906 19.648438 2.085938 C 24.96875 0.554688 30.148438 5.03125 29.457031 10.515625 C 29.132812 13.078125 28.042969 15.265625 26.261719 17.003906 C 22.671875 20.484375 18.925781 23.8125 15.191406 27.25 " clip-rule="nonzero"/></clipPath><clipPath id="7787cdc0e0"><path d="M 0.484375 0.78125 L 29.515625 0.78125 L 29.515625 26.25 L 0.484375 26.25 Z M 0.484375 0.78125 " clip-rule="nonzero"/></clipPath><clipPath id="738b61f70b"><path d="M 14.992188 23.90625 C 15.578125 23.425781 16.089844 23.058594 16.550781 22.625 C 19.535156 19.875 22.605469 17.191406 25.457031 14.308594 C 27.300781 12.449219 28.191406 10.03125 27.679688 7.363281 C 26.800781 2.808594 21.503906 0.9375 17.859375 3.851562 C 16.800781 4.695312 15.84375 5.65625 14.929688 6.484375 C 14.078125 5.679688 13.125 4.617188 12.015625 3.761719 C 8.308594 0.9375 2.992188 2.996094 2.289062 7.523438 C 1.894531 10.089844 2.835938 12.292969 4.4375 14.242188 C 7.492188 17.953125 11.335938 20.789062 14.992188 23.898438 M 15.183594 26.246094 C 10.769531 22.519531 6.339844 19.289062 2.90625 14.996094 C 0.777344 12.339844 -0.148438 9.3125 0.949219 5.980469 C 2.613281 0.925781 8.921875 -0.851562 13.113281 2.484375 C 13.777344 3.011719 14.378906 3.621094 15.042969 4.226562 C 16.347656 2.851562 17.746094 1.628906 19.648438 1.085938 C 24.96875 -0.445312 30.148438 4.03125 29.457031 9.515625 C 29.132812 12.078125 28.042969 14.265625 26.261719 16.003906 C 22.671875 19.484375 18.925781 22.8125 15.191406 26.25 " clip-rule="nonzero"/></clipPath><clipPath id="30b385c235"><rect x="0" width="30" y="0" height="27"/></clipPath></defs><g clip-path="url(#7eb5a56093)"><g clip-path="url(#563a6d72ed)"><g transform="matrix(1, 0, 0, 1, 0, 1)"><g clip-path="url(#30b385c235)"><g clip-path="url(#7787cdc0e0)"><g clip-path="url(#738b61f70b)"><path fill="#b71419" d="M 0.484375 0.78125 L 29.539062 0.78125 L 29.539062 26.25 L 0.484375 26.25 Z M 0.484375 0.78125 " fill-opacity="1" fill-rule="nonzero"/></g></g></g></g></g></g></svg>