<svg xmlns="http://www.w3.org/2000/svg" xmlns:xlink="http://www.w3.org/1999/xlink" width="40" zoomAndPan="magnify" viewBox="0 0 30 30.000001" height="40" preserveAspectRatio="xMidYMid meet" version="1.0"><defs><clipPath id="aac7a68138"><path d="M 0.484375 0 L 29 0 L 29 29 L 0.484375 29 Z M 0.484375 0 " clip-rule="nonzero"/></clipPath><clipPath id="68854d274e"><path d="M 2.929688 2.445312 L 27.070312 2.445312 L 27.070312 26.585938 L 2.929688 26.585938 Z M 2.929688 2.445312 " clip-rule="nonzero"/></clipPath><clipPath id="1763a56f25"><path d="M 15 2.445312 C 8.335938 2.445312 2.929688 7.851562 2.929688 14.515625 C 2.929688 21.183594 8.335938 26.585938 15 26.585938 C 21.664062 26.585938 27.070312 21.183594 27.070312 14.515625 C 27.070312 7.851562 21.664062 2.445312 15 2.445312 Z M 15 2.445312 " clip-rule="nonzero"/></clipPath><clipPath id="459f204c88"><path d="M 0.929688 0.445312 L 25.070312 0.445312 L 25.070312 24.585938 L 0.929688 24.585938 Z M 0.929688 0.445312 " clip-rule="nonzero"/></clipPath><clipPath id="3e09ef768f"><path d="M 13 0.445312 C 6.335938 0.445312 0.929688 5.851562 0.929688 12.515625 C 0.929688 19.183594 6.335938 24.585938 13 24.585938 C 19.664062 24.585938 25.070312 19.183594 25.070312 12.515625 C 25.070312 5.851562 19.664062 0.445312 13 0.445312 Z M 13 0.445312 " clip-rule="nonzero"/></clipPath><clipPath id="0c26602fe8"><rect x="0" width="26" y="0" height="25"/></clipPath><clipPath id="7f088200de"><path d="M 1.210938 0.726562 L 28.222656 0.726562 L 28.222656 27.738281 L 1.210938 27.738281 Z M 1.210938 0.726562 " clip-rule="nonzero"/></clipPath><clipPath id="c7e07df4fd"><rect x="0" width="29" y="0" height="29"/></clipPath></defs><g clip-path="url(#aac7a68138)"><g transform="matrix(1, 0, 0, 1, 0, 0.000000000000005773)"><g clip-path="url(#c7e07df4fd)"><g clip-path="url(#68854d274e)"><g clip-path="url(#1763a56f25)"><g transform="matrix(1, 0, 0, 1, 2, 2)"><g clip-path="url(#0c26602fe8)"><g clip-path="url(#459f204c88)"><g clip-path="url(#3e09ef768f)"><path fill="#ffffff" d="M 0.929688 0.445312 L 25.070312 0.445312 L 25.070312 24.585938 L 0.929688 24.585938 Z M 0.929688 0.445312 " fill-opacity="1" fill-rule="nonzero"/></g></g></g></g></g></g><g clip-path="url(#7f088200de)"><path fill="#e9519c" d="M 15.449219 10.363281 C 16.773438 10.363281 17.222656 11.078125 17.109375 12.070312 L 16.027344 21.785156 C 15.964844 22.351562 16.273438 22.566406 16.71875 22.167969 C 17.414062 21.542969 18.316406 22.414062 16.875 23.710938 C 15.902344 24.578125 15.183594 25.324219 13.890625 25.277344 C 12.625 25.234375 12.171875 24.515625 12.289062 23.527344 L 13.371094 13.808594 C 13.433594 13.242188 13.121094 13.03125 12.679688 13.425781 C 11.980469 14.054688 11.082031 13.179688 12.523438 11.886719 C 13.429688 11.070312 14.125 10.363281 15.449219 10.363281 Z M 14.695312 4.265625 C 16.039062 4.265625 17.128906 5.355469 17.128906 6.699219 C 17.128906 8.042969 16.039062 9.132812 14.695312 9.132812 C 13.351562 9.136719 12.261719 8.042969 12.261719 6.699219 C 12.261719 5.355469 13.351562 4.261719 14.695312 4.265625 Z M 14.976562 0.753906 C 7.371094 0.753906 1.199219 6.921875 1.199219 14.53125 C 1.199219 22.140625 7.371094 28.3125 14.976562 28.3125 C 22.589844 28.3125 28.757812 22.140625 28.757812 14.53125 C 28.757812 6.921875 22.589844 0.753906 14.976562 0.753906 Z M 14.976562 0.753906 " fill-opacity="1" fill-rule="nonzero"/></g></g></g></g></svg>