<svg xmlns="http://www.w3.org/2000/svg" xmlns:xlink="http://www.w3.org/1999/xlink" width="40" zoomAndPan="magnify" viewBox="0 0 30 30.000001" height="40" preserveAspectRatio="xMidYMid meet" version="1.0"><defs><clipPath id="62765b6a32"><path d="M 2.804688 9.707031 L 27.234375 9.707031 L 27.234375 19.269531 L 2.804688 19.269531 Z M 2.804688 9.707031 " clip-rule="nonzero"/></clipPath><clipPath id="2b4f0911ea"><path d="M 26.796875 14.109375 C 26.808594 13.714844 26.710938 13.152344 26.515625 12.621094 C 25.992188 11.105469 24.722656 10.238281 23.28125 10.207031 C 22.265625 10.191406 21.25 10.507812 20.320312 10.941406 C 18.527344 11.78125 16.945312 13.085938 15.445312 14.445312 C 15.21875 14.648438 15.28125 14.640625 15.445312 14.796875 C 16.707031 16.023438 18.089844 17.128906 19.613281 17.925781 C 20.527344 18.421875 21.53125 18.707031 22.542969 18.816406 C 25.046875 19.007812 26.847656 16.945312 26.792969 14.105469 M 3.214844 14.203125 C 3.160156 16.410156 4.363281 18.320312 6.3125 18.726562 C 7.375 18.980469 8.441406 18.734375 9.441406 18.347656 C 11.378906 17.578125 13.078125 16.222656 14.621094 14.738281 C 14.710938 14.652344 14.722656 14.585938 14.617188 14.5 C 14.105469 14.050781 13.601562 13.585938 13.074219 13.152344 C 12.109375 12.351562 11.054688 11.699219 9.984375 11.089844 C 9.382812 10.757812 8.746094 10.496094 8.078125 10.375 C 7.734375 10.3125 7.386719 10.222656 7.039062 10.203125 C 4.871094 10.070312 3.214844 11.820312 3.21875 14.207031 M 27.1875 14.230469 C 27.28125 16.742188 25.640625 19.074219 23.375 19.222656 C 23.125 19.222656 22.867188 19.28125 22.621094 19.265625 C 20.84375 19.183594 19.207031 18.308594 17.734375 17.269531 C 16.816406 16.652344 15.992188 15.894531 15.171875 15.136719 C 14.992188 14.972656 14.992188 14.96875 14.820312 15.144531 C 13.527344 16.382812 12.140625 17.542969 10.578125 18.328125 C 10.066406 18.578125 9.539062 18.785156 9.015625 18.980469 C 8.777344 19.070312 8.523438 19.109375 8.273438 19.144531 C 7.886719 19.195312 7.503906 19.242188 7.113281 19.257812 C 5.28125 19.273438 3.6875 18.070312 3.085938 16.125 C 2.886719 15.492188 2.789062 14.839844 2.808594 14.175781 C 2.820312 13.78125 2.90625 13.386719 2.972656 12.996094 C 3.25 11.539062 4.3125 10.324219 5.605469 9.953125 C 5.851562 9.878906 6.109375 9.847656 6.367188 9.8125 C 6.566406 9.78125 6.769531 9.753906 6.964844 9.765625 C 7.464844 9.792969 7.960938 9.851562 8.445312 10.011719 C 8.851562 10.148438 9.265625 10.269531 9.65625 10.453125 C 10.960938 11.09375 12.238281 11.839844 13.351562 12.839844 C 13.859375 13.285156 14.371094 13.722656 14.875 14.175781 C 14.972656 14.269531 15.039062 14.265625 15.136719 14.171875 C 15.835938 13.492188 16.582031 12.867188 17.347656 12.28125 C 18.597656 11.347656 19.941406 10.511719 21.394531 10.050781 C 21.773438 9.925781 22.175781 9.878906 22.570312 9.820312 C 22.832031 9.777344 23.097656 9.757812 23.355469 9.769531 C 24.988281 9.808594 26.472656 10.9375 26.972656 12.691406 C 27.132812 13.214844 27.21875 13.769531 27.1875 14.230469 " clip-rule="nonzero"/></clipPath><clipPath id="1a81908385"><path d="M 0.804688 0.707031 L 25.234375 0.707031 L 25.234375 10.269531 L 0.804688 10.269531 Z M 0.804688 0.707031 " clip-rule="nonzero"/></clipPath><clipPath id="8ccf0cf8d6"><path d="M 24.796875 5.109375 C 24.808594 4.714844 24.710938 4.152344 24.515625 3.621094 C 23.992188 2.105469 22.722656 1.238281 21.28125 1.207031 C 20.265625 1.191406 19.25 1.507812 18.320312 1.941406 C 16.527344 2.78125 14.945312 4.085938 13.445312 5.445312 C 13.21875 5.648438 13.28125 5.640625 13.445312 5.796875 C 14.707031 7.023438 16.089844 8.128906 17.613281 8.925781 C 18.527344 9.421875 19.53125 9.707031 20.542969 9.816406 C 23.046875 10.007812 24.847656 7.945312 24.792969 5.105469 M 1.214844 5.203125 C 1.160156 7.410156 2.363281 9.320312 4.3125 9.726562 C 5.375 9.980469 6.441406 9.734375 7.441406 9.347656 C 9.378906 8.578125 11.078125 7.222656 12.621094 5.738281 C 12.710938 5.652344 12.722656 5.585938 12.617188 5.5 C 12.105469 5.050781 11.601562 4.585938 11.074219 4.152344 C 10.109375 3.351562 9.054688 2.699219 7.984375 2.089844 C 7.382812 1.757812 6.746094 1.496094 6.078125 1.375 C 5.734375 1.3125 5.386719 1.222656 5.039062 1.203125 C 2.871094 1.070312 1.214844 2.820312 1.21875 5.207031 M 25.1875 5.230469 C 25.28125 7.742188 23.640625 10.074219 21.375 10.222656 C 21.125 10.222656 20.867188 10.28125 20.621094 10.265625 C 18.84375 10.183594 17.207031 9.308594 15.734375 8.269531 C 14.816406 7.652344 13.992188 6.894531 13.171875 6.136719 C 12.992188 5.972656 12.992188 5.96875 12.820312 6.144531 C 11.527344 7.382812 10.140625 8.542969 8.578125 9.328125 C 8.066406 9.578125 7.539062 9.785156 7.015625 9.980469 C 6.777344 10.070312 6.523438 10.109375 6.273438 10.144531 C 5.886719 10.195312 5.503906 10.242188 5.113281 10.257812 C 3.28125 10.273438 1.6875 9.070312 1.085938 7.125 C 0.886719 6.492188 0.789062 5.839844 0.808594 5.175781 C 0.820312 4.78125 0.90625 4.386719 0.972656 3.996094 C 1.25 2.539062 2.3125 1.324219 3.605469 0.953125 C 3.851562 0.878906 4.109375 0.847656 4.367188 0.8125 C 4.566406 0.78125 4.769531 0.753906 4.964844 0.765625 C 5.464844 0.792969 5.960938 0.851562 6.445312 1.011719 C 6.851562 1.148438 7.265625 1.269531 7.65625 1.453125 C 8.960938 2.09375 10.238281 2.839844 11.351562 3.839844 C 11.859375 4.285156 12.371094 4.722656 12.875 5.175781 C 12.972656 5.269531 13.039062 5.265625 13.136719 5.171875 C 13.835938 4.492188 14.582031 3.867188 15.347656 3.28125 C 16.597656 2.347656 17.941406 1.511719 19.394531 1.050781 C 19.773438 0.925781 20.175781 0.878906 20.570312 0.820312 C 20.832031 0.777344 21.097656 0.757812 21.355469 0.769531 C 22.988281 0.808594 24.472656 1.9375 24.972656 3.691406 C 25.132812 4.214844 25.21875 4.769531 25.1875 5.230469 " clip-rule="nonzero"/></clipPath><clipPath id="b7e15e3a67"><rect x="0" width="26" y="0" height="11"/></clipPath><clipPath id="b12c0bdeab"><path d="M 2.308594 9.265625 L 27.675781 9.265625 L 27.675781 19.765625 L 2.308594 19.765625 Z M 2.308594 9.265625 " clip-rule="nonzero"/></clipPath><clipPath id="f10f5f48e6"><path d="M 26.328125 14.097656 C 26.335938 13.773438 26.253906 13.273438 26.074219 12.78125 L 26.074219 12.777344 C 25.621094 11.449219 24.519531 10.707031 23.273438 10.675781 L 23.285156 10.207031 L 23.277344 10.675781 C 22.359375 10.664062 21.417969 10.949219 20.523438 11.367188 L 20.324219 10.941406 L 20.523438 11.367188 C 18.796875 12.179688 17.257812 13.441406 15.761719 14.792969 C 15.71875 14.835938 15.703125 14.851562 15.695312 14.859375 C 15.753906 14.785156 15.835938 14.546875 15.679688 14.371094 C 15.679688 14.371094 15.675781 14.367188 15.675781 14.367188 C 15.675781 14.367188 15.683594 14.375 15.699219 14.394531 C 15.71875 14.414062 15.746094 14.433594 15.773438 14.464844 L 15.445312 14.800781 L 15.769531 14.464844 C 17.015625 15.671875 18.359375 16.742188 19.832031 17.511719 L 19.835938 17.511719 C 20.691406 17.976562 21.632812 18.246094 22.59375 18.355469 L 22.542969 18.820312 L 22.578125 18.351562 C 24.578125 18.507812 26.128906 17.003906 26.308594 14.679688 C 26.324219 14.5 26.328125 14.308594 26.324219 14.117188 L 26.324219 14.09375 M 27.265625 14.117188 L 26.796875 14.109375 L 27.269531 14.101562 C 27.273438 14.324219 27.265625 14.542969 27.25 14.753906 C 27.039062 17.472656 25.148438 19.496094 22.507812 19.292969 L 22.492188 19.292969 C 21.429688 19.175781 20.367188 18.871094 19.394531 18.34375 L 19.617188 17.929688 L 19.398438 18.347656 C 17.824219 17.519531 16.402344 16.386719 15.117188 15.144531 C 15.105469 15.128906 15.085938 15.113281 15.066406 15.09375 C 15.050781 15.078125 15.03125 15.0625 15.007812 15.039062 C 15 15.03125 14.988281 15.019531 14.980469 15.007812 C 14.742188 14.746094 14.820312 14.4375 14.988281 14.242188 C 15.035156 14.195312 15.085938 14.144531 15.128906 14.101562 L 15.445312 14.449219 L 15.128906 14.101562 C 16.632812 12.734375 18.257812 11.394531 20.121094 10.519531 C 21.085938 10.070312 22.175781 9.722656 23.289062 9.738281 L 23.296875 9.738281 C 24.929688 9.777344 26.375 10.773438 26.960938 12.472656 L 26.515625 12.625 L 26.957031 12.460938 C 27.167969 13.035156 27.277344 13.65625 27.265625 14.125 Z M 3.683594 14.210938 C 3.636719 16.261719 4.742188 17.917969 6.410156 18.265625 L 6.425781 18.265625 C 7.347656 18.484375 8.308594 18.28125 9.269531 17.90625 L 9.441406 18.34375 L 9.265625 17.90625 C 11.117188 17.171875 12.765625 15.867188 14.296875 14.394531 C 14.246094 14.445312 14.148438 14.679688 14.304688 14.847656 C 14.304688 14.847656 14.3125 14.855469 14.3125 14.855469 C 14.117188 14.6875 13.925781 14.515625 13.738281 14.351562 C 13.546875 14.183594 13.359375 14.015625 13.171875 13.855469 C 13.035156 13.738281 12.90625 13.628906 12.773438 13.515625 C 11.839844 12.742188 10.816406 12.101562 9.753906 11.5 L 9.988281 11.09375 L 9.757812 11.503906 C 9.1875 11.191406 8.597656 10.953125 7.992188 10.84375 L 8.078125 10.378906 L 7.992188 10.84375 C 7.886719 10.824219 7.789062 10.800781 7.691406 10.78125 C 7.59375 10.765625 7.503906 10.746094 7.410156 10.726562 C 7.269531 10.703125 7.140625 10.683594 7.015625 10.675781 C 5.238281 10.5625 3.820312 11.910156 3.695312 13.910156 C 3.6875 14.003906 3.6875 14.105469 3.6875 14.207031 L 3.6875 14.21875 M 2.746094 14.199219 L 3.21875 14.210938 L 2.746094 14.210938 C 2.746094 14.089844 2.75 13.972656 2.757812 13.855469 C 2.910156 11.421875 4.699219 9.589844 7.074219 9.742188 L 7.042969 10.210938 L 7.070312 9.742188 C 7.246094 9.753906 7.421875 9.777344 7.582031 9.808594 C 7.683594 9.828125 7.785156 9.847656 7.882812 9.867188 C 7.976562 9.886719 8.070312 9.90625 8.164062 9.921875 C 8.894531 10.058594 9.582031 10.339844 10.214844 10.691406 L 10.222656 10.691406 C 11.300781 11.300781 12.386719 11.976562 13.378906 12.800781 L 13.078125 13.164062 L 13.378906 12.800781 C 13.519531 12.917969 13.65625 13.035156 13.792969 13.152344 C 13.984375 13.320312 14.179688 13.492188 14.367188 13.65625 C 14.554688 13.824219 14.746094 13.992188 14.933594 14.152344 L 14.625 14.507812 L 14.933594 14.152344 C 14.933594 14.152344 14.9375 14.15625 14.9375 14.15625 C 14.957031 14.171875 14.972656 14.191406 14.992188 14.210938 C 15.289062 14.519531 15.167969 14.871094 14.96875 15.070312 C 14.964844 15.074219 14.960938 15.078125 14.953125 15.085938 L 14.625 14.746094 L 14.953125 15.082031 C 13.390625 16.585938 11.636719 17.992188 9.617188 18.792969 C 8.582031 19.195312 7.40625 19.472656 6.214844 19.191406 L 6.320312 18.730469 L 6.226562 19.191406 C 3.988281 18.722656 2.695312 16.558594 2.75 14.191406 Z M 27.65625 14.214844 C 27.761719 16.894531 26.003906 19.519531 23.410156 19.691406 L 23.378906 19.691406 C 23.292969 19.691406 23.203125 19.703125 23.085938 19.714844 C 22.980469 19.726562 22.839844 19.738281 22.703125 19.738281 C 22.671875 19.738281 22.632812 19.738281 22.597656 19.734375 L 22.621094 19.265625 L 22.597656 19.734375 C 20.6875 19.652344 18.960938 18.710938 17.464844 17.652344 L 17.734375 17.269531 L 17.472656 17.65625 C 16.53125 17.023438 15.6875 16.25 14.878906 15.503906 C 14.867188 15.496094 14.859375 15.488281 14.847656 15.480469 L 15.167969 15.136719 L 14.847656 15.480469 C 14.847656 15.480469 14.84375 15.476562 14.84375 15.476562 C 14.84375 15.476562 14.839844 15.472656 14.839844 15.472656 C 14.800781 15.433594 14.789062 15.425781 14.78125 15.421875 C 14.894531 15.503906 15.105469 15.503906 15.207031 15.417969 C 15.199219 15.425781 15.183594 15.433594 15.140625 15.480469 C 13.835938 16.726562 12.410156 17.929688 10.789062 18.746094 L 10.78125 18.746094 C 10.25 19.003906 9.707031 19.21875 9.175781 19.417969 L 9.011719 18.976562 L 9.175781 19.417969 C 8.886719 19.527344 8.585938 19.574219 8.335938 19.605469 L 8.273438 19.140625 L 8.335938 19.605469 C 7.953125 19.65625 7.542969 19.710938 7.128906 19.726562 L 7.113281 19.726562 C 5.050781 19.742188 3.289062 18.382812 2.636719 16.261719 L 3.085938 16.125 L 2.636719 16.265625 C 2.421875 15.582031 2.3125 14.882812 2.335938 14.160156 C 2.347656 13.804688 2.410156 13.457031 2.464844 13.148438 C 2.480469 13.070312 2.496094 12.996094 2.507812 12.917969 L 2.507812 12.910156 C 2.8125 11.292969 3.992188 9.921875 5.472656 9.496094 L 5.601562 9.949219 L 5.464844 9.496094 C 5.726562 9.417969 5.988281 9.382812 6.210938 9.351562 C 6.238281 9.347656 6.265625 9.347656 6.296875 9.34375 L 6.363281 9.808594 L 6.296875 9.34375 C 6.488281 9.316406 6.738281 9.277344 6.992188 9.289062 L 6.964844 9.769531 L 6.992188 9.296875 C 7.511719 9.328125 8.054688 9.390625 8.597656 9.570312 C 8.679688 9.601562 8.765625 9.628906 8.855469 9.65625 C 8.945312 9.6875 9.03125 9.714844 9.125 9.746094 C 9.363281 9.828125 9.613281 9.917969 9.859375 10.035156 C 11.183594 10.683594 12.5 11.453125 13.664062 12.492188 L 13.347656 12.84375 L 13.660156 12.492188 C 13.820312 12.632812 13.976562 12.769531 14.140625 12.910156 C 14.304688 13.050781 14.464844 13.191406 14.621094 13.332031 C 14.8125 13.5 15 13.660156 15.183594 13.832031 C 15.09375 13.753906 14.894531 13.761719 14.804688 13.839844 L 15.128906 14.175781 L 14.800781 13.839844 C 15.519531 13.140625 16.273438 12.503906 17.050781 11.914062 C 18.320312 10.960938 19.710938 10.089844 21.238281 9.605469 L 21.378906 10.054688 L 21.234375 9.605469 C 21.613281 9.488281 21.996094 9.425781 22.339844 9.378906 C 22.386719 9.371094 22.433594 9.363281 22.480469 9.355469 L 22.554688 9.824219 L 22.480469 9.355469 C 22.757812 9.316406 23.054688 9.285156 23.363281 9.300781 L 23.339844 9.773438 L 23.351562 9.300781 C 25.199219 9.347656 26.855469 10.625 27.410156 12.566406 L 26.957031 12.695312 L 27.40625 12.554688 C 27.582031 13.121094 27.675781 13.730469 27.640625 14.265625 L 27.171875 14.234375 L 27.640625 14.214844 M 26.703125 14.253906 L 26.703125 14.203125 C 26.726562 13.808594 26.65625 13.316406 26.503906 12.832031 L 26.503906 12.816406 C 26.058594 11.253906 24.75 10.273438 23.335938 10.238281 L 23.320312 10.238281 C 23.101562 10.226562 22.871094 10.25 22.625 10.285156 C 22.578125 10.292969 22.527344 10.300781 22.480469 10.308594 C 22.125 10.359375 21.816406 10.410156 21.523438 10.5 C 20.140625 10.9375 18.847656 11.738281 17.617188 12.664062 L 17.335938 12.289062 L 17.621094 12.664062 C 16.867188 13.242188 16.136719 13.855469 15.457031 14.515625 C 15.449219 14.523438 15.4375 14.53125 15.429688 14.542969 C 15.175781 14.773438 14.851562 14.785156 14.582031 14.558594 C 14.570312 14.550781 14.5625 14.539062 14.550781 14.53125 L 14.867188 14.183594 L 14.550781 14.535156 C 14.367188 14.367188 14.179688 14.207031 13.996094 14.042969 C 13.835938 13.902344 13.679688 13.765625 13.515625 13.625 C 13.351562 13.484375 13.191406 13.34375 13.035156 13.203125 C 11.964844 12.234375 10.738281 11.511719 9.449219 10.878906 L 9.65625 10.457031 L 9.453125 10.878906 C 9.257812 10.785156 9.050781 10.707031 8.824219 10.636719 C 8.742188 10.605469 8.65625 10.578125 8.566406 10.550781 C 8.476562 10.519531 8.386719 10.492188 8.296875 10.460938 L 8.445312 10.015625 L 8.296875 10.460938 C 7.875 10.320312 7.421875 10.261719 6.941406 10.234375 C 6.796875 10.226562 6.640625 10.246094 6.433594 10.277344 C 6.402344 10.28125 6.375 10.285156 6.347656 10.289062 C 6.113281 10.324219 5.925781 10.347656 5.746094 10.40625 L 5.738281 10.40625 C 4.636719 10.722656 3.6875 11.78125 3.441406 13.085938 L 2.976562 12.996094 L 3.441406 13.074219 C 3.425781 13.15625 3.410156 13.238281 3.394531 13.316406 C 3.335938 13.636719 3.289062 13.917969 3.28125 14.191406 L 2.808594 14.175781 L 3.28125 14.191406 C 3.261719 14.796875 3.355469 15.398438 3.535156 15.988281 C 4.082031 17.75 5.503906 18.800781 7.109375 18.792969 L 7.113281 19.261719 L 7.09375 18.792969 C 7.457031 18.777344 7.824219 18.730469 8.207031 18.679688 C 8.453125 18.648438 8.664062 18.609375 8.84375 18.542969 C 9.371094 18.347656 9.878906 18.144531 10.371094 17.90625 L 10.574219 18.328125 L 10.363281 17.910156 C 11.863281 17.152344 13.207031 16.03125 14.488281 14.804688 L 14.816406 15.144531 L 14.484375 14.808594 C 14.519531 14.777344 14.566406 14.726562 14.609375 14.695312 C 14.84375 14.5 15.121094 14.5 15.359375 14.6875 C 15.398438 14.71875 15.445312 14.761719 15.472656 14.785156 C 15.472656 14.785156 15.476562 14.789062 15.476562 14.789062 C 15.476562 14.789062 15.480469 14.792969 15.480469 14.792969 C 15.492188 14.804688 15.5 14.8125 15.511719 14.824219 C 16.328125 15.574219 17.117188 16.300781 17.988281 16.886719 L 17.996094 16.894531 C 19.449219 17.917969 20.992188 18.730469 22.628906 18.804688 C 22.648438 18.804688 22.667969 18.804688 22.6875 18.804688 C 22.769531 18.804688 22.859375 18.792969 22.976562 18.785156 C 23.082031 18.773438 23.21875 18.757812 23.355469 18.757812 L 23.359375 19.226562 L 23.332031 18.757812 C 25.265625 18.632812 26.789062 16.597656 26.703125 14.257812 Z M 26.703125 14.253906 " clip-rule="nonzero"/></clipPath><clipPath id="f43257c3aa"><path d="M 0.308594 0.265625 L 25.675781 0.265625 L 25.675781 10.765625 L 0.308594 10.765625 Z M 0.308594 0.265625 " clip-rule="nonzero"/></clipPath><clipPath id="177f342f5b"><path d="M 24.328125 5.097656 C 24.335938 4.773438 24.253906 4.273438 24.074219 3.78125 L 24.074219 3.777344 C 23.621094 2.449219 22.519531 1.707031 21.273438 1.675781 L 21.285156 1.207031 L 21.277344 1.675781 C 20.359375 1.664062 19.417969 1.949219 18.523438 2.367188 L 18.324219 1.941406 L 18.523438 2.367188 C 16.796875 3.179688 15.257812 4.441406 13.761719 5.792969 C 13.71875 5.835938 13.703125 5.851562 13.695312 5.859375 C 13.753906 5.785156 13.835938 5.546875 13.679688 5.371094 C 13.679688 5.371094 13.675781 5.367188 13.675781 5.367188 C 13.675781 5.367188 13.683594 5.375 13.699219 5.394531 C 13.71875 5.414062 13.746094 5.433594 13.773438 5.464844 L 13.445312 5.800781 L 13.769531 5.464844 C 15.015625 6.671875 16.359375 7.742188 17.832031 8.511719 L 17.835938 8.511719 C 18.691406 8.976562 19.632812 9.246094 20.59375 9.355469 L 20.542969 9.820312 L 20.578125 9.351562 C 22.578125 9.507812 24.128906 8.003906 24.308594 5.679688 C 24.324219 5.5 24.328125 5.308594 24.324219 5.117188 L 24.324219 5.09375 M 25.265625 5.117188 L 24.796875 5.109375 L 25.269531 5.101562 C 25.273438 5.324219 25.265625 5.542969 25.25 5.753906 C 25.039062 8.472656 23.148438 10.496094 20.507812 10.292969 L 20.492188 10.292969 C 19.429688 10.175781 18.367188 9.871094 17.394531 9.34375 L 17.617188 8.929688 L 17.398438 9.347656 C 15.824219 8.519531 14.402344 7.386719 13.117188 6.144531 C 13.105469 6.128906 13.085938 6.113281 13.066406 6.09375 C 13.050781 6.078125 13.03125 6.0625 13.007812 6.039062 C 13 6.03125 12.988281 6.019531 12.980469 6.007812 C 12.742188 5.746094 12.820312 5.4375 12.988281 5.242188 C 13.035156 5.195312 13.085938 5.144531 13.128906 5.101562 L 13.445312 5.449219 L 13.128906 5.101562 C 14.632812 3.734375 16.257812 2.394531 18.121094 1.519531 C 19.085938 1.070312 20.175781 0.722656 21.289062 0.738281 L 21.296875 0.738281 C 22.929688 0.777344 24.375 1.773438 24.960938 3.472656 L 24.515625 3.625 L 24.957031 3.460938 C 25.167969 4.035156 25.277344 4.65625 25.265625 5.125 Z M 1.683594 5.210938 C 1.636719 7.261719 2.742188 8.917969 4.410156 9.265625 L 4.425781 9.265625 C 5.347656 9.484375 6.308594 9.28125 7.269531 8.90625 L 7.441406 9.34375 L 7.265625 8.90625 C 9.117188 8.171875 10.765625 6.867188 12.296875 5.394531 C 12.246094 5.445312 12.148438 5.679688 12.304688 5.847656 C 12.304688 5.847656 12.3125 5.855469 12.3125 5.855469 C 12.117188 5.6875 11.925781 5.515625 11.738281 5.351562 C 11.546875 5.183594 11.359375 5.015625 11.171875 4.855469 C 11.035156 4.738281 10.90625 4.628906 10.773438 4.515625 C 9.839844 3.742188 8.816406 3.101562 7.753906 2.5 L 7.988281 2.09375 L 7.757812 2.503906 C 7.1875 2.191406 6.597656 1.953125 5.992188 1.84375 L 6.078125 1.378906 L 5.992188 1.84375 C 5.886719 1.824219 5.789062 1.800781 5.691406 1.78125 C 5.59375 1.765625 5.503906 1.746094 5.410156 1.726562 C 5.269531 1.703125 5.140625 1.683594 5.015625 1.675781 C 3.238281 1.5625 1.820312 2.910156 1.695312 4.910156 C 1.6875 5.003906 1.6875 5.105469 1.6875 5.207031 L 1.6875 5.21875 M 0.746094 5.199219 L 1.21875 5.210938 L 0.746094 5.210938 C 0.746094 5.089844 0.75 4.972656 0.757812 4.855469 C 0.910156 2.421875 2.699219 0.589844 5.074219 0.742188 L 5.042969 1.210938 L 5.070312 0.742188 C 5.246094 0.753906 5.421875 0.777344 5.582031 0.808594 C 5.683594 0.828125 5.785156 0.847656 5.882812 0.867188 C 5.976562 0.886719 6.070312 0.90625 6.164062 0.921875 C 6.894531 1.058594 7.582031 1.339844 8.214844 1.691406 L 8.222656 1.691406 C 9.300781 2.300781 10.386719 2.976562 11.378906 3.800781 L 11.078125 4.164062 L 11.378906 3.800781 C 11.519531 3.917969 11.65625 4.035156 11.792969 4.152344 C 11.984375 4.320312 12.179688 4.492188 12.367188 4.65625 C 12.554688 4.824219 12.746094 4.992188 12.933594 5.152344 L 12.625 5.507812 L 12.933594 5.152344 C 12.933594 5.152344 12.9375 5.15625 12.9375 5.15625 C 12.957031 5.171875 12.972656 5.191406 12.992188 5.210938 C 13.289062 5.519531 13.167969 5.871094 12.96875 6.070312 C 12.964844 6.074219 12.960938 6.078125 12.953125 6.085938 L 12.625 5.746094 L 12.953125 6.082031 C 11.390625 7.585938 9.636719 8.992188 7.617188 9.792969 C 6.582031 10.195312 5.40625 10.472656 4.214844 10.191406 L 4.320312 9.730469 L 4.226562 10.191406 C 1.988281 9.722656 0.695312 7.558594 0.75 5.191406 Z M 25.65625 5.214844 C 25.761719 7.894531 24.003906 10.519531 21.410156 10.691406 L 21.378906 10.691406 C 21.292969 10.691406 21.203125 10.703125 21.085938 10.714844 C 20.980469 10.726562 20.839844 10.738281 20.703125 10.738281 C 20.671875 10.738281 20.632812 10.738281 20.597656 10.734375 L 20.621094 10.265625 L 20.597656 10.734375 C 18.6875 10.652344 16.960938 9.710938 15.464844 8.652344 L 15.734375 8.269531 L 15.472656 8.65625 C 14.53125 8.023438 13.6875 7.25 12.878906 6.503906 C 12.867188 6.496094 12.859375 6.488281 12.847656 6.480469 L 13.167969 6.136719 L 12.847656 6.480469 C 12.847656 6.480469 12.84375 6.476562 12.84375 6.476562 C 12.84375 6.476562 12.839844 6.472656 12.839844 6.472656 C 12.800781 6.433594 12.789062 6.425781 12.78125 6.421875 C 12.894531 6.503906 13.105469 6.503906 13.207031 6.417969 C 13.199219 6.425781 13.183594 6.433594 13.140625 6.480469 C 11.835938 7.726562 10.410156 8.929688 8.789062 9.746094 L 8.78125 9.746094 C 8.25 10.003906 7.707031 10.21875 7.175781 10.417969 L 7.011719 9.976562 L 7.175781 10.417969 C 6.886719 10.527344 6.585938 10.574219 6.335938 10.605469 L 6.273438 10.140625 L 6.335938 10.605469 C 5.953125 10.65625 5.542969 10.710938 5.128906 10.726562 L 5.113281 10.726562 C 3.050781 10.742188 1.289062 9.382812 0.636719 7.261719 L 1.085938 7.125 L 0.636719 7.265625 C 0.421875 6.582031 0.3125 5.882812 0.335938 5.160156 C 0.347656 4.804688 0.410156 4.457031 0.464844 4.148438 C 0.480469 4.070312 0.496094 3.996094 0.507812 3.917969 L 0.507812 3.910156 C 0.8125 2.292969 1.992188 0.921875 3.472656 0.496094 L 3.601562 0.949219 L 3.464844 0.496094 C 3.726562 0.417969 3.988281 0.382812 4.210938 0.351562 C 4.238281 0.347656 4.265625 0.347656 4.296875 0.34375 L 4.363281 0.808594 L 4.296875 0.34375 C 4.488281 0.316406 4.738281 0.277344 4.992188 0.289062 L 4.964844 0.769531 L 4.992188 0.296875 C 5.511719 0.328125 6.054688 0.390625 6.597656 0.570312 C 6.679688 0.601562 6.765625 0.628906 6.855469 0.65625 C 6.945312 0.6875 7.03125 0.714844 7.125 0.746094 C 7.363281 0.828125 7.613281 0.917969 7.859375 1.035156 C 9.183594 1.683594 10.5 2.453125 11.664062 3.492188 L 11.347656 3.84375 L 11.660156 3.492188 C 11.820312 3.632812 11.976562 3.769531 12.140625 3.910156 C 12.304688 4.050781 12.464844 4.191406 12.621094 4.332031 C 12.8125 4.5 13 4.660156 13.183594 4.832031 C 13.09375 4.753906 12.894531 4.761719 12.804688 4.839844 L 13.128906 5.175781 L 12.800781 4.839844 C 13.519531 4.140625 14.273438 3.503906 15.050781 2.914062 C 16.320312 1.960938 17.710938 1.089844 19.238281 0.605469 L 19.378906 1.054688 L 19.234375 0.605469 C 19.613281 0.488281 19.996094 0.425781 20.339844 0.378906 C 20.386719 0.371094 20.433594 0.363281 20.480469 0.355469 L 20.554688 0.824219 L 20.480469 0.355469 C 20.757812 0.316406 21.054688 0.285156 21.363281 0.300781 L 21.339844 0.773438 L 21.351562 0.300781 C 23.199219 0.347656 24.855469 1.625 25.410156 3.566406 L 24.957031 3.695312 L 25.40625 3.554688 C 25.582031 4.121094 25.675781 4.730469 25.640625 5.265625 L 25.171875 5.234375 L 25.640625 5.214844 M 24.703125 5.253906 L 24.703125 5.203125 C 24.726562 4.808594 24.65625 4.316406 24.503906 3.832031 L 24.503906 3.816406 C 24.058594 2.253906 22.75 1.273438 21.335938 1.238281 L 21.320312 1.238281 C 21.101562 1.226562 20.871094 1.25 20.625 1.285156 C 20.578125 1.292969 20.527344 1.300781 20.480469 1.308594 C 20.125 1.359375 19.816406 1.410156 19.523438 1.5 C 18.140625 1.9375 16.847656 2.738281 15.617188 3.664062 L 15.335938 3.289062 L 15.621094 3.664062 C 14.867188 4.242188 14.136719 4.855469 13.457031 5.515625 C 13.449219 5.523438 13.4375 5.53125 13.429688 5.542969 C 13.175781 5.773438 12.851562 5.785156 12.582031 5.558594 C 12.570312 5.550781 12.5625 5.539062 12.550781 5.53125 L 12.867188 5.183594 L 12.550781 5.535156 C 12.367188 5.367188 12.179688 5.207031 11.996094 5.042969 C 11.835938 4.902344 11.679688 4.765625 11.515625 4.625 C 11.351562 4.484375 11.191406 4.34375 11.035156 4.203125 C 9.964844 3.234375 8.738281 2.511719 7.449219 1.878906 L 7.65625 1.457031 L 7.453125 1.878906 C 7.257812 1.785156 7.050781 1.707031 6.824219 1.636719 C 6.742188 1.605469 6.65625 1.578125 6.566406 1.550781 C 6.476562 1.519531 6.386719 1.492188 6.296875 1.460938 L 6.445312 1.015625 L 6.296875 1.460938 C 5.875 1.320312 5.421875 1.261719 4.941406 1.234375 C 4.796875 1.226562 4.640625 1.246094 4.433594 1.277344 C 4.402344 1.28125 4.375 1.285156 4.347656 1.289062 C 4.113281 1.324219 3.925781 1.347656 3.746094 1.40625 L 3.738281 1.40625 C 2.636719 1.722656 1.6875 2.78125 1.441406 4.085938 L 0.976562 3.996094 L 1.441406 4.074219 C 1.425781 4.15625 1.410156 4.238281 1.394531 4.316406 C 1.335938 4.636719 1.289062 4.917969 1.28125 5.191406 L 0.808594 5.175781 L 1.28125 5.191406 C 1.261719 5.796875 1.355469 6.398438 1.535156 6.988281 C 2.082031 8.75 3.503906 9.800781 5.109375 9.792969 L 5.113281 10.261719 L 5.09375 9.792969 C 5.457031 9.777344 5.824219 9.730469 6.207031 9.679688 C 6.453125 9.648438 6.664062 9.609375 6.84375 9.542969 C 7.371094 9.347656 7.878906 9.144531 8.371094 8.90625 L 8.574219 9.328125 L 8.363281 8.910156 C 9.863281 8.152344 11.207031 7.03125 12.488281 5.804688 L 12.816406 6.144531 L 12.484375 5.808594 C 12.519531 5.777344 12.566406 5.726562 12.609375 5.695312 C 12.84375 5.5 13.121094 5.5 13.359375 5.6875 C 13.398438 5.71875 13.445312 5.761719 13.472656 5.785156 C 13.472656 5.785156 13.476562 5.789062 13.476562 5.789062 C 13.476562 5.789062 13.480469 5.792969 13.480469 5.792969 C 13.492188 5.804688 13.5 5.8125 13.511719 5.824219 C 14.328125 6.574219 15.117188 7.300781 15.988281 7.886719 L 15.996094 7.894531 C 17.449219 8.917969 18.992188 9.730469 20.628906 9.804688 C 20.648438 9.804688 20.667969 9.804688 20.6875 9.804688 C 20.769531 9.804688 20.859375 9.792969 20.976562 9.785156 C 21.082031 9.773438 21.21875 9.757812 21.355469 9.757812 L 21.359375 10.226562 L 21.332031 9.757812 C 23.265625 9.632812 24.789062 7.597656 24.703125 5.257812 Z M 24.703125 5.253906 " clip-rule="nonzero"/></clipPath><clipPath id="02a7e30575"><rect x="0" width="26" y="0" height="11"/></clipPath></defs><g clip-path="url(#62765b6a32)"><g clip-path="url(#2b4f0911ea)"><g transform="matrix(1, 0, 0, 1, 2, 9)"><g clip-path="url(#b7e15e3a67)"><g clip-path="url(#1a81908385)"><g clip-path="url(#8ccf0cf8d6)"><rect x="-8.6" width="43.2" fill="#b71419" height="43.200001" y="-15.6" fill-opacity="1"/></g></g></g></g></g></g><g clip-path="url(#b12c0bdeab)"><g clip-path="url(#f10f5f48e6)"><g transform="matrix(1, 0, 0, 1, 2, 9)"><g clip-path="url(#02a7e30575)"><g clip-path="url(#f43257c3aa)"><g clip-path="url(#177f342f5b)"><rect x="-8.6" width="43.2" fill="#b71419" height="43.200001" y="-15.6" fill-opacity="1"/></g></g></g></g></g></g></svg>