<svg xmlns="http://www.w3.org/2000/svg" xmlns:xlink="http://www.w3.org/1999/xlink" width="40" zoomAndPan="magnify" viewBox="0 0 30 30.000001" height="40" preserveAspectRatio="xMidYMid meet" version="1.0"><defs><clipPath id="955024a6bc"><path d="M 2.445312 0 L 26.613281 0 L 26.613281 29.03125 L 2.445312 29.03125 Z M 2.445312 0 " clip-rule="nonzero"/></clipPath><clipPath id="7ab1951678"><path d="M 10.957031 18.777344 C 10.949219 17.1875 9.390625 15.628906 7.835938 15.667969 C 6.332031 15.695312 4.804688 17.238281 4.796875 18.734375 C 4.792969 20.285156 6.316406 21.839844 7.851562 21.847656 C 9.398438 21.855469 10.957031 20.3125 10.949219 18.785156 M 24.832031 23.910156 C 25.425781 24.5625 25.992188 25.179688 26.609375 25.851562 C 25.082031 27.394531 23.5625 28.882812 21.289062 29.023438 C 18.910156 29.171875 16.546875 28.0625 16.3125 25.125 C 16.085938 22.332031 16.878906 19.761719 18.242188 17.339844 C 19.417969 15.257812 20.578125 13.171875 21.667969 11.050781 C 22.425781 9.589844 22.5 7.984375 22.25 6.382812 C 22 4.769531 21.074219 3.691406 19.46875 3.296875 C 17.457031 2.804688 15.410156 2.5625 13.347656 2.832031 C 10.800781 3.164062 9.273438 5.5625 10.074219 8.007812 C 10.632812 9.695312 11.382812 11.316406 12.054688 12.960938 C 12.839844 14.882812 13.441406 16.828125 13.273438 18.957031 C 13.070312 21.597656 11.09375 23.785156 8.519531 24.085938 C 5.988281 24.378906 3.433594 22.71875 2.742188 20.335938 C 1.996094 17.765625 3.199219 15.117188 5.636719 13.914062 C 6.792969 13.339844 8.011719 13.28125 9.363281 13.464844 C 8.785156 12.195312 8.21875 11.03125 7.703125 9.832031 C 6.421875 6.824219 7.332031 3.230469 9.875 1.328125 C 11 0.492188 12.292969 0.0820312 13.679688 0.0351562 C 16.230469 -0.0429688 18.792969 -0.0820312 21.230469 0.878906 C 23.410156 1.738281 24.613281 3.375 24.980469 5.664062 C 25.566406 9.253906 24.589844 12.460938 22.703125 15.492188 C 21.691406 17.121094 20.664062 18.757812 19.878906 20.503906 C 19.371094 21.625 19.175781 22.933594 19.066406 24.171875 C 18.894531 26 20.570312 27.027344 22.210938 26.148438 C 22.816406 25.816406 23.320312 25.296875 23.855469 24.847656 C 24.179688 24.578125 24.464844 24.269531 24.839844 23.910156 " clip-rule="nonzero"/></clipPath><clipPath id="cf0602d4cb"><path d="M 0.445312 0 L 24.613281 0 L 24.613281 29.03125 L 0.445312 29.03125 Z M 0.445312 0 " clip-rule="nonzero"/></clipPath><clipPath id="5200d138ad"><path d="M 8.957031 18.777344 C 8.949219 17.1875 7.390625 15.628906 5.835938 15.667969 C 4.332031 15.695312 2.804688 17.238281 2.796875 18.734375 C 2.792969 20.285156 4.316406 21.839844 5.851562 21.847656 C 7.398438 21.855469 8.957031 20.3125 8.949219 18.785156 M 22.832031 23.910156 C 23.425781 24.5625 23.992188 25.179688 24.609375 25.851562 C 23.082031 27.394531 21.5625 28.882812 19.289062 29.023438 C 16.910156 29.171875 14.546875 28.0625 14.3125 25.125 C 14.085938 22.332031 14.878906 19.761719 16.242188 17.339844 C 17.417969 15.257812 18.578125 13.171875 19.667969 11.050781 C 20.425781 9.589844 20.5 7.984375 20.25 6.382812 C 20 4.769531 19.074219 3.691406 17.46875 3.296875 C 15.457031 2.804688 13.410156 2.5625 11.347656 2.832031 C 8.800781 3.164062 7.273438 5.5625 8.074219 8.007812 C 8.632812 9.695312 9.382812 11.316406 10.054688 12.960938 C 10.839844 14.882812 11.441406 16.828125 11.273438 18.957031 C 11.070312 21.597656 9.09375 23.785156 6.519531 24.085938 C 3.988281 24.378906 1.433594 22.71875 0.742188 20.335938 C -0.00390625 17.765625 1.199219 15.117188 3.636719 13.914062 C 4.792969 13.339844 6.011719 13.28125 7.363281 13.464844 C 6.785156 12.195312 6.21875 11.03125 5.703125 9.832031 C 4.421875 6.824219 5.332031 3.230469 7.875 1.328125 C 9 0.492188 10.292969 0.0820312 11.679688 0.0351562 C 14.230469 -0.0429688 16.792969 -0.0820312 19.230469 0.878906 C 21.410156 1.738281 22.613281 3.375 22.980469 5.664062 C 23.566406 9.253906 22.589844 12.460938 20.703125 15.492188 C 19.691406 17.121094 18.664062 18.757812 17.878906 20.503906 C 17.371094 21.625 17.175781 22.933594 17.066406 24.171875 C 16.894531 26 18.570312 27.027344 20.210938 26.148438 C 20.816406 25.816406 21.320312 25.296875 21.855469 24.847656 C 22.179688 24.578125 22.464844 24.269531 22.839844 23.910156 " clip-rule="nonzero"/></clipPath><clipPath id="68af9745bf"><rect x="0" width="25" y="0" height="30"/></clipPath></defs><g clip-path="url(#955024a6bc)"><g clip-path="url(#7ab1951678)"><g transform="matrix(1, 0, 0, 1, 2, 0.000000000000005692)"><g clip-path="url(#68af9745bf)"><g clip-path="url(#cf0602d4cb)"><g clip-path="url(#5200d138ad)"><path fill="#b71419" d="M 0.539062 0 L 24.613281 0 L 24.613281 29.058594 L 0.539062 29.058594 Z M 0.539062 0 " fill-opacity="1" fill-rule="nonzero"/></g></g></g></g></g></g></svg>