<svg xmlns="http://www.w3.org/2000/svg" xmlns:xlink="http://www.w3.org/1999/xlink" width="40" zoomAndPan="magnify" viewBox="0 0 30 30.000001" height="40" preserveAspectRatio="xMidYMid meet" version="1.0"><defs><clipPath id="892bf0ff68"><path d="M 0.484375 7.265625 L 29.515625 7.265625 L 29.515625 21.710938 L 0.484375 21.710938 Z M 0.484375 7.265625 " clip-rule="nonzero"/></clipPath><clipPath id="330d14df39"><path d="M 2.128906 13.765625 C 3.863281 15.375 9.695312 20.40625 15.125 20.449219 C 15.152344 20.449219 15.179688 20.449219 15.210938 20.449219 C 20.957031 20.449219 25.585938 16 27.820312 13.851562 C 27.910156 13.765625 27.996094 13.679688 28.078125 13.601562 C 26.464844 13.074219 25.210938 12.035156 24.59375 11.441406 C 24.042969 10.914062 23.46875 10.453125 22.878906 10.070312 C 21.933594 9.457031 20.5 8.703125 19.03125 8.589844 C 16.621094 8.40625 15.730469 10.671875 15.691406 10.769531 L 15.105469 12.316406 L 14.511719 10.773438 C 14.480469 10.6875 13.609375 8.558594 11.199219 8.746094 C 9.726562 8.859375 8.292969 9.617188 7.347656 10.226562 C 6.761719 10.605469 6.183594 11.066406 5.632812 11.59375 C 4.988281 12.207031 3.742188 13.242188 2.132812 13.761719 M 15.207031 21.710938 C 15.175781 21.710938 15.144531 21.710938 15.113281 21.710938 C 12.429688 21.6875 9.402344 20.597656 6.105469 18.46875 C 3.195312 16.589844 1.125 14.5625 0.734375 14.175781 C 0.515625 13.949219 0.429688 13.621094 0.519531 13.320312 C 0.605469 13.019531 0.855469 12.785156 1.164062 12.71875 C 2.867188 12.359375 4.242188 11.179688 4.757812 10.691406 C 5.363281 10.109375 6 9.601562 6.65625 9.175781 C 7.722656 8.484375 9.359375 7.628906 11.097656 7.492188 C 12.855469 7.355469 14.011719 8.132812 14.675781 8.808594 C 14.828125 8.96875 14.96875 9.128906 15.085938 9.289062 C 15.210938 9.113281 15.355469 8.925781 15.527344 8.746094 C 16.480469 7.714844 17.722656 7.226562 19.125 7.335938 C 20.859375 7.472656 22.496094 8.324219 23.5625 9.015625 C 24.21875 9.441406 24.859375 9.953125 25.464844 10.53125 C 25.929688 10.976562 27.175781 12.054688 28.730469 12.484375 C 29.105469 12.585938 29.390625 12.882812 29.484375 13.257812 C 29.578125 13.636719 29.457031 14.03125 29.175781 14.300781 C 29.03125 14.429688 28.875 14.585938 28.691406 14.761719 C 27.597656 15.8125 25.765625 17.574219 23.460938 19.039062 C 20.671875 20.8125 17.894531 21.710938 15.207031 21.710938 " clip-rule="nonzero"/></clipPath><clipPath id="bfee9e0cf5"><path d="M 0.484375 0.265625 L 29.515625 0.265625 L 29.515625 14.710938 L 0.484375 14.710938 Z M 0.484375 0.265625 " clip-rule="nonzero"/></clipPath><clipPath id="818f2ec02c"><path d="M 2.128906 6.765625 C 3.863281 8.375 9.695312 13.40625 15.125 13.449219 C 15.152344 13.449219 15.179688 13.449219 15.210938 13.449219 C 20.957031 13.449219 25.585938 9 27.820312 6.851562 C 27.910156 6.765625 27.996094 6.679688 28.078125 6.601562 C 26.464844 6.074219 25.210938 5.035156 24.59375 4.441406 C 24.042969 3.914062 23.46875 3.453125 22.878906 3.070312 C 21.933594 2.457031 20.5 1.703125 19.03125 1.589844 C 16.621094 1.40625 15.730469 3.671875 15.691406 3.769531 L 15.105469 5.316406 L 14.511719 3.773438 C 14.480469 3.6875 13.609375 1.558594 11.199219 1.746094 C 9.726562 1.859375 8.292969 2.617188 7.347656 3.226562 C 6.761719 3.605469 6.183594 4.066406 5.632812 4.59375 C 4.988281 5.207031 3.742188 6.242188 2.132812 6.761719 M 15.207031 14.710938 C 15.175781 14.710938 15.144531 14.710938 15.113281 14.710938 C 12.429688 14.6875 9.402344 13.597656 6.105469 11.46875 C 3.195312 9.589844 1.125 7.5625 0.734375 7.175781 C 0.515625 6.949219 0.429688 6.621094 0.519531 6.320312 C 0.605469 6.019531 0.855469 5.785156 1.164062 5.71875 C 2.867188 5.359375 4.242188 4.179688 4.757812 3.691406 C 5.363281 3.109375 6 2.601562 6.65625 2.175781 C 7.722656 1.484375 9.359375 0.628906 11.097656 0.492188 C 12.855469 0.355469 14.011719 1.132812 14.675781 1.808594 C 14.828125 1.96875 14.96875 2.128906 15.085938 2.289062 C 15.210938 2.113281 15.355469 1.925781 15.527344 1.746094 C 16.480469 0.714844 17.722656 0.226562 19.125 0.335938 C 20.859375 0.472656 22.496094 1.324219 23.5625 2.015625 C 24.21875 2.441406 24.859375 2.953125 25.464844 3.53125 C 25.929688 3.976562 27.175781 5.054688 28.730469 5.484375 C 29.105469 5.585938 29.390625 5.882812 29.484375 6.257812 C 29.578125 6.636719 29.457031 7.03125 29.175781 7.300781 C 29.03125 7.429688 28.875 7.585938 28.691406 7.761719 C 27.597656 8.8125 25.765625 10.574219 23.460938 12.039062 C 20.671875 13.8125 17.894531 14.710938 15.207031 14.710938 " clip-rule="nonzero"/></clipPath><clipPath id="0778da38be"><rect x="0" width="30" y="0" height="15"/></clipPath></defs><g clip-path="url(#892bf0ff68)"><g clip-path="url(#330d14df39)"><g transform="matrix(1, 0, 0, 1, 0, 7)"><g clip-path="url(#0778da38be)"><g clip-path="url(#bfee9e0cf5)"><g clip-path="url(#818f2ec02c)"><path fill="#b71419" d="M 0.484375 0.320312 L 29.539062 0.320312 L 29.539062 14.710938 L 0.484375 14.710938 Z M 0.484375 0.320312 " fill-opacity="1" fill-rule="nonzero"/></g></g></g></g></g></g></svg>