<svg xmlns="http://www.w3.org/2000/svg" xmlns:xlink="http://www.w3.org/1999/xlink" width="109" zoomAndPan="magnify" viewBox="0 0 81.75 104.249996" height="139" preserveAspectRatio="xMidYMid meet" version="1.0"><defs><g/><clipPath id="bc6a37fbef"><path d="M 9.71875 5.402344 L 71.703125 5.402344 L 71.703125 84.164062 L 9.71875 84.164062 Z M 9.71875 5.402344 " clip-rule="nonzero"/></clipPath><clipPath id="bdc2b1dc4b"><path d="M 37.789062 74.890625 C 42.183594 74.222656 55.101562 76.34375 58.046875 73.761719 C 58.640625 73.230469 59.695312 71.5625 59.53125 70.847656 C 59.324219 69.902344 50.550781 66.261719 48.648438 64.40625 C 47.121094 62.898438 46.339844 59.414062 45.308594 58.734375 C 44.460938 58.171875 37.855469 58.128906 36.722656 58.46875 C 32.542969 59.722656 38.558594 71.527344 37.777344 74.902344 M 54.902344 26.953125 C 54.144531 26.207031 49.628906 25.207031 47.582031 23.382812 C 46.375 22.292969 44.867188 19.015625 43.492188 19.324219 C 43.042969 19.421875 40.328125 22.378906 39.050781 23.195312 C 37.195312 24.382812 33.523438 26.097656 31.414062 26.832031 C 29.929688 27.347656 27.136719 27.414062 26.445312 27.878906 C 25.476562 28.527344 25.992188 30.472656 25.398438 31.339844 C 24.664062 32.429688 21.5625 31.515625 21.5625 35.441406 C 21.5625 39.351562 24.597656 38.40625 25.398438 39.550781 C 28.71875 57.753906 47.097656 63.175781 54.882812 44.300781 C 55.410156 42.9375 55.640625 40.265625 56.144531 39.550781 C 56.882812 38.527344 59.664062 39.132812 60.191406 36.023438 C 60.839844 32.164062 56.859375 32.339844 56.144531 31.328125 C 55.464844 30.371094 55.78125 27.832031 54.894531 26.941406 M 48.40625 56.226562 C 47.8125 57.085938 48.1875 60.261719 49.460938 60.601562 C 51.59375 61.171875 59.046875 56.390625 60.71875 54.644531 C 64.710938 50.488281 65.832031 44.75 65.578125 39.1875 C 65.511719 37.683594 64.710938 36.363281 64.765625 34.714844 C 64.820312 33.042969 65.664062 31.503906 65.621094 29.425781 C 65.457031 21.203125 59.082031 10.683594 50.144531 10.222656 C 48.460938 10.136719 46.800781 10.960938 45.734375 10.839844 C 44.1875 10.671875 41.382812 8.398438 38.820312 8.058594 C 32.742188 7.253906 25.917969 8.671875 22.355469 14.046875 C 21.222656 15.753906 20.902344 17.929688 19.835938 19.796875 C 17.296875 24.25 13.527344 26.910156 12.988281 32.503906 C 12.671875 35.8125 14.628906 43.5625 15.902344 46.75 C 17.222656 50.015625 21.234375 52.621094 21.804688 55.128906 C 23.015625 60.449219 19.035156 63.601562 19.75 69.21875 C 20.386719 74.234375 28.257812 84.113281 33.28125 80.585938 C 34.964844 79.398438 34.910156 72.871094 34.675781 70.835938 C 34.378906 68.261719 31.941406 63.339844 32.007812 61.734375 C 32.039062 60.996094 32.886719 60.195312 33.082031 59.347656 C 33.972656 55.601562 32.796875 56.65625 30.960938 55.027344 C 27.863281 52.269531 26.300781 50.105469 24.597656 46.332031 C 24.035156 45.101562 23.761719 42.652344 23.277344 42.011719 C 22.96875 41.617188 21.574219 41.199219 20.792969 40.375 C 17.296875 36.671875 18.648438 30.613281 23.332031 28.933594 C 23.894531 28.128906 23.167969 25.570312 23.453125 25.292969 C 23.597656 25.152344 26.335938 25.304688 27.410156 25.117188 C 31.710938 24.359375 35.941406 22.511719 39.261719 19.675781 C 40.570312 18.554688 43.746094 14.222656 44.140625 14.027344 C 45.339844 13.433594 45.140625 14.476562 45.316406 15.082031 C 46.308594 18.699219 49.277344 22.027344 52.78125 23.425781 C 53.882812 23.863281 57.792969 24.402344 58.003906 24.589844 C 58.453125 24.984375 57.5625 28.074219 58.179688 28.933594 C 62.863281 30.613281 64.226562 36.660156 60.71875 40.375 C 59.9375 41.199219 58.542969 41.617188 58.234375 42.011719 C 56.3125 44.542969 56.144531 50.347656 51.980469 54.183594 C 51.15625 54.941406 48.550781 56.019531 48.394531 56.238281 M 51.277344 62.886719 L 56.507812 66.296875 C 61.355469 68.375 69.359375 70.988281 71.238281 76.375 C 72.457031 79.871094 70.171875 80.621094 68.964844 78.640625 C 68.226562 77.429688 67.90625 75.464844 66.832031 74.386719 C 66.226562 73.78125 62.984375 71.890625 62.191406 71.890625 C 61.863281 71.890625 60.992188 74.96875 59.53125 76.023438 C 54.253906 79.816406 38.996094 76.640625 37.085938 78.015625 C 36.625 78.34375 35.074219 83.839844 34.269531 83.972656 C 27.695312 85.070312 19.539062 79.144531 18.1875 72.660156 C 17.585938 71.945312 14.066406 75.332031 13.636719 76.003906 C 12.085938 78.464844 14.386719 80.113281 9.921875 79.433594 C 8.703125 74.320312 15.96875 71.804688 17.113281 69.648438 C 17.453125 69 17.230469 65.175781 17.648438 63.472656 C 18.101562 61.65625 19.605469 59.292969 19.714844 57.964844 C 19.957031 54.875 15.59375 52.191406 14.132812 49.289062 C 11.636719 44.367188 9.945312 35.023438 10.855469 29.601562 C 11.484375 25.808594 15.582031 21.789062 17.59375 18.292969 C 18.671875 16.421875 18.980469 14.246094 20.113281 12.542969 C 24.464844 5.992188 32.25 4.824219 39.582031 5.792969 C 41.832031 6.089844 43.734375 7.683594 45.671875 7.96875 C 48.023438 8.320312 50.683594 7.738281 53.113281 8.046875 C 60.984375 9.058594 67.148438 19.09375 67.832031 26.402344 C 68.28125 31.25 68.304688 36.683594 68.546875 41.519531 C 67.90625 52.378906 61.9375 60.152344 51.289062 62.878906 " clip-rule="nonzero"/></clipPath><clipPath id="adcb03b375"><path d="M 0.71875 0.402344 L 62.703125 0.402344 L 62.703125 79.164062 L 0.71875 79.164062 Z M 0.71875 0.402344 " clip-rule="nonzero"/></clipPath><clipPath id="97eacc3e0c"><path d="M 28.789062 69.890625 C 33.183594 69.222656 46.101562 71.34375 49.046875 68.761719 C 49.640625 68.230469 50.695312 66.5625 50.53125 65.847656 C 50.324219 64.902344 41.550781 61.261719 39.648438 59.40625 C 38.121094 57.898438 37.339844 54.414062 36.308594 53.734375 C 35.460938 53.171875 28.855469 53.128906 27.722656 53.46875 C 23.542969 54.722656 29.558594 66.527344 28.777344 69.902344 M 45.902344 21.953125 C 45.144531 21.207031 40.628906 20.207031 38.582031 18.382812 C 37.375 17.292969 35.867188 14.015625 34.492188 14.324219 C 34.042969 14.421875 31.328125 17.378906 30.050781 18.195312 C 28.195312 19.382812 24.523438 21.097656 22.414062 21.832031 C 20.929688 22.347656 18.136719 22.414062 17.445312 22.878906 C 16.476562 23.527344 16.992188 25.472656 16.398438 26.339844 C 15.664062 27.429688 12.5625 26.515625 12.5625 30.441406 C 12.5625 34.351562 15.597656 33.40625 16.398438 34.550781 C 19.71875 52.753906 38.097656 58.175781 45.882812 39.300781 C 46.410156 37.9375 46.640625 35.265625 47.144531 34.550781 C 47.882812 33.527344 50.664062 34.132812 51.191406 31.023438 C 51.839844 27.164062 47.859375 27.339844 47.144531 26.328125 C 46.464844 25.371094 46.78125 22.832031 45.894531 21.941406 M 39.40625 51.226562 C 38.8125 52.085938 39.1875 55.261719 40.460938 55.601562 C 42.59375 56.171875 50.046875 51.390625 51.71875 49.644531 C 55.710938 45.488281 56.832031 39.75 56.578125 34.1875 C 56.511719 32.683594 55.710938 31.363281 55.765625 29.714844 C 55.820312 28.042969 56.664062 26.503906 56.621094 24.425781 C 56.457031 16.203125 50.082031 5.683594 41.144531 5.222656 C 39.460938 5.136719 37.800781 5.960938 36.734375 5.839844 C 35.1875 5.671875 32.382812 3.398438 29.820312 3.058594 C 23.742188 2.253906 16.917969 3.671875 13.355469 9.046875 C 12.222656 10.753906 11.902344 12.929688 10.835938 14.796875 C 8.296875 19.25 4.527344 21.910156 3.988281 27.503906 C 3.671875 30.8125 5.628906 38.5625 6.902344 41.75 C 8.222656 45.015625 12.234375 47.621094 12.804688 50.128906 C 14.015625 55.449219 10.035156 58.601562 10.75 64.21875 C 11.386719 69.234375 19.257812 79.113281 24.28125 75.585938 C 25.964844 74.398438 25.910156 67.871094 25.675781 65.835938 C 25.378906 63.261719 22.941406 58.339844 23.007812 56.734375 C 23.039062 55.996094 23.886719 55.195312 24.082031 54.347656 C 24.972656 50.601562 23.796875 51.65625 21.960938 50.027344 C 18.863281 47.269531 17.300781 45.105469 15.597656 41.332031 C 15.035156 40.101562 14.761719 37.652344 14.277344 37.011719 C 13.96875 36.617188 12.574219 36.199219 11.792969 35.375 C 8.296875 31.671875 9.648438 25.613281 14.332031 23.933594 C 14.894531 23.128906 14.167969 20.570312 14.453125 20.292969 C 14.597656 20.152344 17.335938 20.304688 18.410156 20.117188 C 22.710938 19.359375 26.941406 17.511719 30.261719 14.675781 C 31.570312 13.554688 34.746094 9.222656 35.140625 9.027344 C 36.339844 8.433594 36.140625 9.476562 36.316406 10.082031 C 37.308594 13.699219 40.277344 17.027344 43.78125 18.425781 C 44.882812 18.863281 48.792969 19.402344 49.003906 19.589844 C 49.453125 19.984375 48.5625 23.074219 49.179688 23.933594 C 53.863281 25.613281 55.226562 31.660156 51.71875 35.375 C 50.9375 36.199219 49.542969 36.617188 49.234375 37.011719 C 47.3125 39.542969 47.144531 45.347656 42.980469 49.183594 C 42.15625 49.941406 39.550781 51.019531 39.394531 51.238281 M 42.277344 57.886719 L 47.507812 61.296875 C 52.355469 63.375 60.359375 65.988281 62.238281 71.375 C 63.457031 74.871094 61.171875 75.621094 59.964844 73.640625 C 59.226562 72.429688 58.90625 70.464844 57.832031 69.386719 C 57.226562 68.78125 53.984375 66.890625 53.191406 66.890625 C 52.863281 66.890625 51.992188 69.96875 50.53125 71.023438 C 45.253906 74.816406 29.996094 71.640625 28.085938 73.015625 C 27.625 73.34375 26.074219 78.839844 25.269531 78.972656 C 18.695312 80.070312 10.539062 74.144531 9.1875 67.660156 C 8.585938 66.945312 5.066406 70.332031 4.636719 71.003906 C 3.085938 73.464844 5.386719 75.113281 0.921875 74.433594 C -0.296875 69.320312 6.96875 66.804688 8.113281 64.648438 C 8.453125 64 8.230469 60.175781 8.648438 58.472656 C 9.101562 56.65625 10.605469 54.292969 10.714844 52.964844 C 10.957031 49.875 6.59375 47.191406 5.132812 44.289062 C 2.636719 39.367188 0.945312 30.023438 1.855469 24.601562 C 2.484375 20.808594 6.582031 16.789062 8.59375 13.292969 C 9.671875 11.421875 9.980469 9.246094 11.113281 7.542969 C 15.464844 0.992188 23.25 -0.175781 30.582031 0.792969 C 32.832031 1.089844 34.734375 2.683594 36.671875 2.96875 C 39.023438 3.320312 41.683594 2.738281 44.113281 3.046875 C 51.984375 4.058594 58.148438 14.09375 58.832031 21.402344 C 59.28125 26.25 59.304688 31.683594 59.546875 36.519531 C 58.90625 47.378906 52.9375 55.152344 42.289062 57.878906 " clip-rule="nonzero"/></clipPath><clipPath id="dbf8aba972"><rect x="0" width="63" y="0" height="80"/></clipPath><clipPath id="0e39ff83e9"><path d="M 21.660156 19.050781 L 60.617188 19.050781 L 60.617188 56.300781 L 21.660156 56.300781 Z M 21.660156 19.050781 " clip-rule="nonzero"/></clipPath><clipPath id="0555523186"><path d="M 55.167969 26.953125 C 56.070312 27.84375 55.738281 30.371094 56.421875 31.339844 C 57.136719 32.351562 61.125 32.175781 60.464844 36.035156 C 59.9375 39.144531 57.144531 38.527344 56.421875 39.5625 C 55.914062 40.277344 55.683594 42.949219 55.15625 44.3125 C 47.375 63.195312 28.984375 57.777344 25.652344 39.5625 C 24.851562 38.429688 21.816406 39.363281 21.816406 35.449219 C 21.816406 31.527344 24.917969 32.4375 25.652344 31.351562 C 26.246094 30.480469 25.730469 28.535156 26.695312 27.886719 C 27.390625 27.425781 30.179688 27.359375 31.664062 26.84375 C 33.777344 26.105469 37.449219 24.390625 39.304688 23.207031 C 40.582031 22.390625 43.296875 19.433594 43.746094 19.335938 C 45.121094 19.027344 46.625 22.316406 47.847656 23.390625 C 49.902344 25.226562 54.421875 26.21875 55.167969 26.964844 " clip-rule="nonzero"/></clipPath><clipPath id="cb6336c507"><path d="M 0.660156 0.0507812 L 39.617188 0.0507812 L 39.617188 37.300781 L 0.660156 37.300781 Z M 0.660156 0.0507812 " clip-rule="nonzero"/></clipPath><clipPath id="0c99ea0972"><path d="M 34.167969 7.953125 C 35.070312 8.84375 34.738281 11.371094 35.421875 12.339844 C 36.136719 13.351562 40.125 13.175781 39.464844 17.035156 C 38.9375 20.144531 36.144531 19.527344 35.421875 20.5625 C 34.914062 21.277344 34.683594 23.949219 34.15625 25.3125 C 26.375 44.195312 7.984375 38.777344 4.652344 20.5625 C 3.851562 19.429688 0.816406 20.363281 0.816406 16.449219 C 0.816406 12.527344 3.917969 13.4375 4.652344 12.351562 C 5.246094 11.480469 4.730469 9.535156 5.695312 8.886719 C 6.390625 8.425781 9.179688 8.359375 10.664062 7.84375 C 12.777344 7.105469 16.449219 5.390625 18.304688 4.207031 C 19.582031 3.390625 22.296875 0.433594 22.746094 0.335938 C 24.121094 0.0273438 25.625 3.316406 26.847656 4.390625 C 28.902344 6.226562 33.421875 7.21875 34.167969 7.964844 " clip-rule="nonzero"/></clipPath><clipPath id="0f7d3ab860"><rect x="0" width="40" y="0" height="38"/></clipPath><clipPath id="4bdeb8641b"><path d="M 0.550781 2 L 9 2 L 9 10 L 0.550781 10 Z M 0.550781 2 " clip-rule="nonzero"/></clipPath><clipPath id="1a22ef6dd7"><rect x="0" width="78" y="0" height="14"/></clipPath></defs><g clip-path="url(#bc6a37fbef)"><g clip-path="url(#bdc2b1dc4b)"><g transform="matrix(1, 0, 0, 1, 9, 5)"><g clip-path="url(#dbf8aba972)"><g clip-path="url(#adcb03b375)"><g clip-path="url(#97eacc3e0c)"><rect x="-26.985" width="117.72" fill="#fff8f8" height="150.119995" y="-27.934999" fill-opacity="1"/></g></g></g></g></g></g><g clip-path="url(#0e39ff83e9)"><g clip-path="url(#0555523186)"><g transform="matrix(1, 0, 0, 1, 21, 19)"><g clip-path="url(#0f7d3ab860)"><g clip-path="url(#cb6336c507)"><g clip-path="url(#0c99ea0972)"><rect x="-38.985" width="117.72" fill="#e49a75" height="150.119995" y="-41.934999" fill-opacity="1"/></g></g></g></g></g></g><g transform="matrix(1, 0, 0, 1, 2, 88)"><g clip-path="url(#1a22ef6dd7)"><g clip-path="url(#4bdeb8641b)"><g fill="#ffffff" fill-opacity="1"><g transform="translate(0.633012, 9.785376)"><g><path d="M 1.640625 0 L 0.265625 0 L 1.703125 -7.328125 L 3.25 -7.328125 L 4 -2.75 L 6.515625 -7.328125 L 8.140625 -7.328125 L 6.703125 0 L 5.328125 0 L 6.203125 -4.4375 L 4.140625 -0.671875 L 3.140625 -0.671875 L 2.515625 -4.515625 Z M 1.640625 0 "/></g></g></g></g><g fill="#ffffff" fill-opacity="1"><g transform="translate(9.032416, 9.785376)"><g><path d="M 3.234375 0.078125 C 2.421875 0.078125 1.738281 -0.179688 1.1875 -0.703125 C 0.632812 -1.234375 0.359375 -2 0.359375 -3 C 0.359375 -4.21875 0.695312 -5.226562 1.375 -6.03125 C 2.144531 -6.945312 3.15625 -7.40625 4.40625 -7.40625 C 5.207031 -7.40625 5.890625 -7.140625 6.453125 -6.609375 C 7.003906 -6.078125 7.28125 -5.316406 7.28125 -4.328125 C 7.28125 -3.109375 6.941406 -2.097656 6.265625 -1.296875 C 5.503906 -0.378906 4.492188 0.078125 3.234375 0.078125 Z M 3.34375 -1.171875 C 4.019531 -1.171875 4.597656 -1.453125 5.078125 -2.015625 C 5.597656 -2.628906 5.859375 -3.367188 5.859375 -4.234375 C 5.859375 -4.835938 5.722656 -5.304688 5.453125 -5.640625 C 5.191406 -5.984375 4.804688 -6.15625 4.296875 -6.15625 C 3.617188 -6.15625 3.039062 -5.875 2.5625 -5.3125 C 2.039062 -4.695312 1.78125 -3.957031 1.78125 -3.09375 C 1.78125 -2.488281 1.910156 -2.015625 2.171875 -1.671875 C 2.441406 -1.335938 2.832031 -1.171875 3.34375 -1.171875 Z M 3.34375 -1.171875 "/></g></g></g><g fill="#ffffff" fill-opacity="1"><g transform="translate(16.689164, 9.785376)"><g><path d="M 6.265625 -5.59375 C 6.265625 -4.957031 6.082031 -4.441406 5.71875 -4.046875 C 5.351562 -3.640625 4.914062 -3.382812 4.40625 -3.28125 L 5.828125 0 L 4.359375 0 L 3 -3.15625 L 2.265625 -3.15625 L 1.640625 0 L 0.265625 0 L 1.703125 -7.328125 L 4.296875 -7.328125 C 4.910156 -7.328125 5.390625 -7.171875 5.734375 -6.859375 C 6.085938 -6.546875 6.265625 -6.125 6.265625 -5.59375 Z M 2.828125 -6.078125 L 2.5 -4.421875 L 3.75 -4.421875 C 4.070312 -4.421875 4.335938 -4.507812 4.546875 -4.6875 C 4.765625 -4.875 4.875 -5.109375 4.875 -5.390625 C 4.875 -5.847656 4.617188 -6.078125 4.109375 -6.078125 Z M 2.828125 -6.078125 "/></g></g></g><g fill="#ffffff" fill-opacity="1"><g transform="translate(23.111617, 9.785376)"><g><path d="M 0.265625 0 L 1.703125 -7.328125 L 6.140625 -7.328125 L 5.890625 -6.078125 L 2.828125 -6.078125 L 2.53125 -4.53125 L 4.96875 -4.53125 L 4.703125 -3.28125 L 2.28125 -3.28125 L 1.890625 -1.25 L 5.0625 -1.25 L 4.8125 0 Z M 0.265625 0 "/></g></g></g><g fill="#ffffff" fill-opacity="1"><g transform="translate(29.115673, 9.785376)"><g><path d="M 4.875 -2.484375 L 5.8125 -7.328125 L 7.1875 -7.328125 L 5.75 0 L 4.296875 0 L 2.578125 -4.84375 L 1.640625 0 L 0.265625 0 L 1.703125 -7.328125 L 3.15625 -7.328125 Z M 4.875 -2.484375 "/></g></g></g><g fill="#ffffff" fill-opacity="1"><g transform="translate(36.563216, 9.785376)"><g><path d="M 5.640625 0 L 4.171875 0 L 3.984375 -1.734375 L 1.671875 -1.734375 L 0.78125 0 L -0.6875 0 L 3.21875 -7.328125 L 4.5625 -7.328125 Z M 3.84375 -2.984375 L 3.5625 -5.5625 L 2.296875 -2.984375 Z M 3.84375 -2.984375 "/></g></g></g><g fill="#ffffff" fill-opacity="1"><g transform="translate(42.818318, 9.785376)"><g/></g></g><g fill="#ffffff" fill-opacity="1"><g transform="translate(45.129984, 9.785376)"><g><path d="M 7.21875 -5.09375 L 5.9375 -4.78125 C 5.84375 -5.257812 5.664062 -5.609375 5.40625 -5.828125 C 5.15625 -6.046875 4.804688 -6.15625 4.359375 -6.15625 C 3.609375 -6.15625 2.984375 -5.84375 2.484375 -5.21875 C 2.003906 -4.601562 1.765625 -3.90625 1.765625 -3.125 C 1.765625 -2.5 1.910156 -2.015625 2.203125 -1.671875 C 2.492188 -1.335938 2.890625 -1.171875 3.390625 -1.171875 C 3.828125 -1.171875 4.195312 -1.28125 4.5 -1.5 C 4.8125 -1.726562 5.101562 -2.09375 5.375 -2.59375 L 6.578125 -2.21875 C 6.242188 -1.425781 5.800781 -0.84375 5.25 -0.46875 C 4.695312 -0.101562 4 0.078125 3.15625 0.078125 C 2.363281 0.078125 1.695312 -0.203125 1.15625 -0.765625 C 0.625 -1.328125 0.359375 -2.070312 0.359375 -3 C 0.359375 -4.207031 0.757812 -5.242188 1.5625 -6.109375 C 2.363281 -6.972656 3.378906 -7.40625 4.609375 -7.40625 C 5.367188 -7.40625 5.976562 -7.191406 6.4375 -6.765625 C 6.894531 -6.328125 7.15625 -5.769531 7.21875 -5.09375 Z M 7.21875 -5.09375 "/></g></g></g><g fill="#ffffff" fill-opacity="1"><g transform="translate(52.389243, 9.785376)"><g><path d="M 0.265625 0 L 1.703125 -7.328125 L 3.078125 -7.328125 L 1.890625 -1.25 L 4.890625 -1.25 L 4.640625 0 Z M 0.265625 0 "/></g></g></g><g fill="#ffffff" fill-opacity="1"><g transform="translate(57.80754, 9.785376)"><g><path d="M 5.640625 0 L 4.171875 0 L 3.984375 -1.734375 L 1.671875 -1.734375 L 0.78125 0 L -0.6875 0 L 3.21875 -7.328125 L 4.5625 -7.328125 Z M 3.84375 -2.984375 L 3.5625 -5.5625 L 2.296875 -2.984375 Z M 3.84375 -2.984375 "/></g></g></g><g fill="#ffffff" fill-opacity="1"><g transform="translate(64.062642, 9.785376)"><g><path d="M 6.265625 -5.59375 C 6.265625 -4.957031 6.082031 -4.441406 5.71875 -4.046875 C 5.351562 -3.640625 4.914062 -3.382812 4.40625 -3.28125 L 5.828125 0 L 4.359375 0 L 3 -3.15625 L 2.265625 -3.15625 L 1.640625 0 L 0.265625 0 L 1.703125 -7.328125 L 4.296875 -7.328125 C 4.910156 -7.328125 5.390625 -7.171875 5.734375 -6.859375 C 6.085938 -6.546875 6.265625 -6.125 6.265625 -5.59375 Z M 2.828125 -6.078125 L 2.5 -4.421875 L 3.75 -4.421875 C 4.070312 -4.421875 4.335938 -4.507812 4.546875 -4.6875 C 4.765625 -4.875 4.875 -5.109375 4.875 -5.390625 C 4.875 -5.847656 4.617188 -6.078125 4.109375 -6.078125 Z M 2.828125 -6.078125 "/></g></g></g><g fill="#ffffff" fill-opacity="1"><g transform="translate(70.485095, 9.785376)"><g><path d="M 5.640625 0 L 4.171875 0 L 3.984375 -1.734375 L 1.671875 -1.734375 L 0.78125 0 L -0.6875 0 L 3.21875 -7.328125 L 4.5625 -7.328125 Z M 3.84375 -2.984375 L 3.5625 -5.5625 L 2.296875 -2.984375 Z M 3.84375 -2.984375 "/></g></g></g></g></g></svg>