<svg xmlns="http://www.w3.org/2000/svg" xmlns:xlink="http://www.w3.org/1999/xlink" width="119" zoomAndPan="magnify" viewBox="0 0 89.25 104.249996" height="139" preserveAspectRatio="xMidYMid meet" version="1.0"><defs><g/><clipPath id="a111ea0adc"><path d="M 13.089844 5.457031 L 75 5.457031 L 75 84.125 L 13.089844 84.125 Z M 13.089844 5.457031 " clip-rule="nonzero"/></clipPath><clipPath id="6190d76e25"><path d="M 41.125 74.863281 C 45.519531 74.195312 58.417969 76.3125 61.363281 73.734375 C 61.953125 73.207031 63.007812 71.539062 62.84375 70.824219 C 62.636719 69.878906 53.875 66.246094 51.972656 64.390625 C 50.4375 62.886719 49.65625 59.40625 48.636719 58.726562 C 47.789062 58.164062 41.191406 58.121094 40.0625 58.460938 C 35.890625 59.714844 41.894531 71.503906 41.117188 74.875 M 58.222656 26.984375 C 57.464844 26.238281 52.953125 25.238281 50.910156 23.414062 C 49.703125 22.328125 48.195312 19.058594 46.8125 19.363281 C 46.363281 19.464844 43.652344 22.417969 42.378906 23.230469 C 40.523438 24.414062 36.855469 26.128906 34.746094 26.863281 C 33.265625 27.378906 30.476562 27.445312 29.785156 27.90625 C 28.820312 28.554688 29.335938 30.496094 28.742188 31.363281 C 28.007812 32.453125 24.910156 31.539062 24.910156 35.460938 C 24.910156 39.367188 27.941406 38.425781 28.742188 39.566406 C 32.070312 57.746094 50.425781 63.160156 58.199219 44.308594 C 58.726562 42.949219 58.957031 40.28125 59.460938 39.566406 C 60.199219 38.546875 62.976562 39.148438 63.503906 36.042969 C 64.148438 32.1875 60.175781 32.363281 59.460938 31.355469 C 58.78125 30.398438 59.101562 27.863281 58.210938 26.972656 M 51.734375 56.222656 C 51.140625 57.078125 51.511719 60.25 52.785156 60.589844 C 54.917969 61.164062 62.359375 56.386719 64.03125 54.640625 C 68.015625 50.492188 69.136719 44.757812 68.882812 39.203125 C 68.816406 37.699219 68.015625 36.382812 68.070312 34.734375 C 68.125 33.066406 68.96875 31.53125 68.925781 29.453125 C 68.761719 21.242188 62.394531 10.734375 53.46875 10.273438 C 51.789062 10.183594 50.128906 11.007812 49.066406 10.886719 C 47.515625 10.722656 44.714844 8.449219 42.160156 8.109375 C 36.085938 7.308594 29.269531 8.726562 25.710938 14.09375 C 24.582031 15.796875 24.261719 17.96875 23.195312 19.835938 C 20.660156 24.28125 16.894531 26.941406 16.355469 32.527344 C 16.039062 35.832031 17.992188 43.574219 19.265625 46.757812 C 20.574219 50.019531 24.589844 52.621094 25.164062 55.125 C 26.371094 60.4375 22.40625 63.589844 23.109375 69.199219 C 23.746094 74.207031 31.605469 84.078125 36.625 80.550781 C 38.304688 79.367188 38.25 72.84375 38.019531 70.8125 C 37.722656 68.246094 35.285156 63.324219 35.351562 61.722656 C 35.375 60.988281 36.230469 60.183594 36.425781 59.339844 C 37.316406 55.597656 36.140625 56.648438 34.308594 55.023438 C 31.210938 52.269531 29.652344 50.105469 27.953125 46.339844 C 27.390625 45.109375 27.117188 42.664062 26.632812 42.027344 C 26.328125 41.628906 24.933594 41.214844 24.152344 40.390625 C 20.660156 36.691406 22.011719 30.640625 26.6875 28.960938 C 27.25 28.160156 26.523438 25.601562 26.808594 25.324219 C 26.953125 25.183594 29.6875 25.335938 30.761719 25.148438 C 35.054688 24.394531 39.292969 22.546875 42.597656 19.714844 C 43.914062 18.59375 47.078125 14.269531 47.472656 14.070312 C 48.667969 13.480469 48.472656 14.523438 48.648438 15.125 C 49.636719 18.738281 52.601562 22.066406 56.089844 23.460938 C 57.1875 23.898438 61.097656 24.4375 61.304688 24.625 C 61.757812 25.019531 60.867188 28.105469 61.480469 28.960938 C 66.160156 30.640625 67.519531 36.679688 64.019531 40.390625 C 63.238281 41.214844 61.84375 41.628906 61.539062 42.027344 C 59.617188 44.550781 59.449219 50.347656 55.289062 54.179688 C 54.464844 54.9375 51.863281 56.011719 51.710938 56.234375 M 54.585938 62.875 L 59.8125 66.277344 C 64.65625 68.355469 72.648438 70.96875 74.527344 76.347656 C 75.746094 79.839844 73.460938 80.585938 72.253906 78.609375 C 71.515625 77.402344 71.199219 75.4375 70.121094 74.359375 C 69.519531 73.757812 66.28125 71.867188 65.488281 71.867188 C 65.160156 71.867188 64.292969 74.941406 62.832031 75.996094 C 57.5625 79.785156 42.324219 76.609375 40.414062 77.984375 C 39.953125 78.3125 38.402344 83.800781 37.601562 83.933594 C 31.035156 85.03125 22.890625 79.113281 21.539062 72.636719 C 20.933594 71.921875 17.421875 75.304688 16.992188 75.972656 C 15.445312 78.433594 17.742188 80.078125 13.28125 79.398438 C 12.0625 74.292969 19.320312 71.78125 20.464844 69.628906 C 20.804688 68.980469 20.574219 65.160156 21 63.457031 C 21.453125 61.644531 22.957031 59.285156 23.066406 57.957031 C 23.308594 54.871094 18.949219 52.191406 17.488281 49.292969 C 14.996094 44.375 13.304688 35.042969 14.214844 29.628906 C 14.851562 25.84375 18.9375 21.824219 20.945312 18.332031 C 22.023438 16.464844 22.328125 14.292969 23.460938 12.589844 C 27.796875 6.046875 35.582031 4.882812 42.90625 5.847656 C 45.15625 6.144531 47.054688 7.738281 48.988281 8.023438 C 51.335938 8.375 53.996094 7.792969 56.421875 8.097656 C 64.28125 9.109375 70.441406 19.132812 71.121094 26.433594 C 71.570312 31.277344 71.59375 36.699219 71.835938 41.53125 C 71.199219 52.378906 65.238281 60.140625 54.597656 62.863281 " clip-rule="nonzero"/></clipPath><clipPath id="84e43b0704"><path d="M 0.0898438 0.457031 L 62 0.457031 L 62 79.125 L 0.0898438 79.125 Z M 0.0898438 0.457031 " clip-rule="nonzero"/></clipPath><clipPath id="6570fe9728"><path d="M 28.125 69.863281 C 32.519531 69.195312 45.417969 71.3125 48.363281 68.734375 C 48.953125 68.207031 50.007812 66.539062 49.84375 65.824219 C 49.636719 64.878906 40.875 61.246094 38.972656 59.390625 C 37.4375 57.886719 36.65625 54.40625 35.636719 53.726562 C 34.789062 53.164062 28.191406 53.121094 27.0625 53.460938 C 22.890625 54.714844 28.894531 66.503906 28.117188 69.875 M 45.222656 21.984375 C 44.464844 21.238281 39.953125 20.238281 37.910156 18.414062 C 36.703125 17.328125 35.195312 14.058594 33.8125 14.363281 C 33.363281 14.464844 30.652344 17.417969 29.378906 18.230469 C 27.523438 19.414062 23.855469 21.128906 21.746094 21.863281 C 20.265625 22.378906 17.476562 22.445312 16.785156 22.90625 C 15.820312 23.554688 16.335938 25.496094 15.742188 26.363281 C 15.007812 27.453125 11.910156 26.539062 11.910156 30.460938 C 11.910156 34.367188 14.941406 33.425781 15.742188 34.566406 C 19.070312 52.746094 37.425781 58.160156 45.199219 39.308594 C 45.726562 37.949219 45.957031 35.28125 46.460938 34.566406 C 47.199219 33.546875 49.976562 34.148438 50.503906 31.042969 C 51.148438 27.1875 47.175781 27.363281 46.460938 26.355469 C 45.78125 25.398438 46.101562 22.863281 45.210938 21.972656 M 38.734375 51.222656 C 38.140625 52.078125 38.511719 55.25 39.785156 55.589844 C 41.917969 56.164062 49.359375 51.386719 51.03125 49.640625 C 55.015625 45.492188 56.136719 39.757812 55.882812 34.203125 C 55.816406 32.699219 55.015625 31.382812 55.070312 29.734375 C 55.125 28.066406 55.96875 26.53125 55.925781 24.453125 C 55.761719 16.242188 49.394531 5.734375 40.46875 5.273438 C 38.789062 5.183594 37.128906 6.007812 36.066406 5.886719 C 34.515625 5.722656 31.714844 3.449219 29.160156 3.109375 C 23.085938 2.308594 16.269531 3.726562 12.710938 9.09375 C 11.582031 10.796875 11.261719 12.96875 10.195312 14.835938 C 7.660156 19.28125 3.894531 21.941406 3.355469 27.527344 C 3.039062 30.832031 4.992188 38.574219 6.265625 41.757812 C 7.574219 45.019531 11.589844 47.621094 12.164062 50.125 C 13.371094 55.4375 9.40625 58.589844 10.109375 64.199219 C 10.746094 69.207031 18.605469 79.078125 23.625 75.550781 C 25.304688 74.367188 25.25 67.84375 25.019531 65.8125 C 24.722656 63.246094 22.285156 58.324219 22.351562 56.722656 C 22.375 55.988281 23.230469 55.183594 23.425781 54.339844 C 24.316406 50.597656 23.140625 51.648438 21.308594 50.023438 C 18.210938 47.269531 16.652344 45.105469 14.953125 41.339844 C 14.390625 40.109375 14.117188 37.664062 13.632812 37.027344 C 13.328125 36.628906 11.933594 36.214844 11.152344 35.390625 C 7.660156 31.691406 9.011719 25.640625 13.6875 23.960938 C 14.25 23.160156 13.523438 20.601562 13.808594 20.324219 C 13.953125 20.183594 16.6875 20.335938 17.761719 20.148438 C 22.054688 19.394531 26.292969 17.546875 29.597656 14.714844 C 30.914062 13.59375 34.078125 9.269531 34.472656 9.070312 C 35.667969 8.480469 35.472656 9.523438 35.648438 10.125 C 36.636719 13.738281 39.601562 17.066406 43.089844 18.460938 C 44.1875 18.898438 48.097656 19.4375 48.304688 19.625 C 48.757812 20.019531 47.867188 23.105469 48.480469 23.960938 C 53.160156 25.640625 54.519531 31.679688 51.019531 35.390625 C 50.238281 36.214844 48.84375 36.628906 48.539062 37.027344 C 46.617188 39.550781 46.449219 45.347656 42.289062 49.179688 C 41.464844 49.9375 38.863281 51.011719 38.710938 51.234375 M 41.585938 57.875 L 46.8125 61.277344 C 51.65625 63.355469 59.648438 65.96875 61.527344 71.347656 C 62.746094 74.839844 60.460938 75.585938 59.253906 73.609375 C 58.515625 72.402344 58.199219 70.4375 57.121094 69.359375 C 56.519531 68.757812 53.28125 66.867188 52.488281 66.867188 C 52.160156 66.867188 51.292969 69.941406 49.832031 70.996094 C 44.5625 74.785156 29.324219 71.609375 27.414062 72.984375 C 26.953125 73.3125 25.402344 78.800781 24.601562 78.933594 C 18.035156 80.03125 9.890625 74.113281 8.539062 67.636719 C 7.933594 66.921875 4.421875 70.304688 3.992188 70.972656 C 2.445312 73.433594 4.742188 75.078125 0.28125 74.398438 C -0.9375 69.292969 6.320312 66.78125 7.464844 64.628906 C 7.804688 63.980469 7.574219 60.160156 8 58.457031 C 8.453125 56.644531 9.957031 54.285156 10.066406 52.957031 C 10.308594 49.871094 5.949219 47.191406 4.488281 44.292969 C 1.996094 39.375 0.304688 30.042969 1.214844 24.628906 C 1.851562 20.84375 5.9375 16.824219 7.945312 13.332031 C 9.023438 11.464844 9.328125 9.292969 10.460938 7.589844 C 14.796875 1.046875 22.582031 -0.117188 29.90625 0.847656 C 32.15625 1.144531 34.054688 2.738281 35.988281 3.023438 C 38.335938 3.375 40.996094 2.792969 43.421875 3.097656 C 51.28125 4.109375 57.441406 14.132812 58.121094 21.433594 C 58.570312 26.277344 58.59375 31.699219 58.835938 36.53125 C 58.199219 47.378906 52.238281 55.140625 41.597656 57.863281 " clip-rule="nonzero"/></clipPath><clipPath id="7a3aeb9bc1"><rect x="0" width="62" y="0" height="80"/></clipPath><clipPath id="934f68671d"><path d="M 24.734375 19.089844 L 63.640625 19.089844 L 63.640625 56.292969 L 24.734375 56.292969 Z M 24.734375 19.089844 " clip-rule="nonzero"/></clipPath><clipPath id="900af7a6e2"><path d="M 58.222656 26.984375 C 59.121094 27.875 58.804688 30.398438 59.472656 31.363281 C 60.1875 32.375 64.171875 32.199219 63.511719 36.054688 C 62.988281 39.160156 60.199219 38.546875 59.472656 39.578125 C 58.96875 40.289062 58.738281 42.957031 58.199219 44.320312 C 50.425781 63.183594 32.058594 57.769531 28.730469 39.578125 C 27.929688 38.445312 24.898438 39.378906 24.898438 35.472656 C 24.898438 31.550781 27.996094 32.460938 28.730469 31.375 C 29.324219 30.507812 28.808594 28.566406 29.773438 27.917969 C 30.464844 27.457031 33.253906 27.390625 34.738281 26.875 C 36.84375 26.136719 40.511719 24.425781 42.367188 23.238281 C 43.640625 22.425781 46.351562 19.472656 46.804688 19.375 C 48.175781 19.066406 49.679688 22.351562 50.886719 23.425781 C 52.941406 25.261719 57.453125 26.25 58.199219 26.996094 " clip-rule="nonzero"/></clipPath><clipPath id="de3f083d1c"><path d="M 0.753906 0.0898438 L 39.640625 0.0898438 L 39.640625 37.292969 L 0.753906 37.292969 Z M 0.753906 0.0898438 " clip-rule="nonzero"/></clipPath><clipPath id="df3e21e7b5"><path d="M 34.222656 7.984375 C 35.121094 8.875 34.804688 11.398438 35.472656 12.363281 C 36.1875 13.375 40.171875 13.199219 39.511719 17.054688 C 38.988281 20.160156 36.199219 19.546875 35.472656 20.578125 C 34.96875 21.289062 34.738281 23.957031 34.199219 25.320312 C 26.425781 44.183594 8.058594 38.769531 4.730469 20.578125 C 3.929688 19.445312 0.898438 20.378906 0.898438 16.472656 C 0.898438 12.550781 3.996094 13.460938 4.730469 12.375 C 5.324219 11.507812 4.808594 9.566406 5.773438 8.917969 C 6.464844 8.457031 9.253906 8.390625 10.738281 7.875 C 12.84375 7.136719 16.511719 5.425781 18.367188 4.238281 C 19.640625 3.425781 22.351562 0.472656 22.804688 0.375 C 24.175781 0.0664062 25.679688 3.351562 26.886719 4.425781 C 28.941406 6.261719 33.453125 7.25 34.199219 7.996094 " clip-rule="nonzero"/></clipPath><clipPath id="04ffd15bc1"><rect x="0" width="40" y="0" height="38"/></clipPath><clipPath id="45e8acf92b"><path d="M 0.378906 2 L 9 2 L 9 10 L 0.378906 10 Z M 0.378906 2 " clip-rule="nonzero"/></clipPath><clipPath id="6db02d9332"><rect x="0" width="84" y="0" height="14"/></clipPath></defs><g clip-path="url(#a111ea0adc)"><g clip-path="url(#6190d76e25)"><g transform="matrix(1, 0, 0, 1, 13, 5)"><g clip-path="url(#7a3aeb9bc1)"><g clip-path="url(#84e43b0704)"><g clip-path="url(#6570fe9728)"><rect x="-32.635" width="128.52" fill="#fff8f8" height="150.119994" y="-27.934999" fill-opacity="1"/></g></g></g></g></g></g><g clip-path="url(#934f68671d)"><g clip-path="url(#900af7a6e2)"><g transform="matrix(1, 0, 0, 1, 24, 19)"><g clip-path="url(#04ffd15bc1)"><g clip-path="url(#de3f083d1c)"><g clip-path="url(#df3e21e7b5)"><rect x="-43.635" width="128.52" fill="#8b5233" height="150.119994" y="-41.934999" fill-opacity="1"/></g></g></g></g></g></g><g transform="matrix(1, 0, 0, 1, 2, 88)"><g clip-path="url(#6db02d9332)"><g clip-path="url(#45e8acf92b)"><g fill="#ffffff" fill-opacity="1"><g transform="translate(0.462198, 9.743941)"><g><path d="M 1.640625 0 L 0.265625 0 L 1.703125 -7.3125 L 3.234375 -7.3125 L 4 -2.75 L 6.515625 -7.3125 L 8.125 -7.3125 L 6.6875 0 L 5.328125 0 L 6.1875 -4.4375 L 4.125 -0.671875 L 3.140625 -0.671875 L 2.515625 -4.515625 Z M 1.640625 0 "/></g></g></g></g><g fill="#ffffff" fill-opacity="1"><g transform="translate(8.851531, 9.743941)"><g><path d="M 3.234375 0.078125 C 2.421875 0.078125 1.738281 -0.179688 1.1875 -0.703125 C 0.632812 -1.234375 0.359375 -1.992188 0.359375 -2.984375 C 0.359375 -4.203125 0.695312 -5.210938 1.375 -6.015625 C 2.144531 -6.941406 3.15625 -7.40625 4.40625 -7.40625 C 5.207031 -7.40625 5.882812 -7.132812 6.4375 -6.59375 C 6.988281 -6.0625 7.265625 -5.304688 7.265625 -4.328125 C 7.265625 -3.109375 6.925781 -2.097656 6.25 -1.296875 C 5.488281 -0.378906 4.484375 0.078125 3.234375 0.078125 Z M 3.328125 -1.171875 C 4.003906 -1.171875 4.582031 -1.445312 5.0625 -2 C 5.59375 -2.613281 5.859375 -3.351562 5.859375 -4.21875 C 5.859375 -4.820312 5.722656 -5.289062 5.453125 -5.625 C 5.179688 -5.96875 4.796875 -6.140625 4.296875 -6.140625 C 3.617188 -6.140625 3.039062 -5.863281 2.5625 -5.3125 C 2.039062 -4.695312 1.78125 -3.957031 1.78125 -3.09375 C 1.78125 -2.488281 1.910156 -2.015625 2.171875 -1.671875 C 2.441406 -1.335938 2.828125 -1.171875 3.328125 -1.171875 Z M 3.328125 -1.171875 "/></g></g></g><g fill="#ffffff" fill-opacity="1"><g transform="translate(16.499098, 9.743941)"><g><path d="M 6.25 -5.578125 C 6.25 -4.953125 6.066406 -4.4375 5.703125 -4.03125 C 5.335938 -3.632812 4.90625 -3.378906 4.40625 -3.265625 L 5.828125 0 L 4.34375 0 L 3 -3.15625 L 2.265625 -3.15625 L 1.640625 0 L 0.265625 0 L 1.703125 -7.3125 L 4.296875 -7.3125 C 4.898438 -7.3125 5.375 -7.15625 5.71875 -6.84375 C 6.070312 -6.53125 6.25 -6.109375 6.25 -5.578125 Z M 2.828125 -6.0625 L 2.5 -4.40625 L 3.75 -4.40625 C 4.0625 -4.40625 4.320312 -4.492188 4.53125 -4.671875 C 4.75 -4.859375 4.859375 -5.097656 4.859375 -5.390625 C 4.859375 -5.835938 4.609375 -6.0625 4.109375 -6.0625 Z M 2.828125 -6.0625 "/></g></g></g><g fill="#ffffff" fill-opacity="1"><g transform="translate(22.913851, 9.743941)"><g><path d="M 0.265625 0 L 1.703125 -7.3125 L 6.125 -7.3125 L 5.875 -6.0625 L 2.828125 -6.0625 L 2.53125 -4.53125 L 4.953125 -4.53125 L 4.703125 -3.265625 L 2.28125 -3.265625 L 1.890625 -1.25 L 5.046875 -1.25 L 4.796875 0 Z M 0.265625 0 "/></g></g></g><g fill="#ffffff" fill-opacity="1"><g transform="translate(28.910708, 9.743941)"><g><path d="M 4.859375 -2.484375 L 5.796875 -7.3125 L 7.171875 -7.3125 L 5.734375 0 L 4.296875 0 L 2.578125 -4.828125 L 1.640625 0 L 0.265625 0 L 1.703125 -7.3125 L 3.140625 -7.3125 Z M 4.859375 -2.484375 "/></g></g></g><g fill="#ffffff" fill-opacity="1"><g transform="translate(36.349321, 9.743941)"><g><path d="M 5.640625 0 L 4.171875 0 L 3.984375 -1.71875 L 1.65625 -1.71875 L 0.78125 0 L -0.6875 0 L 3.21875 -7.3125 L 4.5625 -7.3125 Z M 3.84375 -2.984375 L 3.546875 -5.5625 L 2.296875 -2.984375 Z M 3.84375 -2.984375 "/></g></g></g><g fill="#ffffff" fill-opacity="1"><g transform="translate(42.596924, 9.743941)"><g/></g></g><g fill="#ffffff" fill-opacity="1"><g transform="translate(44.905818, 9.743941)"><g><path d="M 0.265625 0 L 1.703125 -7.3125 L 6.125 -7.3125 L 5.875 -6.0625 L 2.828125 -6.0625 L 2.53125 -4.53125 L 4.953125 -4.53125 L 4.703125 -3.265625 L 2.28125 -3.265625 L 1.890625 -1.25 L 5.046875 -1.25 L 4.796875 0 Z M 0.265625 0 "/></g></g></g><g fill="#ffffff" fill-opacity="1"><g transform="translate(50.902676, 9.743941)"><g><path d="M 5.359375 -6.03125 L 4.21875 -5.40625 C 4.019531 -5.894531 3.703125 -6.140625 3.265625 -6.140625 C 3.035156 -6.140625 2.851562 -6.070312 2.71875 -5.9375 C 2.582031 -5.800781 2.515625 -5.617188 2.515625 -5.390625 C 2.515625 -5.179688 2.59375 -4.992188 2.75 -4.828125 C 2.914062 -4.671875 3.179688 -4.5 3.546875 -4.3125 C 4.078125 -4.039062 4.453125 -3.769531 4.671875 -3.5 C 4.910156 -3.238281 5.03125 -2.84375 5.03125 -2.3125 C 5.03125 -1.53125 4.769531 -0.929688 4.25 -0.515625 C 3.976562 -0.285156 3.691406 -0.128906 3.390625 -0.046875 C 3.085938 0.0351562 2.710938 0.078125 2.265625 0.078125 C 1.671875 0.078125 1.160156 -0.128906 0.734375 -0.546875 C 0.316406 -0.960938 0.109375 -1.441406 0.109375 -1.984375 L 1.28125 -2.609375 C 1.363281 -1.648438 1.796875 -1.171875 2.578125 -1.171875 C 2.898438 -1.171875 3.148438 -1.253906 3.328125 -1.421875 C 3.515625 -1.597656 3.609375 -1.84375 3.609375 -2.15625 C 3.609375 -2.414062 3.535156 -2.625 3.390625 -2.78125 C 3.242188 -2.9375 2.972656 -3.125 2.578125 -3.34375 C 2.085938 -3.613281 1.722656 -3.898438 1.484375 -4.203125 C 1.253906 -4.515625 1.140625 -4.898438 1.140625 -5.359375 C 1.140625 -5.960938 1.347656 -6.457031 1.765625 -6.84375 C 2.191406 -7.21875 2.734375 -7.40625 3.390625 -7.40625 C 3.859375 -7.40625 4.273438 -7.269531 4.640625 -7 C 4.992188 -6.738281 5.234375 -6.414062 5.359375 -6.03125 Z M 5.359375 -6.03125 "/></g></g></g><g fill="#ffffff" fill-opacity="1"><g transform="translate(56.544325, 9.743941)"><g><path d="M 7.21875 -5.09375 L 5.921875 -4.78125 C 5.828125 -5.25 5.648438 -5.59375 5.390625 -5.8125 C 5.140625 -6.03125 4.796875 -6.140625 4.359375 -6.140625 C 3.609375 -6.140625 2.984375 -5.832031 2.484375 -5.21875 C 1.992188 -4.601562 1.75 -3.898438 1.75 -3.109375 C 1.75 -2.492188 1.894531 -2.015625 2.1875 -1.671875 C 2.488281 -1.335938 2.890625 -1.171875 3.390625 -1.171875 C 3.816406 -1.171875 4.1875 -1.28125 4.5 -1.5 C 4.8125 -1.726562 5.097656 -2.09375 5.359375 -2.59375 L 6.5625 -2.21875 C 6.226562 -1.425781 5.785156 -0.84375 5.234375 -0.46875 C 4.679688 -0.101562 3.984375 0.078125 3.140625 0.078125 C 2.359375 0.078125 1.695312 -0.203125 1.15625 -0.765625 C 0.625 -1.316406 0.359375 -2.0625 0.359375 -3 C 0.359375 -4.207031 0.757812 -5.242188 1.5625 -6.109375 C 2.363281 -6.972656 3.375 -7.40625 4.59375 -7.40625 C 5.363281 -7.40625 5.972656 -7.1875 6.421875 -6.75 C 6.878906 -6.320312 7.144531 -5.769531 7.21875 -5.09375 Z M 7.21875 -5.09375 "/></g></g></g><g fill="#ffffff" fill-opacity="1"><g transform="translate(63.79488, 9.743941)"><g><path d="M 5.546875 -7.3125 L 6.921875 -7.3125 L 6.046875 -2.78125 C 5.835938 -1.757812 5.46875 -1.023438 4.9375 -0.578125 C 4.414062 -0.140625 3.703125 0.078125 2.796875 0.078125 C 2.140625 0.078125 1.609375 -0.109375 1.203125 -0.484375 C 0.804688 -0.859375 0.609375 -1.375 0.609375 -2.03125 C 0.609375 -2.238281 0.632812 -2.488281 0.6875 -2.78125 L 1.5625 -7.3125 L 2.9375 -7.3125 L 2.0625 -2.765625 C 2.019531 -2.546875 2 -2.359375 2 -2.203125 C 2 -1.878906 2.085938 -1.625 2.265625 -1.4375 C 2.441406 -1.257812 2.703125 -1.171875 3.046875 -1.171875 C 3.910156 -1.171875 4.445312 -1.703125 4.65625 -2.765625 Z M 5.546875 -7.3125 "/></g></g></g><g fill="#ffffff" fill-opacity="1"><g transform="translate(70.909621, 9.743941)"><g><path d="M 6.25 -5.578125 C 6.25 -4.953125 6.066406 -4.4375 5.703125 -4.03125 C 5.335938 -3.632812 4.90625 -3.378906 4.40625 -3.265625 L 5.828125 0 L 4.34375 0 L 3 -3.15625 L 2.265625 -3.15625 L 1.640625 0 L 0.265625 0 L 1.703125 -7.3125 L 4.296875 -7.3125 C 4.898438 -7.3125 5.375 -7.15625 5.71875 -6.84375 C 6.070312 -6.53125 6.25 -6.109375 6.25 -5.578125 Z M 2.828125 -6.0625 L 2.5 -4.40625 L 3.75 -4.40625 C 4.0625 -4.40625 4.320312 -4.492188 4.53125 -4.671875 C 4.75 -4.859375 4.859375 -5.097656 4.859375 -5.390625 C 4.859375 -5.835938 4.609375 -6.0625 4.109375 -6.0625 Z M 2.828125 -6.0625 "/></g></g></g><g fill="#ffffff" fill-opacity="1"><g transform="translate(77.324373, 9.743941)"><g><path d="M 5.640625 0 L 4.171875 0 L 3.984375 -1.71875 L 1.65625 -1.71875 L 0.78125 0 L -0.6875 0 L 3.21875 -7.3125 L 4.5625 -7.3125 Z M 3.84375 -2.984375 L 3.546875 -5.5625 L 2.296875 -2.984375 Z M 3.84375 -2.984375 "/></g></g></g></g></g></svg>