<svg xmlns="http://www.w3.org/2000/svg" xmlns:xlink="http://www.w3.org/1999/xlink" width="127" zoomAndPan="magnify" viewBox="0 0 95.25 89.999999" height="120" preserveAspectRatio="xMidYMid meet" version="1.0"><defs><g/><clipPath id="00e6c1bc46"><path d="M 12.703125 23.066406 L 81.585938 23.066406 L 81.585938 57.511719 L 12.703125 57.511719 Z M 12.703125 23.066406 " clip-rule="nonzero"/></clipPath><clipPath id="c9fb28f06f"><path d="M 77.816406 41.5625 C 78.117188 40.347656 77.632812 40.292969 76.976562 39.636719 C 75.136719 37.796875 62.003906 28.375 60.347656 29.664062 C 65.703125 37.160156 65.316406 46.121094 58.753906 52.683594 C 66.25 51.058594 71.578125 45.476562 77.816406 41.5625 M 34.132812 29.664062 C 32.550781 28.449219 19.082031 37.679688 17.425781 39.558594 C 16.824219 40.25 16.394531 40.441406 16.664062 41.550781 C 22.964844 45.328125 28.042969 51.394531 35.722656 52.671875 C 28.816406 45.9375 29.023438 37.410156 34.132812 29.652344 M 47.234375 26.921875 C 31.828125 26.921875 28.117188 47.703125 42.082031 53.058594 C 62.648438 60.957031 68.910156 26.921875 47.234375 26.921875 M 41.875 23.5 C 56.421875 21.519531 72.535156 29.6875 81.472656 40.808594 C 63.894531 63.011719 29.9375 63.257812 12.875 40.355469 C 19.578125 32.921875 31.863281 24.867188 41.875 23.5 " clip-rule="nonzero"/></clipPath><clipPath id="ed99c4a345"><path d="M 0.859375 0.0664062 L 69.585938 0.0664062 L 69.585938 34.511719 L 0.859375 34.511719 Z M 0.859375 0.0664062 " clip-rule="nonzero"/></clipPath><clipPath id="4c01ee5d7f"><path d="M 65.816406 18.5625 C 66.117188 17.347656 65.632812 17.292969 64.976562 16.636719 C 63.136719 14.796875 50.003906 5.375 48.347656 6.664062 C 53.703125 14.160156 53.316406 23.121094 46.753906 29.683594 C 54.25 28.058594 59.578125 22.476562 65.816406 18.5625 M 22.132812 6.664062 C 20.550781 5.449219 7.082031 14.679688 5.425781 16.558594 C 4.824219 17.25 4.394531 17.441406 4.664062 18.550781 C 10.964844 22.328125 16.042969 28.394531 23.722656 29.671875 C 16.816406 22.9375 17.023438 14.410156 22.132812 6.652344 M 35.234375 3.921875 C 19.828125 3.921875 16.117188 24.703125 30.082031 30.058594 C 50.648438 37.957031 56.910156 3.921875 35.234375 3.921875 M 29.875 0.5 C 44.421875 -1.480469 60.535156 6.6875 69.472656 17.808594 C 51.894531 40.011719 17.9375 40.257812 0.875 17.355469 C 7.578125 9.921875 19.863281 1.867188 29.875 0.5 " clip-rule="nonzero"/></clipPath><clipPath id="b6c5caa021"><rect x="0" width="70" y="0" height="35"/></clipPath><clipPath id="447b887b4d"><path d="M 45 5.726562 L 49.339844 5.726562 L 49.339844 21.847656 L 45 21.847656 Z M 45 5.726562 " clip-rule="nonzero"/></clipPath><clipPath id="c6b4ac16ee"><path d="M 45.253906 7.816406 C 45.75 4.644531 49.222656 5.460938 49.222656 7.816406 L 49.222656 19.726562 C 49.222656 19.972656 47.609375 21.199219 47.234375 21.691406 C 46.855469 21.199219 45.242188 19.972656 45.242188 19.726562 C 45.242188 16.230469 44.75 10.988281 45.242188 7.804688 " clip-rule="nonzero"/></clipPath><clipPath id="d3fe090a22"><path d="M 0 0.726562 L 4.292969 0.726562 L 4.292969 16.78125 L 0 16.78125 Z M 0 0.726562 " clip-rule="nonzero"/></clipPath><clipPath id="e0a2269363"><path d="M 0.253906 2.816406 C 0.75 -0.355469 4.222656 0.460938 4.222656 2.816406 L 4.222656 14.726562 C 4.222656 14.972656 2.609375 16.199219 2.234375 16.691406 C 1.855469 16.199219 0.242188 14.972656 0.242188 14.726562 C 0.242188 11.230469 -0.25 5.988281 0.242188 2.804688 " clip-rule="nonzero"/></clipPath><clipPath id="d30c53b420"><rect x="0" width="5" y="0" height="17"/></clipPath><clipPath id="f6b1aad0fc"><path d="M 54 6.703125 L 59.601562 6.703125 L 59.601562 22.578125 L 54 22.578125 Z M 54 6.703125 " clip-rule="nonzero"/></clipPath><clipPath id="db23b06215"><path d="M 59.550781 7.417969 C 59.390625 9.699219 58.011719 23.089844 55.195312 22.5 C 53.484375 21.382812 54.246094 20.714844 54.34375 19.328125 C 54.441406 17.886719 56.324219 4.171875 59.550781 7.417969 " clip-rule="nonzero"/></clipPath><clipPath id="8985f10a10"><path d="M 0 0.703125 L 5.601562 0.703125 L 5.601562 16.578125 L 0 16.578125 Z M 0 0.703125 " clip-rule="nonzero"/></clipPath><clipPath id="5d4dd5fc64"><path d="M 5.550781 1.417969 C 5.390625 3.699219 4.011719 17.089844 1.195312 16.5 C -0.515625 15.382812 0.246094 14.714844 0.34375 13.328125 C 0.441406 11.886719 2.324219 -1.828125 5.550781 1.417969 " clip-rule="nonzero"/></clipPath><clipPath id="d120fe6f14"><rect x="0" width="6" y="0" height="17"/></clipPath><clipPath id="b0f0f33213"><path d="M 35 7.191406 L 40.546875 7.191406 L 40.546875 22.578125 L 35 22.578125 Z M 35 7.191406 " clip-rule="nonzero"/></clipPath><clipPath id="95275c1627"><path d="M 38.101562 7.417969 C 38.421875 11.292969 39.875 15.519531 40.144531 19.335938 C 40.242188 20.726562 41.003906 21.402344 39.296875 22.511719 C 36.1875 23.167969 36.058594 10.765625 35.023438 8.675781 Z M 38.101562 7.417969 " clip-rule="nonzero"/></clipPath><clipPath id="bd38275a6a"><path d="M 0.00390625 0.257812 L 5.546875 0.257812 L 5.546875 15.578125 L 0.00390625 15.578125 Z M 0.00390625 0.257812 " clip-rule="nonzero"/></clipPath><clipPath id="fb68c52da6"><path d="M 3.101562 0.417969 C 3.421875 4.292969 4.875 8.519531 5.144531 12.335938 C 5.242188 13.726562 6.003906 14.402344 4.296875 15.511719 C 1.1875 16.167969 1.058594 3.765625 0.0234375 1.675781 Z M 3.101562 0.417969 " clip-rule="nonzero"/></clipPath><clipPath id="f62d989487"><rect x="0" width="6" y="0" height="16"/></clipPath><clipPath id="cb6ac1ca6c"><path d="M 5.128906 23.066406 L 16.121094 23.066406 L 16.121094 35.527344 L 5.128906 35.527344 Z M 5.128906 23.066406 " clip-rule="nonzero"/></clipPath><clipPath id="f218be2482"><path d="M 15.855469 35.214844 C 14.027344 35.539062 13.414062 34.753906 12.253906 33.65625 C 10.984375 32.449219 4.25 24.597656 5.527344 23.308594 C 7.949219 22.886719 9.273438 25.027344 10.691406 26.46875 C 11.917969 27.707031 17.210938 33.761719 15.84375 35.214844 " clip-rule="nonzero"/></clipPath><clipPath id="894f609149"><path d="M 0.128906 0.0664062 L 11.121094 0.0664062 L 11.121094 12.527344 L 0.128906 12.527344 Z M 0.128906 0.0664062 " clip-rule="nonzero"/></clipPath><clipPath id="0977d3a487"><path d="M 10.855469 12.214844 C 9.027344 12.539062 8.414062 11.753906 7.253906 10.65625 C 5.984375 9.449219 -0.75 1.597656 0.527344 0.308594 C 2.949219 -0.113281 4.273438 2.027344 5.691406 3.46875 C 6.917969 4.707031 12.210938 10.761719 10.84375 12.214844 " clip-rule="nonzero"/></clipPath><clipPath id="1fce83207e"><rect x="0" width="12" y="0" height="13"/></clipPath><clipPath id="65eafb163d"><path d="M 62.777344 10.367188 L 70 10.367188 L 70 25 L 62.777344 25 Z M 62.777344 10.367188 " clip-rule="nonzero"/></clipPath><clipPath id="9b87db9215"><path d="M 69.875 10.601562 C 70.542969 11.292969 66.519531 25.414062 63.9375 24.886719 C 62.304688 24.554688 63.066406 22.855469 63.304688 21.898438 C 63.808594 19.789062 65.84375 13.605469 66.886719 11.957031 C 67.84375 10.453125 68.039062 10.386719 69.886719 10.601562 " clip-rule="nonzero"/></clipPath><clipPath id="96100acb5a"><path d="M 0.777344 0.367188 L 8 0.367188 L 8 15 L 0.777344 15 Z M 0.777344 0.367188 " clip-rule="nonzero"/></clipPath><clipPath id="174f167106"><path d="M 7.875 0.601562 C 8.542969 1.292969 4.519531 15.414062 1.9375 14.886719 C 0.304688 14.554688 1.066406 12.855469 1.304688 11.898438 C 1.808594 9.789062 3.84375 3.605469 4.886719 1.957031 C 5.84375 0.453125 6.039062 0.386719 7.886719 0.601562 " clip-rule="nonzero"/></clipPath><clipPath id="1f7966072b"><rect x="0" width="8" y="0" height="15"/></clipPath><clipPath id="5f669de159"><path d="M 24.425781 10.121094 L 31.753906 10.121094 L 31.753906 25 L 24.425781 25 Z M 24.425781 10.121094 " clip-rule="nonzero"/></clipPath><clipPath id="1ec269accd"><path d="M 24.601562 10.601562 C 27.152344 8.03125 31.109375 20.113281 31.410156 21.691406 C 32.109375 25.449219 30.207031 26.191406 28.324219 22.359375 C 27.546875 20.769531 23.878906 11.335938 24.601562 10.601562 " clip-rule="nonzero"/></clipPath><clipPath id="823715bd76"><path d="M 0.425781 0.121094 L 7.753906 0.121094 L 7.753906 15 L 0.425781 15 Z M 0.425781 0.121094 " clip-rule="nonzero"/></clipPath><clipPath id="3030ce0ff0"><path d="M 0.601562 0.601562 C 3.152344 -1.96875 7.109375 10.113281 7.410156 11.691406 C 8.109375 15.449219 6.207031 16.191406 4.324219 12.359375 C 3.546875 10.769531 -0.121094 1.335938 0.601562 0.601562 " clip-rule="nonzero"/></clipPath><clipPath id="124ec431b9"><rect x="0" width="8" y="0" height="15"/></clipPath><clipPath id="ed33962576"><path d="M 78.164062 23.066406 L 89.15625 23.066406 L 89.15625 35.28125 L 78.164062 35.28125 Z M 78.164062 23.066406 " clip-rule="nonzero"/></clipPath><clipPath id="2177b7583b"><path d="M 88.9375 23.308594 C 90.058594 24.414062 81.644531 36.097656 78.621094 35.214844 C 77.257812 33.761719 82.546875 27.71875 83.773438 26.46875 C 85.207031 25.027344 86.527344 22.886719 88.9375 23.308594 " clip-rule="nonzero"/></clipPath><clipPath id="4f111a7c83"><path d="M 0.164062 0.0664062 L 11.15625 0.0664062 L 11.15625 12.28125 L 0.164062 12.28125 Z M 0.164062 0.0664062 " clip-rule="nonzero"/></clipPath><clipPath id="c4a6db8845"><path d="M 10.9375 0.308594 C 12.058594 1.414062 3.644531 13.097656 0.621094 12.214844 C -0.742188 10.761719 4.546875 4.71875 5.773438 3.46875 C 7.207031 2.027344 8.527344 -0.113281 10.9375 0.308594 " clip-rule="nonzero"/></clipPath><clipPath id="dca5adc3f8"><rect x="0" width="12" y="0" height="13"/></clipPath><clipPath id="0438651d8b"><path d="M 14.167969 16 L 23.695312 16 L 23.695312 29 L 14.167969 29 Z M 14.167969 16 " clip-rule="nonzero"/></clipPath><clipPath id="1907a3a3f6"><path d="M 17.363281 16.25 C 17.878906 16.539062 22.964844 25.457031 23.417969 26.480469 C 24.300781 28.46875 21.996094 30.0625 20.382812 27.890625 C 19.597656 26.835938 14.4375 18.617188 14.351562 18.046875 C 14.113281 16.519531 16.210938 15.59375 17.371094 16.25 " clip-rule="nonzero"/></clipPath><clipPath id="bfc7fa4ae5"><path d="M 0.167969 0 L 9.695312 0 L 9.695312 13 L 0.167969 13 Z M 0.167969 0 " clip-rule="nonzero"/></clipPath><clipPath id="89b98786c9"><path d="M 3.363281 0.25 C 3.878906 0.539062 8.964844 9.457031 9.417969 10.480469 C 10.300781 12.46875 7.996094 14.0625 6.382812 11.890625 C 5.597656 10.835938 0.4375 2.617188 0.351562 2.046875 C 0.113281 0.519531 2.210938 -0.40625 3.371094 0.25 " clip-rule="nonzero"/></clipPath><clipPath id="26394fe22a"><rect x="0" width="10" y="0" height="13"/></clipPath><clipPath id="b0377ce9ad"><path d="M 70.835938 16 L 79.875 16 L 79.875 29 L 70.835938 29 Z M 70.835938 16 " clip-rule="nonzero"/></clipPath><clipPath id="c8002d431e"><path d="M 79.40625 16.164062 C 79.644531 17.453125 79.976562 17.636719 79.492188 18.949219 C 78.957031 20.414062 75.191406 26.4375 74.105469 27.898438 C 72.480469 30.082031 70.1875 28.480469 71.070312 26.492188 C 71.671875 25.136719 77.773438 14.808594 79.417969 16.164062 " clip-rule="nonzero"/></clipPath><clipPath id="08f0b7d8fb"><path d="M 0.835938 0 L 9.875 0 L 9.875 13 L 0.835938 13 Z M 0.835938 0 " clip-rule="nonzero"/></clipPath><clipPath id="82cef25f63"><path d="M 9.40625 0.164062 C 9.644531 1.453125 9.976562 1.636719 9.492188 2.949219 C 8.957031 4.414062 5.191406 10.4375 4.105469 11.898438 C 2.480469 14.082031 0.1875 12.480469 1.070312 10.492188 C 1.671875 9.136719 7.773438 -1.191406 9.417969 0.164062 " clip-rule="nonzero"/></clipPath><clipPath id="6e3a8bc6a6"><rect x="0" width="10" y="0" height="13"/></clipPath><clipPath id="a459226d84"><path d="M 39.082031 31.617188 L 56.425781 31.617188 L 56.425781 48.472656 L 39.082031 48.472656 Z M 39.082031 31.617188 " clip-rule="nonzero"/></clipPath><clipPath id="9db3d01d8e"><path d="M 53.71875 46.070312 C 46.253906 53.449219 33.710938 41.570312 42.039062 34 C 49.804688 26.933594 61.539062 38.324219 53.710938 46.070312 " clip-rule="nonzero"/></clipPath><clipPath id="a53b5e146c"><path d="M 0.0820312 0.617188 L 17.425781 0.617188 L 17.425781 17.472656 L 0.0820312 17.472656 Z M 0.0820312 0.617188 " clip-rule="nonzero"/></clipPath><clipPath id="5eae371ff3"><path d="M 14.71875 15.070312 C 7.253906 22.449219 -5.289062 10.570312 3.039062 3 C 10.804688 -4.066406 22.539062 7.324219 14.710938 15.070312 " clip-rule="nonzero"/></clipPath><clipPath id="4b41320f62"><rect x="0" width="18" y="0" height="18"/></clipPath><clipPath id="bb8089ca5e"><rect x="0" width="56" y="0" height="13"/></clipPath></defs><g clip-path="url(#00e6c1bc46)"><g clip-path="url(#c9fb28f06f)"><g transform="matrix(1, 0, 0, 1, 12, 23)"><g clip-path="url(#b6c5caa021)"><g clip-path="url(#ed99c4a345)"><g clip-path="url(#4c01ee5d7f)"><rect x="-32.955" width="137.16" fill="#fff8f8" height="129.599999" y="-42.8" fill-opacity="1"/></g></g></g></g></g></g><g clip-path="url(#447b887b4d)"><g clip-path="url(#c6b4ac16ee)"><g transform="matrix(1, 0, 0, 1, 45, 5)"><g clip-path="url(#d30c53b420)"><g clip-path="url(#d3fe090a22)"><g clip-path="url(#e0a2269363)"><rect x="-65.955" width="137.16" fill="#fff8f8" height="129.599999" y="-24.8" fill-opacity="1"/></g></g></g></g></g></g><g clip-path="url(#f6b1aad0fc)"><g clip-path="url(#db23b06215)"><g transform="matrix(1, 0, 0, 1, 54, 6)"><g clip-path="url(#d120fe6f14)"><g clip-path="url(#8985f10a10)"><g clip-path="url(#5d4dd5fc64)"><rect x="-74.955" width="137.16" fill="#fff8f8" height="129.599999" y="-25.8" fill-opacity="1"/></g></g></g></g></g></g><g clip-path="url(#b0f0f33213)"><g clip-path="url(#95275c1627)"><g transform="matrix(1, 0, 0, 1, 35, 7)"><g clip-path="url(#f62d989487)"><g clip-path="url(#bd38275a6a)"><g clip-path="url(#fb68c52da6)"><rect x="-55.955" width="137.16" fill="#fff8f8" height="129.599999" y="-26.8" fill-opacity="1"/></g></g></g></g></g></g><g clip-path="url(#cb6ac1ca6c)"><g clip-path="url(#f218be2482)"><g transform="matrix(1, 0, 0, 1, 5, 23)"><g clip-path="url(#1fce83207e)"><g clip-path="url(#894f609149)"><g clip-path="url(#0977d3a487)"><rect x="-25.955" width="137.16" fill="#fff8f8" height="129.599999" y="-42.8" fill-opacity="1"/></g></g></g></g></g></g><g clip-path="url(#65eafb163d)"><g clip-path="url(#9b87db9215)"><g transform="matrix(1, 0, 0, 1, 62, 10)"><g clip-path="url(#1f7966072b)"><g clip-path="url(#96100acb5a)"><g clip-path="url(#174f167106)"><rect x="-82.955" width="137.16" fill="#fff8f8" height="129.599999" y="-29.8" fill-opacity="1"/></g></g></g></g></g></g><g clip-path="url(#5f669de159)"><g clip-path="url(#1ec269accd)"><g transform="matrix(1, 0, 0, 1, 24, 10)"><g clip-path="url(#124ec431b9)"><g clip-path="url(#823715bd76)"><g clip-path="url(#3030ce0ff0)"><rect x="-44.955" width="137.16" fill="#fff8f8" height="129.599999" y="-29.8" fill-opacity="1"/></g></g></g></g></g></g><g clip-path="url(#ed33962576)"><g clip-path="url(#2177b7583b)"><g transform="matrix(1, 0, 0, 1, 78, 23)"><g clip-path="url(#dca5adc3f8)"><g clip-path="url(#4f111a7c83)"><g clip-path="url(#c4a6db8845)"><rect x="-98.955" width="137.16" fill="#fff8f8" height="129.599999" y="-42.8" fill-opacity="1"/></g></g></g></g></g></g><g clip-path="url(#0438651d8b)"><g clip-path="url(#1907a3a3f6)"><g transform="matrix(1, 0, 0, 1, 14, 16)"><g clip-path="url(#26394fe22a)"><g clip-path="url(#bfc7fa4ae5)"><g clip-path="url(#89b98786c9)"><rect x="-34.955" width="137.16" fill="#fff8f8" height="129.599999" y="-35.8" fill-opacity="1"/></g></g></g></g></g></g><g clip-path="url(#b0377ce9ad)"><g clip-path="url(#c8002d431e)"><g transform="matrix(1, 0, 0, 1, 70, 16)"><g clip-path="url(#6e3a8bc6a6)"><g clip-path="url(#08f0b7d8fb)"><g clip-path="url(#82cef25f63)"><rect x="-90.955" width="137.16" fill="#fff8f8" height="129.599999" y="-35.8" fill-opacity="1"/></g></g></g></g></g></g><g clip-path="url(#a459226d84)"><g clip-path="url(#9db3d01d8e)"><g transform="matrix(1, 0, 0, 1, 39, 31)"><g clip-path="url(#4b41320f62)"><g clip-path="url(#a53b5e146c)"><g clip-path="url(#5eae371ff3)"><rect x="-59.955" width="137.16" fill="#a17655" height="129.599999" y="-50.8" fill-opacity="1"/></g></g></g></g></g></g><g transform="matrix(1, 0, 0, 1, 19, 74)"><g clip-path="url(#bb8089ca5e)"><g fill="#ffffff" fill-opacity="1"><g transform="translate(0.912049, 9.482186)"><g><path d="M 7.0625 -4.984375 L 5.796875 -4.671875 C 5.703125 -5.140625 5.53125 -5.476562 5.28125 -5.6875 C 5.03125 -5.90625 4.691406 -6.015625 4.265625 -6.015625 C 3.523438 -6.015625 2.914062 -5.710938 2.4375 -5.109375 C 1.957031 -4.503906 1.71875 -3.816406 1.71875 -3.046875 C 1.71875 -2.441406 1.859375 -1.972656 2.140625 -1.640625 C 2.429688 -1.304688 2.820312 -1.140625 3.3125 -1.140625 C 3.738281 -1.140625 4.101562 -1.25 4.40625 -1.46875 C 4.707031 -1.6875 4.988281 -2.039062 5.25 -2.53125 L 6.421875 -2.171875 C 6.097656 -1.390625 5.664062 -0.816406 5.125 -0.453125 C 4.582031 -0.0976562 3.898438 0.078125 3.078125 0.078125 C 2.304688 0.078125 1.660156 -0.195312 1.140625 -0.75 C 0.617188 -1.289062 0.359375 -2.019531 0.359375 -2.9375 C 0.359375 -4.113281 0.75 -5.128906 1.53125 -5.984375 C 2.3125 -6.828125 3.300781 -7.25 4.5 -7.25 C 5.25 -7.25 5.847656 -7.035156 6.296875 -6.609375 C 6.734375 -6.191406 6.988281 -5.648438 7.0625 -4.984375 Z M 7.0625 -4.984375 "/></g></g></g><g fill="#ffffff" fill-opacity="1"><g transform="translate(8.015748, 9.482186)"><g><path d="M 5.515625 0 L 4.078125 0 L 3.90625 -1.6875 L 1.625 -1.6875 L 0.765625 0 L -0.671875 0 L 3.15625 -7.15625 L 4.46875 -7.15625 Z M 3.75 -2.921875 L 3.484375 -5.4375 L 2.234375 -2.921875 Z M 3.75 -2.921875 "/></g></g></g><g fill="#ffffff" fill-opacity="1"><g transform="translate(14.136808, 9.482186)"><g><path d="M 5.234375 -5.90625 L 4.140625 -5.296875 C 3.941406 -5.773438 3.628906 -6.015625 3.203125 -6.015625 C 2.972656 -6.015625 2.789062 -5.945312 2.65625 -5.8125 C 2.519531 -5.6875 2.453125 -5.507812 2.453125 -5.28125 C 2.453125 -5.070312 2.53125 -4.890625 2.6875 -4.734375 C 2.851562 -4.578125 3.117188 -4.40625 3.484375 -4.21875 C 3.992188 -3.945312 4.359375 -3.679688 4.578125 -3.421875 C 4.804688 -3.171875 4.921875 -2.785156 4.921875 -2.265625 C 4.921875 -1.492188 4.664062 -0.90625 4.15625 -0.5 C 3.882812 -0.28125 3.601562 -0.128906 3.3125 -0.046875 C 3.019531 0.0351562 2.648438 0.078125 2.203125 0.078125 C 1.628906 0.078125 1.140625 -0.125 0.734375 -0.53125 C 0.316406 -0.9375 0.109375 -1.40625 0.109375 -1.9375 L 1.25 -2.5625 C 1.332031 -1.613281 1.757812 -1.140625 2.53125 -1.140625 C 2.84375 -1.140625 3.085938 -1.222656 3.265625 -1.390625 C 3.453125 -1.566406 3.546875 -1.804688 3.546875 -2.109375 C 3.546875 -2.359375 3.472656 -2.5625 3.328125 -2.71875 C 3.179688 -2.875 2.914062 -3.0625 2.53125 -3.28125 C 2.050781 -3.53125 1.691406 -3.804688 1.453125 -4.109375 C 1.222656 -4.421875 1.109375 -4.796875 1.109375 -5.234375 C 1.109375 -5.835938 1.316406 -6.320312 1.734375 -6.6875 C 2.148438 -7.0625 2.679688 -7.25 3.328125 -7.25 C 3.785156 -7.25 4.191406 -7.117188 4.546875 -6.859375 C 4.890625 -6.609375 5.117188 -6.289062 5.234375 -5.90625 Z M 5.234375 -5.90625 "/></g></g></g><g fill="#ffffff" fill-opacity="1"><g transform="translate(19.664188, 9.482186)"><g><path d="M 2.453125 -5.9375 L 0.5 -5.9375 L 0.75 -7.15625 L 5.984375 -7.15625 L 5.734375 -5.9375 L 3.78125 -5.9375 L 2.625 0 L 1.296875 0 Z M 2.453125 -5.9375 "/></g></g></g><g fill="#ffffff" fill-opacity="1"><g transform="translate(25.027791, 9.482186)"><g><path d="M 5.515625 0 L 4.078125 0 L 3.90625 -1.6875 L 1.625 -1.6875 L 0.765625 0 L -0.671875 0 L 3.15625 -7.15625 L 4.46875 -7.15625 Z M 3.75 -2.921875 L 3.484375 -5.4375 L 2.234375 -2.921875 Z M 3.75 -2.921875 "/></g></g></g><g fill="#ffffff" fill-opacity="1"><g transform="translate(31.148852, 9.482186)"><g><path d="M 4.765625 -2.4375 L 5.6875 -7.15625 L 7.015625 -7.15625 L 5.625 0 L 4.203125 0 L 2.53125 -4.734375 L 1.609375 0 L 0.265625 0 L 1.671875 -7.15625 L 3.078125 -7.15625 Z M 4.765625 -2.4375 "/></g></g></g><g fill="#ffffff" fill-opacity="1"><g transform="translate(38.436799, 9.482186)"><g><path d="M 1.609375 0 L 0.265625 0 L 1.671875 -7.15625 L 3.015625 -7.15625 L 2.484375 -4.4375 L 5.140625 -4.4375 L 5.6875 -7.15625 L 7.015625 -7.15625 L 5.625 0 L 4.28125 0 L 4.90625 -3.21875 L 2.234375 -3.21875 Z M 1.609375 0 "/></g></g></g><g fill="#ffffff" fill-opacity="1"><g transform="translate(45.724747, 9.482186)"><g><path d="M 3.15625 0.078125 C 2.363281 0.078125 1.695312 -0.175781 1.15625 -0.6875 C 0.625 -1.207031 0.359375 -1.953125 0.359375 -2.921875 C 0.359375 -4.117188 0.6875 -5.109375 1.34375 -5.890625 C 2.101562 -6.796875 3.09375 -7.25 4.3125 -7.25 C 5.09375 -7.25 5.753906 -6.984375 6.296875 -6.453125 C 6.835938 -5.941406 7.109375 -5.203125 7.109375 -4.234375 C 7.109375 -3.046875 6.78125 -2.054688 6.125 -1.265625 C 5.375 -0.367188 4.382812 0.078125 3.15625 0.078125 Z M 3.265625 -1.140625 C 3.921875 -1.140625 4.488281 -1.414062 4.96875 -1.96875 C 5.476562 -2.5625 5.734375 -3.285156 5.734375 -4.140625 C 5.734375 -4.734375 5.597656 -5.191406 5.328125 -5.515625 C 5.066406 -5.847656 4.691406 -6.015625 4.203125 -6.015625 C 3.546875 -6.015625 2.976562 -5.742188 2.5 -5.203125 C 1.988281 -4.597656 1.734375 -3.875 1.734375 -3.03125 C 1.734375 -2.4375 1.863281 -1.972656 2.125 -1.640625 C 2.394531 -1.304688 2.773438 -1.140625 3.265625 -1.140625 Z M 3.265625 -1.140625 "/></g></g></g><g fill="#ffffff" fill-opacity="1"><g transform="translate(53.226194, 9.482186)"><g/></g></g></g></g></svg>