<?xml version="1.0" encoding="UTF-8"?>
<svg id="Camada_1" data-name="Camada 1" xmlns="http://www.w3.org/2000/svg" viewBox="0 0 1080 1080">
  <defs>
    <style>
      .cls-1 {
        fill: #fff;
      }
    </style>
  </defs>
  <path class="cls-1" d="M787.24,205.67c9.67,4.3,55.78,9.44,41,27.6-5.16,6.34-32.24,11.01-41.05,14.18-1.43,1.25-8.51,31.31-10.79,36.46-3.84,8.66-15.22,10.43-19.9,2.42-3.59-6.16-9.37-36.1-12.13-38.45-8.12-4.3-35.44-8.1-40.55-14.01-3.75-4.34-3.47-12.35,1.43-15.78,6.29-4.4,37.38-10.11,39.77-13.47,4.54-10.65,6.3-27.97,11.61-37.64,2.69-4.89,8.08-5.95,13.09-4.35,9.16,2.92,13.47,34.3,17.52,43.04ZM782.95,225.94c-10.79-.59-14.49-6.2-16.63-16-2.84,9.74-6.93,13.81-16.65,16.65,3.54,2.07,7.52,2.27,10.72,5.26,4.24,3.95,2.61,8.31,6.58,11.38l3.96-11.36,12.01-5.93Z"/>
  <g>
    <path class="cls-1" d="M556.68,244.56v94.5c51.12,13.57,93.77,49.07,121.8,93.17,1.78.82,3.27-3.51,5.5-5.12,12.83-9.28,24.41-5.39,34.43,5.11,33.98,35.63,72.49,106.14,65.71,156.26-5.21,38.53-35.39,67.97-74.39,70.03-1.39,11.38,6.62,47.48-15.02,40.99-11.03-3.31-4.04-30.95-6.84-39.75l-13.16-2.44c-12.14,16.54-25.1,32.57-40.81,45.81-96.72,81.49-241.78,61.32-312.57-42.86-80.4-118.33-20.61-282.21,115.55-321.2v-94.5c-8.15-.29-26.07,2.3-27.87-8.72-1.58-9.71-1.54-55.26,0-65.07,1-6.4,5.37-8.27,11.17-8.79,48.7-4.36,103.81,3.44,153.2,0,6.63-.07,10.52,3.55,11.28,10.02,2.29,19.51-1.53,43.63-.31,63.64-3.93,11.62-17.93,8.55-27.67,8.93ZM563.34,183.33h-133.1v38.6h133.1v-38.6ZM535.38,244.56h-77.2v103.16c0,2.23-3.97,7.24-6.17,8.47-8.97,5.01-26.91,8.33-38.23,13.68-128.95,60.9-144.59,242.09-29.23,325.67,87.35,63.28,208.8,41.07,269.21-47.03-9.04-6.28-18.61-12.29-24.54-21.94-63.47,97.77-209.62,95.96-268.44-5.77-65.82-113.83,29.29-253.55,158.95-234.82,54.23,7.84,102.47,46.29,122.79,96.82l21.58-31.26c-20-38.33-55.25-70.3-95.47-86.51-6.64-2.68-33.25-8.24-33.25-16v-104.49ZM625.82,517.39c4.93-8.19.06-18.18-3.27-26.57-27.17-68.39-106.52-102.38-175.36-75.57-14.24,5.55-28.03,14.37-39.57,24.32,29.52,3.28,59.41,5.36,87.79,14.69,46.18,15.18,83.51,49.54,130.42,63.14ZM709.75,637.22c21.09-2.23,40.91-15.66,48.93-35.59,19.05-47.32-21.95-114.21-51.65-150.03-1.67-2.01-5.05-7.24-7.29-7.48-1.65-.2-2.79.38-4.06,1.34-2.45,1.85-12.96,16.43-15.76,20.17-22.55,30.08-48.98,76.32-46.01,115,2.32,30.25,24.15,53.59,54.55,56.59v-23.96c-9.21-6.18-36.43-13.76-28.01-28.69,6.65-11.78,19.83,1.15,28.01,3.4v-28.62c-7.45-6.96-39.98-16.41-27.24-31.24,7.5-8.73,19.56,3.43,27.24,5.28v-23.29c0-.49,4.53-4.51,5.66-4.98,6.24-2.58,15.64.68,15.64,7.64v20.63c7.51-2.31,12.24-8.99,20.68-8.08,4.78.52,8.72,5.33,8.69,10.07-.07,12.23-22.11,15.83-29.36,23.96v28.62c8.74-1.82,16.9-13.45,25.99-5.35,15.3,13.63-18.99,25.24-25.99,31.31v23.29ZM617.86,537.47c-49.78-14.97-90.37-53.08-140.48-66.52-18.77-5.03-41.68-7.83-61.13-9.42-5.84-.48-25.92-2.72-29.25.01-6.01,4.93-17.15,30.71-19.67,38.9-41.51,134.7,122.28,236.21,223.99,138.81,5.25-5.03,24.61-28.59,25.25-34.75.48-4.6-3.54-16.42-3.97-22.54-1.07-15.16,2.12-29.82,5.26-44.49Z"/>
    <path class="cls-1" d="M657.52,292.17c4.27-3.63,10.48-42.13,16.22-49.32,3.36-4.21,11.28-4.69,15.41-.98,7.05,6.32,11.35,39.63,17.28,49.27,9.04,6.07,45.67,11.37,50.49,18.72,3.9,5.94,1.77,12.37-4.22,15.59-8.09,4.35-42.88,11.39-46.27,14.96l-14.75,46.47c-4.13,7.68-15.71,7.51-19.49-.26-4.01-8.25-10.62-42.58-14.94-46.29l-46.37-14.86c-21.27-23.68,33.33-26.1,46.64-33.29ZM711.07,315.12c-19.84-1.61-25.16-9.3-28.61-27.98-5.24,17.55-8.51,26.06-28.62,27.98,4.91,5.32,14.66,3.68,20.07,8.53,5.18,4.64,4.06,16.16,9.2,20.73,1.5-5.72,2.42-14.05,5.94-18.7,4.39-5.8,12.88-5.87,19.36-8.61,1.27-.54,3.05-.13,2.66-1.96Z"/>
    <path class="cls-1" d="M453.72,531.2c36.37,36.59-25.11,91.03-56.76,48.11-26.68-36.17,23.98-81.09,56.76-48.11ZM424.6,541.64c-19.25,2.78-16.39,34.59,4.86,31.63,19.88-2.77,16.1-34.65-4.86-31.63Z"/>
    <path class="cls-1" d="M532.27,575.16c44.14-1.39,39.77,67.37-4.93,58.78-33.39-6.41-28.33-57.74,4.93-58.78ZM540.39,598.94c-6.09-6.1-19.89,1.59-13.09,11.1,6.81,9.52,20.89-3.28,13.09-11.1Z"/>
  </g>
</svg>