<svg xmlns="http://www.w3.org/2000/svg" xmlns:xlink="http://www.w3.org/1999/xlink" width="98" zoomAndPan="magnify" viewBox="0 0 73.5 104.249996" height="139" preserveAspectRatio="xMidYMid meet" version="1.0"><defs><g/><clipPath id="f34b0faa31"><path d="M 17 19.050781 L 56 19.050781 L 56 56.300781 L 17 56.300781 Z M 17 19.050781 " clip-rule="nonzero"/></clipPath><clipPath id="f41517b473"><path d="M 50.394531 26.910156 C 51.292969 27.800781 50.964844 30.328125 51.644531 31.296875 C 52.359375 32.308594 56.351562 32.132812 55.691406 35.988281 C 55.164062 39.101562 52.371094 38.484375 51.644531 39.519531 C 51.140625 40.234375 50.910156 42.902344 50.382812 44.265625 C 42.597656 63.152344 24.207031 57.734375 20.878906 39.519531 C 20.074219 38.386719 17.042969 39.320312 17.042969 35.40625 C 17.042969 31.484375 20.140625 32.394531 20.878906 31.308594 C 21.472656 30.4375 20.953125 28.492188 21.921875 27.84375 C 22.613281 27.382812 25.40625 27.316406 26.890625 26.800781 C 29 26.0625 32.671875 24.347656 34.53125 23.160156 C 35.804688 22.347656 38.519531 19.390625 38.972656 19.292969 C 40.347656 18.984375 41.851562 22.269531 43.0625 23.347656 C 45.117188 25.183594 49.632812 26.171875 50.382812 26.921875 " clip-rule="nonzero"/></clipPath><clipPath id="8019e69213"><path d="M 0 0.0507812 L 39 0.0507812 L 39 37.300781 L 0 37.300781 Z M 0 0.0507812 " clip-rule="nonzero"/></clipPath><clipPath id="731e34f3ac"><path d="M 33.394531 7.910156 C 34.292969 8.800781 33.964844 11.328125 34.644531 12.296875 C 35.359375 13.308594 39.351562 13.132812 38.691406 16.988281 C 38.164062 20.101562 35.371094 19.484375 34.644531 20.519531 C 34.140625 21.234375 33.910156 23.902344 33.382812 25.265625 C 25.597656 44.152344 7.207031 38.734375 3.878906 20.519531 C 3.074219 19.386719 0.0429688 20.320312 0.0429688 16.40625 C 0.0429688 12.484375 3.140625 13.394531 3.878906 12.308594 C 4.472656 11.4375 3.953125 9.492188 4.921875 8.84375 C 5.613281 8.382812 8.40625 8.316406 9.890625 7.800781 C 12 7.0625 15.671875 5.347656 17.53125 4.160156 C 18.804688 3.347656 21.519531 0.390625 21.972656 0.292969 C 23.347656 -0.015625 24.851562 3.269531 26.0625 4.347656 C 28.117188 6.183594 32.632812 7.171875 33.382812 7.921875 " clip-rule="nonzero"/></clipPath><clipPath id="854e2d490e"><rect x="0" width="39" y="0" height="38"/></clipPath><clipPath id="8155deb415"><path d="M 5.417969 5.402344 L 67.402344 5.402344 L 67.402344 84.164062 L 5.417969 84.164062 Z M 5.417969 5.402344 " clip-rule="nonzero"/></clipPath><clipPath id="1329716f55"><path d="M 33.488281 74.890625 C 37.882812 74.222656 50.800781 76.34375 53.746094 73.761719 C 54.339844 73.230469 55.394531 71.5625 55.230469 70.847656 C 55.019531 69.902344 46.25 66.261719 44.347656 64.40625 C 42.820312 62.898438 42.039062 59.414062 41.003906 58.734375 C 40.160156 58.171875 33.550781 58.128906 32.421875 58.46875 C 28.242188 59.722656 34.257812 71.527344 33.476562 74.902344 M 50.601562 26.953125 C 49.84375 26.207031 45.324219 25.207031 43.28125 23.382812 C 42.070312 22.292969 40.566406 19.015625 39.179688 19.324219 C 38.730469 19.421875 36.015625 22.378906 34.738281 23.195312 C 32.882812 24.382812 29.210938 26.097656 27.101562 26.832031 C 25.617188 27.347656 22.824219 27.414062 22.132812 27.878906 C 21.164062 28.527344 21.679688 30.472656 21.085938 31.339844 C 20.351562 32.429688 17.25 31.515625 17.25 35.441406 C 17.25 39.351562 20.285156 38.40625 21.085938 39.550781 C 24.417969 57.753906 42.796875 63.175781 50.578125 44.300781 C 51.109375 42.9375 51.339844 40.265625 51.84375 39.550781 C 52.582031 38.527344 55.363281 39.132812 55.890625 36.023438 C 56.539062 32.164062 52.558594 32.339844 51.84375 31.328125 C 51.164062 30.371094 51.480469 27.832031 50.589844 26.941406 M 44.105469 56.226562 C 43.511719 57.085938 43.886719 60.261719 45.160156 60.601562 C 47.292969 61.171875 54.746094 56.390625 56.417969 54.644531 C 60.40625 50.488281 61.527344 44.75 61.285156 39.1875 C 61.21875 37.683594 60.417969 36.363281 60.472656 34.714844 C 60.527344 33.042969 61.375 31.503906 61.332031 29.425781 C 61.164062 21.203125 54.789062 10.683594 45.851562 10.222656 C 44.171875 10.136719 42.511719 10.960938 41.457031 10.839844 C 39.90625 10.671875 37.101562 8.398438 34.542969 8.058594 C 28.464844 7.253906 21.636719 8.671875 18.074219 14.046875 C 16.941406 15.753906 16.625 17.929688 15.558594 19.796875 C 13.019531 24.25 9.246094 26.910156 8.710938 32.503906 C 8.390625 35.8125 10.347656 43.5625 11.621094 46.75 C 12.941406 50.015625 16.953125 52.621094 17.523438 55.128906 C 18.734375 60.449219 14.765625 63.601562 15.46875 69.21875 C 16.105469 74.234375 23.976562 84.113281 29 80.585938 C 30.683594 79.398438 30.628906 72.871094 30.398438 70.835938 C 30.101562 68.261719 27.660156 63.339844 27.726562 61.734375 C 27.75 60.996094 28.605469 60.195312 28.804688 59.347656 C 29.695312 55.601562 28.519531 56.65625 26.683594 55.027344 C 23.582031 52.269531 22.019531 50.105469 20.316406 46.332031 C 19.757812 45.101562 19.480469 42.652344 19 42.011719 C 18.691406 41.617188 17.292969 41.199219 16.515625 40.375 C 13.019531 36.671875 14.371094 30.613281 19.054688 28.933594 C 19.613281 28.128906 18.886719 25.570312 19.175781 25.292969 C 19.316406 25.152344 22.054688 25.304688 23.132812 25.117188 C 27.429688 24.359375 31.660156 22.511719 34.980469 19.675781 C 36.300781 18.554688 39.464844 14.222656 39.863281 14.027344 C 41.058594 13.433594 40.863281 14.476562 41.039062 15.082031 C 42.027344 18.699219 44.996094 22.027344 48.503906 23.425781 C 49.601562 23.863281 53.515625 24.402344 53.722656 24.589844 C 54.175781 24.984375 53.285156 28.074219 53.898438 28.933594 C 58.582031 30.613281 59.945312 36.660156 56.4375 40.375 C 55.660156 41.199219 54.261719 41.617188 53.953125 42.011719 C 52.03125 44.542969 51.867188 50.347656 47.699219 54.183594 C 46.875 54.941406 44.269531 56.019531 44.117188 56.238281 M 46.996094 62.886719 L 52.21875 66.296875 C 57.066406 68.375 65.066406 70.988281 66.949219 76.375 C 68.167969 79.871094 65.882812 80.621094 64.683594 78.640625 C 63.945312 77.429688 63.628906 75.464844 62.550781 74.386719 C 61.945312 73.78125 58.703125 71.890625 57.910156 71.890625 C 57.582031 71.890625 56.714844 74.96875 55.25 76.023438 C 49.976562 79.816406 34.71875 76.640625 32.804688 78.015625 C 32.34375 78.34375 30.792969 83.839844 29.992188 83.972656 C 23.417969 85.070312 15.261719 79.144531 13.910156 72.660156 C 13.304688 71.945312 9.785156 75.332031 9.359375 76.003906 C 7.808594 78.464844 10.105469 80.113281 5.640625 79.433594 C 4.421875 74.320312 11.6875 71.804688 12.832031 69.648438 C 13.171875 69 12.953125 65.175781 13.371094 63.472656 C 13.820312 61.65625 15.328125 59.292969 15.4375 57.964844 C 15.679688 54.875 11.316406 52.191406 9.851562 49.289062 C 7.355469 44.367188 5.664062 35.023438 6.578125 29.601562 C 7.203125 25.808594 11.304688 21.789062 13.316406 18.292969 C 14.390625 16.421875 14.699219 14.246094 15.832031 12.542969 C 20.1875 5.992188 27.96875 4.824219 35.300781 5.792969 C 37.554688 6.089844 39.457031 7.683594 41.390625 7.96875 C 43.742188 8.320312 46.402344 7.738281 48.832031 8.046875 C 56.703125 9.058594 62.871094 19.09375 63.550781 26.402344 C 64 31.25 64.023438 36.683594 64.265625 41.519531 C 63.628906 52.378906 57.660156 60.152344 47.007812 62.878906 " clip-rule="nonzero"/></clipPath><clipPath id="de23dd5dc2"><path d="M 0.417969 0.402344 L 62.402344 0.402344 L 62.402344 79.164062 L 0.417969 79.164062 Z M 0.417969 0.402344 " clip-rule="nonzero"/></clipPath><clipPath id="c51dfdffcc"><path d="M 28.488281 69.890625 C 32.882812 69.222656 45.800781 71.34375 48.746094 68.761719 C 49.339844 68.230469 50.394531 66.5625 50.230469 65.847656 C 50.019531 64.902344 41.25 61.261719 39.347656 59.40625 C 37.820312 57.898438 37.039062 54.414062 36.003906 53.734375 C 35.160156 53.171875 28.550781 53.128906 27.421875 53.46875 C 23.242188 54.722656 29.257812 66.527344 28.476562 69.902344 M 45.601562 21.953125 C 44.84375 21.207031 40.324219 20.207031 38.28125 18.382812 C 37.070312 17.292969 35.566406 14.015625 34.179688 14.324219 C 33.730469 14.421875 31.015625 17.378906 29.738281 18.195312 C 27.882812 19.382812 24.210938 21.097656 22.101562 21.832031 C 20.617188 22.347656 17.824219 22.414062 17.132812 22.878906 C 16.164062 23.527344 16.679688 25.472656 16.085938 26.339844 C 15.351562 27.429688 12.25 26.515625 12.25 30.441406 C 12.25 34.351562 15.285156 33.40625 16.085938 34.550781 C 19.417969 52.753906 37.796875 58.175781 45.578125 39.300781 C 46.109375 37.9375 46.339844 35.265625 46.84375 34.550781 C 47.582031 33.527344 50.363281 34.132812 50.890625 31.023438 C 51.539062 27.164062 47.558594 27.339844 46.84375 26.328125 C 46.164062 25.371094 46.480469 22.832031 45.589844 21.941406 M 39.105469 51.226562 C 38.511719 52.085938 38.886719 55.261719 40.160156 55.601562 C 42.292969 56.171875 49.746094 51.390625 51.417969 49.644531 C 55.40625 45.488281 56.527344 39.75 56.285156 34.1875 C 56.21875 32.683594 55.417969 31.363281 55.472656 29.714844 C 55.527344 28.042969 56.375 26.503906 56.332031 24.425781 C 56.164062 16.203125 49.789062 5.683594 40.851562 5.222656 C 39.171875 5.136719 37.511719 5.960938 36.457031 5.839844 C 34.90625 5.671875 32.101562 3.398438 29.542969 3.058594 C 23.464844 2.253906 16.636719 3.671875 13.074219 9.046875 C 11.941406 10.753906 11.625 12.929688 10.558594 14.796875 C 8.019531 19.25 4.246094 21.910156 3.710938 27.503906 C 3.390625 30.8125 5.347656 38.5625 6.621094 41.75 C 7.941406 45.015625 11.953125 47.621094 12.523438 50.128906 C 13.734375 55.449219 9.765625 58.601562 10.46875 64.21875 C 11.105469 69.234375 18.976562 79.113281 24 75.585938 C 25.683594 74.398438 25.628906 67.871094 25.398438 65.835938 C 25.101562 63.261719 22.660156 58.339844 22.726562 56.734375 C 22.75 55.996094 23.605469 55.195312 23.804688 54.347656 C 24.695312 50.601562 23.519531 51.65625 21.683594 50.027344 C 18.582031 47.269531 17.019531 45.105469 15.316406 41.332031 C 14.757812 40.101562 14.480469 37.652344 14 37.011719 C 13.691406 36.617188 12.292969 36.199219 11.515625 35.375 C 8.019531 31.671875 9.371094 25.613281 14.054688 23.933594 C 14.613281 23.128906 13.886719 20.570312 14.175781 20.292969 C 14.316406 20.152344 17.054688 20.304688 18.132812 20.117188 C 22.429688 19.359375 26.660156 17.511719 29.980469 14.675781 C 31.300781 13.554688 34.464844 9.222656 34.863281 9.027344 C 36.058594 8.433594 35.863281 9.476562 36.039062 10.082031 C 37.027344 13.699219 39.996094 17.027344 43.503906 18.425781 C 44.601562 18.863281 48.515625 19.402344 48.722656 19.589844 C 49.175781 19.984375 48.285156 23.074219 48.898438 23.933594 C 53.582031 25.613281 54.945312 31.660156 51.4375 35.375 C 50.660156 36.199219 49.261719 36.617188 48.953125 37.011719 C 47.03125 39.542969 46.867188 45.347656 42.699219 49.183594 C 41.875 49.941406 39.269531 51.019531 39.117188 51.238281 M 41.996094 57.886719 L 47.21875 61.296875 C 52.066406 63.375 60.066406 65.988281 61.949219 71.375 C 63.167969 74.871094 60.882812 75.621094 59.683594 73.640625 C 58.945312 72.429688 58.628906 70.464844 57.550781 69.386719 C 56.945312 68.78125 53.703125 66.890625 52.910156 66.890625 C 52.582031 66.890625 51.714844 69.96875 50.25 71.023438 C 44.976562 74.816406 29.71875 71.640625 27.804688 73.015625 C 27.34375 73.34375 25.792969 78.839844 24.992188 78.972656 C 18.417969 80.070312 10.261719 74.144531 8.910156 67.660156 C 8.304688 66.945312 4.785156 70.332031 4.359375 71.003906 C 2.808594 73.464844 5.105469 75.113281 0.640625 74.433594 C -0.578125 69.320312 6.6875 66.804688 7.832031 64.648438 C 8.171875 64 7.953125 60.175781 8.371094 58.472656 C 8.820312 56.65625 10.328125 54.292969 10.4375 52.964844 C 10.679688 49.875 6.316406 47.191406 4.851562 44.289062 C 2.355469 39.367188 0.664062 30.023438 1.578125 24.601562 C 2.203125 20.808594 6.304688 16.789062 8.316406 13.292969 C 9.390625 11.421875 9.699219 9.246094 10.832031 7.542969 C 15.1875 0.992188 22.96875 -0.175781 30.300781 0.792969 C 32.554688 1.089844 34.457031 2.683594 36.390625 2.96875 C 38.742188 3.320312 41.402344 2.738281 43.832031 3.046875 C 51.703125 4.058594 57.871094 14.09375 58.550781 21.402344 C 59 26.25 59.023438 31.683594 59.265625 36.519531 C 58.628906 47.378906 52.660156 55.152344 42.007812 57.878906 " clip-rule="nonzero"/></clipPath><clipPath id="853216517d"><rect x="0" width="63" y="0" height="80"/></clipPath><clipPath id="091fe39fe3"><path d="M 0.113281 2 L 9 2 L 9 10 L 0.113281 10 Z M 0.113281 2 " clip-rule="nonzero"/></clipPath><clipPath id="7118c8fdbd"><rect x="0" width="68" y="0" height="14"/></clipPath></defs><g clip-path="url(#f34b0faa31)"><g clip-path="url(#f41517b473)"><g transform="matrix(1, 0, 0, 1, 17, 19)"><g clip-path="url(#854e2d490e)"><g clip-path="url(#8019e69213)"><g clip-path="url(#731e34f3ac)"><rect x="-33.17" width="105.84" fill="#ffcbb1" height="150.119995" y="-41.934999" fill-opacity="1"/></g></g></g></g></g></g><g clip-path="url(#8155deb415)"><g clip-path="url(#1329716f55)"><g transform="matrix(1, 0, 0, 1, 5, 5)"><g clip-path="url(#853216517d)"><g clip-path="url(#de23dd5dc2)"><g clip-path="url(#c51dfdffcc)"><rect x="-21.17" width="105.84" fill="#fff8f8" height="150.119995" y="-27.934999" fill-opacity="1"/></g></g></g></g></g></g><g transform="matrix(1, 0, 0, 1, 3, 88)"><g clip-path="url(#7118c8fdbd)"><g clip-path="url(#091fe39fe3)"><g fill="#ffffff" fill-opacity="1"><g transform="translate(0.306815, 9.772046)"><g><path d="M 1.640625 0 L 0.265625 0 L 1.703125 -7.328125 L 3.25 -7.328125 L 4 -2.75 L 6.515625 -7.328125 L 8.140625 -7.328125 L 6.703125 0 L 5.328125 0 L 6.203125 -4.4375 L 4.140625 -0.671875 L 3.140625 -0.671875 L 2.515625 -4.515625 Z M 1.640625 0 "/></g></g></g></g><g fill="#ffffff" fill-opacity="1"><g transform="translate(8.727152, 9.772046)"><g><path d="M 5.546875 -7.328125 L 6.9375 -7.328125 L 6.046875 -2.78125 C 5.847656 -1.757812 5.484375 -1.023438 4.953125 -0.578125 C 4.429688 -0.140625 3.71875 0.078125 2.8125 0.078125 C 2.144531 0.078125 1.609375 -0.109375 1.203125 -0.484375 C 0.804688 -0.859375 0.609375 -1.378906 0.609375 -2.046875 C 0.609375 -2.242188 0.632812 -2.488281 0.6875 -2.78125 L 1.5625 -7.328125 L 2.9375 -7.328125 L 2.0625 -2.765625 C 2.019531 -2.546875 2 -2.359375 2 -2.203125 C 2 -1.878906 2.085938 -1.625 2.265625 -1.4375 C 2.441406 -1.257812 2.703125 -1.171875 3.046875 -1.171875 C 3.921875 -1.171875 4.460938 -1.703125 4.671875 -2.765625 Z M 5.546875 -7.328125 "/></g></g></g><g fill="#ffffff" fill-opacity="1"><g transform="translate(15.871367, 9.772046)"><g><path d="M 1.703125 -7.328125 L 3.078125 -7.328125 L 1.640625 0 L 0.265625 0 Z M 1.703125 -7.328125 "/></g></g></g><g fill="#ffffff" fill-opacity="1"><g transform="translate(19.23951, 9.772046)"><g><path d="M 2.5 -6.078125 L 0.515625 -6.078125 L 0.765625 -7.328125 L 6.109375 -7.328125 L 5.859375 -6.078125 L 3.875 -6.078125 L 2.6875 0 L 1.3125 0 Z M 2.5 -6.078125 "/></g></g></g><g fill="#ffffff" fill-opacity="1"><g transform="translate(24.741501, 9.772046)"><g><path d="M 3.234375 0.078125 C 2.421875 0.078125 1.738281 -0.179688 1.1875 -0.703125 C 0.632812 -1.234375 0.359375 -2 0.359375 -3 C 0.359375 -4.21875 0.695312 -5.226562 1.375 -6.03125 C 2.144531 -6.945312 3.15625 -7.40625 4.40625 -7.40625 C 5.207031 -7.40625 5.890625 -7.140625 6.453125 -6.609375 C 7.003906 -6.078125 7.28125 -5.316406 7.28125 -4.328125 C 7.28125 -3.109375 6.941406 -2.097656 6.265625 -1.296875 C 5.503906 -0.378906 4.492188 0.078125 3.234375 0.078125 Z M 3.34375 -1.171875 C 4.019531 -1.171875 4.597656 -1.453125 5.078125 -2.015625 C 5.597656 -2.628906 5.859375 -3.367188 5.859375 -4.234375 C 5.859375 -4.835938 5.722656 -5.304688 5.453125 -5.640625 C 5.191406 -5.984375 4.804688 -6.15625 4.296875 -6.15625 C 3.617188 -6.15625 3.039062 -5.875 2.5625 -5.3125 C 2.039062 -4.695312 1.78125 -3.957031 1.78125 -3.09375 C 1.78125 -2.488281 1.910156 -2.015625 2.171875 -1.671875 C 2.441406 -1.335938 2.832031 -1.171875 3.34375 -1.171875 Z M 3.34375 -1.171875 "/></g></g></g><g fill="#ffffff" fill-opacity="1"><g transform="translate(32.419181, 9.772046)"><g/></g></g><g fill="#ffffff" fill-opacity="1"><g transform="translate(34.75178, 9.772046)"><g><path d="M 7.21875 -5.09375 L 5.9375 -4.78125 C 5.84375 -5.257812 5.664062 -5.609375 5.40625 -5.828125 C 5.15625 -6.046875 4.804688 -6.15625 4.359375 -6.15625 C 3.609375 -6.15625 2.984375 -5.84375 2.484375 -5.21875 C 2.003906 -4.601562 1.765625 -3.90625 1.765625 -3.125 C 1.765625 -2.5 1.910156 -2.015625 2.203125 -1.671875 C 2.492188 -1.335938 2.890625 -1.171875 3.390625 -1.171875 C 3.828125 -1.171875 4.195312 -1.28125 4.5 -1.5 C 4.8125 -1.726562 5.101562 -2.09375 5.375 -2.59375 L 6.578125 -2.21875 C 6.242188 -1.425781 5.800781 -0.84375 5.25 -0.46875 C 4.695312 -0.101562 4 0.078125 3.15625 0.078125 C 2.363281 0.078125 1.695312 -0.203125 1.15625 -0.765625 C 0.625 -1.328125 0.359375 -2.070312 0.359375 -3 C 0.359375 -4.207031 0.757812 -5.242188 1.5625 -6.109375 C 2.363281 -6.972656 3.378906 -7.40625 4.609375 -7.40625 C 5.367188 -7.40625 5.976562 -7.191406 6.4375 -6.765625 C 6.894531 -6.328125 7.15625 -5.769531 7.21875 -5.09375 Z M 7.21875 -5.09375 "/></g></g></g><g fill="#ffffff" fill-opacity="1"><g transform="translate(42.031972, 9.772046)"><g><path d="M 0.265625 0 L 1.703125 -7.328125 L 3.078125 -7.328125 L 1.890625 -1.25 L 4.890625 -1.25 L 4.640625 0 Z M 0.265625 0 "/></g></g></g><g fill="#ffffff" fill-opacity="1"><g transform="translate(47.471202, 9.772046)"><g><path d="M 5.640625 0 L 4.171875 0 L 3.984375 -1.734375 L 1.671875 -1.734375 L 0.78125 0 L -0.6875 0 L 3.21875 -7.328125 L 4.5625 -7.328125 Z M 3.84375 -2.984375 L 3.5625 -5.5625 L 2.296875 -2.984375 Z M 3.84375 -2.984375 "/></g></g></g><g fill="#ffffff" fill-opacity="1"><g transform="translate(53.747237, 9.772046)"><g><path d="M 6.265625 -5.59375 C 6.265625 -4.957031 6.082031 -4.441406 5.71875 -4.046875 C 5.351562 -3.640625 4.914062 -3.382812 4.40625 -3.28125 L 5.828125 0 L 4.359375 0 L 3 -3.15625 L 2.265625 -3.15625 L 1.640625 0 L 0.265625 0 L 1.703125 -7.328125 L 4.296875 -7.328125 C 4.910156 -7.328125 5.390625 -7.171875 5.734375 -6.859375 C 6.085938 -6.546875 6.265625 -6.125 6.265625 -5.59375 Z M 2.828125 -6.078125 L 2.5 -4.421875 L 3.75 -4.421875 C 4.070312 -4.421875 4.335938 -4.507812 4.546875 -4.6875 C 4.765625 -4.875 4.875 -5.109375 4.875 -5.390625 C 4.875 -5.847656 4.617188 -6.078125 4.109375 -6.078125 Z M 2.828125 -6.078125 "/></g></g></g><g fill="#ffffff" fill-opacity="1"><g transform="translate(60.190623, 9.772046)"><g><path d="M 5.640625 0 L 4.171875 0 L 3.984375 -1.734375 L 1.671875 -1.734375 L 0.78125 0 L -0.6875 0 L 3.21875 -7.328125 L 4.5625 -7.328125 Z M 3.84375 -2.984375 L 3.5625 -5.5625 L 2.296875 -2.984375 Z M 3.84375 -2.984375 "/></g></g></g></g></g></svg>