<svg xmlns="http://www.w3.org/2000/svg" xmlns:xlink="http://www.w3.org/1999/xlink" width="40" zoomAndPan="magnify" viewBox="0 0 30 30.000001" height="40" preserveAspectRatio="xMidYMid meet" version="1.0"><defs><clipPath id="235453b0f8"><path d="M 7.132812 10.144531 L 23.140625 10.144531 L 23.140625 22.769531 L 7.132812 22.769531 Z M 7.132812 10.144531 " clip-rule="nonzero"/></clipPath><clipPath id="b28d717862"><path d="M 21.378906 21.910156 L 21.378906 11.09375 L 22.21875 11.09375 L 22.21875 11.9375 L 8.046875 11.9375 C 7.582031 11.9375 7.207031 11.558594 7.207031 11.09375 C 7.207031 10.628906 7.582031 10.253906 8.046875 10.253906 L 22.21875 10.253906 C 22.683594 10.253906 23.0625 10.628906 23.0625 11.09375 L 23.0625 21.898438 C 23.0625 22.363281 22.683594 22.742188 22.21875 22.742188 C 21.753906 22.742188 21.378906 22.363281 21.378906 21.898438 Z M 21.378906 21.910156 " clip-rule="nonzero"/></clipPath><clipPath id="af6e3fa415"><path d="M 0.132812 0.21875 L 16.140625 0.21875 L 16.140625 12.761719 L 0.132812 12.761719 Z M 0.132812 0.21875 " clip-rule="nonzero"/></clipPath><clipPath id="0ebd9bc415"><path d="M 14.378906 11.910156 L 14.378906 1.09375 L 15.21875 1.09375 L 15.21875 1.9375 L 1.046875 1.9375 C 0.582031 1.9375 0.207031 1.558594 0.207031 1.09375 C 0.207031 0.628906 0.582031 0.253906 1.046875 0.253906 L 15.21875 0.253906 C 15.683594 0.253906 16.0625 0.628906 16.0625 1.09375 L 16.0625 11.898438 C 16.0625 12.363281 15.683594 12.742188 15.21875 12.742188 C 14.753906 12.742188 14.378906 12.363281 14.378906 11.898438 Z M 14.378906 11.910156 " clip-rule="nonzero"/></clipPath><clipPath id="33c9e16887"><rect x="0" width="17" y="0" height="13"/></clipPath><clipPath id="0794f2e3cc"><path d="M 6.683594 6.199219 L 12.769531 6.199219 L 12.769531 16 L 6.683594 16 Z M 6.683594 6.199219 " clip-rule="nonzero"/></clipPath><clipPath id="905d0cfb2f"><path d="M 11.941406 6.28125 L 12.746094 7.148438 L 8.5 11.09375 L 12.757812 15.050781 L 11.953125 15.917969 L 6.765625 11.09375 Z M 11.941406 6.28125 " clip-rule="nonzero"/></clipPath><clipPath id="c432bed841"><path d="M 0.753906 0.269531 L 6.769531 0.269531 L 6.769531 10 L 0.753906 10 Z M 0.753906 0.269531 " clip-rule="nonzero"/></clipPath><clipPath id="0ad306b8e1"><path d="M 5.941406 0.28125 L 6.746094 1.148438 L 2.5 5.09375 L 6.757812 9.050781 L 5.953125 9.917969 L 0.765625 5.09375 Z M 5.941406 0.28125 " clip-rule="nonzero"/></clipPath><clipPath id="9200ab970e"><rect x="0" width="7" y="0" height="10"/></clipPath></defs><g clip-path="url(#235453b0f8)"><g clip-path="url(#b28d717862)"><g transform="matrix(1, 0, 0, 1, 7, 10)"><g clip-path="url(#33c9e16887)"><g clip-path="url(#af6e3fa415)"><g clip-path="url(#0ebd9bc415)"><rect x="-13.6" width="43.2" fill="#e9519c" height="43.200001" y="-16.6" fill-opacity="1"/></g></g></g></g></g></g><g clip-path="url(#0794f2e3cc)"><g clip-path="url(#905d0cfb2f)"><g transform="matrix(1, 0, 0, 1, 6, 6)"><g clip-path="url(#9200ab970e)"><g clip-path="url(#c432bed841)"><g clip-path="url(#0ad306b8e1)"><rect x="-12.6" width="43.2" fill="#e9519c" height="43.200001" y="-12.6" fill-opacity="1"/></g></g></g></g></g></g></svg>