<?xml version="1.0" encoding="UTF-8"?>
<svg id="Camada_1" data-name="Camada 1" xmlns="http://www.w3.org/2000/svg" viewBox="0 0 1080 1080">
  <defs>
    <style>
      .cls-1 {
        fill: #fff;
      }
    </style>
  </defs>
  <path class="cls-1" d="M545.54,173.38c188.71.85,343.49,151.68,343.31,344.62-.18,189.53-153.5,342.45-343.79,342.48-190.54.03-344.16-154.7-343.36-345.19.77-184.54,149.61-341.11,343.84-341.92ZM490.38,810.68c103.08,21.25,225.1-17.53,298.43-119.65,75.57-105.25,72.24-242.52,3.64-342.47-74.59-108.68-198.92-146.22-301.85-125.29v122.61c85.03,12.68,143.73,80.52,149.32,159.14,2.95,41.42-7.81,79.37-32.32,112.93-29.02,39.72-68.68,62.4-117.22,70.15v122.59ZM446.01,688.19c-88.55-13.29-144.07-83.3-149.68-158.15-3.09-41.18,7.16-78.87,31.14-112.58,29.09-40.9,69.3-63.74,118.53-71.83v-110.19c-98.6,30.96-197.15,135.39-200.1,272.85-3.45,160.79,110.56,263.25,200.11,290.32v-110.4ZM467.81,645.27c70.35.01,128.54-57.49,128.63-127.12.09-72.23-57.3-130.09-130.22-129.19-70.96.88-124.51,57.92-126.28,123.43-2.05,75.72,57.61,132.65,127.87,132.88Z"/>
  <path class="cls-1" d="M468.26,432.47c17.97,0,35.94-.05,53.91.02,12.33.05,22.4,7.8,22.6,20.01.5,30.8,1.72,61.8-1.02,92.39-3.17,35.31-31.37,60.58-67.16,65.01-38.41,4.75-73.21-18.22-83.13-55.12-1.37-5.08-2.09-10.49-2.14-15.75-.21-26.47.39-52.95-.28-79.4-.4-15.67,8.42-28.45,27.69-27.35,16.46.94,33.02.19,49.53.19ZM435.76,476.48c0,22.16-.08,43.71.11,65.24.02,2.52,1.17,5.19,2.33,7.53,6.85,13.75,21.14,19.42,39.24,15.73,12.89-2.63,22.75-14.48,23.29-28.88.42-11.14.11-22.3.11-33.45,0-8.63,0-17.25,0-26.16h-65.08Z"/>
</svg>