<svg xmlns="http://www.w3.org/2000/svg" xmlns:xlink="http://www.w3.org/1999/xlink" width="40" zoomAndPan="magnify" viewBox="0 0 30 30.000001" height="40" preserveAspectRatio="xMidYMid meet" version="1.0"><defs><clipPath id="c835f15fbe"><path d="M 0.484375 0 L 29.515625 0 L 29.515625 26.804688 L 0.484375 26.804688 Z M 0.484375 0 " clip-rule="nonzero"/></clipPath><clipPath id="65de1b818c"><path d="M 0.484375 26.597656 C 4.304688 22.792969 8.128906 19 11.949219 15.195312 C 11.933594 15.121094 11.917969 15.054688 11.894531 14.984375 C 11.238281 14.984375 10.574219 14.957031 9.921875 14.992188 C 9.449219 15.007812 9.257812 14.851562 9.285156 14.359375 C 9.316406 13.585938 9.292969 12.800781 9.292969 11.933594 C 9.617188 11.90625 9.890625 11.875 10.167969 11.875 C 11.550781 11.867188 12.941406 11.84375 14.320312 11.882812 C 14.96875 11.898438 15.441406 11.71875 15.910156 11.253906 C 18.453125 8.660156 21.027344 6.109375 23.597656 3.53125 C 23.757812 3.371094 23.90625 3.191406 24.191406 2.878906 L 20.59375 2.878906 L 20.59375 0 L 29.433594 0 C 29.460938 0.210938 29.5 0.410156 29.5 0.605469 C 29.507812 3.246094 29.492188 5.878906 29.515625 8.523438 C 29.523438 9.109375 29.34375 9.308594 28.757812 9.28125 C 27.929688 9.242188 27.097656 9.273438 26.214844 9.273438 L 26.214844 5.90625 C 24.242188 7.898438 22.269531 9.902344 20.324219 11.875 C 20.734375 11.875 21.386719 11.90625 22.035156 11.867188 C 22.582031 11.835938 22.746094 12.039062 22.753906 12.578125 C 22.785156 14.984375 22.800781 14.984375 20.4375 14.984375 C 19.472656 14.984375 18.5 15.015625 17.542969 14.972656 C 16.972656 14.949219 16.570312 15.136719 16.167969 15.539062 C 12.652344 19.078125 9.121094 22.597656 5.601562 26.136719 C 5.144531 26.605469 4.695312 26.832031 4.035156 26.800781 C 2.886719 26.742188 1.742188 26.785156 0.589844 26.785156 C 0.558594 26.71875 0.515625 26.652344 0.484375 26.585938 " clip-rule="nonzero"/></clipPath><clipPath id="1a9cd930eb"><path d="M 0.484375 0 L 29.515625 0 L 29.515625 26.804688 L 0.484375 26.804688 Z M 0.484375 0 " clip-rule="nonzero"/></clipPath><clipPath id="3c3145a1af"><path d="M 0.484375 26.597656 C 4.304688 22.792969 8.128906 19 11.949219 15.195312 C 11.933594 15.121094 11.917969 15.054688 11.894531 14.984375 C 11.238281 14.984375 10.574219 14.957031 9.921875 14.992188 C 9.449219 15.007812 9.257812 14.851562 9.285156 14.359375 C 9.316406 13.585938 9.292969 12.800781 9.292969 11.933594 C 9.617188 11.90625 9.890625 11.875 10.167969 11.875 C 11.550781 11.867188 12.941406 11.84375 14.320312 11.882812 C 14.96875 11.898438 15.441406 11.71875 15.910156 11.253906 C 18.453125 8.660156 21.027344 6.109375 23.597656 3.53125 C 23.757812 3.371094 23.90625 3.191406 24.191406 2.878906 L 20.59375 2.878906 L 20.59375 0 L 29.433594 0 C 29.460938 0.210938 29.5 0.410156 29.5 0.605469 C 29.507812 3.246094 29.492188 5.878906 29.515625 8.523438 C 29.523438 9.109375 29.34375 9.308594 28.757812 9.28125 C 27.929688 9.242188 27.097656 9.273438 26.214844 9.273438 L 26.214844 5.90625 C 24.242188 7.898438 22.269531 9.902344 20.324219 11.875 C 20.734375 11.875 21.386719 11.90625 22.035156 11.867188 C 22.582031 11.835938 22.746094 12.039062 22.753906 12.578125 C 22.785156 14.984375 22.800781 14.984375 20.4375 14.984375 C 19.472656 14.984375 18.5 15.015625 17.542969 14.972656 C 16.972656 14.949219 16.570312 15.136719 16.167969 15.539062 C 12.652344 19.078125 9.121094 22.597656 5.601562 26.136719 C 5.144531 26.605469 4.695312 26.832031 4.035156 26.800781 C 2.886719 26.742188 1.742188 26.785156 0.589844 26.785156 C 0.558594 26.71875 0.515625 26.652344 0.484375 26.585938 " clip-rule="nonzero"/></clipPath><clipPath id="561bf84d68"><rect x="0" width="30" y="0" height="27"/></clipPath></defs><g clip-path="url(#c835f15fbe)"><g clip-path="url(#65de1b818c)"><g transform="matrix(1, 0, 0, 1, 0, 0.000000000000005692)"><g clip-path="url(#561bf84d68)"><g clip-path="url(#1a9cd930eb)"><g clip-path="url(#3c3145a1af)"><path fill="#b71419" d="M 0.484375 0 L 29.488281 0 L 29.488281 26.804688 L 0.484375 26.804688 Z M 0.484375 0 " fill-opacity="1" fill-rule="nonzero"/></g></g></g></g></g></g></svg>