<svg xmlns="http://www.w3.org/2000/svg" xmlns:xlink="http://www.w3.org/1999/xlink" width="40" zoomAndPan="magnify" viewBox="0 0 30 30.000001" height="40" preserveAspectRatio="xMidYMid meet" version="1.0"><defs><clipPath id="1dcb4bd7ee"><path d="M 9.433594 8.617188 L 27.113281 8.617188 L 27.113281 26.183594 L 9.433594 26.183594 Z M 9.433594 8.617188 " clip-rule="nonzero"/></clipPath><clipPath id="dc8d35742b"><path d="M 18.21875 26.179688 C 18.054688 26.042969 17.984375 25.851562 17.933594 25.660156 C 17.8125 25.230469 17.726562 24.796875 17.597656 24.375 C 16.945312 22.242188 15.695312 20.542969 13.847656 19.289062 C 12.84375 18.609375 11.746094 18.160156 10.558594 17.902344 C 10.285156 17.84375 10.019531 17.753906 9.757812 17.660156 C 9.644531 17.621094 9.507812 17.5625 9.511719 17.410156 C 9.519531 17.269531 9.644531 17.210938 9.757812 17.171875 C 10.003906 17.082031 10.253906 16.996094 10.507812 16.941406 C 12.785156 16.449219 14.644531 15.289062 16.074219 13.449219 C 16.933594 12.335938 17.492188 11.082031 17.792969 9.710938 C 17.851562 9.441406 17.9375 9.183594 18.03125 8.921875 C 18.074219 8.796875 18.128906 8.648438 18.285156 8.648438 C 18.4375 8.648438 18.5 8.796875 18.539062 8.917969 C 18.652344 9.269531 18.75 9.636719 18.84375 9.996094 C 19.464844 12.402344 20.808594 14.289062 22.890625 15.648438 C 23.890625 16.304688 24.992188 16.71875 26.164062 16.960938 C 26.355469 17 26.546875 17.058594 26.730469 17.132812 C 26.847656 17.183594 26.949219 17.269531 27.058594 17.34375 L 27.058594 17.488281 C 26.902344 17.636719 26.703125 17.71875 26.496094 17.773438 C 26.210938 17.851562 25.921875 17.914062 25.632812 17.988281 C 22.417969 18.796875 19.859375 21.273438 18.953125 24.453125 C 18.839844 24.855469 18.75 25.265625 18.636719 25.667969 C 18.582031 25.855469 18.511719 26.046875 18.351562 26.175781 Z M 18.21875 26.179688 " clip-rule="nonzero"/></clipPath><clipPath id="029cdc7823"><path d="M 0.433594 0.617188 L 18.113281 0.617188 L 18.113281 18.183594 L 0.433594 18.183594 Z M 0.433594 0.617188 " clip-rule="nonzero"/></clipPath><clipPath id="ff8ed0b5a3"><path d="M 9.21875 18.179688 C 9.054688 18.042969 8.984375 17.851562 8.933594 17.660156 C 8.8125 17.230469 8.726562 16.796875 8.597656 16.375 C 7.945312 14.242188 6.695312 12.542969 4.847656 11.289062 C 3.84375 10.609375 2.746094 10.160156 1.558594 9.902344 C 1.285156 9.84375 1.019531 9.753906 0.757812 9.660156 C 0.644531 9.621094 0.507812 9.5625 0.511719 9.410156 C 0.519531 9.269531 0.644531 9.210938 0.757812 9.171875 C 1.003906 9.082031 1.253906 8.996094 1.507812 8.941406 C 3.785156 8.449219 5.644531 7.289062 7.074219 5.449219 C 7.933594 4.335938 8.492188 3.082031 8.792969 1.710938 C 8.851562 1.441406 8.9375 1.183594 9.03125 0.921875 C 9.074219 0.796875 9.128906 0.648438 9.285156 0.648438 C 9.4375 0.648438 9.5 0.796875 9.539062 0.917969 C 9.652344 1.269531 9.75 1.636719 9.84375 1.996094 C 10.464844 4.402344 11.808594 6.289062 13.890625 7.648438 C 14.890625 8.304688 15.992188 8.71875 17.164062 8.960938 C 17.355469 9 17.546875 9.058594 17.730469 9.132812 C 17.847656 9.183594 17.949219 9.269531 18.058594 9.34375 L 18.058594 9.488281 C 17.902344 9.636719 17.703125 9.71875 17.496094 9.773438 C 17.210938 9.851562 16.921875 9.914062 16.632812 9.988281 C 13.417969 10.796875 10.859375 13.273438 9.953125 16.453125 C 9.839844 16.855469 9.75 17.265625 9.636719 17.667969 C 9.582031 17.855469 9.511719 18.046875 9.351562 18.175781 Z M 9.21875 18.179688 " clip-rule="nonzero"/></clipPath><clipPath id="c99eab8abd"><rect x="0" width="19" y="0" height="19"/></clipPath><clipPath id="7533b76830"><path d="M 2.832031 6 L 12.792969 6 L 12.792969 15.890625 L 2.832031 15.890625 Z M 2.832031 6 " clip-rule="nonzero"/></clipPath><clipPath id="2582c4cd36"><path d="M 2.945312 10.910156 C 3.113281 10.753906 3.335938 10.71875 3.546875 10.675781 C 4.480469 10.472656 5.300781 10.054688 6 9.410156 C 6.820312 8.65625 7.339844 7.734375 7.582031 6.648438 C 7.621094 6.476562 7.675781 6.304688 7.746094 6.148438 C 7.808594 6 7.917969 6 7.980469 6.152344 C 8.046875 6.304688 8.097656 6.472656 8.132812 6.636719 C 8.566406 8.457031 9.644531 9.734375 11.378906 10.433594 C 11.6875 10.554688 12.019531 10.621094 12.339844 10.714844 C 12.429688 10.738281 12.523438 10.761719 12.601562 10.800781 C 12.664062 10.835938 12.714844 10.894531 12.769531 10.945312 C 12.714844 10.996094 12.664062 11.070312 12.597656 11.097656 C 12.472656 11.152344 12.335938 11.1875 12.203125 11.214844 C 10.03125 11.742188 8.671875 13.089844 8.128906 15.253906 C 8.089844 15.417969 8.035156 15.582031 7.976562 15.738281 C 7.957031 15.789062 7.890625 15.847656 7.851562 15.847656 C 7.8125 15.847656 7.75 15.789062 7.730469 15.738281 C 7.671875 15.574219 7.617188 15.414062 7.574219 15.246094 C 7.113281 13.355469 5.972656 12.074219 4.152344 11.398438 C 3.917969 11.308594 3.660156 11.269531 3.417969 11.195312 C 3.257812 11.148438 3.097656 11.070312 2.941406 11.003906 Z M 2.945312 10.910156 " clip-rule="nonzero"/></clipPath><clipPath id="7168e8ee9f"><path d="M 0.832031 0 L 10.792969 0 L 10.792969 9.890625 L 0.832031 9.890625 Z M 0.832031 0 " clip-rule="nonzero"/></clipPath><clipPath id="06aed387f1"><path d="M 0.945312 4.910156 C 1.113281 4.753906 1.335938 4.71875 1.546875 4.675781 C 2.480469 4.472656 3.300781 4.054688 4 3.410156 C 4.820312 2.65625 5.339844 1.734375 5.582031 0.648438 C 5.621094 0.476562 5.675781 0.304688 5.746094 0.148438 C 5.808594 0 5.917969 0 5.980469 0.152344 C 6.046875 0.304688 6.097656 0.472656 6.132812 0.636719 C 6.566406 2.457031 7.644531 3.734375 9.378906 4.433594 C 9.6875 4.554688 10.019531 4.621094 10.339844 4.714844 C 10.429688 4.738281 10.523438 4.761719 10.601562 4.800781 C 10.664062 4.835938 10.714844 4.894531 10.769531 4.945312 C 10.714844 4.996094 10.664062 5.070312 10.597656 5.097656 C 10.472656 5.152344 10.335938 5.1875 10.203125 5.214844 C 8.03125 5.742188 6.671875 7.089844 6.128906 9.253906 C 6.089844 9.417969 6.035156 9.582031 5.976562 9.738281 C 5.957031 9.789062 5.890625 9.847656 5.851562 9.847656 C 5.8125 9.847656 5.75 9.789062 5.730469 9.738281 C 5.671875 9.574219 5.617188 9.414062 5.574219 9.246094 C 5.113281 7.355469 3.972656 6.074219 2.152344 5.398438 C 1.917969 5.308594 1.660156 5.269531 1.417969 5.195312 C 1.257812 5.148438 1.097656 5.070312 0.941406 5.003906 Z M 0.945312 4.910156 " clip-rule="nonzero"/></clipPath><clipPath id="5999ed1f84"><rect x="0" width="11" y="0" height="10"/></clipPath><clipPath id="69f8d6334f"><path d="M 11 2.351562 L 17 2.351562 L 17 8.390625 L 11 8.390625 Z M 11 2.351562 " clip-rule="nonzero"/></clipPath><clipPath id="d5c9787c3a"><path d="M 14.078125 2.464844 C 14.117188 2.566406 14.179688 2.667969 14.203125 2.773438 C 14.523438 4.109375 15.351562 4.925781 16.683594 5.242188 C 16.765625 5.261719 16.84375 5.285156 16.910156 5.316406 C 16.941406 5.324219 16.976562 5.363281 16.976562 5.390625 C 16.976562 5.414062 16.941406 5.453125 16.910156 5.464844 C 16.828125 5.496094 16.738281 5.527344 16.652344 5.550781 C 15.355469 5.867188 14.542969 6.667969 14.210938 7.964844 C 14.1875 8.0625 14.160156 8.15625 14.125 8.25 C 14.113281 8.28125 14.074219 8.316406 14.050781 8.316406 C 14.027344 8.316406 13.984375 8.28125 13.972656 8.25 C 13.9375 8.167969 13.90625 8.082031 13.886719 8 C 13.566406 6.683594 12.753906 5.867188 11.433594 5.546875 C 11.371094 5.53125 11.304688 5.515625 11.246094 5.492188 C 11.199219 5.46875 11.152344 5.421875 11.109375 5.390625 C 11.160156 5.351562 11.199219 5.300781 11.253906 5.28125 C 11.332031 5.246094 11.414062 5.230469 11.5 5.210938 C 12.320312 5.019531 12.964844 4.570312 13.433594 3.867188 C 13.652344 3.542969 13.789062 3.183594 13.878906 2.804688 C 13.90625 2.683594 13.960938 2.566406 14 2.453125 Z M 14.078125 2.464844 " clip-rule="nonzero"/></clipPath><clipPath id="0e7c825ace"><path d="M 0 0.351562 L 6 0.351562 L 6 6.359375 L 0 6.359375 Z M 0 0.351562 " clip-rule="nonzero"/></clipPath><clipPath id="c3b09987f6"><path d="M 3.078125 0.464844 C 3.117188 0.566406 3.179688 0.667969 3.203125 0.773438 C 3.523438 2.109375 4.351562 2.925781 5.683594 3.242188 C 5.765625 3.261719 5.84375 3.285156 5.910156 3.316406 C 5.941406 3.324219 5.976562 3.363281 5.976562 3.390625 C 5.976562 3.414062 5.941406 3.453125 5.910156 3.464844 C 5.828125 3.496094 5.738281 3.527344 5.652344 3.550781 C 4.355469 3.867188 3.542969 4.667969 3.210938 5.964844 C 3.1875 6.0625 3.160156 6.15625 3.125 6.25 C 3.113281 6.28125 3.074219 6.316406 3.050781 6.316406 C 3.027344 6.316406 2.984375 6.28125 2.972656 6.25 C 2.9375 6.167969 2.90625 6.082031 2.886719 6 C 2.566406 4.683594 1.753906 3.867188 0.433594 3.546875 C 0.371094 3.53125 0.304688 3.515625 0.246094 3.492188 C 0.199219 3.46875 0.152344 3.421875 0.109375 3.390625 C 0.160156 3.351562 0.199219 3.300781 0.253906 3.28125 C 0.332031 3.246094 0.414062 3.230469 0.5 3.210938 C 1.320312 3.019531 1.964844 2.570312 2.433594 1.867188 C 2.652344 1.542969 2.789062 1.183594 2.878906 0.804688 C 2.90625 0.683594 2.960938 0.566406 3 0.453125 Z M 3.078125 0.464844 " clip-rule="nonzero"/></clipPath><clipPath id="646c713eeb"><rect x="0" width="6" y="0" height="7"/></clipPath></defs><g clip-path="url(#1dcb4bd7ee)"><g clip-path="url(#dc8d35742b)"><g transform="matrix(1, 0, 0, 1, 9, 8)"><g clip-path="url(#c99eab8abd)"><g clip-path="url(#029cdc7823)"><g clip-path="url(#ff8ed0b5a3)"><rect x="-15.6" width="43.2" fill="#c41123" height="43.200001" y="-14.6" fill-opacity="1"/></g></g></g></g></g></g><g clip-path="url(#7533b76830)"><g clip-path="url(#2582c4cd36)"><g transform="matrix(1, 0, 0, 1, 2, 6)"><g clip-path="url(#5999ed1f84)"><g clip-path="url(#7168e8ee9f)"><g clip-path="url(#06aed387f1)"><rect x="-8.6" width="43.2" fill="#c41123" height="43.200001" y="-12.6" fill-opacity="1"/></g></g></g></g></g></g><g clip-path="url(#69f8d6334f)"><g clip-path="url(#d5c9787c3a)"><g transform="matrix(1, 0, 0, 1, 11, 2)"><g clip-path="url(#646c713eeb)"><g clip-path="url(#0e7c825ace)"><g clip-path="url(#c3b09987f6)"><rect x="-17.6" width="43.2" fill="#c41123" height="43.200001" y="-8.6" fill-opacity="1"/></g></g></g></g></g></g></svg>