<svg xmlns="http://www.w3.org/2000/svg" xmlns:xlink="http://www.w3.org/1999/xlink" width="40" zoomAndPan="magnify" viewBox="0 0 30 30.000001" height="40" preserveAspectRatio="xMidYMid meet" version="1.0"><defs><clipPath id="f3792bda14"><path d="M 4.09375 0 L 25.988281 0 L 25.988281 29.03125 L 4.09375 29.03125 Z M 4.09375 0 " clip-rule="nonzero"/></clipPath><clipPath id="d072b33877"><path d="M 22.3125 18.214844 C 22.320312 14.457031 18.789062 10.898438 15.066406 10.910156 C 11.367188 10.917969 7.8125 14.464844 7.757812 18.207031 C 7.703125 21.648438 11.492188 25.46875 14.960938 25.480469 C 18.613281 25.496094 22.300781 21.84375 22.3125 18.214844 M 9.398438 9.046875 C 7.078125 7.359375 5.410156 5.277344 4.582031 2.601562 C 4.332031 1.808594 4.273438 0.960938 4.09375 0.0078125 C 5.296875 0.0078125 6.328125 -0.0195312 7.359375 0.0351562 C 7.527344 0.0429688 7.757812 0.433594 7.800781 0.671875 C 8.375 3.484375 9.894531 5.585938 12.53125 6.75 C 15.628906 8.109375 19.214844 6.832031 21.109375 3.652344 C 21.746094 2.59375 22.089844 1.359375 22.628906 0.0625 C 23.511719 0.0625 24.625 0.0625 25.742188 0.0625 C 26.351562 2.347656 24.675781 5.382812 20.730469 9.097656 C 24.261719 11.851562 26.574219 15.234375 25.742188 19.945312 C 25.25 22.753906 23.609375 24.957031 21.382812 26.6875 C 16.652344 30.359375 11.039062 29.664062 6.929688 24.976562 C 3.390625 20.941406 2.445312 14.492188 9.398438 9.046875 " clip-rule="nonzero"/></clipPath><clipPath id="2ef9ae7b42"><path d="M 0.09375 0 L 21.988281 0 L 21.988281 29.03125 L 0.09375 29.03125 Z M 0.09375 0 " clip-rule="nonzero"/></clipPath><clipPath id="243d17989f"><path d="M 18.3125 18.214844 C 18.320312 14.457031 14.789062 10.898438 11.066406 10.910156 C 7.367188 10.917969 3.8125 14.464844 3.757812 18.207031 C 3.703125 21.648438 7.492188 25.46875 10.960938 25.480469 C 14.613281 25.496094 18.300781 21.84375 18.3125 18.214844 M 5.398438 9.046875 C 3.078125 7.359375 1.410156 5.277344 0.582031 2.601562 C 0.332031 1.808594 0.273438 0.960938 0.09375 0.0078125 C 1.296875 0.0078125 2.328125 -0.0195312 3.359375 0.0351562 C 3.527344 0.0429688 3.757812 0.433594 3.800781 0.671875 C 4.375 3.484375 5.894531 5.585938 8.53125 6.75 C 11.628906 8.109375 15.214844 6.832031 17.109375 3.652344 C 17.746094 2.59375 18.089844 1.359375 18.628906 0.0625 C 19.511719 0.0625 20.625 0.0625 21.742188 0.0625 C 22.351562 2.347656 20.675781 5.382812 16.730469 9.097656 C 20.261719 11.851562 22.574219 15.234375 21.742188 19.945312 C 21.25 22.753906 19.609375 24.957031 17.382812 26.6875 C 12.652344 30.359375 7.039062 29.664062 2.929688 24.976562 C -0.609375 20.941406 -1.554688 14.492188 5.398438 9.046875 " clip-rule="nonzero"/></clipPath><clipPath id="9ab083733a"><rect x="0" width="22" y="0" height="30"/></clipPath></defs><g clip-path="url(#f3792bda14)"><g clip-path="url(#d072b33877)"><g transform="matrix(1, 0, 0, 1, 4, 0.000000000000005692)"><g clip-path="url(#9ab083733a)"><g clip-path="url(#2ef9ae7b42)"><g clip-path="url(#243d17989f)"><path fill="#b71419" d="M 0.09375 0 L 21.90625 0 L 21.90625 29.050781 L 0.09375 29.050781 Z M 0.09375 0 " fill-opacity="1" fill-rule="nonzero"/></g></g></g></g></g></g></svg>