<?xml version="1.0" encoding="UTF-8"?>
<svg id="Camada_1" data-name="Camada 1" xmlns="http://www.w3.org/2000/svg" viewBox="0 0 1080 1080">
  <defs>
    <style>
      .cls-1 {
        fill: #fff;
      }
    </style>
  </defs>
  <path class="cls-1" d="M554.14,126.93c293.56-.41,448.03,355.92,245.39,569.88-222.38,234.81-616.69,49.41-580.2-274.06,18.81-166.69,167.97-295.59,334.81-295.82ZM531.67,169.41c-197.34,12.27-322.07,209.96-255.31,395.62,90.43,251.48,436.88,266.05,547.31,22.84,95.73-210.82-63.61-432.66-292.01-418.45Z"/>
  <g>
    <path class="cls-1" d="M396.2,593.62c10.8,15.23,19.53,28.09,36.03,37.83,27.35,16.14,61.26,15.18,88.64-.33,44.84-25.42,37.45-86.63,15.08-125.33,40.36,16.41,80.83,28.17,121.85,5.64l53.24,76.82c14.85,32.05-5.18,70.63-40.13,75.78l-231.44.13c-32.88-4.36-54.39-38.94-43.26-70.53ZM657.93,568.8c-32.86-31.94-81.5,17.56-50.97,49.64,33.05,34.73,84.85-16.71,50.97-49.64Z"/>
    <path class="cls-1" d="M607.82,324.75v93.84c0,4.4,2.93,16.17,4.37,20.92,6.33,20.88,25.71,40.39,36.73,59.13.7,2.51-.25,1.48-1.53,2.1-23.58,11.36-45.12,10.65-69.87,4.05-11.43-3.05-45.22-13.67-54.5-18.71-5.11-2.78-9.71-9.69-14.4-13.55-2.98-2.45-18.04-12.37-18.66-13.33-.66-1.03-.91-1.87-.41-3.03,21.03-39.84,10.11-88.12,11.79-131.41h106.48Z"/>
    <path class="cls-1" d="M525.31,608.26c-7.79-16.88-18.81-32.96-30.66-47.21-6.08-7.31-30.3-34.18-37.3-37.29-6.29-2.8-13.27,4.55-9.08,10.45,26.67,23.43,49.98,51.02,66.24,82.74-24.63,16.93-59.77,15.32-83.02-3.38-39.97-32.16-32.29-90.66-61.37-127.64-2.89-3.68-16.57-15.34-16.57-18.08-.02-8.78,28.46-14.48,35.48-15.15,61.96-5.91,123.25,20.01,144.28,81.68,7.9,23.18,11.23,55.49-7.99,73.89Z"/>
    <path class="cls-1" d="M493.03,265.2c37.1-5.06,83.84,2.93,121.95-.18,27.19,1.15,30.15,39.24,4.04,44.97l-130.02-.19c-23.91-7.36-21.5-41.12,4.03-44.6Z"/>
    <path class="cls-1" d="M626.07,573.93c23.34-5.31,38.67,22.9,19.68,36.98-18.31,13.58-42.03-8.39-31.07-27.08,1.68-2.87,8.21-9.17,11.4-9.9Z"/>
  </g>
</svg>